<svg width="29" height="13" viewBox="0 0 29 13" fill="none" xmlns="http://www.w3.org/2000/svg">
<path fill-rule="evenodd" clip-rule="evenodd" d="M3.87099 2.2363C4.41479 2.28217 4.95859 1.96106 5.29846 1.55394C5.63267 1.13536 5.85359 0.573419 5.79695 1.343e-05C5.31546 0.0229497 4.72067 0.321121 4.3808 0.739707C4.06925 1.10095 3.80301 1.68583 3.87099 2.2363ZM10.3401 9.62178V0.68239H13.6539C15.3646 0.68239 16.5599 1.87507 16.5599 3.61823C16.5599 5.36138 15.342 6.56553 13.6086 6.56553H11.711V9.62178H10.3401ZM5.79156 2.34526C5.31248 2.31735 4.87534 2.49111 4.52225 2.63146C4.29503 2.72177 4.10262 2.79825 3.95623 2.79825C3.79195 2.79825 3.5916 2.71768 3.36664 2.62722C3.07187 2.50868 2.73487 2.37316 2.38147 2.37967C1.57143 2.39114 0.818044 2.85559 0.404528 3.59529C-0.445161 5.07467 0.183609 7.26508 1.00498 8.46923C1.40716 9.06558 1.88865 9.71926 2.52309 9.69632C2.8022 9.68566 3.00298 9.59942 3.21076 9.51017C3.44998 9.40742 3.69849 9.30067 4.08651 9.30067C4.46109 9.30067 4.69873 9.40463 4.92685 9.50443C5.14375 9.59932 5.35205 9.69044 5.66127 9.68485C6.31837 9.67339 6.73188 9.08851 7.13407 8.49217C7.56809 7.85213 7.75882 7.22749 7.78777 7.1327L7.79116 7.12173C7.79047 7.12103 7.7851 7.11854 7.77564 7.11416C7.63055 7.04692 6.5216 6.53302 6.51096 5.15495C6.50028 3.99826 7.39056 3.41221 7.5307 3.31996L7.53073 3.31994C7.53924 3.31434 7.54499 3.31056 7.54758 3.30859C6.98112 2.45994 6.09745 2.3682 5.79156 2.34526ZM19.0635 9.69053C19.9245 9.69053 20.7232 9.249 21.0858 8.54945H21.1141V9.62172H22.3829V5.17209C22.3829 3.88193 21.3633 3.05049 19.7942 3.05049C18.3384 3.05049 17.2621 3.8934 17.2225 5.05168H18.4574C18.5593 4.50121 19.0635 4.13996 19.7546 4.13996C20.5929 4.13996 21.0631 4.53561 21.0631 5.26383V5.75696L19.3524 5.86018C17.7606 5.95766 16.8996 6.61707 16.8996 7.76388C16.8996 8.92216 17.789 9.69053 19.0635 9.69053ZM19.432 8.62977C18.7013 8.62977 18.2368 8.27426 18.2368 7.72953C18.2368 7.16759 18.6843 6.84075 19.5397 6.78914L21.0635 6.69166V7.19626C21.0635 8.03343 20.361 8.62977 19.432 8.62977ZM26.592 9.97155C26.0426 11.5369 25.4138 12.053 24.077 12.053C23.975 12.053 23.6351 12.0415 23.5558 12.0186V10.9463C23.6408 10.9578 23.8504 10.9693 23.958 10.9693C24.5641 10.9693 24.904 10.7112 25.1136 10.0404L25.2382 9.64471L22.9157 3.13655H24.3489L25.9633 8.41762H25.9916L27.606 3.13655H28.9995L26.592 9.97155ZM11.7101 1.85209H13.2905C14.4801 1.85209 15.1598 2.4943 15.1598 3.62391C15.1598 4.75352 14.4801 5.40147 13.2848 5.40147H11.7101V1.85209Z" fill="black"/>
</svg>
