<svg width="136" height="111" viewBox="0 0 136 111" fill="none" xmlns="http://www.w3.org/2000/svg">
<circle cx="68" cy="62" r="41" fill="#E8FBFA"/>
<circle cx="68" cy="62" r="30" fill="#D3F2F0"/>
<path opacity="0.99" d="M64.4764 69.506C64.2411 69.5062 64.008 69.4589 63.7906 69.3667C63.5732 69.2745 63.3758 69.1393 63.2097 68.9688L58.1706 63.8126C57.8381 63.4681 57.6523 63.003 57.6538 62.5188C57.6553 62.0346 57.8439 61.5707 58.1785 61.2283C58.5131 60.886 58.9664 60.6929 59.4396 60.6914C59.9128 60.6899 60.3673 60.88 60.704 61.2202L64.4763 65.0802L74.2956 55.0327C74.6323 54.6925 75.0868 54.5024 75.56 54.5039C76.0332 54.5054 76.4865 54.6985 76.8211 55.0408C77.1557 55.3832 77.3443 55.8471 77.3458 56.3313C77.3473 56.8155 77.1615 57.2806 76.829 57.6251L65.7431 68.9689C65.5769 69.1394 65.3795 69.2746 65.1621 69.3668C64.9447 69.4589 64.7117 69.5062 64.4764 69.506Z" fill="white"/>
<path d="M67.5002 43.666C63.9566 43.666 60.4926 44.7412 57.5462 46.7557C54.5998 48.7702 52.3034 51.6335 50.9473 54.9835C49.5913 58.3335 49.2364 62.0197 49.9278 65.576C50.6191 69.1323 52.3255 72.399 54.8312 74.963C57.3369 77.5269 60.5293 79.273 64.0048 79.9804C67.4803 80.6878 71.0827 80.3247 74.3566 78.9371C77.6304 77.5495 80.4286 75.1997 82.3973 72.1848C84.366 69.1699 85.4168 65.6253 85.4168 61.9993C85.4114 57.1388 83.522 52.4788 80.1632 49.0419C76.8043 45.6049 72.2503 43.6716 67.5002 43.666ZM76.8294 57.6237L65.7434 68.9674C65.5771 69.1377 65.3796 69.2728 65.1623 69.365C64.9449 69.4571 64.712 69.5046 64.4767 69.5046C64.2414 69.5046 64.0084 69.4571 63.7911 69.365C63.5737 69.2728 63.3762 69.1377 63.2099 68.9674L58.171 63.8112C57.8385 63.4667 57.6527 63.0016 57.6542 62.5174C57.6557 62.0332 57.8443 61.5693 58.1789 61.2269C58.5134 60.8846 58.9668 60.6915 59.44 60.69C59.9131 60.6885 60.3677 60.8786 60.7044 61.2188L64.4767 65.0788L74.296 55.0313C74.6327 54.6911 75.0872 54.501 75.5604 54.5025C76.0335 54.504 76.4869 54.6971 76.8215 55.0394C77.1561 55.3818 77.3447 55.8457 77.3462 56.3299C77.3476 56.8141 77.1619 57.2792 76.8294 57.6237Z" fill="#01B4AA"/>
<path d="M28.232 7.76796L31.7676 4.23242" stroke="#B5B5B5" stroke-width="1.5" stroke-linecap="round"/>
<path d="M28.232 4.23204L31.7676 7.76758" stroke="#B5B5B5" stroke-width="1.5" stroke-linecap="round"/>
<path d="M104.232 106.768L107.768 103.232" stroke="#B5B5B5" stroke-width="1.5" stroke-linecap="round"/>
<path d="M104.232 103.232L107.768 106.768" stroke="#B5B5B5" stroke-width="1.5" stroke-linecap="round"/>
<g clip-path="url(#clip0_2452_222304)">
<path d="M12.9998 103.666C12.3406 103.666 11.6961 103.862 11.1479 104.228C10.5998 104.594 10.1725 105.115 9.92024 105.724C9.66795 106.333 9.60194 107.003 9.73055 107.65C9.85917 108.296 10.1766 108.89 10.6428 109.356C11.109 109.823 11.7029 110.14 12.3495 110.269C12.9961 110.397 13.6664 110.331 14.2755 110.079C14.8845 109.827 15.4051 109.399 15.7714 108.851C16.1377 108.303 16.3332 107.659 16.3332 106.999C16.3332 106.562 16.247 106.128 16.0794 105.724C15.9119 105.319 15.6664 104.952 15.3569 104.642C15.0473 104.333 14.6799 104.087 14.2755 103.92C13.871 103.752 13.4376 103.666 12.9998 103.666ZM12.9998 109.666C12.4724 109.666 11.9568 109.51 11.5183 109.217C11.0798 108.924 10.738 108.507 10.5362 108.02C10.3343 107.533 10.2815 106.996 10.3844 106.479C10.4873 105.962 10.7413 105.487 11.1142 105.114C11.4872 104.741 11.9623 104.487 12.4796 104.384C12.9969 104.281 13.5331 104.334 14.0203 104.536C14.5076 104.738 14.9241 105.079 15.2171 105.518C15.5101 105.956 15.6665 106.472 15.6665 106.999C15.6665 107.707 15.3856 108.385 14.8855 108.885C14.3854 109.385 13.7071 109.666 12.9998 109.666Z" fill="#B5B5B5"/>
</g>
<g clip-path="url(#clip1_2452_222304)">
<path d="M132 55.666C131.341 55.666 130.696 55.8615 130.148 56.2278C129.6 56.5941 129.173 57.1147 128.92 57.7237C128.668 58.3328 128.602 59.003 128.731 59.6497C128.859 60.2963 129.177 60.8902 129.643 61.3564C130.109 61.8225 130.703 62.14 131.35 62.2686C131.996 62.3973 132.666 62.3312 133.275 62.0789C133.885 61.8267 134.405 61.3994 134.771 60.8512C135.138 60.3031 135.333 59.6586 135.333 58.9993C135.333 58.5616 135.247 58.1282 135.079 57.7237C134.912 57.3193 134.666 56.9519 134.357 56.6423C134.047 56.3328 133.68 56.0873 133.275 55.9198C132.871 55.7522 132.438 55.666 132 55.666ZM132 61.666C131.472 61.666 130.957 61.5096 130.518 61.2166C130.08 60.9236 129.738 60.5071 129.536 60.0198C129.334 59.5326 129.282 58.9964 129.384 58.4791C129.487 57.9618 129.741 57.4867 130.114 57.1137C130.487 56.7408 130.962 56.4868 131.48 56.3839C131.997 56.281 132.533 56.3338 133.02 56.5357C133.508 56.7375 133.924 57.0793 134.217 57.5178C134.51 57.9564 134.667 58.4719 134.667 58.9993C134.667 59.7066 134.386 60.3849 133.885 60.885C133.385 61.3851 132.707 61.666 132 61.666Z" fill="#B5B5B5"/>
</g>
<circle cx="2.5" cy="48.5" r="2.5" fill="#01B4AA"/>
<circle cx="108.5" cy="16.5" r="2.5" fill="#01B4AA"/>
<defs>
<clipPath id="clip0_2452_222304">
<rect width="8" height="8" fill="white" transform="translate(9 103)"/>
</clipPath>
<clipPath id="clip1_2452_222304">
<rect width="8" height="8" fill="white" transform="translate(128 55)"/>
</clipPath>
</defs>
</svg>
