<svg width="30" height="18" viewBox="0 0 30 18" fill="none" xmlns="http://www.w3.org/2000/svg">
<path d="M20.4385 0C25.3519 7.19507e-05 29.335 4.02948 29.335 9C29.335 13.9705 25.3519 17.9999 20.4385 18C18.2355 18 16.2208 17.1883 14.667 15.8467C13.1133 17.188 11.0992 18 8.89648 18C3.98307 17.9999 0 13.9705 0 9C0 4.02952 3.98307 0.000129305 8.89648 0C11.099 0 13.1133 0.811256 14.667 2.15234C16.2207 0.810937 18.2357 0 20.4385 0Z" fill="#ED0006"/>
<path d="M20.4385 0C25.352 0 29.3359 4.02944 29.3359 9C29.3359 13.9706 25.352 18 20.4385 18C18.2358 17.9999 16.2217 17.1881 14.668 15.8467C16.5799 14.1959 17.7939 11.7421 17.7939 9C17.7939 6.25765 16.5802 3.8031 14.668 2.15234C16.2216 0.81115 18.236 9.55906e-05 20.4385 0Z" fill="#F9A000"/>
<path d="M14.666 2.15234C16.5782 3.80303 17.7929 6.25674 17.793 8.99902C17.793 11.7413 16.5781 14.1949 14.666 15.8457C12.7545 14.195 11.541 11.7408 11.541 8.99902C11.5411 6.25719 12.7543 3.80302 14.666 2.15234Z" fill="#FF5E00"/>
</svg>
