<svg width="29" height="10" viewBox="0 0 29 10" fill="none" xmlns="http://www.w3.org/2000/svg">
<path fill-rule="evenodd" clip-rule="evenodd" d="M7.25026 9.18318H4.74051L2.8585 2.00322C2.76917 1.67294 2.5795 1.38095 2.3005 1.24334C1.60423 0.897501 0.836992 0.622269 0 0.483457V0.207028H4.04301C4.60101 0.207028 5.0195 0.622269 5.08925 1.10452L6.06574 6.28367L8.57427 0.207028H11.0143L7.25026 9.18318ZM12.4098 9.18318H10.0396L11.9913 0.207028H14.3616L12.4098 9.18318ZM17.4282 2.69371C17.4979 2.21026 17.9164 1.93383 18.4047 1.93383C19.1719 1.86442 20.0077 2.00324 20.7052 2.34787L21.1237 0.415266C20.4262 0.138838 19.6589 2.48679e-05 18.9627 2.48679e-05C16.6621 2.48679e-05 14.9882 1.24336 14.9882 2.96894C14.9882 4.28168 16.1739 4.97096 17.0109 5.3862C17.9164 5.80024 18.2652 6.07667 18.1954 6.49072C18.1954 7.11178 17.4979 7.38821 16.8016 7.38821C15.9647 7.38821 15.1277 7.18119 14.3616 6.83535L13.9431 8.76916C14.7801 9.1138 15.6857 9.25261 16.5226 9.25261C19.1021 9.32082 20.7052 8.07869 20.7052 6.21429C20.7052 3.86644 17.4282 3.72882 17.4282 2.69371ZM28.9996 9.18318L27.1175 0.207028H25.096C24.6775 0.207028 24.2591 0.483457 24.1196 0.897501L20.6345 9.18318H23.0745L23.5616 7.87164H26.5596L26.8386 9.18318H28.9996ZM25.4461 2.62428L26.1424 6.00724H24.1906L25.4461 2.62428Z" fill="#172B85"/>
</svg>
