<svg width="52" height="52" viewBox="0 0 52 52" fill="none" xmlns="http://www.w3.org/2000/svg">
<circle cx="25.8065" cy="25.8065" r="25.5485" fill="#F7F7F7" stroke="#F3F3F3" stroke-width="0.516131"/>
<g clip-path="url(#clip0_2433_165659)">
<path d="M22.1711 35.8392L13.1614 37.4199L17.8506 29.0424L23.541 28.4102L22.1711 35.8392Z" fill="#15D9CE"/>
<path d="M22.172 35.8392L30.6548 37.4199L29.0215 29.0424L23.5419 28.4102L22.172 35.8392Z" fill="#FFDB7D"/>
<path d="M38.4515 35.8392L30.6536 37.4199L29.0203 29.0424L34.1837 28.4102L38.4515 35.8392Z" fill="#01B4AA"/>
<path d="M31.8134 26.6197L25.8069 32.6261L19.8004 26.6197C16.4811 23.3003 16.4811 17.9261 19.8004 14.6067C23.1198 11.2873 28.494 11.2873 31.8134 14.6067C35.1327 17.9261 35.1327 23.3003 31.8134 26.6197Z" fill="#414141"/>
<path d="M25.8067 15.7637C23.1196 15.7637 20.9594 17.9239 20.9594 20.611C20.9594 23.2981 23.1196 25.4583 25.8067 25.4583C28.4938 25.4583 30.654 23.2981 30.654 20.611C30.654 17.9239 28.4938 15.7637 25.8067 15.7637Z" fill="white"/>
</g>
<defs>
<clipPath id="clip0_2433_165659">
<rect width="25.2904" height="25.2904" fill="white" transform="translate(13.1615 12.1289)"/>
</clipPath>
</defs>
</svg>
