<svg width="52" height="52" viewBox="0 0 52 52" fill="none" xmlns="http://www.w3.org/2000/svg">
<circle cx="25.8065" cy="25.8065" r="25.5485" fill="#F7F7F7" stroke="#F3F3F3" stroke-width="0.516131"/>
<path d="M38.4242 23.5045L25.8061 31.2271L13.188 23.5045C13.2496 23.0775 13.412 22.6712 13.6617 22.3194C13.9114 21.9676 14.2413 21.6803 14.6241 21.4812L25.8061 15.6934L36.9881 21.4812C37.3708 21.6803 37.7008 21.9676 37.9505 22.3194C38.2002 22.6712 38.3626 23.0775 38.4242 23.5045Z" fill="#E25907"/>
<path d="M32.1292 14.9688H19.437C19.0837 14.9686 18.7338 15.0388 18.4078 15.1753C18.0819 15.3118 17.7863 15.5118 17.5384 15.7636C17.2754 16.0278 17.0676 16.3417 16.9271 16.6871C16.7866 17.0324 16.7163 17.4023 16.7201 17.7751L16.7743 29.424C16.7753 29.6629 16.8709 29.8918 17.0401 30.0604C17.2094 30.229 17.4386 30.3236 17.6775 30.3236H33.9357C34.1752 30.3236 34.405 30.2285 34.5743 30.0591C34.7437 29.8897 34.8389 29.66 34.8389 29.4204V17.6784C34.8382 16.96 34.5525 16.2712 34.0444 15.7632C33.5364 15.2552 32.8476 14.9695 32.1292 14.9688Z" fill="white"/>
<path d="M28.5166 19.4842H23.0973C22.8577 19.4842 22.628 19.389 22.4586 19.2196C22.2892 19.0503 22.194 18.8205 22.194 18.581C22.194 18.3414 22.2892 18.1117 22.4586 17.9423C22.628 17.7729 22.8577 17.6777 23.0973 17.6777H28.5166C28.7562 17.6777 28.9859 17.7729 29.1553 17.9423C29.3247 18.1117 29.4199 18.3414 29.4199 18.581C29.4199 18.8205 29.3247 19.0503 29.1553 19.2196C28.9859 19.389 28.7562 19.4842 28.5166 19.4842ZM30.3231 22.1939H21.2908C21.0513 22.1939 20.8215 22.0987 20.6521 21.9293C20.4827 21.7599 20.3876 21.5302 20.3876 21.2906C20.3876 21.0511 20.4827 20.8214 20.6521 20.652C20.8215 20.4826 21.0513 20.3874 21.2908 20.3874H30.3231C30.5626 20.3874 30.7924 20.4826 30.9618 20.652C31.1312 20.8214 31.2263 21.0511 31.2263 21.2906C31.2263 21.5302 31.1312 21.7599 30.9618 21.9293C30.7924 22.0987 30.5626 22.1939 30.3231 22.1939ZM30.3231 24.9036H21.2908C21.0513 24.9036 20.8215 24.8084 20.6521 24.639C20.4827 24.4696 20.3876 24.2399 20.3876 24.0003C20.3876 23.7608 20.4827 23.531 20.6521 23.3617C20.8215 23.1923 21.0513 23.0971 21.2908 23.0971H30.3231C30.5626 23.0971 30.7924 23.1923 30.9618 23.3617C31.1312 23.531 31.2263 23.7608 31.2263 24.0003C31.2263 24.2399 31.1312 24.4696 30.9618 24.639C30.7924 24.8084 30.5626 24.9036 30.3231 24.9036Z" fill="#414141"/>
<path d="M26.2854 31.0904C26.1415 31.179 25.9757 31.2259 25.8067 31.2259C25.6377 31.2259 25.4719 31.179 25.328 31.0904L13.3403 22.9297C13.2236 23.2348 13.163 23.5586 13.1615 23.8853V33.9355C13.1622 34.654 13.4479 35.3428 13.9559 35.8508C14.4639 36.3588 15.1528 36.6445 15.8712 36.6452H35.7422C36.4606 36.6445 37.1495 36.3588 37.6575 35.8508C38.1655 35.3428 38.4512 34.654 38.4519 33.9355V23.8853C38.4504 23.5586 38.3898 23.2348 38.2731 22.9297L26.2854 31.0904Z" fill="#15D9CE"/>
<path d="M38.2077 35.0477C37.9934 35.5227 37.647 35.926 37.2098 36.2095C36.7725 36.493 36.263 36.6447 35.7419 36.6464H15.8708C15.3498 36.6447 14.8402 36.493 14.4029 36.2095C13.9657 35.926 13.6193 35.5227 13.405 35.0477L24.2709 27.569C24.725 27.2643 25.2595 27.1016 25.8064 27.1016C26.3532 27.1016 26.8877 27.2643 27.3418 27.569L38.2077 35.0477Z" fill="#01B4AA"/>
</svg>
