<svg width="52" height="52" viewBox="0 0 52 52" fill="none" xmlns="http://www.w3.org/2000/svg">
<circle cx="25.8065" cy="25.8065" r="25.5485" fill="#F7F7F7" stroke="#F3F3F3" stroke-width="0.516131"/>
<path d="M19.9357 13.8281C23.6715 13.8281 26.71 16.3888 26.71 19.5356C26.6975 20.3071 26.5157 21.0663 26.1775 21.7598C25.8393 22.4532 25.3529 23.0639 24.7527 23.5487C24.9771 24.1699 25.2803 24.7597 25.655 25.3036C25.7435 25.4401 25.7939 25.5979 25.8007 25.7604C25.8076 25.9229 25.7707 26.0843 25.6939 26.2278C25.6172 26.3712 25.5034 26.4915 25.3643 26.576C25.2253 26.6604 25.0662 26.7061 24.9035 26.7082C23.1068 26.8202 21.3275 26.3014 19.8725 25.2413C16.1657 25.2124 13.1615 22.6635 13.1615 19.5356C13.1615 16.3888 16.2 13.8281 19.9357 13.8281Z" fill="#01B4AA"/>
<path d="M22.1947 19.4842H17.6785C17.439 19.4842 17.2092 19.389 17.0398 19.2196C16.8705 19.0503 16.7753 18.8205 16.7753 18.581C16.7753 18.3414 16.8705 18.1117 17.0398 17.9423C17.2092 17.7729 17.439 17.6777 17.6785 17.6777H22.1947C22.4342 17.6777 22.664 17.7729 22.8334 17.9423C23.0027 18.1117 23.0979 18.3414 23.0979 18.581C23.0979 18.8205 23.0027 19.0503 22.8334 19.2196C22.664 19.389 22.4342 19.4842 22.1947 19.4842Z" fill="white"/>
<path d="M22.1947 22.1939H17.6785C17.439 22.1939 17.2092 22.0987 17.0398 21.9293C16.8705 21.7599 16.7753 21.5302 16.7753 21.2906C16.7753 21.0511 16.8705 20.8214 17.0398 20.652C17.2092 20.4826 17.439 20.3874 17.6785 20.3874H22.1947C22.4342 20.3874 22.664 20.4826 22.8334 20.652C23.0027 20.8214 23.0979 21.0511 23.0979 21.2906C23.0979 21.5302 23.0027 21.7599 22.8334 21.9293C22.664 22.0987 22.4342 22.1939 22.1947 22.1939Z" fill="white"/>
<path d="M28.8189 20.7384L31.0924 22.9242L35.1316 15.5196L33.9989 14.3842C33.7012 14.09 33.3397 13.8684 32.9424 13.7365C32.5452 13.6046 32.1229 13.566 31.7084 13.6236C31.2938 13.6813 30.8981 13.8337 30.5519 14.0689C30.2057 14.3042 29.9184 14.6161 29.7122 14.9803L28.3285 17.466C28.0376 17.9891 27.9279 18.5938 28.0167 19.1857C28.1054 19.7776 28.3875 20.3236 28.8189 20.7384ZM14.9489 33.6401L15.9777 34.6734L23.3869 30.6324L21.2417 28.4592C20.8246 28.0386 20.2814 27.7658 19.695 27.6823C19.1085 27.5988 18.5108 27.7092 17.9928 27.9968L15.5478 29.3625C15.1848 29.5685 14.874 29.8553 14.6394 30.2006C14.4048 30.5458 14.2527 30.9404 14.1948 31.3538C14.1369 31.7672 14.1748 32.1884 14.3056 32.5848C14.4364 32.9812 14.6565 33.3423 14.9489 33.6401Z" fill="#414141"/>
<path d="M14.6472 33.3385L18.411 37.1131C19.2184 37.7846 20.2588 38.1094 21.3049 38.0163C24.4807 38.0163 29.5442 36.162 33.0776 32.6177C37.9063 27.7755 39.7154 20.1171 37.5396 17.9367L33.8002 14.1855L29.7402 21.6263L30.4185 22.2785C30.4763 22.3417 32.3288 24.4146 28.6048 28.1495C24.8817 31.8834 22.8034 30.0363 22.7158 29.9559L22.0654 29.2939L14.6472 33.3385Z" fill="#01B4AA"/>
</svg>
