<svg width="21" height="24" viewBox="0 0 21 24" fill="none" xmlns="http://www.w3.org/2000/svg">
<path d="M11.6973 4.18C11.5647 4.18 11.4375 4.12732 11.3437 4.03355C11.2499 3.93979 11.1973 3.81261 11.1973 3.68V2C11.1973 1.449 10.7483 1 10.1973 1C9.64627 1 9.19727 1.449 9.19727 2V3.68C9.19727 3.81261 9.14459 3.93979 9.05082 4.03355C8.95705 4.12732 8.82987 4.18 8.69727 4.18C8.56466 4.18 8.43748 4.12732 8.34371 4.03355C8.24994 3.93979 8.19727 3.81261 8.19727 3.68V2C8.19727 0.897 9.09427 0 10.1973 0C11.3003 0 12.1973 0.897 12.1973 2V3.68C12.1973 3.81261 12.1446 3.93979 12.0508 4.03355C11.9571 4.12732 11.8299 4.18 11.6973 4.18ZM10.1973 24C8.26727 24 6.69727 22.43 6.69727 20.5C6.69727 20.3674 6.74994 20.2402 6.84371 20.1464C6.93748 20.0527 7.06466 20 7.19727 20C7.32987 20 7.45705 20.0527 7.55082 20.1464C7.64459 20.2402 7.69727 20.3674 7.69727 20.5C7.69727 21.878 8.81927 23 10.1973 23C11.5753 23 12.6973 21.878 12.6973 20.5C12.6973 20.3674 12.7499 20.2402 12.8437 20.1464C12.9375 20.0527 13.0647 20 13.1973 20C13.3299 20 13.4571 20.0527 13.5508 20.1464C13.6446 20.2402 13.6973 20.3674 13.6973 20.5C13.6973 22.43 12.1273 24 10.1973 24Z" fill="#A9A9A9" stroke="#A9A9A9" stroke-width="0.4"/>
<path d="M18.6969 21H1.69692C1.39079 20.9989 1.0923 20.9043 0.841424 20.7289C0.590549 20.5535 0.399273 20.3055 0.293215 20.0184C0.187156 19.7312 0.17138 19.4185 0.248 19.1221C0.32462 18.8257 0.489976 18.5598 0.721921 18.36C1.49759 17.7071 2.12106 16.8924 2.5486 15.973C2.97615 15.0536 3.19743 14.0519 3.19692 13.038V10C3.19692 6.14 6.33692 3 10.1969 3C14.0569 3 17.1969 6.14 17.1969 10V13.038C17.1969 15.091 18.0959 17.028 19.6639 18.353C19.8986 18.5515 20.0666 18.8172 20.1454 19.1143C20.2242 19.4113 20.2099 19.7254 20.1044 20.0141C19.999 20.3027 19.8074 20.5521 19.5557 20.7284C19.304 20.9047 19.0042 20.9995 18.6969 21ZM10.1969 4C6.88792 4 4.19692 6.691 4.19692 10V13.038C4.19803 14.1956 3.94612 15.3395 3.45883 16.3895C2.97155 17.4396 2.26066 18.3705 1.37592 19.117C1.29735 19.1829 1.24096 19.2714 1.2144 19.3705C1.18784 19.4696 1.19238 19.5744 1.22743 19.6708C1.26247 19.7672 1.32632 19.8505 1.4103 19.9094C1.49429 19.9683 1.59435 19.9999 1.69692 20H18.6969C18.7991 20 18.8989 19.9687 18.9828 19.9103C19.0666 19.8518 19.1306 19.7691 19.166 19.6732C19.2014 19.5773 19.2066 19.4729 19.1808 19.374C19.1551 19.2751 19.0996 19.1864 19.0219 19.12C18.1364 18.3733 17.4247 17.442 16.9367 16.3914C16.4488 15.3409 16.1963 14.1964 16.1969 13.038V10C16.1969 6.691 13.5059 4 10.1969 4Z" fill="#A9A9A9" stroke="#A9A9A9" stroke-width="0.4"/>
</svg>
