<svg width="18" height="20" viewBox="0 0 18 20" fill="none" xmlns="http://www.w3.org/2000/svg">
<path d="M3 3.75C3 3.55109 3.07902 3.36032 3.21967 3.21967C3.36032 3.07902 3.55109 3 3.75 3H11.75C11.9489 3 12.1397 3.07902 12.2803 3.21967C12.421 3.36032 12.5 3.55109 12.5 3.75C12.5 3.94891 12.421 4.13968 12.2803 4.28033C12.1397 4.42098 11.9489 4.5 11.75 4.5H3.75C3.55109 4.5 3.36032 4.42098 3.21967 4.28033C3.07902 4.13968 3 3.94891 3 3.75ZM4.75 9H3.75C3.55109 9 3.36032 9.07902 3.21967 9.21967C3.07902 9.36032 3 9.55109 3 9.75C3 9.94891 3.07902 10.1397 3.21967 10.2803C3.36032 10.421 3.55109 10.5 3.75 10.5H4.75C4.94891 10.5 5.13968 10.421 5.28033 10.2803C5.42098 10.1397 5.5 9.94891 5.5 9.75C5.5 9.55109 5.42098 9.36032 5.28033 9.21967C5.13968 9.07902 4.94891 9 4.75 9ZM3.75 7.5H7.75C7.94891 7.5 8.13968 7.42098 8.28033 7.28033C8.42098 7.13968 8.5 6.94891 8.5 6.75C8.5 6.55109 8.42098 6.36032 8.28033 6.21967C8.13968 6.07902 7.94891 6 7.75 6H3.75C3.55109 6 3.36032 6.07902 3.21967 6.21967C3.07902 6.36032 3 6.55109 3 6.75C3 6.94891 3.07902 7.13968 3.21967 7.28033C3.36032 7.42098 3.55109 7.5 3.75 7.5ZM13.705 13H12.5V11.715C12.5 11.5161 12.421 11.3253 12.2803 11.1847C12.1397 11.044 11.9489 10.965 11.75 10.965C11.5511 10.965 11.3603 11.044 11.2197 11.1847C11.079 11.3253 11 11.5161 11 11.715V13.75C11 14.164 11.336 14.5 11.75 14.5H13.705C13.9039 14.5 14.0947 14.421 14.2353 14.2803C14.376 14.1397 14.455 13.9489 14.455 13.75C14.455 13.5511 14.376 13.3603 14.2353 13.2197C14.0947 13.079 13.9039 13 13.705 13ZM17.5 13.75C17.5 16.92 14.921 19.5 11.75 19.5C10.5954 19.501 9.46759 19.1524 8.515 18.5H2.75C2.02082 18.4995 1.32165 18.2096 0.806041 17.694C0.290431 17.1784 0.000529737 16.4792 0 15.75V2.75C0.000529737 2.02082 0.290431 1.32165 0.806041 0.806042C1.32165 0.290431 2.02082 0.000529737 2.75 0H12.75C13.4792 0.000529737 14.1783 0.290431 14.694 0.806042C15.2096 1.32165 15.4995 2.02082 15.5 2.75V9.401C16.127 9.93907 16.6302 10.6062 16.9754 11.3569C17.3206 12.1075 17.4996 12.9238 17.5 13.75ZM2.75 17H7.011C6.35145 16.0446 5.99878 14.9109 6 13.75C6 10.58 8.579 8 11.75 8C12.5233 7.99933 13.2887 8.15548 14 8.459V2.75C14 2.061 13.439 1.5 12.75 1.5H2.75C2.061 1.5 1.5 2.061 1.5 2.75V15.75C1.5 16.439 2.061 17 2.75 17ZM16 13.75C16 11.407 14.094 9.5 11.75 9.5C9.406 9.5 7.5 11.407 7.5 13.75C7.5 16.093 9.406 18 11.75 18C14.094 18 16 16.093 16 13.75Z" fill="#A9A9A9"/>
</svg>
