<svg width="22" height="21" viewBox="0 0 22 21" fill="none" xmlns="http://www.w3.org/2000/svg">
<path fill-rule="evenodd" clip-rule="evenodd" d="M0.25 4.75C0.25 3.55653 0.724106 2.41193 1.56802 1.56802C2.41193 0.724106 3.55653 0.25 4.75 0.25H10.25C11.3109 0.25 12.3283 0.671427 13.0784 1.42157C13.8286 2.17172 14.25 3.18913 14.25 4.25V5.25C14.25 5.51522 14.1446 5.76957 13.9571 5.95711C13.7696 6.14464 13.5152 6.25 13.25 6.25C12.9848 6.25 12.7304 6.14464 12.5429 5.95711C12.3554 5.76957 12.25 5.51522 12.25 5.25V4.25C12.25 3.71957 12.0393 3.21086 11.6642 2.83579C11.2891 2.46071 10.7804 2.25 10.25 2.25H4.75C4.08696 2.25 3.45107 2.51339 2.98223 2.98223C2.51339 3.45107 2.25 4.08696 2.25 4.75V15.75C2.25 16.413 2.51339 17.0489 2.98223 17.5178C3.45107 17.9866 4.08696 18.25 4.75 18.25H10.25C10.7804 18.25 11.2891 18.0393 11.6642 17.6642C12.0393 17.2891 12.25 16.7804 12.25 16.25V15.25C12.25 14.9848 12.3554 14.7304 12.5429 14.5429C12.7304 14.3554 12.9848 14.25 13.25 14.25C13.5152 14.25 13.7696 14.3554 13.9571 14.5429C14.1446 14.7304 14.25 14.9848 14.25 15.25V16.25C14.25 17.3109 13.8286 18.3283 13.0784 19.0784C12.3283 19.8286 11.3109 20.25 10.25 20.25H4.75C3.55653 20.25 2.41193 19.7759 1.56802 18.932C0.724106 18.0881 0.25 16.9435 0.25 15.75V4.75ZM16.543 6.543C16.7305 6.35553 16.9848 6.25021 17.25 6.25021C17.5152 6.25021 17.7695 6.35553 17.957 6.543L20.957 9.543C21.1445 9.73053 21.2498 9.98484 21.2498 10.25C21.2498 10.5152 21.1445 10.7695 20.957 10.957L17.957 13.957C17.7684 14.1392 17.5158 14.24 17.2536 14.2377C16.9914 14.2354 16.7406 14.1302 16.5552 13.9448C16.3698 13.7594 16.2646 13.5086 16.2623 13.2464C16.26 12.9842 16.3608 12.7316 16.543 12.543L17.836 11.25H9.25C8.98478 11.25 8.73043 11.1446 8.54289 10.9571C8.35536 10.7696 8.25 10.5152 8.25 10.25C8.25 9.98478 8.35536 9.73043 8.54289 9.54289C8.73043 9.35536 8.98478 9.25 9.25 9.25H17.836L16.543 7.957C16.3555 7.76947 16.2502 7.51516 16.2502 7.25C16.2502 6.98484 16.3555 6.73053 16.543 6.543Z" fill="#A9A9A9" stroke="white" stroke-width="0.5"/>
</svg>
