<svg width="24" height="24" viewBox="0 0 24 24" fill="none" xmlns="http://www.w3.org/2000/svg">
<path d="M21.0315 16.7864L18.1274 14.7573C17.886 14.5887 17.6138 14.4694 17.3263 14.406C17.0389 14.3427 16.7417 14.3366 16.4519 14.3882C16.1621 14.4397 15.8852 14.5478 15.6372 14.7064C15.3891 14.8649 15.1748 15.0708 15.0063 15.3122L14.3322 16.2786C13.2026 15.521 11.9417 14.4632 10.74 13.261C9.53872 12.0598 8.48089 10.7989 7.72337 9.66932L8.68887 8.99517C8.93117 8.82755 9.13774 8.61343 9.29656 8.36526C9.45538 8.1171 9.5633 7.83985 9.61403 7.54961C9.66595 7.25965 9.65997 6.96227 9.59642 6.67463C9.53288 6.38698 9.41303 6.11476 9.24378 5.87366L7.21552 2.96998C6.79104 2.36307 6.10613 2 5.38447 2C5.13542 1.99991 4.88834 2.04408 4.65474 2.13044C4.39069 2.22739 4.13755 2.35178 3.89946 2.50158L3.49829 2.78397C3.39901 2.86213 3.3047 2.94642 3.2159 3.03632C2.72643 3.5249 2.3795 4.14436 2.18362 4.87588C1.34766 8.00905 3.41806 12.7474 7.33609 16.6649C10.6261 19.955 14.5782 21.999 17.6505 21.999C18.1771 21.999 18.6729 21.938 19.1252 21.817C19.8571 21.6215 20.4761 21.2746 20.9652 20.7851C21.0544 20.6959 21.1391 20.6027 21.2301 20.4848L21.5125 20.0818C21.6563 19.8495 21.7761 19.6032 21.8701 19.3467C22.2122 18.4234 21.867 17.37 21.0315 16.786V16.7864ZM21.0297 19.0357C20.9599 19.2276 20.8717 19.4122 20.7661 19.587L20.5098 19.9523C20.4546 20.024 20.3937 20.089 20.3309 20.1522C19.9548 20.5278 19.4712 20.7972 18.8939 20.9519C18.5173 21.0518 18.0991 21.1034 17.6509 21.1034C14.8073 21.1029 11.0977 19.1598 7.9699 16.0316C4.32843 12.3901 2.30509 7.89879 3.04916 5.10807C3.20335 4.53029 3.47274 4.04665 3.84881 3.67058C3.91157 3.60782 3.97701 3.54686 4.0308 3.50473L4.39387 3.24879C4.56465 3.14166 4.75694 3.04887 4.96492 2.97178C5.09939 2.92247 5.24014 2.89692 5.38402 2.89692C5.81388 2.89692 6.22357 3.11656 6.47996 3.48321L8.50823 6.38644C8.60993 6.53112 8.68202 6.69448 8.72036 6.86713C8.7587 7.03977 8.76252 7.2183 8.73161 7.39243C8.7007 7.56655 8.63567 7.73285 8.54025 7.88176C8.44484 8.03066 8.32092 8.15923 8.17564 8.26007L6.85379 9.18209C6.75942 9.24801 6.69402 9.34771 6.67116 9.46053C6.64829 9.57335 6.66971 9.69064 6.73097 9.7881C7.53107 11.0611 8.72921 12.5192 10.1057 13.8953C11.4818 15.2714 12.9404 16.47 14.2125 17.2701C14.3101 17.3311 14.4273 17.3523 14.5401 17.3293C14.6528 17.3064 14.7525 17.2411 14.8185 17.1468L15.741 15.8249C16.1502 15.2378 17.0238 15.0809 17.6146 15.4924L20.5174 17.5206C21.0189 17.8716 21.2296 18.4946 21.0297 19.0357Z" fill="#A9A9A9" stroke="#A9A9A9" stroke-width="0.5"/>
</svg>
