<svg width="18" height="22" viewBox="0 0 18 22" fill="none" xmlns="http://www.w3.org/2000/svg">
<path fill-rule="evenodd" clip-rule="evenodd" d="M13.308 1.551L13.189 1.197C13.0729 0.848511 12.8502 0.545379 12.5522 0.330545C12.2543 0.115711 11.8963 6.89687e-05 11.529 0H5.971C5.60369 6.89687e-05 5.24571 0.115711 4.94778 0.330545C4.64985 0.545379 4.42707 0.848511 4.311 1.197L4.192 1.551C4.06488 1.9335 4.00005 2.33393 4 2.737V2.75C4 3.214 4.184 3.659 4.513 3.987C4.841 4.316 5.286 4.5 5.75 4.5H11.75C12.214 4.5 12.659 4.316 12.987 3.987C13.316 3.659 13.5 3.214 13.5 2.75V2.737C13.5 2.334 13.435 1.933 13.308 1.551ZM11.766 1.671L11.885 2.025C11.961 2.255 12 2.495 12 2.737V2.75C12 2.8163 11.9737 2.87989 11.9268 2.92678C11.8799 2.97366 11.8163 3 11.75 3H5.75C5.6837 3 5.62011 2.97366 5.57322 2.92678C5.52634 2.87989 5.5 2.8163 5.5 2.75V2.737C5.5 2.495 5.539 2.255 5.615 2.025L5.734 1.671C5.75057 1.62124 5.78238 1.57795 5.82491 1.54726C5.86744 1.51657 5.91855 1.50004 5.971 1.5H11.529C11.5814 1.50004 11.6326 1.51657 11.6751 1.54726C11.7176 1.57795 11.7494 1.62124 11.766 1.671Z" fill="#A9A9A9"/>
<path fill-rule="evenodd" clip-rule="evenodd" d="M4.75 1.5H2.75C2.02065 1.5 1.32118 1.78973 0.805456 2.30546C0.289731 2.82118 0 3.52065 0 4.25V18.75C0 19.4793 0.289731 20.1788 0.805456 20.6945C1.32118 21.2103 2.02065 21.5 2.75 21.5H14.75C15.4793 21.5 16.1788 21.2103 16.6945 20.6945C17.2103 20.1788 17.5 19.4793 17.5 18.75V4.25C17.5 3.52065 17.2103 2.82118 16.6945 2.30546C16.1788 1.78973 15.4793 1.5 14.75 1.5H12.75C12.5511 1.5 12.3603 1.57902 12.2197 1.71967C12.079 1.86032 12 2.05109 12 2.25C12 2.44891 12.079 2.63968 12.2197 2.78033C12.3603 2.92098 12.5511 3 12.75 3H14.75C15.44 3 16 3.56 16 4.25V18.75C16 19.44 15.44 20 14.75 20H2.75C2.06 20 1.5 19.44 1.5 18.75V4.25C1.5 3.56 2.06 3 2.75 3H4.75C4.94891 3 5.13968 2.92098 5.28033 2.78033C5.42098 2.63968 5.5 2.44891 5.5 2.25C5.5 2.05109 5.42098 1.86032 5.28033 1.71967C5.13968 1.57902 4.94891 1.5 4.75 1.5Z" fill="#A9A9A9"/>
<path fill-rule="evenodd" clip-rule="evenodd" d="M5.75 9.25H11.75C11.9489 9.25 12.1397 9.17098 12.2803 9.03033C12.421 8.88968 12.5 8.69891 12.5 8.5C12.5 8.30109 12.421 8.11032 12.2803 7.96967C12.1397 7.82902 11.9489 7.75 11.75 7.75H5.75C5.55109 7.75 5.36032 7.82902 5.21967 7.96967C5.07902 8.11032 5 8.30109 5 8.5C5 8.69891 5.07902 8.88968 5.21967 9.03033C5.36032 9.17098 5.55109 9.25 5.75 9.25ZM4.25 13H13.25C13.4489 13 13.6397 12.921 13.7803 12.7803C13.921 12.6397 14 12.4489 14 12.25C14 12.0511 13.921 11.8603 13.7803 11.7197C13.6397 11.579 13.4489 11.5 13.25 11.5H4.25C4.05109 11.5 3.86032 11.579 3.71967 11.7197C3.57902 11.8603 3.5 12.0511 3.5 12.25C3.5 12.4489 3.57902 12.6397 3.71967 12.7803C3.86032 12.921 4.05109 13 4.25 13ZM4.25 16.75H13.25C13.4489 16.75 13.6397 16.671 13.7803 16.5303C13.921 16.3897 14 16.1989 14 16C14 15.8011 13.921 15.6103 13.7803 15.4697C13.6397 15.329 13.4489 15.25 13.25 15.25H4.25C4.05109 15.25 3.86032 15.329 3.71967 15.4697C3.57902 15.6103 3.5 15.8011 3.5 16C3.5 16.1989 3.57902 16.3897 3.71967 16.5303C3.86032 16.671 4.05109 16.75 4.25 16.75Z" fill="#A9A9A9"/>
</svg>
