<svg width="23" height="22" viewBox="0 0 23 22" fill="none" xmlns="http://www.w3.org/2000/svg">
<path d="M21.1575 7.52684C20.7199 7.46327 20.3022 7.3018 19.9356 7.05443C19.5691 6.80707 19.263 6.4802 19.0403 6.09816C18.8175 5.71612 18.6839 5.28875 18.6492 4.84788C18.6145 4.40702 18.6797 3.96401 18.84 3.55184C18.9419 3.28239 18.9569 2.9878 18.8829 2.70939C18.809 2.43097 18.6497 2.18269 18.4275 1.99934C17.4465 1.17559 16.3299 0.528474 15.1275 0.0868418C14.8537 -0.014871 14.5548 -0.0275792 14.2733 0.0505275C13.9919 0.128634 13.7423 0.293572 13.56 0.521842C13.2857 0.872582 12.9352 1.15626 12.5349 1.35135C12.1347 1.54645 11.6953 1.64784 11.25 1.64784C10.8048 1.64784 10.3653 1.54645 9.96511 1.35135C9.56487 1.15626 9.21431 0.872582 8.94002 0.521842C8.75778 0.293572 8.50816 0.128634 8.2267 0.0505275C7.94525 -0.0275792 7.64633 -0.014871 7.37252 0.0868418C6.26227 0.494573 5.22421 1.0769 4.29752 1.81184C4.06392 1.99677 3.89567 2.25162 3.81739 2.53908C3.73912 2.82654 3.75493 3.13152 3.86252 3.40934C4.03558 3.83241 4.10709 4.29015 4.0713 4.74584C4.0355 5.20153 3.89341 5.6425 3.65642 6.03336C3.41942 6.42421 3.09412 6.75409 2.70661 6.99652C2.3191 7.23895 1.88017 7.38719 1.42502 7.42934C1.12952 7.46094 0.851979 7.58657 0.63325 7.78775C0.41452 7.98892 0.266161 8.25501 0.210016 8.54684C0.0703645 9.23812 1.62303e-05 9.9416 1.62303e-05 10.6468C-0.00101022 11.2373 0.0466513 11.8268 0.142516 12.4093C0.190227 12.7105 0.335826 12.9876 0.556801 13.1977C0.777776 13.4079 1.06182 13.5393 1.36502 13.5718C1.83016 13.6155 2.27808 13.7699 2.67129 14.0222C3.0645 14.2745 3.39156 14.6173 3.62509 15.022C3.85862 15.4266 3.99182 15.8813 4.01356 16.348C4.03529 16.8146 3.94493 17.2798 3.75002 17.7043C3.62246 17.9805 3.59082 18.2914 3.66012 18.5876C3.72942 18.8838 3.89568 19.1484 4.13252 19.3393C5.1076 20.1481 6.21345 20.7848 7.40252 21.2218C7.55457 21.2745 7.71411 21.3024 7.87502 21.3043C8.09564 21.3039 8.31294 21.2505 8.50869 21.1487C8.70443 21.0469 8.87292 20.8997 9.00002 20.7193C9.26733 20.3299 9.62566 20.0115 10.0439 19.792C10.4621 19.5724 10.9276 19.4582 11.4 19.4593C11.8577 19.4599 12.3089 19.5674 12.7178 19.7731C13.1266 19.9788 13.4818 20.2771 13.755 20.6443C13.9367 20.8886 14.1942 21.066 14.4872 21.1487C14.7802 21.2315 15.0923 21.215 15.375 21.1018C16.4623 20.6643 17.4745 20.0595 18.375 19.3093C18.6012 19.1223 18.7623 18.8684 18.8351 18.584C18.9078 18.2997 18.8886 17.9995 18.78 17.7268C18.6036 17.3092 18.5267 16.8563 18.5553 16.4039C18.584 15.9515 18.7174 15.5119 18.9451 15.1198C19.1727 14.7278 19.4884 14.394 19.8671 14.1449C20.2459 13.8958 20.6774 13.7381 21.1275 13.6843C21.4194 13.644 21.6909 13.5117 21.9026 13.3068C22.1143 13.1018 22.2552 12.8348 22.305 12.5443C22.4255 11.9188 22.4907 11.2838 22.5 10.6468C22.5002 9.97495 22.4374 9.30453 22.3125 8.64434C22.2619 8.36032 22.123 8.09947 21.9157 7.89886C21.7083 7.69825 21.4431 7.56808 21.1575 7.52684ZM20.8425 12.2068C20.1824 12.3033 19.5526 12.5475 19 12.9212C18.4474 13.2949 17.9863 13.7886 17.651 14.3653C17.3158 14.9421 17.1151 15.5871 17.0638 16.2522C17.0125 16.9174 17.1121 17.5855 17.355 18.2068C16.6113 18.8301 15.7767 19.3359 14.88 19.7068C14.4674 19.1707 13.9368 18.7368 13.3294 18.439C12.7219 18.1411 12.054 17.9873 11.3775 17.9893C10.6814 17.9931 9.99594 18.1599 9.37597 18.4764C8.756 18.7929 8.21883 19.2503 7.80752 19.8118C6.83628 19.4424 5.92997 18.9209 5.12252 18.2668C5.39611 17.6378 5.51893 16.9535 5.48117 16.2686C5.4434 15.5836 5.24611 14.917 4.90502 14.3218C4.56029 13.7201 4.07963 13.2074 3.50144 12.8245C2.92325 12.4417 2.26355 12.1993 1.57502 12.1168C1.51483 11.6293 1.48976 11.138 1.50002 10.6468C1.50021 10.0654 1.55545 9.48534 1.66502 8.91434C2.33661 8.83566 2.98123 8.6041 3.54939 8.23747C4.11754 7.87083 4.59412 7.37886 4.94252 6.79934C5.29043 6.22573 5.50242 5.58007 5.56222 4.91186C5.62202 4.24365 5.52805 3.57062 5.28752 2.94434C6.05289 2.34393 6.90514 1.86344 7.81502 1.51934C8.23147 2.02784 8.75563 2.43753 9.34965 2.71885C9.94368 3.00017 10.5927 3.14609 11.25 3.14609C11.9073 3.14609 12.5564 3.00017 13.1504 2.71885C13.7444 2.43753 14.2686 2.02784 14.685 1.51934C15.6737 1.89289 16.5936 2.42763 17.4075 3.10184C17.1851 3.71422 17.1002 4.36804 17.1589 5.01691C17.2175 5.66578 17.4182 6.2938 17.7467 6.85641C18.0753 7.41902 18.5236 7.90242 19.0599 8.27234C19.5962 8.64225 20.2074 8.8896 20.85 8.99684C20.9476 9.54148 20.9978 10.0935 21 10.6468C20.998 11.1694 20.9553 11.6909 20.8725 12.2068H20.8425Z" fill="#A9A9A9"/>
<path d="M11.25 6.14648C10.36 6.14648 9.48996 6.41041 8.74994 6.90487C8.00991 7.39934 7.43314 8.10214 7.09254 8.92441C6.75195 9.74668 6.66283 10.6515 6.83647 11.5244C7.0101 12.3973 7.43869 13.1991 8.06802 13.8285C8.69736 14.4578 9.49918 14.8864 10.3721 15.06C11.245 15.2337 12.1498 15.1445 12.9721 14.8039C13.7943 14.4633 14.4971 13.8866 14.9916 13.1466C15.4861 12.4065 15.75 11.5365 15.75 10.6465C15.75 9.45301 15.2759 8.30842 14.432 7.4645C13.5881 6.62059 12.4435 6.14648 11.25 6.14648ZM11.25 13.6465C10.6567 13.6465 10.0766 13.4705 9.58329 13.1409C9.08994 12.8112 8.70543 12.3427 8.47836 11.7945C8.2513 11.2464 8.19189 10.6432 8.30765 10.0612C8.4234 9.47927 8.70912 8.94472 9.12868 8.52516C9.54824 8.10561 10.0828 7.81988 10.6647 7.70413C11.2467 7.58837 11.8499 7.64778 12.3981 7.87485C12.9462 8.10191 13.4148 8.48643 13.7444 8.97977C14.0741 9.47312 14.25 10.0531 14.25 10.6465C14.25 11.4421 13.9339 12.2052 13.3713 12.7678C12.8087 13.3304 12.0457 13.6465 11.25 13.6465Z" fill="#A9A9A9"/>
</svg>
