<svg width="26" height="24" viewBox="0 0 26 24" fill="none" xmlns="http://www.w3.org/2000/svg">
<path d="M13 2.7002C13.2084 2.7002 13.3717 2.81684 13.4375 2.96191V2.96094L15.876 8.375C16.0248 8.70525 16.3403 8.9297 16.7012 8.96094L22.876 9.49219H22.877C22.9759 9.5006 23.0664 9.53683 23.1377 9.59082C23.2085 9.64454 23.2563 9.71265 23.2803 9.7832V9.78516C23.3044 9.85561 23.3067 9.93015 23.2861 10.001C23.2654 10.0722 23.2212 10.142 23.1533 10.1982H23.1523L18.4961 14.0713C18.2036 14.3146 18.0745 14.7032 18.1631 15.0732L19.5342 20.8066C19.5513 20.8779 19.5464 20.9523 19.5186 21.0225C19.4975 21.0753 19.4633 21.1261 19.416 21.1699L19.3643 21.2119C19.2066 21.3204 18.9901 21.3292 18.8223 21.2334L18.8203 21.2324L13.4932 18.2109C13.1873 18.0376 12.8127 18.0376 12.5068 18.2109L7.17773 21.2324C7.09914 21.277 7.01187 21.2997 6.92383 21.2998C6.82057 21.2998 6.71981 21.2692 6.63477 21.2109C6.48456 21.1079 6.43142 20.9489 6.46484 20.8066L7.83691 15.0732C7.92537 14.7034 7.79606 14.3156 7.50391 14.0723L2.84766 10.1982L2.8457 10.1963C2.72766 10.0984 2.68337 9.96339 2.70605 9.83789L2.71973 9.78418C2.74388 9.71345 2.7914 9.64466 2.8623 9.59082C2.93368 9.53669 3.02494 9.5008 3.12402 9.49219L3.12305 9.49121L9.29883 8.96094C9.65983 8.92976 9.97618 8.70538 10.125 8.375L12.5625 2.96094C12.6287 2.81573 12.7923 2.70023 13 2.7002Z" stroke="#A9A9A9" stroke-width="1.4"/>
</svg>
