<svg width="24" height="24" viewBox="0 0 24 24" fill="none" xmlns="http://www.w3.org/2000/svg">
<path d="M6.25 6C6.25 5.80109 6.32902 5.61032 6.46967 5.46967C6.61032 5.32902 6.80109 5.25 7 5.25H15C15.1989 5.25 15.3897 5.32902 15.5303 5.46967C15.671 5.61032 15.75 5.80109 15.75 6C15.75 6.19891 15.671 6.38968 15.5303 6.53033C15.3897 6.67098 15.1989 6.75 15 6.75H7C6.80109 6.75 6.61032 6.67098 6.46967 6.53033C6.32902 6.38968 6.25 6.19891 6.25 6ZM8 11.25H7C6.80109 11.25 6.61032 11.329 6.46967 11.4697C6.32902 11.6103 6.25 11.8011 6.25 12C6.25 12.1989 6.32902 12.3897 6.46967 12.5303C6.61032 12.671 6.80109 12.75 7 12.75H8C8.19891 12.75 8.38968 12.671 8.53033 12.5303C8.67098 12.3897 8.75 12.1989 8.75 12C8.75 11.8011 8.67098 11.6103 8.53033 11.4697C8.38968 11.329 8.19891 11.25 8 11.25ZM7 9.75H11C11.1989 9.75 11.3897 9.67098 11.5303 9.53033C11.671 9.38968 11.75 9.19891 11.75 9C11.75 8.80109 11.671 8.61032 11.5303 8.46967C11.3897 8.32902 11.1989 8.25 11 8.25H7C6.80109 8.25 6.61032 8.32902 6.46967 8.46967C6.32902 8.61032 6.25 8.80109 6.25 9C6.25 9.19891 6.32902 9.38968 6.46967 9.53033C6.61032 9.67098 6.80109 9.75 7 9.75ZM16.955 15.25H15.75V13.965C15.75 13.7661 15.671 13.5753 15.5303 13.4347C15.3897 13.294 15.1989 13.215 15 13.215C14.8011 13.215 14.6103 13.294 14.4697 13.4347C14.329 13.5753 14.25 13.7661 14.25 13.965V16C14.25 16.414 14.586 16.75 15 16.75H16.955C17.1539 16.75 17.3447 16.671 17.4853 16.5303C17.626 16.3897 17.705 16.1989 17.705 16C17.705 15.8011 17.626 15.6103 17.4853 15.4697C17.3447 15.329 17.1539 15.25 16.955 15.25ZM20.75 16C20.75 19.17 18.171 21.75 15 21.75C13.8454 21.751 12.7176 21.4024 11.765 20.75H6C5.27082 20.7495 4.57165 20.4596 4.05604 19.944C3.54043 19.4284 3.25053 18.7292 3.25 18V5C3.25053 4.27082 3.54043 3.57165 4.05604 3.05604C4.57165 2.54043 5.27082 2.25053 6 2.25H16C16.7292 2.25053 17.4283 2.54043 17.944 3.05604C18.4596 3.57165 18.7495 4.27082 18.75 5V11.651C19.377 12.1891 19.8802 12.8562 20.2254 13.6069C20.5706 14.3575 20.7496 15.1738 20.75 16ZM6 19.25H10.261C9.60145 18.2946 9.24878 17.1609 9.25 16C9.25 12.83 11.829 10.25 15 10.25C15.7733 10.2493 16.5387 10.4055 17.25 10.709V5C17.25 4.311 16.689 3.75 16 3.75H6C5.311 3.75 4.75 4.311 4.75 5V18C4.75 18.689 5.311 19.25 6 19.25ZM19.25 16C19.25 13.657 17.344 11.75 15 11.75C12.656 11.75 10.75 13.657 10.75 16C10.75 18.343 12.656 20.25 15 20.25C17.344 20.25 19.25 18.343 19.25 16Z" fill="#A9A9A9"/>
</svg>
