<svg width="85" height="51" viewBox="0 0 85 51" fill="none" xmlns="http://www.w3.org/2000/svg">
<g clip-path="url(#clip0_2433_165908)">
<path d="M60.4623 4.72866C54.062 8.57838 47.6617 12.427 41.268 16.2735C41.2911 16.3723 41.3604 16.3832 41.41 16.4114C43.7233 17.703 45.1051 19.6691 45.7194 22.1925C45.8802 22.8519 45.9826 23.5199 46.0376 24.1956C46.0542 24.4009 46.0542 24.4041 46.2722 24.4052C47.2235 24.4063 48.1748 24.4063 49.126 24.4052C49.3374 24.4052 49.5477 24.3802 49.7536 24.3324C50.3053 24.2043 50.6752 23.8838 50.8404 23.3428C50.9989 22.8225 51.054 22.2881 51.0551 21.7482C51.0606 20.2981 51.0573 18.8468 51.0573 17.3967C51.0573 17.3445 51.0562 17.2924 51.0573 17.2402C51.0617 17.0501 51.0628 17.0458 51.2422 17.0447C52.5106 17.0436 53.779 17.0436 55.0474 17.0447C55.2291 17.0447 55.2324 17.0501 55.2324 17.2663C55.2335 18.8642 55.2313 20.4632 55.2335 22.0611C55.2346 22.5651 55.2698 23.0669 55.3898 23.559C55.4207 23.685 55.4625 23.8089 55.511 23.9305C55.5946 24.1391 55.7433 24.2988 55.9338 24.4182C56.5834 24.8245 57.5776 24.6181 58.0081 23.9913C58.2305 23.6676 58.3329 23.3016 58.4012 22.9225C58.4639 22.5705 58.4782 22.2153 58.4793 21.859C58.4815 20.3654 58.4804 18.8707 58.4804 17.3771C58.4804 17.325 58.4793 17.2728 58.4804 17.2207C58.4849 16.9947 58.4849 16.9926 58.715 16.9926C59.8777 16.9915 61.0404 16.9915 62.2031 16.9926C62.4266 16.9926 62.4299 16.9947 62.4299 17.2239C62.431 18.9522 62.4299 20.6815 62.431 22.4097C62.431 22.6965 62.4651 22.98 62.5234 23.2625C62.6413 23.8273 62.9881 24.1575 63.5551 24.2792C63.9262 24.3596 64.3016 24.3976 64.6815 24.4052C64.9193 24.4096 65.1571 24.4074 65.395 24.4052C65.6053 24.403 65.6097 24.3998 65.6339 24.188C65.6548 24.0066 65.6713 23.8251 65.6856 23.6437C65.7836 22.4043 65.7913 21.1649 65.7231 19.9244C65.6702 18.9706 65.5788 18.0213 65.4478 17.0751C65.4456 17.0588 65.4544 17.0414 65.4588 17.0241C65.5293 16.973 65.6119 16.9936 65.6889 16.9936C66.9133 16.9926 68.1376 16.9915 69.362 16.9936C69.6317 16.9936 69.6053 16.9578 69.6417 17.25C69.711 17.8007 69.7683 18.3536 69.8112 18.9076C69.885 19.869 69.9158 20.8314 69.9037 21.796C69.8872 23.1408 69.8486 24.4856 69.7264 25.826C69.6835 26.3018 69.6439 26.7776 69.602 27.2523C69.5965 27.3131 69.5822 27.3729 69.5811 27.4337C69.5778 27.5717 69.5172 27.6216 69.3708 27.6216C67.4682 27.614 65.5656 27.6216 63.663 27.6053C63.0916 27.601 62.5246 27.5141 61.9674 27.374C61.1273 27.1621 60.3797 26.8048 59.8689 26.0705C59.8413 26.0944 59.8182 26.1074 59.8061 26.128C59.3712 26.8786 58.7062 27.3359 57.8804 27.5717C56.7232 27.9019 55.5517 27.9258 54.3835 27.6455C53.4917 27.4315 52.8002 26.9449 52.427 26.0846C52.4214 26.0715 52.4027 26.0628 52.3906 26.052C52.3444 26.0433 52.329 26.0791 52.3135 26.1074C51.8974 26.8493 51.2312 27.2523 50.4242 27.4565C49.9882 27.5662 49.5433 27.6195 49.0919 27.6195C39.3588 27.6195 29.6267 27.6195 19.8935 27.6184C19.5302 27.6184 19.5709 27.6564 19.5709 27.2968C19.5698 25.2818 19.5709 23.2668 19.5698 21.2507C19.5698 20.7641 19.539 20.2796 19.4256 19.8027C19.2241 18.95 18.8189 18.5459 17.8192 18.4014C17.2059 18.3124 16.5904 18.3667 15.9794 18.4503C15.8571 18.4666 15.7801 18.5101 15.7999 18.6491C15.8087 18.7089 15.801 18.7708 15.801 18.8316C15.801 21.6548 15.801 24.478 15.801 27.3012C15.801 27.6586 15.8395 27.6173 15.474 27.6184C13.4657 27.6195 11.4574 27.6303 9.4491 27.6151C7.97372 27.6043 6.51704 27.4326 5.10221 26.9959C4.10137 26.6864 3.1721 26.241 2.36614 25.5697C1.25299 24.6442 0.591268 23.4547 0.275271 22.0665C0.122227 21.3952 0.0506592 20.7141 0.0506592 20.0254C0.0528613 18.61 0.0506594 17.1935 0.0517605 15.7781C0.0517605 15.4794 0.0231335 15.4957 0.334727 15.4957C1.5855 15.4957 2.83628 15.4957 4.08706 15.4957C4.11348 15.4957 4.13991 15.4946 4.16633 15.4957C4.36452 15.5011 4.37002 15.5011 4.37002 15.7043C4.36672 16.7634 4.38103 17.8225 4.348 18.8816C4.32268 19.6887 4.32268 20.4958 4.49334 21.2931C4.74768 22.4847 5.42372 23.332 6.56439 23.811C7.27566 24.1097 8.02436 24.2542 8.78848 24.339C9.71886 24.4411 10.6525 24.3987 11.5862 24.4063C11.813 24.4085 11.8152 24.403 11.8163 24.1738C11.8174 23.3048 11.8163 22.4369 11.8163 21.5679C11.8163 19.6919 11.8152 17.8159 11.8174 15.9389C11.8174 15.5913 11.7745 15.651 12.1235 15.5869C13.2675 15.3805 14.4214 15.26 15.583 15.2002C16.4363 15.1557 17.2896 15.1383 18.1429 15.172C18.8564 15.2002 19.5588 15.3121 20.2459 15.5174C21.8908 16.0084 22.9104 17.0762 23.3112 18.7208C23.4455 19.2705 23.517 19.8288 23.5369 20.3947C23.5787 21.6363 23.5446 22.8779 23.5567 24.1195C23.56 24.4215 23.5347 24.4063 23.8385 24.4063C25.336 24.4063 26.8334 24.4063 28.3308 24.4063C28.366 24.4063 28.4012 24.402 28.4365 24.4063C28.5818 24.4248 28.6214 24.3509 28.6093 24.2227C28.6038 24.1619 28.6082 24.1011 28.6082 24.0402C28.6082 21.2952 28.6082 18.5503 28.6093 15.8053C28.6093 15.4772 28.5598 15.4924 28.9154 15.4924C30.1045 15.4924 31.2937 15.4924 32.4828 15.4924C32.5356 15.4924 32.5885 15.4957 32.6413 15.4924C32.7459 15.487 32.7823 15.5391 32.7768 15.6358C32.7735 15.7053 32.7768 15.7749 32.7768 15.8444C32.7768 18.572 32.7768 21.2996 32.7768 24.0272C32.7768 24.0967 32.7812 24.1662 32.7757 24.2358C32.7657 24.3552 32.8065 24.4182 32.9375 24.4063C32.9904 24.402 33.0432 24.4063 33.0961 24.4063C35.9676 24.4063 38.8391 24.4063 41.7106 24.4063C41.7458 24.4063 41.781 24.4074 41.8163 24.4063C42.0233 24.4009 42.0189 24.4009 42.0034 24.1999C41.9451 23.4689 41.7964 22.7574 41.5179 22.0752C41.0488 20.9259 40.266 20.0352 39.2123 19.3693C38.2885 18.786 37.2712 18.4373 36.2098 18.1951C35.9566 18.1375 35.9555 18.1386 35.9555 17.8757C35.9555 17.0588 35.9599 16.243 35.951 15.4262C35.9488 15.2513 36.0006 15.1492 36.1558 15.0525C39.5591 12.9528 42.958 10.8476 46.358 8.7424C50.7644 6.0148 55.1707 3.28611 59.5782 0.561763C59.8666 0.383616 60.1375 0.171795 60.459 0.046875C60.4601 0.168536 60.4634 0.290198 60.4634 0.410773C60.4612 1.85007 60.4623 3.28937 60.4623 4.72866Z" fill="white"/>
<path d="M60.4623 4.72975C60.4612 3.29045 60.4612 1.85116 60.4601 0.410773C60.4601 0.289111 60.4579 0.168536 60.4557 0.046875C60.7486 0.147897 60.9908 0.339079 61.2495 0.49876C64.1453 2.28132 67.0388 4.07039 69.9323 5.8562C72.8038 7.62898 75.6764 9.40068 78.549 11.1724C80.6311 12.4563 82.712 13.7403 84.7974 15.0166C84.9769 15.1264 85.0407 15.2469 85.0385 15.4533C85.0286 16.7644 85.0341 18.0767 85.033 19.3878C85.033 19.4725 85.0484 19.5594 85.0143 19.655C84.8844 19.6441 84.7941 19.5529 84.6939 19.492C82.2518 18.0071 79.813 16.5189 77.372 15.0319C75.6203 13.9651 73.8674 12.8984 72.1157 11.8317C70.4839 10.8378 68.8522 9.84278 67.2205 8.84777C65.4313 7.75716 63.6421 6.66764 61.8529 5.57703C61.3905 5.29569 60.9269 5.01218 60.4623 4.72975Z" fill="#1B5664"/>
<path d="M28.6501 11.2824C28.5983 10.2863 29.4417 9.26628 30.6859 9.26954C31.8442 9.2728 32.7459 10.1418 32.7492 11.2661C32.7525 12.4219 31.853 13.3246 30.6881 13.3267C29.4406 13.3289 28.6005 12.297 28.6501 11.2824Z" fill="white"/>
<path d="M14.1219 31.9866C14.1483 33.0478 13.3269 33.7865 12.5837 33.9429C11.399 34.1917 10.2936 33.3922 10.1956 32.2016C10.1328 31.4423 10.3816 30.8123 11.0125 30.3669C11.6456 29.9216 12.3448 29.8738 13.0318 30.2203C13.7497 30.5799 14.1086 31.1882 14.1219 31.9866Z" fill="white"/>
<path d="M5.54593 31.9872C5.54923 31.015 6.18563 30.2122 7.12261 30.0449C8.57378 29.7853 9.47222 30.9378 9.47002 31.9274C9.46782 32.7367 9.15953 33.3754 8.43284 33.7545C7.07526 34.4628 5.52831 33.4971 5.54593 31.9872Z" fill="white"/>
</g>
<path d="M2.98242 48.0469C2.26367 48.0469 1.68945 47.9707 1.25977 47.8184C0.833984 47.666 0.527344 47.416 0.339844 47.0684C0.152344 46.7207 0.0585938 46.2539 0.0585938 45.668C0.0585938 45.3672 0.0820312 45.0742 0.128906 44.7891C0.179688 44.5 0.242188 44.248 0.316406 44.0332H1.5C1.44922 44.3418 1.41016 44.5957 1.38281 44.7949C1.35547 44.9941 1.3418 45.2051 1.3418 45.4277C1.3418 45.7246 1.38867 45.9531 1.48242 46.1133C1.57617 46.2695 1.75 46.377 2.00391 46.4355C2.25781 46.4902 2.62305 46.5176 3.09961 46.5176C3.64258 46.5176 4.08203 46.502 4.41797 46.4707C4.75391 46.4395 5.01172 46.3887 5.19141 46.3184C5.37109 46.2441 5.49414 46.1445 5.56055 46.0195C5.62695 45.8945 5.66016 45.7363 5.66016 45.5449C5.66016 45.3027 5.64258 45.0586 5.60742 44.8125C5.57617 44.5664 5.5293 44.2539 5.4668 43.875L6.75 43.752C6.82422 44.1426 6.87891 44.4863 6.91406 44.7832C6.95312 45.0801 6.97266 45.4121 6.97266 45.7793C6.97266 46.1426 6.91602 46.4648 6.80273 46.7461C6.69336 47.0273 6.49414 47.2656 6.20508 47.4609C5.91602 47.6523 5.51172 47.7988 4.99219 47.9004C4.47266 47.998 3.80273 48.0469 2.98242 48.0469ZM3.45703 42.4922L2.53125 41.5723L3.45703 40.6348L4.38867 41.5723L3.45703 42.4922ZM4.18945 44.1211L3.20508 43.1426L4.18945 42.1523L5.17383 43.1426L4.18945 44.1211ZM2.72461 44.1211L1.74023 43.1426L2.72461 42.1523L3.70898 43.1426L2.72461 44.1211ZM13.9922 48.0469C13.6719 48.0469 13.3418 48.0469 13.002 48.0469C12.666 48.0469 12.334 48.043 12.0059 48.0352C11.6816 48.0273 11.375 48.0176 11.0859 48.0059C10.5078 47.9746 10.0508 47.8809 9.71484 47.7246C9.37891 47.5645 9.14062 47.3184 9 46.9863C8.85938 46.6543 8.78711 46.2148 8.7832 45.668L8.75391 39.6797H10.2012L10.2305 45.3926C10.2305 45.6816 10.2539 45.9023 10.3008 46.0547C10.3516 46.207 10.4434 46.3145 10.5762 46.377C10.709 46.4355 10.9043 46.4707 11.1621 46.4824C11.4238 46.4941 11.7129 46.502 12.0293 46.5059C12.3457 46.5098 12.6758 46.5137 13.0195 46.5176C13.3672 46.5176 13.7148 46.5176 14.0625 46.5176C14.1914 46.5176 14.2852 46.5879 14.3438 46.7285C14.4062 46.8691 14.4375 47.0547 14.4375 47.2852C14.4375 47.5039 14.4004 47.6855 14.3262 47.8301C14.2559 47.9746 14.1445 48.0469 13.9922 48.0469ZM13.9922 48.0469C13.8945 48.0469 13.8242 47.9805 13.7812 47.8477C13.7344 47.7148 13.7109 47.5 13.7109 47.2031C13.7109 46.9297 13.748 46.748 13.8223 46.6582C13.8965 46.5645 13.9766 46.5176 14.0625 46.5176C14.9023 46.5176 15.5996 46.5078 16.1543 46.4883C16.709 46.4648 17.1504 46.4297 17.4785 46.3828C17.8105 46.332 18.0586 46.2656 18.2227 46.1836C18.3867 46.0977 18.4922 45.9941 18.5391 45.873C18.5898 45.752 18.6152 45.6035 18.6152 45.4277C18.6152 45.1738 18.5859 44.875 18.5273 44.5312C18.4727 44.1836 18.3965 43.7871 18.2988 43.3418L19.6055 43.1484C19.7305 43.6172 19.8262 44.0391 19.8926 44.4141C19.9629 44.7852 19.998 45.1465 19.998 45.498C19.998 45.8535 19.9531 46.1699 19.8633 46.4473C19.7734 46.7246 19.6074 46.9648 19.3652 47.168C19.127 47.3672 18.7832 47.5332 18.334 47.666C17.8887 47.7949 17.3105 47.8906 16.5996 47.9531C15.8926 48.0156 15.0234 48.0469 13.9922 48.0469ZM18.9551 41.0508L18.0293 40.1309L18.9551 39.1934L19.8867 40.1309L18.9551 41.0508ZM19.6875 42.6797L18.7031 41.7012L19.6875 40.7109L20.6719 41.7012L19.6875 42.6797ZM18.2227 42.6797L17.2383 41.7012L18.2227 40.7109L19.207 41.7012L18.2227 42.6797ZM24.8555 48.0586C24.5273 48.0586 24.2285 48.0547 23.959 48.0469C23.6934 48.0391 23.416 48.0254 23.127 48.0059C22.8379 47.9902 22.5 47.9688 22.1133 47.9414L22.1367 46.4238L23.1094 46.4355C23.3242 46.4551 23.5352 46.4727 23.7422 46.4883C23.9492 46.5 24.1445 46.5098 24.3281 46.5176C24.5117 46.5215 24.6719 46.5234 24.8086 46.5234C25.25 46.5234 25.5566 46.5 25.7285 46.4531C25.9043 46.4023 25.9922 46.2969 25.9922 46.1367C25.9922 46.0078 25.8926 45.8418 25.6934 45.6387C25.498 45.4316 25.209 45.1719 24.8262 44.8594C24.4434 44.543 23.9688 44.1621 23.4023 43.7168C22.8398 43.2715 22.1895 42.7422 21.4512 42.1289L22.3535 41.0332C23.1113 41.6543 23.7969 42.2109 24.4102 42.7031C25.0273 43.1914 25.5566 43.6387 25.998 44.0449C26.4434 44.4473 26.7852 44.8281 27.0234 45.1875C27.2617 45.543 27.3809 45.8984 27.3809 46.2539C27.3809 46.6445 27.2949 46.9746 27.123 47.2441C26.9512 47.5137 26.6797 47.7168 26.3086 47.8535C25.9375 47.9902 25.4531 48.0586 24.8555 48.0586ZM21.6094 40.9043L21.5449 40.0957L22.541 39.8496L22.4824 40.3008L22.1309 40.0195V39.8789C21.8262 39.7812 21.6738 39.5488 21.6738 39.1816C21.6738 38.8457 21.7949 38.5938 22.0371 38.4258C22.2793 38.2578 22.5879 38.1738 22.9629 38.1738C23.1113 38.1738 23.2539 38.1875 23.3906 38.2148C23.5273 38.2422 23.6445 38.2754 23.7422 38.3145L23.7012 39.0879C23.6113 39.0762 23.5137 39.0664 23.4082 39.0586C23.3027 39.0508 23.2168 39.0469 23.1504 39.0469C22.9121 39.0469 22.7402 39.0703 22.6348 39.1172C22.5332 39.1641 22.4824 39.2559 22.4824 39.3926C22.4824 39.5176 22.5137 39.6016 22.5762 39.6445C22.6426 39.6875 22.7422 39.709 22.875 39.709C22.9961 39.709 23.1641 39.6914 23.3789 39.6562C23.5938 39.6211 23.7891 39.5879 23.9648 39.5566L24.0469 40.3887L21.6094 40.9043ZM23.0391 47.1445L22.1367 46.4238C22.7578 45.916 23.3516 45.4277 23.918 44.959C24.4883 44.4902 24.9844 44.0586 25.4062 43.6641C25.5547 43.5234 25.6621 43.377 25.7285 43.2246C25.7988 43.0684 25.8418 42.8828 25.8574 42.668C25.873 42.4492 25.873 42.1777 25.8574 41.8535L25.7695 39.6797H27.1875L27.2344 41.6191C27.2461 42.0332 27.2383 42.3867 27.2109 42.6797C27.1875 42.9688 27.1406 43.2207 27.0703 43.4355C27 43.6465 26.9023 43.8379 26.7773 44.0098C26.6562 44.1816 26.5 44.3555 26.3086 44.5312C25.9922 44.8242 25.6445 45.1191 25.2656 45.416C24.8867 45.7129 24.5039 46.0078 24.1172 46.3008C23.7344 46.5898 23.375 46.8711 23.0391 47.1445ZM28.5668 48L28.4672 39.6797H29.9145L30.0082 48H28.5668ZM41.2284 48.0469C40.8613 48.0469 40.5839 47.9629 40.3964 47.7949C40.2128 47.627 40.0937 47.3672 40.039 47.0156L40.5077 45.9199C40.5116 46.0762 40.5312 46.1992 40.5663 46.2891C40.6054 46.375 40.6816 46.4355 40.7948 46.4707C40.9081 46.502 41.0761 46.5176 41.2988 46.5176C41.4472 46.5176 41.5566 46.5684 41.6269 46.6699C41.7011 46.7715 41.7382 46.9434 41.7382 47.1855C41.7382 47.4941 41.6874 47.7148 41.5859 47.8477C41.4882 47.9805 41.3691 48.0469 41.2284 48.0469ZM37.5077 50.1621C36.8359 50.1621 36.2812 50.0625 35.8437 49.8633C35.4101 49.6641 35.0859 49.3672 34.871 48.9727C34.6601 48.5781 34.5546 48.0918 34.5546 47.5137C34.5546 47.1309 34.5859 46.748 34.6484 46.3652C34.7148 45.9824 34.8202 45.5684 34.9648 45.123H36.1835C36.0976 45.5332 36.0312 45.9121 35.9843 46.2598C35.9374 46.6035 35.914 46.9258 35.914 47.2266C35.914 47.5742 35.9648 47.8535 36.0663 48.0645C36.1679 48.2754 36.3378 48.4277 36.5761 48.5215C36.8183 48.6152 37.1484 48.6621 37.5663 48.6621C38.0351 48.6621 38.3808 48.6113 38.6034 48.5098C38.8261 48.4121 38.9687 48.25 39.0312 48.0234C39.0937 47.7969 39.1191 47.4941 39.1073 47.1152L38.8964 39.6797H40.3437L40.5195 46.5352C40.5429 47.3945 40.4491 48.0898 40.2382 48.6211C40.0273 49.1562 39.6952 49.5469 39.2421 49.793C38.789 50.0391 38.2109 50.1621 37.5077 50.1621ZM41.205 48.0469L41.2988 46.5176C41.9081 46.5176 42.4472 46.5098 42.9159 46.4941C43.3886 46.4785 43.789 46.4531 44.1171 46.418C44.4491 46.3789 44.703 46.3301 44.8788 46.2715C45.1054 46.1895 45.2655 46.0664 45.3593 45.9023C45.457 45.7344 45.5058 45.5547 45.5058 45.3633C45.5058 45.0898 45.4374 44.8848 45.3007 44.748C45.164 44.6074 44.9921 44.5371 44.7851 44.5371C44.578 44.5371 44.4023 44.6035 44.2577 44.7363C44.1132 44.8691 44.0409 45.0762 44.0409 45.3574C44.0409 45.5957 44.0937 45.791 44.1991 45.9434C44.3085 46.0918 44.5136 46.209 44.8144 46.2949C45.1152 46.377 45.5488 46.4355 46.1152 46.4707C46.6855 46.502 47.4277 46.5176 48.3417 46.5176C48.5605 46.5176 48.7206 46.5879 48.8222 46.7285C48.9238 46.8652 48.9745 47.043 48.9745 47.2617C48.9745 47.5078 48.9101 47.7012 48.7812 47.8418C48.6523 47.9785 48.4726 48.0469 48.2421 48.0469C47.1288 48.0469 46.1698 47.9766 45.3652 47.8359C44.5644 47.6953 43.9491 47.4277 43.5195 47.0332C43.0937 46.6348 42.8808 46.0566 42.8808 45.2988C42.8808 44.8691 42.9609 44.4844 43.121 44.1445C43.2812 43.8047 43.5058 43.5371 43.7948 43.3418C44.0878 43.1465 44.4296 43.0488 44.8202 43.0488C45.3593 43.0488 45.8007 43.2402 46.1445 43.623C46.4921 44.002 46.6659 44.5215 46.6659 45.1816C46.6659 45.7129 46.5663 46.1523 46.3671 46.5C46.1679 46.8477 45.8378 47.1426 45.3769 47.3848C45.0527 47.5566 44.6757 47.6914 44.246 47.7891C43.8163 47.8828 43.3456 47.9492 42.8339 47.9883C42.3222 48.0273 41.7792 48.0469 41.205 48.0469ZM45.5585 42.6445L44.5741 41.666L45.5585 40.6758L46.5429 41.666L45.5585 42.6445ZM44.0937 42.6445L43.1093 41.666L44.0937 40.6758L45.078 41.666L44.0937 42.6445ZM48.2597 48.0469C48.162 48.0469 48.0917 47.9805 48.0488 47.8477C48.0019 47.7148 47.9784 47.5 47.9784 47.2031C47.9784 46.9297 48.0155 46.748 48.0898 46.6582C48.164 46.5645 48.2441 46.5176 48.33 46.5176C49.1698 46.5176 49.8671 46.5078 50.4218 46.4883C50.9765 46.4648 51.4179 46.4297 51.746 46.3828C52.078 46.332 52.3261 46.2656 52.4902 46.1836C52.6542 46.0977 52.7597 45.9941 52.8066 45.873C52.8573 45.752 52.8827 45.6035 52.8827 45.4277C52.8827 45.1738 52.8534 44.875 52.7948 44.5312C52.7402 44.1836 52.664 43.7871 52.5663 43.3418L53.873 43.1484C53.998 43.6172 54.0937 44.0391 54.1601 44.4141C54.2304 44.7852 54.2655 45.1465 54.2655 45.498C54.2655 45.8535 54.2206 46.1699 54.1308 46.4473C54.0409 46.7246 53.8749 46.9648 53.6327 47.168C53.3945 47.3672 53.0507 47.5332 52.6015 47.666C52.1562 47.7949 51.578 47.8906 50.8671 47.9531C50.1601 48.0156 49.2909 48.0469 48.2597 48.0469ZM53.2226 42.5684L52.203 41.5488L53.2226 40.5234L54.2421 41.5488L53.2226 42.5684ZM60.2358 47.1504C59.7163 47.1504 59.2846 47.0879 58.9409 46.9629C58.601 46.8379 58.3452 46.6445 58.1733 46.3828C58.0053 46.1172 57.9213 45.7734 57.9213 45.3516C57.9213 44.8906 58.062 44.5059 58.3432 44.1973C58.6284 43.8848 59.058 43.6172 59.6323 43.3945C60.2104 43.168 60.937 42.959 61.812 42.7676L61.9116 44.1328C61.1928 44.25 60.6323 44.3633 60.2299 44.4727C59.8315 44.5781 59.5502 44.6895 59.3862 44.8066C59.226 44.9199 59.1459 45.0527 59.1459 45.2051C59.1459 45.3926 59.2338 45.5156 59.4096 45.5742C59.5854 45.6328 59.8901 45.6621 60.3237 45.6621C60.4565 45.6621 60.6127 45.6582 60.7924 45.6504C60.9721 45.6387 61.1518 45.627 61.3315 45.6152C61.5151 45.5996 61.6733 45.584 61.8061 45.5684L61.8647 46.6523H61.4428C61.3569 46.8438 61.2182 46.9746 61.0268 47.0449C60.8354 47.1152 60.5717 47.1504 60.2358 47.1504ZM63.8334 48.0469C63.2475 48.0469 62.7924 47.9941 62.4682 47.8887C62.144 47.7832 61.9174 47.6055 61.7885 47.3555C61.6596 47.1055 61.5913 46.7617 61.5834 46.3242L61.5248 42.1816H62.8725L62.8959 45.7559C62.8998 45.9863 62.9233 46.1562 62.9663 46.2656C63.0131 46.3711 63.1069 46.4395 63.2475 46.4707C63.392 46.502 63.6108 46.5176 63.9038 46.5176C64.0678 46.5176 64.1811 46.5781 64.2436 46.6992C64.31 46.8164 64.3432 47.002 64.3432 47.2559C64.3432 47.5059 64.308 47.7012 64.2377 47.8418C64.1674 47.9785 64.0327 48.0469 63.8334 48.0469ZM61.8764 41.8535L60.892 40.875L61.8764 39.8848L62.8608 40.875L61.8764 41.8535ZM60.4116 41.8535L59.4272 40.875L60.4116 39.8848L61.3959 40.875L60.4116 41.8535ZM63.7983 48.0469C63.6928 48.0469 63.6166 47.9805 63.5698 47.8477C63.519 47.7148 63.4936 47.5176 63.4936 47.2559C63.4936 47.0605 63.5288 46.8887 63.5991 46.7402C63.6655 46.5918 63.767 46.5176 63.9038 46.5176C64.185 46.5176 64.4155 46.4902 64.5952 46.4355C64.7788 46.377 64.9584 46.2617 65.1342 46.0898C65.3139 45.9141 65.5327 45.6504 65.7905 45.2988C66.103 44.8809 66.3764 44.5527 66.6108 44.3145C66.8452 44.0723 67.0678 43.9004 67.2788 43.7988C67.4897 43.6934 67.7123 43.6406 67.9467 43.6406C68.2123 43.6406 68.4623 43.7188 68.6967 43.875C68.935 44.0312 69.144 44.2441 69.3237 44.5137C69.5073 44.7793 69.6498 45.0781 69.7514 45.4102C69.8569 45.7383 69.9096 46.0762 69.9096 46.4238C69.9096 47.002 69.7436 47.418 69.4116 47.6719C69.0834 47.9219 68.6362 48.0469 68.0698 48.0469C67.7573 48.0469 67.4663 48.0176 67.1967 47.959C66.9272 47.8965 66.6948 47.8008 66.4995 47.6719C66.3041 47.5391 66.1616 47.3652 66.0717 47.1504L65.7143 47.1445L66.2885 45.8496C66.5854 46.0879 66.8627 46.2598 67.1205 46.3652C67.3823 46.4668 67.7006 46.5176 68.0756 46.5176C68.3022 46.5176 68.4721 46.4863 68.5854 46.4238C68.6987 46.3574 68.7553 46.2539 68.7553 46.1133C68.7553 46.0039 68.7319 45.8906 68.685 45.7734C68.6381 45.6523 68.5737 45.5391 68.4916 45.4336C68.4135 45.3281 68.3217 45.2441 68.2163 45.1816C68.1108 45.1152 68.0014 45.082 67.8881 45.082C67.6772 45.082 67.4799 45.1777 67.2963 45.3691C67.1166 45.5566 66.8725 45.8652 66.5639 46.2949C66.31 46.6426 66.0873 46.9316 65.8959 47.1621C65.7084 47.3887 65.5209 47.5664 65.3334 47.6953C65.1459 47.8242 64.9311 47.916 64.6889 47.9707C64.4506 48.0215 64.1538 48.0469 63.7983 48.0469ZM73.4077 48.0469C73.2123 48.0469 73.0327 48.043 72.8686 48.0352C72.7084 48.0273 72.5463 48.0117 72.3823 47.9883C72.2182 47.9648 72.0385 47.9336 71.8432 47.8945L71.9135 46.4121C72.0854 46.4355 72.2397 46.457 72.3764 46.4766C72.517 46.4961 72.6616 46.5098 72.81 46.5176C72.9623 46.5254 73.1381 46.5293 73.3373 46.5293C73.7241 46.5293 74.0854 46.502 74.4213 46.4473C74.7612 46.3887 75.0678 46.291 75.3412 46.1543L74.017 42.6387L75.3881 42.1699L76.642 45.498C76.7436 45.7676 76.8452 45.9766 76.9467 46.125C77.0483 46.2734 77.1772 46.377 77.3334 46.4355C77.4897 46.4902 77.7006 46.5176 77.9662 46.5176C78.1147 46.5176 78.2241 46.5664 78.2944 46.6641C78.3686 46.7617 78.4057 46.9375 78.4057 47.1914C78.4057 47.5 78.3608 47.7207 78.2709 47.8535C78.1811 47.9824 78.0561 48.0469 77.8959 48.0469C77.3764 48.0469 76.9428 47.9609 76.5952 47.7891C76.2475 47.6172 75.9565 47.2812 75.7221 46.7812L76.3959 46.9629C76.0912 47.3184 75.6791 47.5879 75.1596 47.7715C74.644 47.9551 74.06 48.0469 73.4077 48.0469ZM77.8784 48.0469C77.7807 48.0469 77.7026 47.9863 77.644 47.8652C77.5854 47.7402 77.5561 47.5293 77.5561 47.2324C77.5561 46.9707 77.5932 46.7871 77.6674 46.6816C77.7416 46.5723 77.8452 46.5176 77.978 46.5176C78.3764 46.5176 78.7612 46.4863 79.1323 46.4238C79.5034 46.3613 79.8842 46.2676 80.2748 46.1426C80.6694 46.0137 81.0952 45.8516 81.5522 45.6562C81.8373 45.5312 82.0873 45.4238 82.3022 45.334C82.517 45.2402 82.7241 45.1562 82.9233 45.082C83.1264 45.0039 83.3491 44.9316 83.5912 44.8652L83.6088 45.2402L82.7299 45.3105V45.0352C82.519 45.0195 82.3002 44.9883 82.0737 44.9414C81.851 44.8906 81.5991 44.8262 81.3178 44.748C81.0287 44.666 80.7787 44.5938 80.5678 44.5312C80.3569 44.4688 80.1459 44.4375 79.935 44.4375C79.7202 44.4375 79.517 44.4629 79.3256 44.5137C79.1381 44.5645 78.935 44.6465 78.7162 44.7598L78.6342 43.5645C78.8452 43.3418 79.0737 43.1797 79.3198 43.0781C79.5659 42.9727 79.8159 42.9199 80.0698 42.9199C80.3823 42.9199 80.6713 42.9746 80.937 43.084C81.2065 43.1895 81.478 43.3145 81.7514 43.459C82.0248 43.6035 82.3237 43.7305 82.6479 43.8398C82.8901 43.918 83.1127 43.9766 83.3159 44.0156C83.5229 44.0508 83.7358 44.0723 83.9545 44.0801C84.1772 44.0879 84.4311 44.0879 84.7162 44.0801L84.6987 45.5742C84.4252 45.6211 84.1733 45.6816 83.9428 45.7559C83.7162 45.8262 83.4877 45.9121 83.2573 46.0137C83.0307 46.1113 82.7787 46.2344 82.5014 46.3828C82.0366 46.6211 81.6147 46.8418 81.2358 47.0449C80.8608 47.248 80.4995 47.4258 80.1518 47.5781C79.8041 47.7266 79.4467 47.8418 79.0795 47.9238C78.7162 48.0059 78.3159 48.0469 77.8784 48.0469ZM81.2827 42.4102L80.2631 41.3906L81.2827 40.3652L82.3022 41.3906L81.2827 42.4102Z" fill="#1B5664"/>
<defs>
<clipPath id="clip0_2433_165908">
<rect width="85" height="34" fill="white"/>
</clipPath>
</defs>
</svg>
