<svg width="155" height="30" viewBox="0 0 155 30" fill="none" xmlns="http://www.w3.org/2000/svg">
<path d="M1.46403 7.47065H10.1774C11.1376 7.47065 11.9877 7.65956 12.7276 8.03737C13.4675 8.39945 14.0421 8.92681 14.4514 9.61947C14.8607 10.2964 15.0653 11.0756 15.0653 11.9572V14.1532C15.0653 15.0663 14.8528 15.877 14.4278 16.5854C14.0027 17.2781 13.4045 17.8212 12.6331 18.2147C11.8775 18.5925 10.996 18.7814 9.98845 18.7814H4.72267V24H1.46403V7.47065ZM9.94122 15.9478C10.4922 15.9478 10.9409 15.7747 11.2872 15.4284C11.6335 15.0663 11.8067 14.594 11.8067 14.0116V12.0989C11.8067 11.5479 11.6493 11.115 11.3344 10.8001C11.0353 10.4695 10.6339 10.3043 10.1301 10.3043H4.72267V15.9478H9.94122ZM20.0119 24.1889C19.0202 24.1889 18.1386 24 17.3673 23.6222C16.6116 23.2286 16.0213 22.6777 15.5962 21.9693C15.187 21.2609 14.9823 20.4423 14.9823 19.5135V16.7507C14.9823 15.8219 15.1948 15.0033 15.6199 14.2949C16.0449 13.5708 16.6352 13.0119 17.3909 12.6184C18.1622 12.2248 19.0438 12.028 20.0356 12.028H22.1608C23.1525 12.028 24.0262 12.2248 24.7818 12.6184C25.5532 13.0119 26.1514 13.5708 26.5765 14.2949C27.0015 15.0033 27.214 15.8219 27.214 16.7507V19.5135C27.214 20.4423 27.0015 21.2609 26.5765 21.9693C26.1514 22.6777 25.5532 23.2286 24.7818 23.6222C24.0262 24 23.1447 24.1889 22.1371 24.1889H20.0119ZM22.0899 21.4261C22.6724 21.4261 23.1368 21.2294 23.4831 20.8358C23.8294 20.4265 24.0026 19.8991 24.0026 19.2537V16.9632C24.0026 16.3178 23.8294 15.7983 23.4831 15.4047C23.1368 14.9954 22.6803 14.7908 22.1135 14.7908H20.0828C19.5161 14.7908 19.0595 14.9954 18.7132 15.4047C18.3669 15.7983 18.1937 16.3178 18.1937 16.9632V19.2537C18.1937 19.8991 18.3669 20.4265 18.7132 20.8358C19.0595 21.2294 19.5082 21.4261 20.0592 21.4261H22.0899ZM31.3943 24C30.3396 24 29.6627 23.3861 29.3636 22.1582L26.9786 12.2169H30.3081L31.7485 19.7024H31.7957L34.3696 12.5003H35.6211C35.9832 12.5003 36.2744 12.579 36.4948 12.7364C36.7152 12.8939 36.8884 13.1379 37.0143 13.4684L39.2103 19.7024H39.2576L40.6744 12.2169H44.0038L41.6661 22.1582C41.3828 23.3861 40.7058 24 39.6354 24H38.1714L35.5503 16.5382L32.8347 24H31.3943ZM48.8282 24.1889C47.8364 24.1889 46.9548 24.0079 46.1835 23.6458C45.4278 23.268 44.8375 22.7485 44.4125 22.0873C43.9874 21.4104 43.7749 20.639 43.7749 19.7732V16.7271C43.7749 15.7983 43.9874 14.9797 44.4125 14.2713C44.8375 13.5629 45.4278 13.0119 46.1835 12.6184C46.9548 12.2248 47.8364 12.028 48.8282 12.028H50.7172C52.2285 12.028 53.4406 12.4531 54.3537 13.3032C55.2667 14.1532 55.7233 15.2867 55.7233 16.7035V19.2065H46.9863V19.7732C46.9863 20.2927 47.1516 20.7099 47.4822 21.0247C47.8128 21.3396 48.2614 21.497 48.8282 21.497H50.67C51.221 21.497 51.6618 21.3789 51.9924 21.1428C52.3387 20.8909 52.5118 20.5682 52.5118 20.1746H55.676C55.676 20.9617 55.4635 21.6623 55.0385 22.2762C54.6134 22.8902 54.0152 23.3624 53.2439 23.693C52.4882 24.0236 51.6145 24.1889 50.6228 24.1889H48.8282ZM52.5591 16.8924V16.7035C52.5591 16.0895 52.3938 15.6015 52.0632 15.2394C51.7326 14.8616 51.2918 14.6727 50.7408 14.6727H48.8282C48.2614 14.6727 47.8049 14.8695 47.4586 15.2631C47.1123 15.6566 46.9391 16.1761 46.9391 16.8215V16.8924H52.5591ZM56.718 12.2169H59.6933V13.7282C59.9924 13.2717 60.4174 12.9017 60.9684 12.6184C61.5351 12.3193 62.1254 12.1697 62.7394 12.1697H64.3451V14.9561H62.7394C61.905 14.9561 61.2281 15.208 60.7086 15.7117C60.1891 16.2155 59.9294 16.8609 59.9294 17.648V24H56.718V12.2169ZM68.411 24.1889C67.01 24.1889 65.8765 23.7639 65.0107 22.9138C64.1606 22.0637 63.7356 20.946 63.7356 19.5607V16.8688C63.7356 15.9085 63.9402 15.0663 64.3495 14.3421C64.7588 13.6023 65.3334 13.0355 66.0733 12.642C66.8132 12.2327 67.6711 12.028 68.6471 12.028H69.9459C70.4024 12.028 70.8668 12.1304 71.3391 12.335C71.8113 12.5239 72.2049 12.7837 72.5197 13.1142V7.47065H75.7311V24H72.7559V22.4415C72.441 22.961 72.016 23.3861 71.4807 23.7166C70.9455 24.0315 70.3867 24.1889 69.8042 24.1889H68.411ZM70.1584 21.4261C70.8038 21.4261 71.3391 21.1979 71.7641 20.7414C72.2049 20.2691 72.4568 19.6473 72.5197 18.8759V16.8215C72.4095 16.2076 72.1655 15.7196 71.7877 15.3575C71.4256 14.9797 70.9927 14.7908 70.489 14.7908H69.0486C68.4189 14.7908 67.9073 15.0033 67.5137 15.4284C67.1359 15.8534 66.947 16.4122 66.947 17.1049V19.3246C66.947 19.9542 67.1201 20.4659 67.4665 20.8594C67.8128 21.2372 68.2615 21.4261 68.8124 21.4261H70.1584ZM88.591 24.1889C88.103 24.1889 87.6071 24.0315 87.1034 23.7166C86.5996 23.4018 86.1903 22.9925 85.8755 22.4887V24H82.9002V7.47065H86.1116V13.1379C86.4265 12.8073 86.8121 12.5397 87.2687 12.335C87.7409 12.1304 88.1896 12.028 88.6146 12.028H90.2676C91.1806 12.028 91.9835 12.2248 92.6761 12.6184C93.3845 12.9962 93.9276 13.5393 94.3054 14.2477C94.699 14.9561 94.8958 15.7747 94.8958 16.7035V19.3954C94.8958 20.3399 94.699 21.1743 94.3054 21.8984C93.9119 22.6226 93.3609 23.1893 92.6525 23.5986C91.9441 23.9921 91.1334 24.1889 90.2203 24.1889H88.591ZM89.8425 21.3789C90.3935 21.3789 90.8343 21.1743 91.1649 20.765C91.5112 20.3557 91.6844 19.8204 91.6844 19.1593V16.9396C91.6844 16.3099 91.5191 15.8062 91.1885 15.4284C90.8579 15.0348 90.425 14.838 89.8898 14.838H88.4257C87.796 14.838 87.2687 15.0584 86.8436 15.4992C86.4186 15.94 86.1746 16.5224 86.1116 17.2466V19.2773C86.2218 19.907 86.4737 20.4186 86.8672 20.8122C87.2765 21.19 87.7567 21.3789 88.3077 21.3789H89.8425ZM100.552 28.7935C99.2764 28.7935 98.2217 28.4314 97.3874 27.7073C96.5688 26.9989 96.1122 26.0622 96.0178 24.8973H99.182C99.2135 25.2436 99.3551 25.5191 99.607 25.7238C99.8589 25.9442 100.174 26.0544 100.552 26.0544H102.488C102.976 26.0544 103.369 25.8497 103.669 25.4404C103.983 25.0469 104.141 24.5274 104.141 23.8819V22.3471C103.779 22.8351 103.362 23.2208 102.889 23.5041C102.433 23.7717 101.976 23.9055 101.52 23.9055H99.9612C98.7176 23.9055 97.7179 23.4962 96.9623 22.6777C96.2067 21.8433 95.8289 20.7414 95.8289 19.3718V12.2169H99.0403V19.419C99.0403 19.9385 99.1662 20.3635 99.4181 20.6941C99.6857 21.009 100.032 21.1664 100.457 21.1664H101.827C102.346 21.1664 102.818 20.9539 103.243 20.5288C103.669 20.0881 103.968 19.5135 104.141 18.8051V12.2169H107.352V23.8819C107.352 24.858 107.148 25.7159 106.738 26.4558C106.345 27.1957 105.778 27.7703 105.038 28.1796C104.298 28.5889 103.448 28.7935 102.488 28.7935H100.552Z" fill="#1B5664"/>
<path d="M152.853 13.368C153.001 13.1457 153.14 13.1087 153.27 13.2569C153.399 13.3865 153.51 13.6088 153.603 13.9236C153.714 14.22 153.807 14.5348 153.881 14.8682C153.955 15.2016 154.001 15.4609 154.02 15.6461C154.038 15.9609 154.038 16.2295 154.02 16.4518C153.779 18.3594 153.14 19.9059 152.103 21.0913C151.066 22.2766 149.695 23.1101 147.991 23.5916C147.25 23.7953 146.389 23.9713 145.407 24.1195C144.833 24.1935 135.909 24.7501 135.354 24.8056C134.817 24.8612 134.252 24.889 133.659 24.889C132.918 24.889 132.261 24.7871 131.686 24.5834C131.131 24.3797 130.835 23.9259 130.797 23.2221C130.964 22.5924 131.131 21.9904 131.298 21.4163C131.464 20.8236 131.649 20.2587 131.853 19.7216C131.927 19.592 132.038 19.5271 132.187 19.5271C132.335 19.5271 132.437 19.6012 132.492 19.7494C132.585 20.0643 132.779 20.2958 133.076 20.4439C133.39 20.5921 133.761 20.694 134.187 20.7495C134.613 20.7866 135.03 20.8051 135.437 20.8051C136.659 20.8051 146.167 20.2023 147.241 19.98C148.315 19.7392 149.325 19.4707 150.269 19.1743C150.473 19.1003 150.658 19.0354 150.825 18.9799C151.01 18.9243 151.167 18.8687 151.297 18.8132C151.279 18.4428 151.214 18.0909 151.103 17.7575C151.01 17.4056 150.899 17.0537 150.769 16.7018C150.751 16.6647 150.751 16.6092 150.769 16.5351C150.788 16.461 150.806 16.4147 150.825 16.3962L152.853 13.368Z" fill="#1B5664"/>
<path d="M154.211 8.51121C154.34 8.64088 154.359 8.78906 154.266 8.95577C154.081 9.19657 153.896 9.4281 153.711 9.65038C153.525 9.87266 153.34 10.0949 153.155 10.3172C152.97 10.5395 152.831 10.7062 152.738 10.8173C152.646 10.9285 152.553 11.0396 152.46 11.1507C152.386 11.2804 152.257 11.4564 152.071 11.6787C152.016 11.7527 151.942 11.7898 151.849 11.7898C151.756 11.8083 151.673 11.7805 151.599 11.7064L149.737 9.95601C149.608 9.82635 149.598 9.68743 149.71 9.53924C150.08 9.07617 150.451 8.62235 150.821 8.1778C151.173 7.73325 151.525 7.27943 151.877 6.81635C151.932 6.74226 152.006 6.69596 152.099 6.67743C152.21 6.65891 152.303 6.68669 152.377 6.76078L154.211 8.51121Z" fill="#1B5664"/>
<path d="M136.096 18.7177C136.096 18.4214 136.012 18.1343 135.846 17.8565C135.679 17.5602 135.531 17.375 135.401 17.3009C135.105 17.412 134.855 17.5972 134.651 17.8565L133.929 18.8011C133.873 18.9122 133.845 18.9956 133.845 19.0511C133.845 19.1623 133.882 19.2734 133.956 19.3845C134.031 19.4771 134.105 19.5419 134.179 19.579C134.679 19.5234 135.244 19.3567 135.873 19.0789C136.022 18.9863 136.096 18.8659 136.096 18.7177ZM129.15 24.5519L126.539 25.1353C126.409 25.1538 126.307 25.1353 126.233 25.0797C126.159 25.0056 126.131 24.9038 126.15 24.7741L126.65 21.3014C126.65 21.1533 126.743 21.0607 126.928 21.0236L131.595 20.3013C132.04 19.3197 132.558 18.3473 133.151 17.3842C133.743 16.4026 134.364 15.5229 135.012 14.745C135.29 14.4116 135.614 14.0967 135.985 13.8004C136.355 13.4856 136.799 13.3281 137.318 13.3281C137.466 13.3281 137.614 13.3466 137.763 13.3837C137.911 13.4022 138.05 13.4578 138.179 13.5504C138.883 13.9208 139.235 14.5876 139.235 15.5507C139.235 15.7729 139.216 16.0137 139.179 16.273C139.142 16.5137 139.087 16.773 139.013 17.0509C138.457 18.5696 137.707 19.9216 136.762 21.107C136.281 21.7182 135.707 22.2367 135.04 22.6627C134.392 23.0702 133.66 23.3943 132.845 23.6351L129.15 24.5519Z" fill="#1B5664"/>
<path d="M138.485 9.46768C138.448 9.54178 138.374 9.60661 138.263 9.66218C137.411 9.81036 136.568 9.96781 135.735 10.1345C134.882 10.3012 134.03 10.4587 133.178 10.6069C133.049 10.6254 132.947 10.5791 132.873 10.4679C132.78 10.3753 132.771 10.2642 132.845 10.1345L134.401 6.96707C134.419 6.93003 134.456 6.90224 134.512 6.88372C134.568 6.84667 134.614 6.81889 134.651 6.80037C135.522 6.65218 136.374 6.504 137.207 6.35581C138.059 6.18911 138.902 6.0224 139.736 5.85569C139.865 5.81864 139.976 5.85569 140.069 5.96683C140.162 6.05944 140.162 6.17984 140.069 6.32803L138.485 9.46768Z" fill="#1B5664"/>
<path d="M125.271 11.8518L127.326 8.46242C127.4 8.31425 127.512 8.26795 127.66 8.32351C127.826 8.36055 127.919 8.45316 127.938 8.60133L128.854 22.1032L126.752 24.9397C126.659 25.0694 126.539 25.1157 126.391 25.0786C126.242 25.0231 126.159 24.9212 126.14 24.773L126.076 22.4365C125.261 23.4367 124.446 24.0386 123.631 24.2423L120.363 25.0189C120.233 25.0559 120.131 25.0374 120.057 24.9633C119.983 24.8707 119.955 24.7596 119.974 24.6299L120.214 21.3253C120.251 21.1956 120.344 21.1123 120.492 21.0753C123.215 20.6863 125.002 20.2974 125.854 19.9084L125.271 11.8518Z" fill="#1B5664"/>
<path d="M117.125 21.5218C116.792 21.5218 116.43 21.4384 116.042 21.2717C115.671 21.105 115.356 20.8735 115.097 20.5772C114.838 20.2623 114.708 19.8919 114.708 19.4659C114.708 19.1696 114.745 18.9103 114.819 18.6881C115.115 17.5768 115.532 16.5489 116.069 15.6043C116.625 14.6597 117.208 13.7892 117.82 12.9928C117.912 12.8632 117.995 12.7613 118.07 12.6872C118.162 12.5946 118.236 12.5205 118.292 12.465V12.4928C118.996 11.8075 119.672 11.4648 120.32 11.4648C120.561 11.4648 120.764 11.5019 120.931 11.576C121.709 11.8908 122.116 12.7058 122.153 14.0207L122.654 21.1884L120.605 24.7881C120.531 24.9177 120.411 24.964 120.244 24.927C120.096 24.8899 120.012 24.7973 119.994 24.6492L119.681 20.4661C119.385 20.7254 119.014 20.9661 118.57 21.1884C118.144 21.4106 117.662 21.5218 117.125 21.5218ZM119.292 17.0767C119.292 16.7433 119.255 16.41 119.181 16.0766C119.125 15.7247 118.986 15.5117 118.764 15.4376C118.69 15.4191 118.634 15.4006 118.597 15.382C118.56 15.3635 118.505 15.3543 118.431 15.3543C118.264 15.3543 118.088 15.4283 117.903 15.5765C117.755 15.7062 117.616 15.8266 117.486 15.9377C117.357 16.0488 117.245 16.1692 117.153 16.2988C117.097 16.3729 117.069 16.4285 117.069 16.4655C117.069 16.5211 117.097 16.5952 117.153 16.6878C117.338 16.9841 117.625 17.1971 118.014 17.3268C118.218 17.3823 118.449 17.4101 118.709 17.4101C118.801 17.4101 118.894 17.4101 118.986 17.4101C119.079 17.3916 119.172 17.3731 119.264 17.3545C119.264 17.3175 119.264 17.2897 119.264 17.2712C119.283 17.2527 119.292 17.2341 119.292 17.2156C119.292 17.1786 119.292 17.1508 119.292 17.1323C119.292 17.1138 119.292 17.0952 119.292 17.0767Z" fill="#1B5664"/>
<path d="M122.323 8.48526C122.286 8.55936 122.212 8.62419 122.101 8.67975C121.249 8.82794 120.406 8.98538 119.573 9.15209C118.721 9.3188 117.869 9.47625 117.016 9.62443C116.887 9.64295 116.785 9.59665 116.711 9.48551C116.618 9.39289 116.609 9.28175 116.683 9.15209L118.239 5.98465C118.258 5.94761 118.295 5.91982 118.35 5.9013C118.406 5.86425 118.452 5.83647 118.489 5.81794C119.36 5.66976 120.212 5.52157 121.045 5.37339C121.897 5.20668 122.74 5.03997 123.574 4.87327C123.703 4.83622 123.814 4.87327 123.907 4.98441C124 5.07702 124 5.19742 123.907 5.34561L122.323 8.48526Z" fill="#1B5664"/>
<path d="M113.724 19.7331C113.823 18.7496 115.159 16.8645 115.814 16.0449C115.323 18.7496 119.011 18.8726 120.732 18.012C122.109 17.3235 121.879 20.3478 121.593 21.9461H119.749C117.699 21.9871 113.601 21.9461 113.233 21.9461C112.864 21.9461 112.987 21.4543 113.233 21.4543H114.093C114.168 21.4543 114.339 21.3314 114.339 21.2084C114.339 20.8396 114.163 20.8396 114.093 20.8396H113.233C112.925 20.7627 112.987 20.3478 113.233 20.3478H113.479C113.724 20.3478 113.724 19.979 113.724 19.7331Z" fill="#1B5664"/>
<circle cx="123.191" cy="23.667" r="1.10647" fill="#01B4AA"/>
<circle cx="123.191" cy="23.6674" r="0.614703" fill="#1B5664"/>
<circle cx="116.06" cy="23.667" r="1.10647" fill="#1B5664"/>
<circle cx="116.06" cy="23.6674" r="0.614703" fill="#01B4AA"/>
<path d="M126.14 20.8149L125.077 18.4767C124.989 18.2835 124.847 18.1197 124.668 18.0047C124.49 17.8897 124.282 17.8284 124.07 17.8281H122.391C122.318 17.8281 122.247 17.8573 122.195 17.9091C122.144 17.961 122.114 18.0314 122.114 18.1047V22.4567C122.315 22.2431 122.573 22.0921 122.857 22.0217C123.142 21.9514 123.44 21.9648 123.717 22.0603C123.994 22.1558 124.238 22.3293 124.418 22.56C124.599 22.7907 124.709 23.0686 124.735 23.3604H126.632C126.853 23.3604 127.064 23.273 127.219 23.1173C127.375 22.9617 127.462 22.7506 127.462 22.5306L126.264 21.3872C126.264 21.1897 126.221 20.9946 126.14 20.8149ZM124.878 20.5942H123.083C123.009 20.5942 122.939 20.5651 122.887 20.5132C122.835 20.4614 122.806 20.391 122.806 20.3177V19.2112C122.806 19.1378 122.835 19.0675 122.887 19.0156C122.939 18.9637 123.009 18.9346 123.083 18.9346H124.197C124.304 18.9346 124.408 18.9651 124.497 19.0226C124.586 19.0801 124.657 19.162 124.701 19.2587L125.13 20.2032C125.149 20.2453 125.158 20.2916 125.154 20.3378C125.151 20.3839 125.136 20.4285 125.111 20.4674C125.086 20.5064 125.052 20.5384 125.011 20.5605C124.97 20.5827 124.925 20.5943 124.878 20.5942Z" fill="#1B5664"/>
<path d="M117.289 22.5605H121.346V23.2982H117.535C117.634 23.1015 117.412 22.7245 117.289 22.5605Z" fill="#1B5664"/>
<path d="M114.462 23.2982C114.462 23.1752 114.667 22.6835 114.831 22.5605H113.479C113.577 23.249 114.175 23.3392 114.462 23.2982Z" fill="#1B5664"/>
</svg>
