<svg width="33" height="33" viewBox="0 0 33 33" fill="none" xmlns="http://www.w3.org/2000/svg">
<g clip-path="url(#clip0_2433_165594)">
<path d="M16.5 33C25.6127 33 33 25.6127 33 16.5C33 7.3873 25.6127 0 16.5 0C7.3873 0 0 7.3873 0 16.5C0 25.6127 7.3873 33 16.5 33Z" fill="#63CAE1"/>
<path d="M17.1583 10.4221L13.8224 7.0861L6.7719 14.1364L12.8024 20.1669L8.33695 24.6324L7.81868 24.1141L6.31641 25.6164L13.411 32.711C14.4293 32.904 15.4635 33.001 16.5 33.001C25.6127 33.001 33 25.6137 33 16.501C33 15.8742 32.9638 15.2561 32.8958 14.6475L22.9143 4.66602L17.1583 10.4221Z" fill="#2BADCB"/>
<path d="M20.0139 4.66602H22.9143V9.82227H20.0139V4.66602Z" fill="#E9EDF5"/>
<path d="M17.2521 16.1456L15.9844 6.79297L8.35632 12.2327V24.5434H15.9844L17.2521 16.1456Z" fill="white"/>
<path d="M15.9844 6.79297V24.5434H23.6124V12.2327L15.9844 6.79297Z" fill="#E9EDF5"/>
<path d="M12.7616 16.5723V24.3066H15.9843L16.32 20.4395L15.9843 16.5723H12.7616Z" fill="#E9EDF5"/>
<path d="M15.9843 16.5723H19.2069V24.3066H15.9843V16.5723Z" fill="#CDD2E1"/>
<path d="M6.77185 11.1849V14.1359L15.9843 7.56629L16.5854 6.37184L15.9843 4.61523L6.77185 11.1849Z" fill="#E9EDF5"/>
<path d="M25.1967 11.1849L15.9843 4.61523V7.56629L25.1967 14.1359V11.1849Z" fill="#CDD2E1"/>
<path d="M6.31628 23.6816V25.6152H15.9843L16.9913 24.6484L15.9843 23.6816H6.31628Z" fill="#555A65"/>
<path d="M15.9843 23.6816H25.6522V25.6152H15.9843V23.6816Z" fill="#333940"/>
<path d="M13.868 11.6422C13.5962 11.5922 12.7553 11.392 12.0307 10.4581C11.3062 9.52418 11.151 8.44015 11.1121 8.08984C11.0733 8.44021 10.918 9.52425 10.1934 10.4581C9.46892 11.392 8.628 11.5922 8.3562 11.6422C8.628 11.6923 9.46892 11.8924 10.1934 12.8264C10.918 13.7603 11.0732 14.8443 11.1121 15.1946C11.1509 14.8443 11.3062 13.7602 12.0307 12.8264C12.7553 11.8924 13.5962 11.6923 13.868 11.6422Z" fill="#FDE575"/>
<path d="M21.2831 16.5719C21.0783 16.5342 20.4448 16.3834 19.899 15.6798C19.3532 14.9763 19.2362 14.1597 19.207 13.8957C19.1777 14.1597 19.0607 14.9763 18.5149 15.6798C17.9691 16.3834 17.3356 16.5342 17.1309 16.5719C17.3356 16.6096 17.9691 16.7604 18.5149 17.4639C19.0607 18.1674 19.1777 18.9841 19.207 19.248C19.2362 18.9841 19.3532 18.1675 19.899 17.4639C20.4448 16.7604 21.0783 16.6096 21.2831 16.5719ZM24.065 9.41894C23.9515 9.39805 23.6004 9.31446 23.2979 8.92445C22.9953 8.53451 22.9305 8.08179 22.9143 7.93555C22.8981 8.08186 22.8332 8.53451 22.5307 8.92445C22.2282 9.31439 21.8771 9.39799 21.7636 9.41894C21.8771 9.43982 22.2282 9.52341 22.5307 9.91342C22.8333 10.3034 22.8981 10.7561 22.9143 10.9023C22.9305 10.756 22.9954 10.3034 23.2979 9.91342C23.6004 9.52341 23.9515 9.43982 24.065 9.41894Z" fill="#FCC74C"/>
</g>
<defs>
<clipPath id="clip0_2433_165594">
<rect width="33" height="33" fill="white"/>
</clipPath>
</defs>
</svg>
