<svg width="34" height="34" viewBox="0 0 34 34" fill="none" xmlns="http://www.w3.org/2000/svg">
<rect y="0.0664062" width="33.8569" height="33.8569" rx="16.9285" fill="#9BD069"/>
<g clip-path="url(#clip0_2433_165528)">
<path d="M30.4007 22.3181H12.5114C11.9027 22.3181 11.4093 21.8247 11.4093 21.216V3.32672C11.4093 2.71803 11.9027 2.22461 12.5114 2.22461H30.4007C31.0094 2.22461 31.5028 2.71803 31.5028 3.32672V21.216C31.5028 21.8247 31.0094 22.3181 30.4007 22.3181Z" fill="#FFA91A"/>
<path d="M30.4 2.22461H21.4553V22.3182H30.4C31.0087 22.3182 31.5021 21.8248 31.5021 21.2161V3.32672C31.5021 2.71803 31.0087 2.22461 30.4 2.22461Z" fill="#F79219"/>
<path d="M30.4004 2.22461H25.311C26.0709 2.22461 26.6869 2.84058 26.6869 3.60049V20.9423C26.6869 21.7023 26.0709 22.3182 25.311 22.3182H30.4004C31.0091 22.3182 31.5025 21.8248 31.5025 21.2161V3.32672C31.5025 2.71803 31.0091 2.22461 30.4004 2.22461Z" fill="#EF7816"/>
<path d="M12.5114 2.22461H17.6008C16.8408 2.22461 16.2249 2.84058 16.2249 3.60049V20.9423C16.2249 21.7023 16.8408 22.3182 17.6008 22.3182H12.5114C11.9027 22.3182 11.4093 21.8248 11.4093 21.2161V3.32672C11.4093 2.71803 11.9027 2.22461 12.5114 2.22461Z" fill="#F79219"/>
<path d="M12.0705 11.0227C12.0121 11.0227 11.956 10.9995 11.9147 10.9582C11.8733 10.9168 11.8501 10.8608 11.8501 10.8023V4.52026C11.8501 4.4618 11.8733 4.40574 11.9147 4.3644C11.956 4.32306 12.0121 4.29984 12.0705 4.29984C12.129 4.29984 12.185 4.32306 12.2264 4.3644C12.2677 4.40574 12.2909 4.4618 12.2909 4.52026V10.8023C12.2909 10.8608 12.2677 10.9168 12.2264 10.9582C12.185 10.9995 12.129 11.0227 12.0705 11.0227ZM12.0705 3.85899C12.0121 3.85899 11.956 3.83577 11.9147 3.79443C11.8733 3.75309 11.8501 3.69703 11.8501 3.63857V3.613C11.8501 3.55454 11.8733 3.49848 11.9147 3.45714C11.956 3.4158 12.0121 3.39258 12.0705 3.39258C12.129 3.39258 12.185 3.4158 12.2264 3.45714C12.2677 3.49848 12.2909 3.55454 12.2909 3.613V3.63857C12.2909 3.69703 12.2677 3.75309 12.2264 3.79443C12.185 3.83577 12.129 3.85899 12.0705 3.85899Z" fill="#FFC91D"/>
<path d="M22.5963 8.77678H20.315C19.7063 8.77678 19.2129 8.28337 19.2129 7.67467V2.22461H23.6984V7.67478C23.6984 8.28337 23.2049 8.77678 22.5963 8.77678Z" fill="#8C3F0A"/>
<path d="M22.5966 8.77678C23.2053 8.77678 23.6987 8.28337 23.6987 7.67467V2.22461H21.4561V8.77689L22.5966 8.77678Z" fill="#7C3108"/>
<path d="M24.4719 19.6398H25.0392C25.1342 19.6398 25.2113 19.5628 25.2113 19.4678V17.1136H25.7097C25.8495 17.1136 25.931 16.9555 25.8496 16.8417L24.8956 15.5057C24.8797 15.4834 24.8587 15.4652 24.8344 15.4527C24.81 15.4401 24.7831 15.4336 24.7557 15.4336C24.7283 15.4336 24.7013 15.4401 24.6769 15.4527C24.6526 15.4652 24.6316 15.4834 24.6157 15.5057L23.6617 16.8417C23.5804 16.9555 23.6618 17.1136 23.8017 17.1136H24.3001V19.4678C24.3 19.4904 24.3044 19.5127 24.313 19.5336C24.3217 19.5545 24.3343 19.5735 24.3503 19.5894C24.3662 19.6054 24.3852 19.6181 24.4061 19.6267C24.4269 19.6354 24.4493 19.6398 24.4719 19.6398ZM27.9116 19.6398H28.4789C28.5739 19.6398 28.651 19.5628 28.651 19.4678V17.1136H29.1494C29.2892 17.1136 29.3707 16.9555 29.2893 16.8417L28.3353 15.5057C28.3194 15.4834 28.2984 15.4652 28.2741 15.4527C28.2497 15.4401 28.2227 15.4336 28.1954 15.4336C28.168 15.4336 28.141 15.4401 28.1166 15.4527C28.0923 15.4652 28.0713 15.4834 28.0554 15.5057L27.1014 16.8417C27.0201 16.9555 27.1015 17.1136 27.2414 17.1136H27.7397V19.4678C27.7397 19.4904 27.7441 19.5127 27.7528 19.5336C27.7614 19.5545 27.774 19.5734 27.79 19.5894C27.806 19.6054 27.8249 19.6181 27.8458 19.6267C27.8666 19.6354 27.889 19.6398 27.9116 19.6398ZM29.263 20.9851H23.6878C23.6294 20.9851 23.5733 20.9618 23.532 20.9205C23.4906 20.8792 23.4674 20.8231 23.4674 20.7646V20.3455C23.4674 20.287 23.4906 20.231 23.532 20.1896C23.5733 20.1483 23.6294 20.1251 23.6878 20.1251H29.263C29.3214 20.1251 29.3775 20.1483 29.4188 20.1896C29.4602 20.231 29.4834 20.287 29.4834 20.3455V20.7646C29.4834 20.8231 29.4602 20.8792 29.4188 20.9205C29.3775 20.9618 29.3214 20.9851 29.263 20.9851Z" fill="#6D2E03"/>
<path d="M11.7162 25.4097V13.6904C11.7162 12.731 13.4206 11.9532 15.5232 11.9531H5.90173L6.50349 12.6255L5.90173 13.2981L6.50349 13.9707L5.90173 14.6434L6.50349 15.3159L5.90173 15.9886L6.50349 16.6615L5.90173 17.334L6.50349 18.006L5.90173 18.6788L6.50349 19.3512L5.90173 20.0238L6.50349 20.6967L5.90173 21.3697L6.50349 22.0426L5.90173 22.7154L6.50349 23.3882L5.90173 24.0617L6.50349 24.7357L5.90173 25.4096L11.7162 25.4097Z" fill="#5E9CF7"/>
<path d="M8.61646 11.9531V12.1184C8.61646 12.1477 8.62807 12.1757 8.64874 12.1964C8.6694 12.217 8.69744 12.2287 8.72667 12.2287C8.7559 12.2287 8.78393 12.217 8.8046 12.1964C8.82527 12.1757 8.83688 12.1477 8.83688 12.1184V11.9531H8.61646ZM8.72667 24.7143C8.69744 24.7143 8.6694 24.7027 8.64874 24.682C8.62807 24.6613 8.61646 24.6333 8.61646 24.6041V24.2839C8.61646 24.2547 8.62807 24.2266 8.64874 24.206C8.6694 24.1853 8.69744 24.1737 8.72667 24.1737C8.7559 24.1737 8.78393 24.1853 8.8046 24.206C8.82527 24.2266 8.83688 24.2547 8.83688 24.2839V24.6041C8.83688 24.6333 8.82527 24.6613 8.8046 24.682C8.78393 24.7027 8.7559 24.7143 8.72667 24.7143ZM8.72667 23.7538C8.69744 23.7538 8.6694 23.7422 8.64874 23.7215C8.62807 23.7008 8.61646 23.6728 8.61646 23.6436V23.3234C8.61646 23.2942 8.62807 23.2661 8.64874 23.2455C8.6694 23.2248 8.69744 23.2132 8.72667 23.2132C8.7559 23.2132 8.78393 23.2248 8.8046 23.2455C8.82527 23.2661 8.83688 23.2942 8.83688 23.3234V23.6436C8.83688 23.6728 8.82527 23.7008 8.8046 23.7215C8.78393 23.7422 8.7559 23.7538 8.72667 23.7538ZM8.72667 22.7934C8.69744 22.7934 8.6694 22.7818 8.64874 22.7611C8.62807 22.7404 8.61646 22.7124 8.61646 22.6832V22.363C8.61646 22.3338 8.62807 22.3058 8.64874 22.2851C8.6694 22.2644 8.69744 22.2528 8.72667 22.2528C8.7559 22.2528 8.78393 22.2644 8.8046 22.2851C8.82527 22.3058 8.83688 22.3338 8.83688 22.363V22.6832C8.83688 22.7124 8.82527 22.7404 8.8046 22.7611C8.78393 22.7818 8.7559 22.7934 8.72667 22.7934ZM8.72667 21.833C8.69744 21.833 8.6694 21.8214 8.64874 21.8007C8.62807 21.7801 8.61646 21.752 8.61646 21.7228V21.4026C8.61646 21.3734 8.62807 21.3454 8.64874 21.3247C8.6694 21.304 8.69744 21.2924 8.72667 21.2924C8.7559 21.2924 8.78393 21.304 8.8046 21.3247C8.82527 21.3454 8.83688 21.3734 8.83688 21.4026V21.7228C8.83688 21.752 8.82527 21.7801 8.8046 21.8007C8.78393 21.8214 8.7559 21.833 8.72667 21.833ZM8.72667 20.8725C8.69744 20.8725 8.6694 20.8609 8.64874 20.8402C8.62807 20.8196 8.61646 20.7915 8.61646 20.7623V20.4421C8.61646 20.4129 8.62807 20.3849 8.64874 20.3642C8.6694 20.3435 8.69744 20.3319 8.72667 20.3319C8.7559 20.3319 8.78393 20.3435 8.8046 20.3642C8.82527 20.3849 8.83688 20.4129 8.83688 20.4421V20.7623C8.83688 20.7915 8.82527 20.8196 8.8046 20.8402C8.78393 20.8609 8.7559 20.8725 8.72667 20.8725ZM8.72667 19.912C8.69744 19.912 8.6694 19.9004 8.64874 19.8798C8.62807 19.8591 8.61646 19.8311 8.61646 19.8018V19.4817C8.61646 19.4524 8.62807 19.4244 8.64874 19.4037C8.6694 19.3831 8.69744 19.3714 8.72667 19.3714C8.7559 19.3714 8.78393 19.3831 8.8046 19.4037C8.82527 19.4244 8.83688 19.4524 8.83688 19.4817V19.8018C8.83688 19.8311 8.82527 19.8591 8.8046 19.8798C8.78393 19.9004 8.7559 19.912 8.72667 19.912ZM8.72667 18.9517C8.69744 18.9517 8.6694 18.94 8.64874 18.9194C8.62807 18.8987 8.61646 18.8707 8.61646 18.8414V18.5213C8.61646 18.492 8.62807 18.464 8.64874 18.4433C8.6694 18.4227 8.69744 18.4111 8.72667 18.4111C8.7559 18.4111 8.78393 18.4227 8.8046 18.4433C8.82527 18.464 8.83688 18.492 8.83688 18.5213V18.8414C8.83688 18.8707 8.82527 18.8987 8.8046 18.9194C8.78393 18.94 8.7559 18.9517 8.72667 18.9517ZM8.72667 17.9913C8.69744 17.9913 8.6694 17.9797 8.64874 17.959C8.62807 17.9383 8.61646 17.9103 8.61646 17.8811V17.5609C8.61646 17.5317 8.62807 17.5036 8.64874 17.483C8.6694 17.4623 8.69744 17.4507 8.72667 17.4507C8.7559 17.4507 8.78393 17.4623 8.8046 17.483C8.82527 17.5036 8.83688 17.5317 8.83688 17.5609V17.8811C8.83688 17.9103 8.82527 17.9383 8.8046 17.959C8.78393 17.9797 8.7559 17.9913 8.72667 17.9913ZM8.72667 17.0308C8.69744 17.0308 8.6694 17.0192 8.64874 16.9985C8.62807 16.9778 8.61646 16.9498 8.61646 16.9206V16.6004C8.61646 16.5712 8.62807 16.5431 8.64874 16.5225C8.6694 16.5018 8.69744 16.4902 8.72667 16.4902C8.7559 16.4902 8.78393 16.5018 8.8046 16.5225C8.82527 16.5431 8.83688 16.5712 8.83688 16.6004V16.9206C8.83688 16.9498 8.82527 16.9778 8.8046 16.9985C8.78393 17.0192 8.7559 17.0308 8.72667 17.0308ZM8.72667 16.0704C8.69744 16.0704 8.6694 16.0588 8.64874 16.0381C8.62807 16.0174 8.61646 15.9894 8.61646 15.9602V15.64C8.61646 15.6108 8.62807 15.5828 8.64874 15.5621C8.6694 15.5414 8.69744 15.5298 8.72667 15.5298C8.7559 15.5298 8.78393 15.5414 8.8046 15.5621C8.82527 15.5828 8.83688 15.6108 8.83688 15.64V15.9602C8.83688 15.9894 8.82527 16.0174 8.8046 16.0381C8.78393 16.0588 8.7559 16.0704 8.72667 16.0704ZM8.72667 15.1099C8.69744 15.1099 8.6694 15.0983 8.64874 15.0776C8.62807 15.057 8.61646 15.0289 8.61646 14.9997V14.6795C8.61646 14.6503 8.62807 14.6223 8.64874 14.6016C8.6694 14.5809 8.69744 14.5693 8.72667 14.5693C8.7559 14.5693 8.78393 14.5809 8.8046 14.6016C8.82527 14.6223 8.83688 14.6503 8.83688 14.6795V14.9997C8.83688 15.0289 8.82527 15.057 8.8046 15.0776C8.78393 15.0983 8.7559 15.1099 8.72667 15.1099ZM8.72667 14.1494C8.69744 14.1494 8.6694 14.1378 8.64874 14.1171C8.62807 14.0965 8.61646 14.0684 8.61646 14.0392V13.719C8.61646 13.6898 8.62807 13.6618 8.64874 13.6411C8.6694 13.6204 8.69744 13.6088 8.72667 13.6088C8.7559 13.6088 8.78393 13.6204 8.8046 13.6411C8.82527 13.6618 8.83688 13.6898 8.83688 13.719V14.0392C8.83688 14.0684 8.82527 14.0965 8.8046 14.1171C8.78393 14.1378 8.7559 14.1494 8.72667 14.1494ZM8.72667 13.189C8.69744 13.189 8.6694 13.1774 8.64874 13.1568C8.62807 13.1361 8.61646 13.1081 8.61646 13.0788V12.7587C8.61646 12.7294 8.62807 12.7014 8.64874 12.6807C8.6694 12.6601 8.69744 12.6484 8.72667 12.6484C8.7559 12.6484 8.78393 12.6601 8.8046 12.6807C8.82527 12.7014 8.83688 12.7294 8.83688 12.7587V13.0788C8.83688 13.1081 8.82527 13.1361 8.8046 13.1568C8.78393 13.1774 8.7559 13.189 8.72667 13.189ZM8.72667 25.1342C8.69744 25.1342 8.6694 25.1458 8.64874 25.1665C8.62807 25.1871 8.61646 25.2152 8.61646 25.2444V25.4097H8.83688V25.2444C8.83688 25.2152 8.82527 25.1871 8.8046 25.1665C8.78393 25.1458 8.7559 25.1342 8.72667 25.1342Z" fill="#F1F2F2"/>
<path d="M19.3314 13.6914V27.148C19.3314 28.1075 17.6267 28.8854 15.5238 28.8854C13.4208 28.8854 11.7161 28.1075 11.7161 27.148V13.6914H19.3314Z" fill="#377DE2"/>
<path d="M18.1936 13.6914V26.0099C18.1936 26.9694 16.4888 27.7473 14.3859 27.7473C13.3495 27.7473 12.4102 27.5581 11.7236 27.2516C11.841 28.1629 13.4973 28.8855 15.524 28.8855C17.627 28.8855 19.3317 28.1076 19.3317 27.1481V13.6914H18.1936Z" fill="#2266D3"/>
<path d="M15.5238 15.4276C17.6267 15.4276 19.3314 14.6498 19.3314 13.6904C19.3314 12.7309 17.6267 11.9531 15.5238 11.9531C13.4208 11.9531 11.7161 12.7309 11.7161 13.6904C11.7161 14.6498 13.4208 15.4276 15.5238 15.4276Z" fill="#478CF7"/>
<path d="M14.2448 13.6907C14.2448 13.9654 14.8173 14.188 15.5235 14.188C16.2298 14.188 16.8023 13.9654 16.8023 13.6907C16.8023 13.4161 16.2298 13.1934 15.5235 13.1934C14.8173 13.1935 14.2448 13.4161 14.2448 13.6907Z" fill="#2266D3"/>
</g>
<defs>
<clipPath id="clip0_2433_165528">
<rect width="28.2141" height="28.2141" fill="white" transform="translate(4.23218 1.47656)"/>
</clipPath>
</defs>
</svg>
