<svg width="34" height="34" viewBox="0 0 34 34" fill="none" xmlns="http://www.w3.org/2000/svg">
<g clip-path="url(#clip0_2433_165506)">
<path d="M31.0293 15.8857C31.029 14.9872 30.6718 14.1257 30.0365 13.4904C29.4011 12.8552 28.5395 12.4982 27.641 12.498H6.2159C5.31708 12.498 4.45508 12.8551 3.81952 13.4907C3.18396 14.1262 2.8269 14.9882 2.8269 15.887V21.5964H31.0293V15.8857Z" fill="#EF4351"/>
<path d="M31.0295 22.2287H2.82776C2.65957 22.2287 2.49827 22.1619 2.37934 22.0429C2.26042 21.924 2.1936 21.7627 2.1936 21.5945V15.8851C2.19483 14.8186 2.61898 13.796 3.37304 13.0417C4.1271 12.2874 5.14952 11.8629 6.2161 11.8613H27.6412C28.708 11.8626 29.7307 12.2869 30.4851 13.0412C31.2394 13.7956 31.6638 14.8183 31.665 15.8851V21.5945C31.665 21.6779 31.6485 21.7605 31.6166 21.8375C31.5846 21.9145 31.5378 21.9845 31.4788 22.0434C31.4198 22.1023 31.3497 22.149 31.2726 22.1808C31.1955 22.2126 31.1129 22.2289 31.0295 22.2287ZM3.46192 20.9617H30.3954V15.8851C30.3945 15.1549 30.104 14.4548 29.5877 13.9384C29.0714 13.4219 28.3714 13.1314 27.6412 13.1303H6.2161C5.48573 13.1312 4.78554 13.4217 4.26909 13.9381C3.75265 14.4546 3.46213 15.1548 3.46125 15.8851L3.46192 20.9617Z" fill="#5E1235"/>
<path d="M4.65784 21.5957H29.2352V25.076H4.65784V21.5957Z" fill="#EF4351"/>
<path d="M29.2353 25.7101H4.65796C4.48977 25.7101 4.32847 25.6433 4.20954 25.5244C4.09062 25.4055 4.0238 25.2442 4.0238 25.076V21.5957C4.02415 21.4278 4.09112 21.2668 4.21001 21.1482C4.3289 21.0295 4.49 20.9629 4.65796 20.9629H29.2353C29.4035 20.9629 29.5648 21.0297 29.6837 21.1486C29.8026 21.2676 29.8695 21.4289 29.8695 21.597V25.0773C29.8691 25.2453 29.8021 25.4062 29.6833 25.5249C29.5644 25.6435 29.4033 25.7101 29.2353 25.7101ZM5.29013 24.4412H28.6005V22.2299H5.29013V24.4412Z" fill="#5E1235"/>
<path d="M29.2352 22.0537V25.075H4.62148V22.0484C4.62148 21.7866 4.56991 21.5273 4.46972 21.2854C4.36952 21.0436 4.22266 20.8238 4.03753 20.6386C3.8524 20.4535 3.63261 20.3066 3.39072 20.2065C3.14883 20.1063 2.88958 20.0547 2.62776 20.0547C2.09899 20.0547 1.59188 20.2647 1.21798 20.6386C0.844085 21.0125 0.634033 21.5196 0.634033 22.0484V26.7606C0.634032 27.0642 0.693948 27.3648 0.810349 27.6452C0.926749 27.9256 1.09734 28.1803 1.31236 28.3946C1.52737 28.6089 1.78257 28.7787 2.06332 28.8942C2.34408 29.0098 2.64488 29.0687 2.94847 29.0678L4.62148 29.0625H29.2352L30.9049 29.0698C31.2085 29.0707 31.5093 29.0117 31.79 28.8962C32.0708 28.7807 32.326 28.6109 32.541 28.3966C32.756 28.1822 32.9266 27.9276 33.043 27.6472C33.1594 27.3668 33.2193 27.0662 33.2193 26.7626V22.0537C33.2193 21.5249 33.0093 21.0178 32.6354 20.6439C32.2615 20.27 31.7544 20.06 31.2256 20.06C30.6974 20.0609 30.1911 20.2713 29.818 20.6451C29.4448 21.0189 29.2352 21.5255 29.2352 22.0537Z" fill="#FFD150"/>
<path d="M30.9156 29.7043H30.9017L29.232 29.697H4.6216L2.95058 29.7023H2.94066C2.5544 29.7022 2.17194 29.6261 1.81511 29.4782C1.45829 29.3303 1.13409 29.1135 0.861025 28.8403C0.58796 28.5672 0.371377 28.2429 0.223642 27.886C0.0759067 27.5291 -8.67743e-05 27.1466 7.43567e-08 26.7603V22.0481C7.43567e-08 21.3511 0.2769 20.6826 0.769785 20.1897C1.26267 19.6968 1.93116 19.4199 2.62821 19.4199C3.32525 19.4199 3.99375 19.6968 4.48663 20.1897C4.97952 20.6826 5.25642 21.3511 5.25642 22.0481V24.4406H28.5992V22.0534C28.5992 21.3564 28.8761 20.6879 29.369 20.195C29.8618 19.7021 30.5303 19.4252 31.2274 19.4252C31.9244 19.4252 32.5929 19.7021 33.0858 20.195C33.5787 20.6879 33.8556 21.3564 33.8556 22.0534V26.763C33.8556 27.5431 33.5457 28.2912 32.9941 28.8428C32.4425 29.3944 31.6944 29.7043 30.9143 29.7043H30.9156ZM29.2347 28.428L30.9077 28.4353H30.9156C31.3592 28.4351 31.7846 28.2588 32.0982 27.9451C32.4118 27.6313 32.5879 27.2059 32.5879 26.7623V22.0534C32.5801 21.6981 32.4335 21.36 32.1794 21.1115C31.9254 20.863 31.5841 20.7238 31.2287 20.7238C30.8733 20.7238 30.5321 20.863 30.278 21.1115C30.024 21.36 29.8773 21.6981 29.8695 22.0534V25.0748C29.8695 25.2429 29.8027 25.4042 29.6837 25.5232C29.5648 25.6421 29.4035 25.7089 29.2353 25.7089H4.6216C4.45341 25.7089 4.29211 25.6421 4.17318 25.5232C4.05426 25.4042 3.98745 25.2429 3.98745 25.0748V22.0481C3.97961 21.6928 3.83296 21.3547 3.57891 21.1062C3.32486 20.8577 2.9836 20.7185 2.62821 20.7185C2.27282 20.7185 1.93156 20.8577 1.67751 21.1062C1.42346 21.3547 1.27681 21.6928 1.26897 22.0481V26.7603C1.2688 26.9805 1.3121 27.1986 1.39638 27.402C1.48067 27.6055 1.60429 27.7903 1.76015 27.9458C1.91601 28.1014 2.10105 28.2246 2.30465 28.3085C2.50825 28.3924 2.72641 28.4353 2.94661 28.4347L4.61962 28.4294L29.2347 28.428Z" fill="#5E1235"/>
<path d="M3.95105 29.0996H8.02909V31.2745H3.95105V29.0996Z" fill="white"/>
<path d="M8.02921 31.9068H3.95117C3.78298 31.9068 3.62168 31.84 3.50276 31.7211C3.38383 31.6021 3.31702 31.4408 3.31702 31.2726V29.0951C3.31702 28.9269 3.38383 28.7656 3.50276 28.6467C3.62168 28.5277 3.78298 28.4609 3.95117 28.4609H8.02921C8.19728 28.4611 8.35841 28.528 8.4772 28.6469C8.59598 28.7658 8.66271 28.927 8.6627 29.0951V31.27C8.66305 31.3534 8.64693 31.4361 8.61526 31.5133C8.58359 31.5905 8.53699 31.6607 8.47814 31.7199C8.41928 31.7791 8.34934 31.826 8.2723 31.8581C8.19527 31.8902 8.11266 31.9067 8.02921 31.9068ZM4.58533 30.6385H7.39439V29.7326H4.58533V30.6385Z" fill="#5E1235"/>
<path d="M25.7189 29.0996H29.7969V31.2745H25.7189V29.0996Z" fill="white"/>
<path d="M29.7967 31.9084H25.7186C25.5504 31.9084 25.3891 31.8416 25.2702 31.7227C25.1513 31.6037 25.0845 31.4424 25.0845 31.2743V29.0967C25.0845 28.9285 25.1513 28.7672 25.2702 28.6483C25.3891 28.5294 25.5504 28.4625 25.7186 28.4625H29.7967C29.88 28.4625 29.9625 28.4788 30.0396 28.5106C30.1166 28.5425 30.1866 28.5892 30.2455 28.6481C30.3045 28.7069 30.3512 28.7769 30.3832 28.8539C30.4151 28.9309 30.4315 29.0134 30.4315 29.0967V31.2716C30.4318 31.3552 30.4157 31.438 30.3839 31.5153C30.3522 31.5925 30.3054 31.6628 30.2465 31.722C30.1875 31.7811 30.1174 31.8281 30.0402 31.8601C29.963 31.8921 29.8802 31.9085 29.7967 31.9084ZM26.3528 30.6394H29.1619V29.7335H26.3535L26.3528 30.6394ZM21.7947 22.2301C21.6265 22.2301 21.4652 22.1633 21.3463 22.0444C21.2273 21.9254 21.1605 21.7641 21.1605 21.5959V16.8474C21.1605 16.6791 21.2274 16.5177 21.3464 16.3987C21.4653 16.2797 21.6267 16.2129 21.795 16.2129C21.9633 16.2129 22.1247 16.2797 22.2437 16.3987C22.3626 16.5177 22.4295 16.6791 22.4295 16.8474V21.5959C22.4295 21.6793 22.4131 21.7618 22.3812 21.8388C22.3492 21.9158 22.3025 21.9857 22.2435 22.0446C22.1846 22.1035 22.1146 22.1502 22.0376 22.182C21.9605 22.2138 21.878 22.2302 21.7947 22.2301ZM12.0621 22.2301C11.8939 22.2301 11.7326 22.1633 11.6137 22.0444C11.4948 21.9254 11.428 21.7641 11.428 21.5959V16.8474C11.428 16.6791 11.4948 16.5177 11.6138 16.3987C11.7328 16.2797 11.8942 16.2129 12.0625 16.2129C12.2307 16.2129 12.3921 16.2797 12.5111 16.3987C12.6301 16.5177 12.697 16.6791 12.697 16.8474V21.5959C12.697 21.6793 12.6805 21.7618 12.6486 21.8388C12.6167 21.9158 12.5699 21.9857 12.511 22.0446C12.452 22.1035 12.382 22.1502 12.305 22.182C12.228 22.2138 12.1455 22.2302 12.0621 22.2301Z" fill="#5E1235"/>
<path d="M13.5666 12.8153C12.9988 12.2478 12.6165 11.5214 12.4702 10.732C12.3239 9.94261 12.4205 9.12742 12.7473 8.39411L14.4044 10.0519C14.538 10.1854 14.6969 10.291 14.8718 10.3624C15.0466 10.4338 15.234 10.4697 15.4228 10.4679C15.6117 10.4661 15.7983 10.4267 15.9718 10.352C16.1453 10.2773 16.3021 10.1687 16.4332 10.0327C16.9768 9.46933 16.9344 8.56141 16.381 8.00793L14.7582 6.38386C15.4915 6.05672 16.3067 5.95975 17.0963 6.10578C17.8858 6.2518 18.6125 6.63394 19.1803 7.2017C19.748 7.76946 20.1302 8.49612 20.2762 9.28566C20.4222 10.0752 20.3252 10.8905 19.9981 11.6237L23.5689 15.1946C24.718 13.5348 25.2039 11.5049 24.9309 9.50468C24.658 7.50449 23.6459 5.67901 22.0941 4.38782C20.5423 3.09662 18.5632 2.43331 16.5467 2.52853C14.5302 2.62375 12.6225 3.4706 11.1993 4.90228C9.77605 6.33397 8.9405 8.24669 8.85722 10.2637C8.77394 12.2807 9.44896 14.2558 10.7493 15.7999C12.0497 17.3441 13.8811 18.3453 15.8829 18.6064C17.8847 18.8676 19.9117 18.3697 21.5646 17.2108L17.9865 13.634C17.2534 13.9606 16.4386 14.0571 15.6494 13.911C14.8603 13.7648 14.1341 13.3828 13.5666 12.8153Z" fill="white"/>
<path d="M16.9284 19.2467C12.1593 19.2467 8.27966 15.367 8.27966 10.5979C8.27966 5.82888 12.1593 1.94922 16.9284 1.94922C21.6974 1.94922 25.5771 5.82888 25.5771 10.5979C25.5806 12.3577 25.044 14.0761 24.0397 15.5211C23.992 15.5897 23.9298 15.647 23.8575 15.689C23.7853 15.7309 23.7047 15.7565 23.6214 15.764C23.5382 15.7714 23.4544 15.7605 23.3758 15.732C23.2973 15.7035 23.2259 15.6582 23.1668 15.5991L19.5959 12.0283C19.5143 11.9465 19.4594 11.842 19.4384 11.7285C19.4174 11.6149 19.4313 11.4976 19.4782 11.3921C19.7272 10.8335 19.8206 10.218 19.7487 9.61063C19.6768 9.00328 19.4422 8.42662 19.0697 7.94158C18.6971 7.45653 18.2005 7.08111 17.6322 6.85496C17.064 6.62882 16.4452 6.56035 15.8413 6.65678L16.7849 7.60438C17.5658 8.38534 17.593 9.65431 16.8444 10.4293C16.6607 10.62 16.4409 10.7721 16.1977 10.8768C15.9545 10.9815 15.693 11.0367 15.4282 11.0391C15.1635 11.0416 14.9009 10.9913 14.6559 10.8911C14.4108 10.791 14.1882 10.643 14.001 10.4558L13.0203 9.47511C12.9374 10.005 12.9803 10.5469 13.1455 11.0572C13.3107 11.5674 13.5935 12.0317 13.9712 12.4125C14.4587 12.8959 15.0806 13.2214 15.7557 13.3464C16.4308 13.4715 17.128 13.3903 17.7563 13.1134C17.8618 13.0664 17.9791 13.0525 18.0926 13.0735C18.2062 13.0946 18.3107 13.1495 18.3924 13.2311L21.9712 16.8099C22.0302 16.8688 22.0755 16.9399 22.1041 17.0182C22.1326 17.0966 22.1437 17.1802 22.1365 17.2632C22.1294 17.3463 22.1041 17.4267 22.0625 17.499C22.0209 17.5712 21.964 17.6335 21.8958 17.6814C20.4417 18.7043 18.7062 19.2511 16.9284 19.2467ZM16.9284 3.09123C15.7778 3.09076 14.6424 3.35479 13.6101 3.86295C12.5778 4.3711 11.6761 5.10976 10.9746 6.02187C10.2732 6.93398 9.79088 7.99513 9.56485 9.12333C9.33882 10.2515 9.37517 11.4166 9.67109 12.5285C9.96701 13.6404 10.5146 14.6694 11.2715 15.5361C12.0284 16.4027 12.9744 17.0837 14.0364 17.5265C15.0984 17.9693 16.248 18.1621 17.3963 18.0899C18.5447 18.0177 19.6611 17.6824 20.6593 17.1101L17.8475 14.301C17.0431 14.5736 16.1786 14.6167 15.3511 14.4254C14.5235 14.2341 13.7656 13.8159 13.1625 13.2179C12.5164 12.5665 12.0815 11.7357 11.9144 10.8336C11.7473 9.93157 11.8557 9.00009 12.2254 8.16051C12.2632 8.07589 12.321 8.00171 12.3937 7.94438C12.4665 7.88706 12.5522 7.84829 12.6433 7.83144C12.7344 7.81458 12.8283 7.82014 12.9167 7.84763C13.0052 7.87512 13.0857 7.92372 13.1512 7.98924L14.8077 9.64571C14.8876 9.72568 14.9827 9.78891 15.0873 9.83171C15.1919 9.87451 15.3041 9.89601 15.4171 9.89497C15.5301 9.89392 15.6419 9.87034 15.7457 9.82561C15.8495 9.78089 15.9434 9.71591 16.0218 9.63447C16.3412 9.30384 16.3213 8.75366 15.9768 8.4098L14.3534 6.78639C14.2879 6.72087 14.2393 6.6404 14.2118 6.55191C14.1843 6.46343 14.1788 6.36958 14.1956 6.27847C14.2125 6.18736 14.2512 6.10171 14.3086 6.02892C14.3659 5.95612 14.4401 5.89836 14.5247 5.86062C15.3322 5.50117 16.2271 5.38529 17.0996 5.5272C17.972 5.66912 18.7841 6.06265 19.436 6.65951C20.088 7.25637 20.5516 8.03058 20.7698 8.88714C20.988 9.7437 20.9515 10.6453 20.6645 11.4814L23.4683 14.2832C24.1111 13.1409 24.4437 11.8502 24.4331 10.5395C24.4224 9.22876 24.0688 7.94366 23.4075 6.81195C22.7462 5.68025 21.8002 4.74135 20.6635 4.0886C19.5269 3.43586 18.2391 3.092 16.9284 3.09123Z" fill="#5E1235"/>
<path d="M23.5708 15.196L20 11.6251C20.3271 10.8919 20.4241 10.0766 20.278 9.28707C20.132 8.49752 19.7499 7.77086 19.1821 7.2031C18.6144 6.63534 17.8877 6.25321 17.0982 6.10718C16.3086 5.96116 15.4934 6.05812 14.7601 6.38526L16.3835 8.00867C16.937 8.56216 16.9786 9.47008 16.4357 10.0335C16.3047 10.1695 16.1478 10.278 15.9744 10.3528C15.8009 10.4275 15.6142 10.4669 15.4254 10.4687C15.2365 10.4704 15.0492 10.4346 14.8743 10.3632C14.6994 10.2917 14.5406 10.1862 14.407 10.0527L12.7505 8.39618C12.4249 9.12893 12.329 9.94312 12.4754 10.7315C12.6217 11.5198 13.0035 12.2453 13.5704 12.8124C14.1373 13.3794 14.8627 13.7614 15.651 13.908C16.4394 14.0545 17.2536 13.9588 17.9864 13.6334L21.5652 17.2122C22.3471 16.6633 23.026 15.9808 23.5708 15.196Z" fill="#7BF6FF"/>
<path d="M21.5668 17.7831C21.4914 17.7834 21.4167 17.7687 21.347 17.74C21.2773 17.7113 21.214 17.6691 21.1608 17.6158L17.8478 14.3008C17.0117 14.5877 16.1101 14.6243 15.2535 14.4061C14.397 14.1878 13.6228 13.7243 13.0259 13.0723C12.4291 12.4203 12.0355 11.6083 11.8936 10.7358C11.7517 9.86339 11.8676 8.96848 12.227 8.16095C12.2648 8.07632 12.3225 8.00215 12.3953 7.94482C12.4681 7.8875 12.5538 7.84873 12.6449 7.83188C12.736 7.81502 12.8298 7.82058 12.9183 7.84807C13.0068 7.87556 13.0873 7.92416 13.1528 7.98968L14.8093 9.64615C14.8892 9.72612 14.9842 9.78935 15.0889 9.83215C15.1935 9.87495 15.3056 9.89645 15.4187 9.8954C15.5317 9.89436 15.6434 9.87078 15.7473 9.82605C15.8511 9.78133 15.9449 9.71635 16.0234 9.63491C16.3428 9.30428 16.3229 8.7541 15.9784 8.41025L14.355 6.78683C14.2895 6.72131 14.2409 6.64084 14.2134 6.55235C14.1859 6.46387 14.1803 6.37002 14.1972 6.27891C14.214 6.1878 14.2528 6.10215 14.3101 6.02936C14.3675 5.95656 14.4416 5.8988 14.5263 5.86106C15.3338 5.50161 16.2287 5.38573 17.1011 5.52764C17.9736 5.66956 18.7856 6.06309 19.4376 6.65995C20.0896 7.25681 20.5532 8.03102 20.7714 8.88758C20.9896 9.74414 20.953 10.6458 20.6661 11.4818L23.9725 14.7882C24.0667 14.8826 24.1249 15.0071 24.1369 15.1399C24.149 15.2728 24.1142 15.4057 24.0386 15.5156C23.4565 16.356 22.7302 17.0867 21.8934 17.6739C21.7984 17.7431 21.6843 17.7812 21.5668 17.7831ZM17.9867 13.0623C18.0617 13.0623 18.136 13.077 18.2053 13.1057C18.2746 13.1344 18.3376 13.1765 18.3907 13.2296L21.619 16.4579C22.063 16.1025 22.4652 15.6979 22.8179 15.2517L19.5935 12.0274C19.5119 11.9457 19.457 11.8411 19.436 11.7276C19.415 11.614 19.4289 11.4967 19.4758 11.3912C19.7248 10.8326 19.8183 10.2171 19.7463 9.60975C19.6744 9.00239 19.4398 8.42574 19.0673 7.94069C18.6947 7.45565 18.1981 7.08023 17.6298 6.85408C17.0616 6.62794 16.4428 6.55947 15.8389 6.6559L16.7851 7.60416C17.5661 8.38512 17.5932 9.65409 16.8447 10.4291C16.661 10.6197 16.4411 10.7719 16.198 10.8766C15.9548 10.9813 15.6932 11.0365 15.4285 11.0389C15.1638 11.0414 14.9012 10.9911 14.6561 10.8909C14.4111 10.7907 14.1884 10.6427 14.0012 10.4555L13.0205 9.47489C12.9241 10.0788 12.9926 10.6976 13.2187 11.2659C13.4449 11.8341 13.8203 12.3307 14.3053 12.7033C14.7904 13.0758 15.367 13.3104 15.9744 13.3824C16.5817 13.4543 17.1972 13.3608 17.7559 13.1119C17.8285 13.0794 17.9071 13.0625 17.9867 13.0623Z" fill="#5E1235"/>
<path d="M5.56255 18.7892C5.41102 18.7892 5.2657 18.729 5.15855 18.6219C5.0514 18.5147 4.99121 18.3694 4.99121 18.2179V15.7374C4.99625 15.5894 5.05862 15.449 5.16515 15.3461C5.27168 15.2431 5.41405 15.1855 5.56222 15.1855C5.71038 15.1855 5.85275 15.2431 5.95928 15.3461C6.06581 15.449 6.12818 15.5894 6.13322 15.7374V18.2179C6.13322 18.3693 6.07312 18.5145 5.96611 18.6216C5.85911 18.7288 5.71396 18.789 5.56255 18.7892Z" fill="white"/>
</g>
<defs>
<clipPath id="clip0_2433_165506">
<rect width="33.8569" height="33.8569" fill="white"/>
</clipPath>
</defs>
</svg>
