<svg width="36" height="37" viewBox="0 0 36 37" fill="none" xmlns="http://www.w3.org/2000/svg">
<rect y="2.82227" width="33.8569" height="33.8569" rx="16.9285" fill="#FEF056"/>
<g clip-path="url(#clip0_2433_165550)">
<path d="M30.6815 16.9297H25.3913V25.3939H6.3468V29.626H32.7975C33.0781 29.626 33.3472 29.5146 33.5457 29.3161C33.7441 29.1177 33.8555 28.8486 33.8555 28.568V22.2198L30.6815 16.9297Z" fill="#3CC8B4"/>
<path d="M4.23071 25.3926H6.34677V29.6247H4.23071V25.3926Z" fill="#1EAA96"/>
<path d="M30.6814 16.9286H25.3912V14.8125H30.6814C30.962 14.8125 31.2311 14.924 31.4295 15.1224C31.6279 15.3208 31.7394 15.5899 31.7394 15.8705C31.7394 16.1511 31.6279 16.4202 31.4295 16.6187C31.2311 16.8171 30.962 16.9286 30.6814 16.9286Z" fill="#505050"/>
<path d="M33.8562 22.2198H27.5081V16.9297H30.6821L33.8562 22.2198Z" fill="#F0F0F0"/>
<path d="M31.2104 26.45H33.8555V24.334H31.2104C31.0701 24.334 30.9356 24.3897 30.8363 24.4889C30.7371 24.5881 30.6814 24.7227 30.6814 24.863V25.921C30.6814 26.0613 30.7371 26.1959 30.8363 26.2951C30.9356 26.3943 31.0701 26.45 31.2104 26.45Z" fill="#FAB400"/>
<path d="M29.0944 31.7418C28.747 31.7418 28.403 31.6733 28.0821 31.5404C27.7612 31.4074 27.4696 31.2125 27.224 30.9669C26.9783 30.7212 26.7835 30.4295 26.6506 30.1086C26.5177 29.7876 26.4493 29.4436 26.4493 29.0962C26.4494 28.7489 26.5178 28.4049 26.6508 28.0839C26.7838 27.763 26.9787 27.4714 27.2243 27.2258C27.47 26.9802 27.7616 26.7853 28.0826 26.6524C28.4036 26.5195 28.7475 26.4511 29.0949 26.4512C29.7965 26.4512 30.4693 26.73 30.9654 27.2262C31.4614 27.7223 31.7401 28.3952 31.74 29.0968C31.7399 29.7984 31.4612 30.4712 30.965 30.9672C30.4689 31.4633 29.796 31.7419 29.0944 31.7418ZM8.99187 31.7418C8.64448 31.7418 8.3005 31.6733 7.97957 31.5404C7.65863 31.4074 7.36703 31.2125 7.12142 30.9669C6.8758 30.7212 6.68097 30.4295 6.54806 30.1086C6.41516 29.7876 6.34677 29.4436 6.3468 29.0962C6.34684 28.7489 6.41529 28.4049 6.54827 28.0839C6.68124 27.763 6.87612 27.4714 7.12179 27.2258C7.36746 26.9802 7.6591 26.7853 7.98006 26.6524C8.30102 26.5195 8.64501 26.4511 8.9924 26.4512C9.69399 26.4512 10.3668 26.73 10.8629 27.2262C11.3589 27.7223 11.6375 28.3952 11.6375 29.0968C11.6374 29.7984 11.3586 30.4712 10.8625 30.9672C10.3663 31.4633 9.69346 31.7419 8.99187 31.7418Z" fill="#505050"/>
<path d="M29.0953 30.1529C28.9544 30.1561 28.8142 30.1311 28.6831 30.0794C28.552 30.0277 28.4326 29.9503 28.3318 29.8518C28.231 29.7533 28.1509 29.6356 28.0962 29.5057C28.0415 29.3758 28.0133 29.2363 28.0133 29.0954C28.0133 28.9545 28.0414 28.8149 28.096 28.685C28.1507 28.5551 28.2307 28.4374 28.3314 28.3389C28.4322 28.2403 28.5516 28.1629 28.6826 28.1111C28.8137 28.0593 28.9538 28.0343 29.0947 28.0374C29.3712 28.0435 29.6342 28.1576 29.8276 28.3552C30.021 28.5529 30.1293 28.8184 30.1294 29.0949C30.1294 29.3714 30.0213 29.6369 29.828 29.8347C29.6347 30.0324 29.3717 30.1466 29.0953 30.1529ZM8.99271 30.1529C8.85182 30.1561 8.7117 30.1311 8.5806 30.0794C8.4495 30.0277 8.33004 29.9503 8.22926 29.8518C8.12847 29.7533 8.04838 29.6356 7.99369 29.5057C7.93899 29.3758 7.9108 29.2363 7.91077 29.0954C7.91073 28.9545 7.93885 28.8149 7.99348 28.685C8.04811 28.5551 8.12814 28.4374 8.22888 28.3389C8.32962 28.2403 8.44903 28.1629 8.58011 28.1111C8.71119 28.0593 8.85129 28.0343 8.99219 28.0374C9.26863 28.0435 9.53169 28.1576 9.72507 28.3552C9.91844 28.5529 10.0268 28.8184 10.0268 29.0949C10.0269 29.3714 9.91871 29.6369 9.72544 29.8347C9.53216 30.0324 9.26915 30.1466 8.99271 30.1529Z" fill="#F0F0F0"/>
<path d="M27.5081 16.9297H28.5661V22.2198H27.5081V16.9297Z" fill="#D2D2D2"/>
<path d="M19.3958 9.69921V8.46484H4.58337C4.25599 8.46484 3.94203 8.59489 3.71054 8.82638C3.47905 9.05787 3.349 9.37184 3.349 9.69921V18.3398H21.8645V12.1679C20.503 12.1679 19.3958 11.0607 19.3958 9.69921Z" fill="#FA6450"/>
<path d="M7.0521 8.46484H4.58337C4.25599 8.46484 3.94203 8.59489 3.71054 8.82638C3.47905 9.05787 3.349 9.37184 3.349 9.69921V18.3398H5.81773V9.69921C5.81773 9.37184 5.94778 9.05787 6.17927 8.82638C6.41076 8.59489 6.72472 8.46484 7.0521 8.46484Z" fill="#DC4632"/>
<path d="M8.90612 12.168C8.74244 12.168 8.58545 12.1029 8.46971 11.9872C8.35396 11.8714 8.28894 11.7145 8.28894 11.5508C8.28894 11.3871 8.35396 11.2301 8.46971 11.1144C8.58545 10.9986 8.74244 10.9336 8.90612 10.9336C9.06981 10.9336 9.22679 10.9986 9.34254 11.1144C9.45828 11.2301 9.52331 11.3871 9.52331 11.5508C9.52331 11.7145 9.45828 11.8714 9.34254 11.9872C9.22679 12.1029 9.06981 12.168 8.90612 12.168ZM16.3123 12.168C16.1486 12.168 15.9917 12.1029 15.8759 11.9872C15.7602 11.8714 15.6951 11.7145 15.6951 11.5508C15.6951 11.3871 15.7602 11.2301 15.8759 11.1144C15.9917 10.9986 16.1486 10.9336 16.3123 10.9336C16.476 10.9336 16.633 10.9986 16.7487 11.1144C16.8645 11.2301 16.9295 11.3871 16.9295 11.5508C16.9295 11.7145 16.8645 11.8714 16.7487 11.9872C16.633 12.1029 16.476 12.168 16.3123 12.168Z" fill="#BE2814"/>
<path d="M4.58411 15.8711H20.6309V17.1055H4.58411V15.8711Z" fill="#FAB400"/>
<path d="M22.4818 12.168C21.9907 12.168 21.5198 12.363 21.1725 12.7103C20.8253 13.0575 20.6302 13.5285 20.6302 14.0195V17.1054H4.58347V14.0195C4.58347 13.7764 4.53558 13.5356 4.44253 13.311C4.34948 13.0863 4.2131 12.8822 4.04116 12.7103C3.86923 12.5383 3.66512 12.402 3.44048 12.3089C3.21584 12.2159 2.97507 12.168 2.73192 12.168C2.48877 12.168 2.248 12.2159 2.02336 12.3089C1.79872 12.402 1.59461 12.5383 1.42268 12.7103C1.25075 12.8822 1.11436 13.0863 1.02131 13.311C0.928263 13.5356 0.880371 13.7764 0.880371 14.0195C0.881054 14.4013 1.00014 14.7735 1.22122 15.0848C1.44229 15.3961 1.75448 15.6311 2.11474 15.7575V20.8085C2.11474 21.1359 2.24479 21.4499 2.47627 21.6814C2.70776 21.9129 3.02173 22.0429 3.3491 22.0429H21.8646C22.192 22.0429 22.5059 21.9129 22.7374 21.6814C22.9689 21.4499 23.099 21.1359 23.099 20.8085V15.7575C23.4592 15.6311 23.7714 15.3961 23.9925 15.0848C24.2136 14.7735 24.3326 14.4013 24.3333 14.0195C24.3333 13.5285 24.1383 13.0575 23.791 12.7103C23.4438 12.363 22.9728 12.168 22.4818 12.168Z" fill="#BE2814"/>
<path d="M4.58411 22.043H7.05284V23.2773H4.58411V22.043ZM18.1621 22.043H20.6309V23.2773H18.1621V22.043Z" fill="#505050"/>
<path d="M4.23071 23.2773H25.3913V25.3934H4.23071V23.2773Z" fill="#FAB400"/>
<path d="M4.23071 23.2773H6.34677V25.3934H4.23071V23.2773Z" fill="#DC9600"/>
</g>
<defs>
<clipPath id="clip0_2433_165550">
<rect width="35.2676" height="33.8569" fill="white" transform="translate(0.705322)"/>
</clipPath>
</defs>
</svg>
