<svg width="32" height="33" viewBox="0 0 32 33" fill="none" xmlns="http://www.w3.org/2000/svg">
<path d="M0 16.5C0 7.77885 7.06986 0.708984 15.791 0.708984C24.5267 0.708984 31.6319 7.85697 31.5818 16.5926C31.558 20.7377 29.9371 24.5044 27.3032 27.3086C27.1999 27.4186 27.0292 27.4271 26.9117 27.3325C24.2042 25.1525 20.7623 23.8477 17.0156 23.8477C12.5723 23.8477 8.55757 25.6829 5.68812 28.6367C2.21216 25.7401 0 21.3784 0 16.5Z" fill="#1380E2"/>
<path d="M29.1862 0.904084C29.1862 0.904084 27.3152 1.96124 27.3152 3.86719V27.2958C24.434 30.3702 20.3368 32.291 15.791 32.291C11.8126 32.291 8.17793 30.8198 5.40116 28.3917V25.3934L5.40103 16.7579H5.40039V3.86719C5.40039 1.74623 7.10788 0.024041 9.22323 0.000257812C9.23497 6.44531e-05 9.24676 0 9.25855 0H28.5962C29.0616 0 29.3736 0.478113 29.1862 0.904084Z" fill="#E9F3FE"/>
<path d="M7.02545 3.86719V16.7578H5.40039V3.86719C5.40039 1.7314 7.13179 0 9.26758 0H10.8926C8.75685 0 7.02545 1.7314 7.02545 3.86719Z" fill="#C8E2FD"/>
<path d="M24.4277 26.2646C24.4277 26.1364 24.3768 26.0135 24.2862 25.9228C24.1955 25.8322 24.0725 25.7812 23.9443 25.7812H21.0439C20.9157 25.7812 20.7928 25.8322 20.7021 25.9228C20.6115 26.0135 20.5605 26.1364 20.5605 26.2646C20.5605 26.3929 20.6115 26.5158 20.7021 26.6065C20.7928 26.6971 20.9157 26.748 21.0439 26.748H23.9443C24.0725 26.748 24.1955 26.6971 24.2862 26.6065C24.3768 26.5158 24.4277 26.3929 24.4277 26.2646ZM23.9443 27.7148H22.333C22.2048 27.7148 22.0818 27.7658 21.9912 27.8564C21.9005 27.9471 21.8496 28.07 21.8496 28.1982C21.8496 28.3264 21.9005 28.4494 21.9912 28.5401C22.0818 28.6307 22.2048 28.6816 22.333 28.6816H23.9443C24.0725 28.6816 24.1955 28.6307 24.2862 28.5401C24.3768 28.4494 24.4277 28.3264 24.4277 28.1982C24.4277 28.07 24.3768 27.9471 24.2862 27.8564C24.1955 27.7658 24.0725 27.7148 23.9443 27.7148ZM9.44238 5.47852H21.3662C21.4944 5.47852 21.6174 5.42759 21.708 5.33693C21.7987 5.24628 21.8496 5.12332 21.8496 4.99512C21.8496 4.86691 21.7987 4.74396 21.708 4.6533C21.6174 4.56265 21.4944 4.51172 21.3662 4.51172H9.44238C9.31418 4.51172 9.19122 4.56265 9.10057 4.6533C9.00991 4.74396 8.95898 4.86691 8.95898 4.99512C8.95898 5.12332 9.00991 5.24628 9.10057 5.33693C9.19122 5.42759 9.31418 5.47852 9.44238 5.47852ZM19.4326 6.44531H9.44238C9.31418 6.44531 9.19122 6.49624 9.10057 6.5869C9.00991 6.67755 8.95898 6.80051 8.95898 6.92871C8.95898 7.05692 9.00991 7.17987 9.10057 7.27053C9.19122 7.36118 9.31418 7.41211 9.44238 7.41211H19.4326C19.5608 7.41211 19.6838 7.36118 19.7744 7.27053C19.8651 7.17987 19.916 7.05692 19.916 6.92871C19.916 6.80051 19.8651 6.67755 19.7744 6.5869C19.6838 6.49624 19.5608 6.44531 19.4326 6.44531Z" fill="#A7D0FC"/>
<path d="M23.9443 21.9141H9.44238C9.31418 21.9141 9.19122 21.8631 9.10057 21.7725C9.00991 21.6818 8.95898 21.5589 8.95898 21.4307V11.4404C8.95898 11.3122 9.00991 11.1893 9.10057 11.0986C9.19122 11.008 9.31418 10.957 9.44238 10.957H23.9443C24.0725 10.957 24.1955 11.008 24.2862 11.0986C24.3768 11.1893 24.4277 11.3122 24.4277 11.4404V21.4307C24.4277 21.5589 24.3768 21.6818 24.2862 21.7725C24.1955 21.8631 24.0725 21.9141 23.9443 21.9141Z" fill="#C8E2FD"/>
<path d="M24.4277 11.6016H8.95898V9.18457C8.95898 9.05637 9.00991 8.93341 9.10057 8.84276C9.19122 8.7521 9.31418 8.70117 9.44238 8.70117H23.9443C24.0725 8.70117 24.1955 8.7521 24.2862 8.84276C24.3768 8.93341 24.4277 9.05637 24.4277 9.18457V11.6016Z" fill="#82CD64"/>
<path d="M24.4277 13.6953V15.6289H8.95898V13.6953H24.4277ZM8.95898 19.335H24.4277V17.4014H8.95898V19.335Z" fill="#ABDE97"/>
<path d="M16.0488 9.66797H10.7314C10.6032 9.66797 10.4803 9.7189 10.3896 9.80955C10.299 9.90021 10.248 10.0232 10.248 10.1514C10.248 10.2796 10.299 10.4025 10.3896 10.4932C10.4803 10.5838 10.6032 10.6348 10.7314 10.6348H16.0488C16.177 10.6348 16.3 10.5838 16.3906 10.4932C16.4813 10.4025 16.5322 10.2796 16.5322 10.1514C16.5322 10.0232 16.4813 9.90021 16.3906 9.80955C16.3 9.7189 16.177 9.66797 16.0488 9.66797ZM23.1387 9.66797H21.0439C20.9157 9.66797 20.7928 9.7189 20.7021 9.80955C20.6115 9.90021 20.5605 10.0232 20.5605 10.1514C20.5605 10.2796 20.6115 10.4025 20.7021 10.4932C20.7928 10.5838 20.9157 10.6348 21.0439 10.6348H23.1387C23.2669 10.6348 23.3898 10.5838 23.4805 10.4932C23.5711 10.4025 23.6221 10.2796 23.6221 10.1514C23.6221 10.0232 23.5711 9.90021 23.4805 9.80955C23.3898 9.7189 23.2669 9.66797 23.1387 9.66797Z" fill="#5DB33A"/>
<path d="M23.9443 24.4922H21.0439C20.9157 24.4922 20.7928 24.4413 20.7021 24.3506C20.6115 24.2599 20.5605 24.137 20.5605 24.0088C20.5605 23.8806 20.6115 23.7576 20.7021 23.667C20.7928 23.5763 20.9157 23.5254 21.0439 23.5254H23.9443C24.0725 23.5254 24.1955 23.5763 24.2862 23.667C24.3768 23.7576 24.4277 23.8806 24.4277 24.0088C24.4277 24.137 24.3768 24.2599 24.2862 24.3506C24.1955 24.4413 24.0725 24.4922 23.9443 24.4922ZM8.95898 2.41699C8.95898 2.28879 9.00991 2.16583 9.10057 2.07518C9.19122 1.98452 9.31418 1.93359 9.44238 1.93359H14.2764C14.4046 1.93359 14.5275 1.98452 14.6182 2.07518C14.7088 2.16583 14.7598 2.28879 14.7598 2.41699C14.7598 2.5452 14.7088 2.66815 14.6182 2.75881C14.5275 2.84946 14.4046 2.90039 14.2764 2.90039H9.44238C9.31418 2.90039 9.19122 2.84946 9.10057 2.75881C9.00991 2.66815 8.95898 2.5452 8.95898 2.41699ZM23.1387 20.1201H21.0439C20.9157 20.1201 20.7928 20.1711 20.7021 20.2617C20.6115 20.3524 20.5605 20.4753 20.5605 20.6035C20.5605 20.7317 20.6115 20.8547 20.7021 20.9454C20.7928 21.036 20.9157 21.0869 21.0439 21.0869H23.1387C23.2669 21.0869 23.3898 21.036 23.4805 20.9454C23.5711 20.8547 23.6221 20.7317 23.6221 20.6035C23.6221 20.4753 23.5711 20.3524 23.4805 20.2617C23.3898 20.1711 23.2669 20.1201 23.1387 20.1201Z" fill="#55A4F9"/>
<path d="M14.2764 12.1172H10.7314C10.6032 12.1172 10.4803 12.1681 10.3896 12.2588C10.299 12.3494 10.248 12.4724 10.248 12.6006C10.248 12.7288 10.299 12.8517 10.3896 12.9424C10.4803 13.0331 10.6032 13.084 10.7314 13.084H14.2764C14.4046 13.084 14.5275 13.0331 14.6182 12.9424C14.7088 12.8517 14.7598 12.7288 14.7598 12.6006C14.7598 12.4724 14.7088 12.3494 14.6182 12.2588C14.5275 12.1681 14.4046 12.1172 14.2764 12.1172ZM23.1387 12.1172H22.333C22.2048 12.1172 22.0818 12.1681 21.9912 12.2588C21.9005 12.3494 21.8496 12.4724 21.8496 12.6006C21.8496 12.7288 21.9005 12.8517 21.9912 12.9424C22.0818 13.0331 22.2048 13.084 22.333 13.084H23.1387C23.2669 13.084 23.3898 13.0331 23.4805 12.9424C23.5711 12.8517 23.6221 12.7288 23.6221 12.6006C23.6221 12.4724 23.5711 12.3494 23.4805 12.2588C23.3898 12.1681 23.2669 12.1172 23.1387 12.1172ZM23.1387 16.1455H22.333C22.2048 16.1455 22.0818 16.1964 21.9912 16.2871C21.9005 16.3777 21.8496 16.5007 21.8496 16.6289C21.8496 16.7571 21.9005 16.8801 21.9912 16.9707C22.0818 17.0614 22.2048 17.1123 22.333 17.1123H23.1387C23.2669 17.1123 23.3898 17.0614 23.4805 16.9707C23.5711 16.8801 23.6221 16.7571 23.6221 16.6289C23.6221 16.5007 23.5711 16.3777 23.4805 16.2871C23.3898 16.1964 23.2669 16.1455 23.1387 16.1455Z" fill="#A7D0FC"/>
<path d="M14.2764 14.1797H10.7314C10.6032 14.1797 10.4803 14.2306 10.3896 14.3213C10.299 14.4119 10.248 14.5349 10.248 14.6631C10.248 14.7913 10.299 14.9142 10.3896 15.0049C10.4803 15.0956 10.6032 15.1465 10.7314 15.1465H14.2764C14.4046 15.1465 14.5275 15.0956 14.6182 15.0049C14.7088 14.9142 14.7598 14.7913 14.7598 14.6631C14.7598 14.5349 14.7088 14.4119 14.6182 14.3213C14.5275 14.2306 14.4046 14.1797 14.2764 14.1797ZM23.1387 14.1797H21.3662C21.238 14.1797 21.1151 14.2306 21.0244 14.3213C20.9337 14.4119 20.8828 14.5349 20.8828 14.6631C20.8828 14.7913 20.9337 14.9142 21.0244 15.0049C21.1151 15.0956 21.238 15.1465 21.3662 15.1465H23.1387C23.2669 15.1465 23.3898 15.0956 23.4805 15.0049C23.5711 14.9142 23.6221 14.7913 23.6221 14.6631C23.6221 14.5349 23.5711 14.4119 23.4805 14.3213C23.3898 14.2306 23.2669 14.1797 23.1387 14.1797ZM23.1387 17.8857H21.3662C21.238 17.8857 21.1151 17.9367 21.0244 18.0273C20.9337 18.118 20.8828 18.2409 20.8828 18.3691C20.8828 18.4973 20.9337 18.6203 21.0244 18.711C21.1151 18.8016 21.238 18.8525 21.3662 18.8525H23.1387C23.2669 18.8525 23.3898 18.8016 23.4805 18.711C23.5711 18.6203 23.6221 18.4973 23.6221 18.3691C23.6221 18.2409 23.5711 18.118 23.4805 18.0273C23.3898 17.9367 23.2669 17.8857 23.1387 17.8857Z" fill="#82CD64"/>
<path d="M10.0068 32.9995C5.6019 32.9995 2.03113 29.4286 2.03113 25.0238V18.3135C2.03113 18.1373 2.07926 17.9645 2.17033 17.8137C2.2614 17.6629 2.39194 17.5398 2.54785 17.4578L9.55667 13.7713C9.69546 13.6983 9.84991 13.6602 10.0067 13.6602C10.1635 13.6602 10.318 13.6983 10.4568 13.7713L17.4656 17.4578C17.6215 17.5398 17.752 17.6629 17.8431 17.8137C17.9342 17.9645 17.9823 18.1373 17.9823 18.3135V25.0238C17.9824 29.4286 14.4115 32.9995 10.0068 32.9995Z" fill="#FFC14F"/>
<path d="M3.96472 25.0243V19.0924C3.96472 19.0337 3.98076 18.9761 4.01112 18.9258C4.04147 18.8756 4.08498 18.8346 4.13694 18.8072L9.8567 15.7987C9.90297 15.7744 9.95445 15.7617 10.0067 15.7617C10.059 15.7617 10.1105 15.7744 10.1567 15.7987L15.8765 18.8072C15.9285 18.8346 15.972 18.8756 16.0023 18.9258C16.0327 18.9761 16.0487 19.0337 16.0487 19.0924V24.9472C16.0487 28.2737 13.3925 31.0338 10.0663 31.066C6.70759 31.0986 3.96472 28.3757 3.96472 25.0243Z" fill="#FFA90B"/>
<path d="M6.61871 30.0248C5.01814 28.9368 3.96472 27.1013 3.96472 25.0244V19.0925C3.96472 19.0338 3.98076 18.9762 4.01112 18.9259C4.04147 18.8756 4.08498 18.8346 4.13694 18.8073L9.8567 15.7988C9.90296 15.7744 9.95444 15.7617 10.0067 15.7617C10.059 15.7617 10.1105 15.7744 10.1567 15.7988L11.5655 16.5398L5.85462 19.5435C5.79608 19.5743 5.74707 19.6205 5.71288 19.6771C5.67869 19.7337 5.66062 19.7986 5.66061 19.8648V26.546C5.66068 27.8162 6.01046 29.0062 6.61871 30.0248Z" fill="#F29500"/>
</svg>
