<svg width="40" height="39" viewBox="0 0 40 39" fill="none" xmlns="http://www.w3.org/2000/svg">
<rect x="5.64282" y="4.23242" width="33.8569" height="33.8569" rx="16.9285" fill="#D8ECFE"/>
<path d="M33.857 11.2856C33.857 5.05242 28.8045 0 22.5713 0C16.3381 0 11.2856 5.05242 11.2856 11.2856C11.2856 13.4193 11.8774 15.414 12.9065 17.1153L21.9675 32.1047C22.0301 32.2089 22.1186 32.2951 22.2244 32.355C22.3301 32.4149 22.4496 32.4464 22.5711 32.4464C22.6927 32.4465 22.8121 32.4151 22.918 32.3554C23.0238 32.2956 23.1124 32.2095 23.1751 32.1054L32.2361 17.116C33.2997 15.3575 33.8603 13.3408 33.857 11.2856Z" fill="#00A0C8"/>
<path d="M22.5713 20.4557C27.246 20.4557 31.0356 16.6662 31.0356 11.9915C31.0356 7.3169 27.246 3.52734 22.5713 3.52734C17.8966 3.52734 14.1071 7.3169 14.1071 11.9915C14.1071 16.6662 17.8966 20.4557 22.5713 20.4557Z" fill="#0082AA"/>
<path d="M22.5713 19.7507C27.246 19.7507 31.0356 15.9611 31.0356 11.2865C31.0356 6.61182 27.246 2.82227 22.5713 2.82227C17.8966 2.82227 14.1071 6.61182 14.1071 11.2865C14.1071 15.9611 17.8966 19.7507 22.5713 19.7507Z" fill="#0A5078"/>
<path d="M25.3928 16.9276H19.7499C19.3758 16.9276 19.017 16.779 18.7524 16.5145C18.4879 16.2499 18.3392 15.8911 18.3392 15.5169V8.46343C18.3392 8.08929 18.4879 7.73048 18.7524 7.46592C19.017 7.20136 19.3758 7.05273 19.7499 7.05273H25.3928C25.7669 7.05273 26.1257 7.20136 26.3903 7.46592C26.6549 7.73048 26.8035 8.08929 26.8035 8.46343V15.5169C26.8035 15.8911 26.6549 16.2499 26.3903 16.5145C26.1257 16.779 25.7669 16.9276 25.3928 16.9276Z" fill="#00325A"/>
<path d="M25.3928 16.2226H19.7499C19.3758 16.2226 19.017 16.0739 18.7524 15.8094C18.4879 15.5448 18.3392 15.186 18.3392 14.8119V7.75836C18.3392 7.38422 18.4879 7.0254 18.7524 6.76084C19.017 6.49628 19.3758 6.34766 19.7499 6.34766H25.3928C25.7669 6.34766 26.1257 6.49628 26.3903 6.76084C26.6549 7.0254 26.8035 7.38422 26.8035 7.75836V14.8119C26.8035 15.186 26.6549 15.5448 26.3903 15.8094C26.1257 16.0739 25.7669 16.2226 25.3928 16.2226Z" fill="#FAB400"/>
<path d="M23.2767 9.16906H21.866C21.6789 9.16906 21.4995 9.09474 21.3672 8.96247C21.235 8.83019 21.1606 8.65078 21.1606 8.46371V6.34766H23.9821V8.46371C23.9821 8.65078 23.9077 8.83019 23.7755 8.96247C23.6432 9.09474 23.4638 9.16906 23.2767 9.16906Z" fill="#F0F0F0"/>
<path d="M30.3303 33.856H7.75894C7.57187 33.856 7.39246 33.7817 7.26018 33.6494C7.1279 33.5171 7.05359 33.3377 7.05359 33.1507C7.05359 32.9636 7.1279 32.7842 7.26018 32.6519C7.39246 32.5196 7.57187 32.4453 7.75894 32.4453H30.3303C30.5174 32.4453 30.6968 32.5196 30.829 32.6519C30.9613 32.7842 31.0356 32.9636 31.0356 33.1507C31.0356 33.3377 30.9613 33.5171 30.829 33.6494C30.6968 33.7817 30.5174 33.856 30.3303 33.856Z" fill="#0A5078"/>
<path d="M9.87496 11.9905H4.23213C4.04505 11.9905 3.86565 11.9161 3.73337 11.7839C3.60109 11.6516 3.52677 11.4722 3.52677 11.2851C3.52677 11.098 3.60109 10.9186 3.73337 10.7863C3.86565 10.6541 4.04505 10.5798 4.23213 10.5798H9.87496C10.062 10.5798 10.2414 10.6541 10.3737 10.7863C10.506 10.9186 10.5803 11.098 10.5803 11.2851C10.5803 11.4722 10.506 11.6516 10.3737 11.7839C10.2414 11.9161 10.062 11.9905 9.87496 11.9905ZM10.5803 7.75836H6.34819C6.16112 7.75836 5.98171 7.68404 5.84943 7.55176C5.71715 7.41949 5.64284 7.24008 5.64284 7.05301C5.64284 6.86594 5.71715 6.68653 5.84943 6.55425C5.98171 6.42197 6.16112 6.34766 6.34819 6.34766H10.5803C10.7674 6.34766 10.9468 6.42197 11.0791 6.55425C11.2114 6.68653 11.2857 6.86594 11.2857 7.05301C11.2857 7.24008 11.2114 7.41949 11.0791 7.55176C10.9468 7.68404 10.7674 7.75836 10.5803 7.75836ZM10.5803 16.2226H6.34819C6.16112 16.2226 5.98171 16.1482 5.84943 16.016C5.71715 15.8837 5.64284 15.7043 5.64284 15.5172C5.64284 15.3301 5.71715 15.1507 5.84943 15.0185C5.98171 14.8862 6.16112 14.8119 6.34819 14.8119H10.5803C10.7674 14.8119 10.9468 14.8862 11.0791 15.0185C11.2114 15.1507 11.2857 15.3301 11.2857 15.5172C11.2857 15.7043 11.2114 15.8837 11.0791 16.016C10.9468 16.1482 10.7674 16.2226 10.5803 16.2226ZM1.41071 11.9905H0.705354C0.518283 11.9905 0.338873 11.9161 0.206594 11.7839C0.0743141 11.6516 0 11.4722 0 11.2851C0 11.098 0.0743141 10.9186 0.206594 10.7863C0.338873 10.6541 0.518283 10.5798 0.705354 10.5798H1.41071C1.59778 10.5798 1.77719 10.6541 1.90947 10.7863C2.04175 10.9186 2.11606 11.098 2.11606 11.2851C2.11606 11.4722 2.04175 11.6516 1.90947 11.7839C1.77719 11.9161 1.59778 11.9905 1.41071 11.9905Z" fill="#C80A50"/>
</svg>
