<svg width="335" height="212" viewBox="0 0 335 212" fill="none" xmlns="http://www.w3.org/2000/svg">
<path opacity="0.15" d="M263.731 45.8912C263.731 45.8912 254.387 -27.2277 199.255 25.3415C128.58 92.7276 81.0731 -41.2037 28.6443 13.4657C0.00140496 43.3313 75.6899 110.125 25.1407 145.276C-25.4086 180.427 15.8993 206.743 15.8993 206.743H302.931C302.931 206.743 332.645 208.889 334.894 171.29C337.14 133.69 302.599 133.235 324.037 86.1829C345.474 39.1311 270.468 75.8397 263.731 45.8912Z" fill="#FFF6F1"/>
<path d="M263.731 45.8912C263.731 45.8912 254.387 -27.2277 199.255 25.3415C128.58 92.7276 81.0731 -41.2037 28.6443 13.4657C0.00140555 43.3313 75.6899 110.125 25.1407 145.276C-25.4086 180.427 15.8993 206.743 15.8993 206.743H302.931C302.931 206.743 332.645 208.889 334.894 171.29C337.14 133.69 302.599 133.235 324.037 86.1829C345.474 39.1311 270.468 75.8397 263.731 45.8912Z" fill="#F8F8F8"/>
<g opacity="0.45">
<rect x="277.484" y="104.377" width="20.8754" height="102.389" fill="url(#paint0_linear_2452_219126)"/>
<rect x="218.833" y="149.109" width="20.8754" height="57.6558" fill="url(#paint1_linear_2452_219126)"/>
<path d="M239.709 68.5886L258.597 52.6836L277.484 68.5886V206.764H239.709V68.5886Z" fill="url(#paint2_linear_2452_219126)"/>
<rect x="245.674" y="73.5605" width="10.9347" height="26.8398" fill="white"/>
<rect x="245.674" y="104.377" width="10.9347" height="26.8398" fill="white"/>
<rect x="245.674" y="135.193" width="10.9347" height="26.8398" fill="white"/>
<rect x="260.584" y="73.5605" width="10.9347" height="26.8398" fill="white"/>
<rect x="260.584" y="104.377" width="10.9347" height="26.8398" fill="white"/>
<rect x="260.584" y="135.193" width="10.9347" height="26.8398" fill="white"/>
<rect x="245.674" y="167" width="25.8457" height="39.7626" fill="white"/>
<rect x="207.761" y="121.553" width="20.8754" height="85.2139" fill="url(#paint3_linear_2452_219126)"/>
<rect x="149.11" y="158.781" width="20.8754" height="47.9845" fill="url(#paint4_linear_2452_219126)"/>
<path d="M169.986 91.7664L188.874 78.5293L207.761 91.7664V206.764H169.986V91.7664Z" fill="url(#paint5_linear_2452_219126)"/>
<rect x="175.951" y="95.9043" width="10.9347" height="22.3376" fill="white"/>
<rect x="175.951" y="121.553" width="10.9347" height="22.3376" fill="white"/>
<rect x="175.951" y="147.197" width="10.9347" height="22.3376" fill="white"/>
<rect x="190.86" y="95.9043" width="10.9347" height="22.3376" fill="white"/>
<rect x="190.86" y="121.553" width="10.9347" height="22.3376" fill="white"/>
<rect x="190.86" y="147.197" width="10.9347" height="22.3376" fill="white"/>
<rect x="175.951" y="173.672" width="25.8457" height="33.0928" fill="white"/>
<path d="M50.0088 117.301L77.8426 133.206V206.767H50.0088V117.301Z" fill="url(#paint6_linear_2452_219126)"/>
</g>
<path d="M260.251 159.445C260.251 159.445 262.264 160.233 262.434 161.884V179.559L260.195 181.998L256.169 176.914L260.251 159.445Z" fill="white"/>
<path d="M260.251 159.445C260.251 159.445 262.264 160.233 262.434 161.884V179.559L260.195 181.998L256.169 176.914L260.251 159.445Z" fill="#89C7C3"/>
<path d="M259.837 174.908H84.4478V189.524H259.837V174.908Z" fill="#5C5963"/>
<path d="M259.837 187.176H84.4478V189.502H259.837V187.176Z" fill="#413F47"/>
<path d="M86.931 179.24H84.4478V195.282H86.931V179.24Z" fill="#5C5963"/>
<path d="M253.066 140.158H222.138V175.789L236.229 175.808C245.466 175.958 248.363 182.618 248.363 182.618H260.233V159.446L253.066 140.158Z" fill="white"/>
<path d="M253.066 140.158H222.138V175.789L236.229 175.808C245.466 175.958 248.363 182.618 248.363 182.618H260.233V159.446L253.066 140.158Z" fill="#D3EDEC"/>
<path d="M235.833 154.772H256.583L251.805 141.957H235.833V154.772Z" fill="white"/>
<path d="M235.833 154.772H256.583L251.805 141.957H235.833V154.772Z" fill="#89C7C3"/>
<path d="M222.138 140.194H256.264C254.947 135.316 249.755 134.396 249.755 134.396H222.138V140.194Z" fill="white"/>
<path d="M222.138 140.194H256.264C254.947 135.316 249.755 134.396 249.755 134.396H222.138V140.194Z" fill="#89C7C3"/>
<path d="M243.141 201.661C248.408 196.407 248.408 187.89 243.141 182.636C237.873 177.382 229.333 177.382 224.065 182.636C218.798 187.89 218.798 196.407 224.065 201.661C229.333 206.915 237.873 206.915 243.141 201.661Z" fill="#312E37"/>
<path d="M233.612 183.367C228.74 183.367 224.808 187.307 224.808 192.148C224.808 197.008 228.759 200.929 233.612 200.929C238.485 200.929 242.417 196.989 242.417 192.148C242.417 187.307 238.466 183.367 233.612 183.367ZM233.612 199.203C229.718 199.203 226.558 196.051 226.558 192.167C226.558 188.283 229.718 185.131 233.612 185.131C237.507 185.131 240.667 188.283 240.667 192.167C240.667 196.051 237.507 199.203 233.612 199.203Z" fill="#5C5963"/>
<path d="M233.613 199.187C237.509 199.187 240.667 196.037 240.667 192.151C240.667 188.265 237.509 185.115 233.613 185.115C229.717 185.115 226.558 188.265 226.558 192.151C226.558 196.037 229.717 199.187 233.613 199.187Z" fill="#5C5963"/>
<path d="M235.693 194.231C236.847 193.081 236.847 191.216 235.693 190.065C234.54 188.915 232.67 188.915 231.516 190.065C230.363 191.216 230.363 193.081 231.516 194.231C232.67 195.382 234.54 195.382 235.693 194.231Z" fill="white"/>
<path d="M151.51 201.669C156.777 196.415 156.777 187.897 151.51 182.644C146.242 177.39 137.702 177.39 132.434 182.644C127.167 187.897 127.167 196.415 132.434 201.669C137.702 206.922 146.242 206.922 151.51 201.669Z" fill="#312E37"/>
<path d="M141.977 183.367C137.104 183.367 133.172 187.307 133.172 192.148C133.172 197.008 137.123 200.929 141.977 200.929C146.849 200.929 150.781 196.989 150.781 192.148C150.8 187.307 146.849 183.367 141.977 183.367ZM141.977 199.203C138.082 199.203 134.922 196.051 134.922 192.167C134.922 188.283 138.082 185.131 141.977 185.131C145.871 185.131 149.031 188.283 149.031 192.167C149.05 196.051 145.89 199.203 141.977 199.203Z" fill="#5C5963"/>
<path d="M141.977 199.187C145.873 199.187 149.032 196.037 149.032 192.151C149.032 188.265 145.873 185.115 141.977 185.115C138.081 185.115 134.922 188.265 134.922 192.151C134.922 196.037 138.081 199.187 141.977 199.187Z" fill="#5C5963"/>
<path d="M144.061 194.239C145.214 193.089 145.214 191.224 144.061 190.073C142.907 188.923 141.037 188.923 139.884 190.073C138.73 191.224 138.73 193.089 139.884 194.239C141.037 195.39 142.907 195.39 144.061 194.239Z" fill="white"/>
<path d="M116.159 201.665C121.427 196.411 121.427 187.893 116.159 182.64C110.892 177.386 102.351 177.386 97.0837 182.64C91.8161 187.893 91.8161 196.411 97.0837 201.665C102.351 206.919 110.892 206.919 116.159 201.665Z" fill="#312E37"/>
<path d="M106.627 183.367C101.755 183.367 97.8232 187.307 97.8232 192.148C97.8232 197.008 101.774 200.929 106.627 200.929C111.481 200.929 115.432 196.989 115.432 192.148C115.451 187.307 111.5 183.367 106.627 183.367ZM106.627 199.203C102.733 199.203 99.5728 196.051 99.5728 192.167C99.5728 188.283 102.733 185.131 106.627 185.131C110.522 185.131 113.682 188.283 113.682 192.167C113.682 196.051 110.522 199.203 106.627 199.203Z" fill="#5C5963"/>
<path d="M106.629 199.187C110.526 199.187 113.684 196.037 113.684 192.151C113.684 188.265 110.526 185.115 106.629 185.115C102.733 185.115 99.5747 188.265 99.5747 192.151C99.5747 196.037 102.733 199.187 106.629 199.187Z" fill="#5C5963"/>
<path d="M108.711 194.235C109.865 193.085 109.865 191.22 108.711 190.069C107.558 188.919 105.688 188.919 104.534 190.069C103.381 191.22 103.381 193.085 104.534 194.235C105.688 195.386 107.558 195.386 108.711 194.235Z" fill="white"/>
<path d="M233.613 176.012C224.865 176.012 217.716 182.973 217.434 191.622H220.162C220.444 184.455 226.37 178.695 233.613 178.695C240.874 178.695 246.782 184.436 247.064 191.622H249.792C249.509 182.973 242.361 176.012 233.613 176.012Z" fill="#413F47"/>
<path d="M141.976 176.012C133.228 176.012 126.08 182.973 125.797 191.622H128.525C128.807 184.455 134.733 178.695 141.976 178.695C149.219 178.695 155.145 184.436 155.427 191.622H158.155C157.873 182.973 150.743 176.012 141.976 176.012Z" fill="#413F47"/>
<path d="M106.629 176.012C97.8811 176.012 90.7324 182.973 90.4502 191.622H93.178C93.4602 184.436 99.3673 178.695 106.629 178.695C113.891 178.695 119.798 184.436 120.08 191.622H122.808C122.526 182.973 115.377 176.012 106.629 176.012Z" fill="#413F47"/>
<path d="M235.833 141.957V154.772L251.805 141.957H235.833Z" fill="white"/>
<path d="M235.833 141.957V154.772L251.805 141.957H235.833Z" fill="#95CECB"/>
<path d="M242.925 164.737C242.925 164.137 242.399 163.668 241.74 163.668H237.376C236.717 163.668 236.19 164.156 236.19 164.737C236.19 165.338 236.717 165.807 237.376 165.807H241.74C242.399 165.807 242.925 165.319 242.925 164.737Z" fill="white"/>
<path d="M242.925 164.737C242.925 164.137 242.399 163.668 241.74 163.668H237.376C236.717 163.668 236.19 164.156 236.19 164.737C236.19 165.338 236.717 165.807 237.376 165.807H241.74C242.399 165.807 242.925 165.319 242.925 164.737Z" fill="#89C7C3"/>
<path d="M230.773 142.691C230.773 142.334 230.378 142.053 229.889 142.053H225.863C225.374 142.053 224.979 142.334 224.979 142.691V153.93C224.979 154.286 225.374 154.568 225.863 154.568H229.889C230.378 154.568 230.773 154.286 230.773 153.93V142.691Z" fill="white"/>
<path d="M230.773 142.691C230.773 142.334 230.378 142.053 229.889 142.053H225.863C225.374 142.053 224.979 142.334 224.979 142.691V153.93C224.979 154.286 225.374 154.568 225.863 154.568H229.889C230.378 154.568 230.773 154.286 230.773 153.93V142.691Z" fill="#89C7C3"/>
<path d="M84.4667 184.645H81.5132V192.825H84.4667V184.645Z" fill="#5C5963"/>
<rect x="84.5" y="127.836" width="138.067" height="48.2403" fill="white"/>
<rect x="84.5" y="127.836" width="138.067" height="48.2403" fill="#95CECB"/>
<g opacity="0.5">
<path d="M213.641 149.514H200.88V157.717H213.641V149.514Z" fill="#F6C05F"/>
<path d="M202.679 149.514H200.88V157.561H202.679V149.514Z" fill="#01B4AA"/>
<path opacity="0.21" d="M202.001 149.514H201.558V151.23L201.688 151.113L201.715 151.23L201.819 151.1L201.858 151.23L201.962 151.1L202.001 151.23V149.514Z" fill="#1754AD"/>
<path d="M213.51 149.514H202.639V157.561H213.51V149.514Z" fill="#F6C05F"/>
<path opacity="0.07" d="M213.51 149.514C212.884 154.571 209.482 157.522 204.763 157.197L202.639 157.561H213.51V149.514Z" fill="#1754AD"/>
<path d="M203.983 151.479V151.492C203.983 151.531 204.022 151.57 204.061 151.57C204.1 151.57 204.139 151.531 204.139 151.492V150.984C204.178 150.984 204.205 150.984 204.244 150.997H204.257C204.283 150.997 204.309 151.01 204.335 151.01H204.348C204.413 150.984 204.491 150.984 204.556 151.01C204.556 150.789 204.361 150.659 204.152 150.646H204.1C204.048 150.646 203.996 150.659 203.944 150.672C203.944 150.672 203.944 150.672 203.931 150.672C203.8 150.724 203.696 150.841 203.683 150.984V150.997C203.748 150.971 203.826 150.971 203.892 150.997H203.905C203.918 150.997 203.918 150.997 203.931 150.984C203.944 150.984 203.957 150.984 203.97 150.971C203.996 150.971 204.022 150.958 204.048 150.958H204.061C204.074 150.958 204.087 150.958 204.087 150.958V151.466C204.087 151.479 204.074 151.492 204.061 151.492C204.048 151.492 204.035 151.479 204.035 151.466V151.453H203.983V151.479Z" fill="#454545"/>
<path d="M205.104 151.23C204.986 151.23 204.895 151.139 204.895 151.022V150.658H205.325V151.022C205.312 151.139 205.221 151.23 205.104 151.23Z" fill="#454545"/>
<path d="M205.128 151.203H205.076V151.567H205.128V151.203Z" fill="#454545"/>
<path d="M205.291 151.576V151.523H204.926V151.576H205.291Z" fill="#454545"/>
<path d="M205.793 150.699H205.741V151.414H205.793V150.699Z" fill="#454545"/>
<path d="M205.792 150.702L205.755 150.664L205.633 150.786L205.67 150.823L205.792 150.702Z" fill="#454545"/>
<path d="M205.844 150.817L205.881 150.779L205.759 150.658L205.722 150.695L205.844 150.817Z" fill="#454545"/>
<path d="M206.105 150.697H206.053V151.412H206.105V150.697Z" fill="#454545"/>
<path d="M206.118 150.7L206.08 150.662L205.958 150.784L205.996 150.821L206.118 150.7Z" fill="#454545"/>
<path d="M206.165 150.817L206.202 150.779L206.08 150.658L206.043 150.695L206.165 150.817Z" fill="#454545"/>
<path d="M206.205 151.576V151.523H205.644V151.576H206.205Z" fill="#454545"/>
<path d="M212.676 150.266H210.408V151.813H212.676V150.266Z" fill="white"/>
<path d="M212.364 150.695H210.722V150.813H212.364V150.695Z" fill="#B5B5B5"/>
<path d="M212.364 150.969H210.722V151.086H212.364V150.969Z" fill="#B5B5B5"/>
<path d="M211.452 151.232H210.722V151.35H211.452V151.232Z" fill="#B5B5B5"/>
<path d="M212.781 155.922H209.64V156.702H212.781V155.922Z" fill="white"/>
<path d="M210.268 156.57V156.062H209.877V156.57H210.268Z" fill="#B5B5B5"/>
<path d="M210 156.564V156.057H209.974V156.564H210Z" fill="#B5B5B5"/>
<path d="M210.113 156.57V156.062H210.074V156.57H210.113Z" fill="#B5B5B5"/>
<path d="M210.213 156.571V156.064H210.161V156.571H210.213Z" fill="#B5B5B5"/>
<path d="M210.278 156.571V156.064H210.252V156.571H210.278Z" fill="#B5B5B5"/>
<path d="M210.574 156.564V156.057H210.352V156.564H210.574Z" fill="#B5B5B5"/>
<path d="M210.469 156.564V156.057H210.43V156.564H210.469Z" fill="#B5B5B5"/>
<path d="M210.562 156.562V156.055H210.523V156.562H210.562Z" fill="#B5B5B5"/>
<path d="M210.671 156.571V156.064H210.632V156.571H210.671Z" fill="#B5B5B5"/>
<path d="M211.034 156.575V156.068H210.708V156.575H211.034Z" fill="#B5B5B5"/>
<path d="M210.862 156.562V156.055H210.81V156.562H210.862Z" fill="#B5B5B5"/>
<path d="M210.951 156.564V156.057H210.912V156.564H210.951Z" fill="#B5B5B5"/>
<path d="M211.047 156.571V156.064H210.995V156.571H211.047Z" fill="#B5B5B5"/>
<path d="M212.535 156.105H211.349V156.223H212.535V156.105Z" fill="#B5B5B5"/>
<path d="M212.026 156.377H211.349V156.494H212.026V156.377Z" fill="#B5B5B5"/>
<path d="M218.94 154.045H214.02V157.208H218.94V154.045Z" fill="#F6C05F"/>
<path d="M214.714 154.045H214.02V157.148H214.714V154.045Z" fill="#01B4AA"/>
<path opacity="0.21" d="M214.452 154.045H214.281V154.707L214.331 154.661L214.341 154.707L214.381 154.656L214.396 154.707L214.437 154.656L214.452 154.707V154.045Z" fill="#1754AD"/>
<path d="M218.889 154.045H214.698V157.148H218.889V154.045Z" fill="#F6C05F"/>
<path opacity="0.07" d="M218.889 154.045C218.648 155.995 217.336 157.133 215.517 157.007L214.698 157.148H218.889V154.045Z" fill="#1754AD"/>
<path d="M215.215 154.807V154.812C215.215 154.827 215.23 154.842 215.245 154.842C215.26 154.842 215.275 154.827 215.275 154.812V154.617C215.29 154.617 215.3 154.617 215.315 154.622H215.32C215.33 154.622 215.34 154.627 215.35 154.627H215.355C215.381 154.617 215.411 154.617 215.436 154.627C215.436 154.541 215.36 154.491 215.28 154.486H215.26C215.24 154.486 215.22 154.491 215.2 154.496C215.2 154.496 215.2 154.496 215.195 154.496C215.144 154.516 215.104 154.562 215.099 154.617V154.622C215.124 154.612 215.154 154.612 215.18 154.622H215.185C215.19 154.622 215.19 154.622 215.195 154.617C215.2 154.617 215.205 154.617 215.21 154.612C215.22 154.612 215.23 154.607 215.24 154.607H215.245C215.25 154.607 215.255 154.607 215.255 154.607V154.802C215.255 154.807 215.25 154.812 215.245 154.812C215.24 154.812 215.235 154.807 215.235 154.802V154.797H215.215V154.807Z" fill="#454545"/>
<path d="M215.647 154.711C215.602 154.711 215.566 154.676 215.566 154.631V154.49H215.732V154.631C215.727 154.676 215.692 154.711 215.647 154.711Z" fill="#454545"/>
<path d="M215.657 154.699H215.637V154.843H215.657V154.699Z" fill="#454545"/>
<path d="M215.719 154.843V154.822H215.576V154.843H215.719Z" fill="#454545"/>
<path d="M215.912 154.504H215.892V154.78H215.912V154.504Z" fill="#454545"/>
<path d="M215.912 154.503L215.897 154.488L215.85 154.536L215.864 154.551L215.912 154.503Z" fill="#454545"/>
<path d="M215.931 154.55L215.946 154.535L215.898 154.488L215.883 154.502L215.931 154.55Z" fill="#454545"/>
<path d="M216.033 154.504H216.013V154.78H216.033V154.504Z" fill="#454545"/>
<path d="M216.037 154.503L216.022 154.488L215.975 154.536L215.989 154.551L216.037 154.503Z" fill="#454545"/>
<path d="M216.055 154.55L216.07 154.535L216.022 154.488L216.007 154.502L216.055 154.55Z" fill="#454545"/>
<path d="M216.071 154.84V154.82H215.855V154.84H216.071Z" fill="#454545"/>
<path d="M218.568 154.336H217.693V154.932H218.568V154.336Z" fill="white"/>
<path d="M218.447 154.504H217.814V154.549H218.447V154.504Z" fill="#B5B5B5"/>
<path d="M218.447 154.611H217.814V154.657H218.447V154.611Z" fill="#B5B5B5"/>
<path d="M218.095 154.711H217.814V154.756H218.095V154.711Z" fill="#B5B5B5"/>
<path d="M218.607 156.518H217.396V156.818H218.607V156.518Z" fill="white"/>
<path d="M217.64 156.771V156.572H217.487V156.771H217.64Z" fill="#B5B5B5"/>
<path d="M217.536 156.769V156.57H217.525V156.769H217.536Z" fill="#B5B5B5"/>
<path d="M217.58 156.771V156.572H217.564V156.771H217.58Z" fill="#B5B5B5"/>
<path d="M217.618 156.773V156.574H217.598V156.773H217.618Z" fill="#B5B5B5"/>
<path d="M217.643 156.771V156.572H217.633V156.771H217.643Z" fill="#B5B5B5"/>
<path d="M217.757 156.769V156.57H217.67V156.769H217.757Z" fill="#B5B5B5"/>
<path d="M217.716 156.769V156.57H217.701V156.769H217.716Z" fill="#B5B5B5"/>
<path d="M217.752 156.767V156.568H217.737V156.767H217.752Z" fill="#B5B5B5"/>
<path d="M217.794 156.771V156.572H217.779V156.771H217.794Z" fill="#B5B5B5"/>
<path d="M217.933 156.773V156.574H217.805V156.773H217.933Z" fill="#B5B5B5"/>
<path d="M217.869 156.767V156.568H217.848V156.767H217.869Z" fill="#B5B5B5"/>
<path d="M217.901 156.769V156.57H217.886V156.769H217.901Z" fill="#B5B5B5"/>
<path d="M217.94 156.771V156.572H217.92V156.771H217.94Z" fill="#B5B5B5"/>
<path d="M218.513 156.59H218.056V156.635H218.513V156.59Z" fill="#B5B5B5"/>
<path d="M218.317 156.693H218.056V156.739H218.317V156.693Z" fill="#B5B5B5"/>
<path d="M200.747 151.775H192.29V157.212H200.747V151.775Z" fill="#F6C05F"/>
<path d="M193.482 151.775H192.29V157.109H193.482V151.775Z" fill="#01B4AA"/>
<path opacity="0.21" d="M193.032 151.775H192.738V152.913L192.824 152.835L192.841 152.913L192.911 152.827L192.936 152.913L193.006 152.827L193.032 152.913V151.775Z" fill="#1754AD"/>
<path d="M200.661 151.775H193.456V157.109H200.661V151.775Z" fill="#F6C05F"/>
<path opacity="0.07" d="M200.661 151.775C200.246 155.127 197.991 157.083 194.864 156.868L193.456 157.109H200.661V151.775Z" fill="#1754AD"/>
<path d="M194.346 153.075V153.084C194.346 153.109 194.372 153.135 194.398 153.135C194.423 153.135 194.449 153.109 194.449 153.084V152.747C194.475 152.747 194.493 152.747 194.518 152.756H194.527C194.544 152.756 194.562 152.765 194.579 152.765H194.588C194.631 152.747 194.683 152.747 194.726 152.765C194.726 152.618 194.596 152.532 194.458 152.523H194.423C194.389 152.523 194.354 152.532 194.32 152.541C194.32 152.541 194.32 152.541 194.311 152.541C194.225 152.575 194.156 152.653 194.147 152.747V152.756C194.19 152.739 194.242 152.739 194.285 152.756H194.294C194.302 152.756 194.302 152.756 194.311 152.747C194.32 152.747 194.328 152.747 194.337 152.739C194.354 152.739 194.372 152.73 194.389 152.73H194.398C194.406 152.73 194.415 152.73 194.415 152.73V153.066C194.415 153.075 194.406 153.084 194.398 153.084C194.389 153.084 194.38 153.075 194.38 153.066V153.058H194.346V153.075Z" fill="#454545"/>
<path d="M195.089 152.91C195.012 152.91 194.951 152.85 194.951 152.773V152.531H195.236V152.773C195.228 152.85 195.167 152.91 195.089 152.91Z" fill="#454545"/>
<path d="M195.105 152.893H195.07V153.134H195.105V152.893Z" fill="#454545"/>
<path d="M195.212 153.138V153.104H194.971V153.138H195.212Z" fill="#454545"/>
<path d="M195.547 152.559H195.513V153.033H195.547V152.559Z" fill="#454545"/>
<path d="M195.546 152.558L195.521 152.533L195.44 152.614L195.465 152.639L195.546 152.558Z" fill="#454545"/>
<path d="M195.58 152.636L195.605 152.611L195.524 152.53L195.499 152.555L195.58 152.636Z" fill="#454545"/>
<path d="M195.754 152.561H195.72V153.034H195.754V152.561Z" fill="#454545"/>
<path d="M195.764 152.562L195.739 152.537L195.658 152.618L195.683 152.643L195.764 152.562Z" fill="#454545"/>
<path d="M195.794 152.64L195.819 152.615L195.738 152.534L195.713 152.559L195.794 152.64Z" fill="#454545"/>
<path d="M195.82 153.138V153.104H195.448V153.138H195.82Z" fill="#454545"/>
<path d="M200.107 152.273H198.604V153.299H200.107V152.273Z" fill="white"/>
<path d="M199.9 152.557H198.812V152.634H199.9V152.557Z" fill="#B5B5B5"/>
<path d="M199.9 152.74H198.812V152.818H199.9V152.74Z" fill="#B5B5B5"/>
<path d="M199.295 152.912H198.812V152.99H199.295V152.912Z" fill="#B5B5B5"/>
<path d="M200.177 156.021H198.095V156.538H200.177V156.021Z" fill="white"/>
<path d="M198.512 156.453V156.117H198.253V156.453H198.512Z" fill="#B5B5B5"/>
<path d="M198.336 156.449V156.113H198.319V156.449H198.336Z" fill="#B5B5B5"/>
<path d="M198.409 156.453V156.117H198.383V156.453H198.409Z" fill="#B5B5B5"/>
<path d="M198.475 156.455V156.119H198.44V156.455H198.475Z" fill="#B5B5B5"/>
<path d="M198.519 156.455V156.119H198.502V156.455H198.519Z" fill="#B5B5B5"/>
<path d="M198.715 156.449V156.113H198.568V156.449H198.715Z" fill="#B5B5B5"/>
<path d="M198.645 156.449V156.113H198.619V156.449H198.645Z" fill="#B5B5B5"/>
<path d="M198.707 156.447V156.111H198.681V156.447H198.707Z" fill="#B5B5B5"/>
<path d="M198.779 156.453V156.117H198.753V156.453H198.779Z" fill="#B5B5B5"/>
<path d="M199.02 156.455V156.119H198.804V156.455H199.02Z" fill="#B5B5B5"/>
<path d="M198.906 156.447V156.111H198.871V156.447H198.906Z" fill="#B5B5B5"/>
<path d="M198.966 156.449V156.113H198.94V156.449H198.966Z" fill="#B5B5B5"/>
<path d="M199.03 156.455V156.119H198.995V156.455H199.03Z" fill="#B5B5B5"/>
<path d="M200.011 156.143H199.225V156.22H200.011V156.143Z" fill="#B5B5B5"/>
<path d="M199.674 156.324H199.225V156.402H199.674V156.324Z" fill="#B5B5B5"/>
<path d="M185.846 149.514H173.085V157.717H185.846V149.514Z" fill="#F6C05F"/>
<path d="M174.884 149.514H173.085V157.561H174.884V149.514Z" fill="#01B4AA"/>
<path opacity="0.21" d="M174.205 149.514H173.762V151.23L173.893 151.113L173.919 151.23L174.023 151.1L174.062 151.23L174.166 151.1L174.205 151.23V149.514Z" fill="#1754AD"/>
<path d="M185.716 149.514H174.845V157.561H185.716V149.514Z" fill="#F6C05F"/>
<path opacity="0.07" d="M185.716 149.514C185.091 154.571 181.688 157.522 176.97 157.197L174.845 157.561H185.716V149.514Z" fill="#1754AD"/>
<path d="M176.188 151.479V151.492C176.188 151.531 176.228 151.57 176.267 151.57C176.306 151.57 176.345 151.531 176.345 151.492V150.984C176.384 150.984 176.41 150.984 176.449 150.997H176.462C176.488 150.997 176.514 151.01 176.54 151.01H176.553C176.619 150.984 176.697 150.984 176.762 151.01C176.762 150.789 176.566 150.659 176.358 150.646H176.306C176.254 150.646 176.202 150.659 176.149 150.672C176.149 150.672 176.149 150.672 176.136 150.672C176.006 150.724 175.902 150.841 175.889 150.984V150.997C175.954 150.971 176.032 150.971 176.097 150.997H176.11C176.123 150.997 176.123 150.997 176.136 150.984C176.149 150.984 176.162 150.984 176.175 150.971C176.202 150.971 176.228 150.958 176.254 150.958H176.267C176.28 150.958 176.293 150.958 176.293 150.958V151.466C176.293 151.479 176.28 151.492 176.267 151.492C176.254 151.492 176.241 151.479 176.241 151.466V151.453H176.188V151.479Z" fill="#454545"/>
<path d="M177.309 151.23C177.191 151.23 177.1 151.139 177.1 151.022V150.658H177.53V151.022C177.517 151.139 177.426 151.23 177.309 151.23Z" fill="#454545"/>
<path d="M177.334 151.203H177.282V151.567H177.334V151.203Z" fill="#454545"/>
<path d="M177.495 151.576V151.523H177.13V151.576H177.495Z" fill="#454545"/>
<path d="M177.998 150.699H177.946V151.414H177.998V150.699Z" fill="#454545"/>
<path d="M177.997 150.702L177.959 150.664L177.837 150.786L177.874 150.823L177.997 150.702Z" fill="#454545"/>
<path d="M178.049 150.817L178.086 150.779L177.964 150.658L177.927 150.695L178.049 150.817Z" fill="#454545"/>
<path d="M178.31 150.697H178.258V151.412H178.31V150.697Z" fill="#454545"/>
<path d="M178.321 150.7L178.284 150.662L178.162 150.784L178.199 150.821L178.321 150.7Z" fill="#454545"/>
<path d="M178.371 150.817L178.408 150.779L178.286 150.658L178.249 150.695L178.371 150.817Z" fill="#454545"/>
<path d="M178.407 151.576V151.523H177.847V151.576H178.407Z" fill="#454545"/>
<path d="M184.88 150.266H182.612V151.813H184.88V150.266Z" fill="white"/>
<path d="M184.569 150.695H182.927V150.813H184.569V150.695Z" fill="#B5B5B5"/>
<path d="M184.57 150.969H182.927V151.086H184.57V150.969Z" fill="#B5B5B5"/>
<path d="M183.657 151.232H182.927V151.35H183.657V151.232Z" fill="#B5B5B5"/>
<path d="M184.986 155.922H181.844V156.702H184.986V155.922Z" fill="white"/>
<path d="M182.474 156.57V156.062H182.083V156.57H182.474Z" fill="#B5B5B5"/>
<path d="M182.204 156.564V156.057H182.178V156.564H182.204Z" fill="#B5B5B5"/>
<path d="M182.317 156.57V156.062H182.278V156.57H182.317Z" fill="#B5B5B5"/>
<path d="M182.417 156.571V156.064H182.365V156.571H182.417Z" fill="#B5B5B5"/>
<path d="M182.484 156.571V156.064H182.458V156.571H182.484Z" fill="#B5B5B5"/>
<path d="M182.777 156.564V156.057H182.556V156.564H182.777Z" fill="#B5B5B5"/>
<path d="M182.674 156.564V156.057H182.635V156.564H182.674Z" fill="#B5B5B5"/>
<path d="M182.767 156.562V156.055H182.728V156.562H182.767Z" fill="#B5B5B5"/>
<path d="M182.877 156.571V156.064H182.838V156.571H182.877Z" fill="#B5B5B5"/>
<path d="M183.239 156.575V156.068H182.913V156.575H183.239Z" fill="#B5B5B5"/>
<path d="M183.067 156.562V156.055H183.015V156.562H183.067Z" fill="#B5B5B5"/>
<path d="M183.155 156.564V156.057H183.116V156.564H183.155Z" fill="#B5B5B5"/>
<path d="M183.252 156.571V156.064H183.2V156.571H183.252Z" fill="#B5B5B5"/>
<path d="M184.738 156.105H183.552V156.223H184.738V156.105Z" fill="#B5B5B5"/>
<path d="M184.23 156.377H183.552V156.494H184.23V156.377Z" fill="#B5B5B5"/>
<path d="M191.991 153.545H185.718V157.577H191.991V153.545Z" fill="#F6C05F"/>
<path d="M186.602 153.545H185.718V157.5H186.602V153.545Z" fill="#01B4AA"/>
<path opacity="0.21" d="M186.271 153.545H186.053V154.388L186.117 154.331L186.13 154.388L186.181 154.325L186.2 154.388L186.251 154.325L186.271 154.388V153.545Z" fill="#1754AD"/>
<path d="M191.928 153.545H186.584V157.5H191.928V153.545Z" fill="#F6C05F"/>
<path opacity="0.07" d="M191.928 153.545C191.62 156.031 189.948 157.481 187.629 157.322L186.584 157.5H191.928V153.545Z" fill="#1754AD"/>
<path d="M187.244 154.511V154.517C187.244 154.536 187.263 154.555 187.282 154.555C187.302 154.555 187.321 154.536 187.321 154.517V154.268C187.34 154.268 187.353 154.268 187.372 154.274H187.379C187.391 154.274 187.404 154.28 187.417 154.28H187.423C187.455 154.268 187.494 154.268 187.526 154.28C187.526 154.172 187.43 154.108 187.327 154.102H187.302C187.276 154.102 187.25 154.108 187.225 154.114C187.225 154.114 187.225 154.114 187.218 154.114C187.154 154.14 187.103 154.197 187.097 154.268V154.274C187.129 154.261 187.167 154.261 187.199 154.274H187.206C187.212 154.274 187.212 154.274 187.218 154.268C187.225 154.268 187.231 154.268 187.238 154.261C187.25 154.261 187.263 154.255 187.276 154.255H187.282C187.289 154.255 187.295 154.255 187.295 154.255V154.504C187.295 154.511 187.289 154.517 187.282 154.517C187.276 154.517 187.27 154.511 187.27 154.504V154.498H187.244V154.511Z" fill="#454545"/>
<path d="M187.794 154.387C187.736 154.387 187.691 154.342 187.691 154.284V154.105H187.903V154.284C187.896 154.342 187.852 154.387 187.794 154.387Z" fill="#454545"/>
<path d="M187.807 154.375H187.781V154.557H187.807V154.375Z" fill="#454545"/>
<path d="M187.888 154.557V154.531H187.705V154.557H187.888Z" fill="#454545"/>
<path d="M188.135 154.125H188.109V154.476H188.135V154.125Z" fill="#454545"/>
<path d="M188.134 154.124L188.116 154.105L188.056 154.165L188.074 154.183L188.134 154.124Z" fill="#454545"/>
<path d="M188.158 154.182L188.176 154.164L188.117 154.105L188.098 154.123L188.158 154.182Z" fill="#454545"/>
<path d="M188.289 154.129H188.264V154.48H188.289V154.129Z" fill="#454545"/>
<path d="M188.296 154.128L188.277 154.109L188.218 154.169L188.236 154.187L188.296 154.128Z" fill="#454545"/>
<path d="M188.318 154.188L188.336 154.17L188.277 154.111L188.259 154.129L188.318 154.188Z" fill="#454545"/>
<path d="M188.336 154.555V154.529H188.061V154.555H188.336Z" fill="#454545"/>
<path d="M191.517 153.914H190.402V154.674H191.517V153.914Z" fill="white"/>
<path d="M191.365 154.127H190.558V154.185H191.365V154.127Z" fill="#B5B5B5"/>
<path d="M191.365 154.264H190.558V154.321H191.365V154.264Z" fill="#B5B5B5"/>
<path d="M190.916 154.391H190.558V154.448H190.916V154.391Z" fill="#B5B5B5"/>
<path d="M191.569 156.691H190.025V157.075H191.569V156.691Z" fill="white"/>
<path d="M190.336 157.011V156.762H190.144V157.011H190.336Z" fill="#B5B5B5"/>
<path d="M190.204 157.009V156.76H190.191V157.009H190.204Z" fill="#B5B5B5"/>
<path d="M190.258 157.011V156.762H190.239V157.011H190.258Z" fill="#B5B5B5"/>
<path d="M190.309 157.013V156.764H190.283V157.013H190.309Z" fill="#B5B5B5"/>
<path d="M190.342 157.013V156.764H190.329V157.013H190.342Z" fill="#B5B5B5"/>
<path d="M190.487 157.009V156.76H190.378V157.009H190.487Z" fill="#B5B5B5"/>
<path d="M190.436 157.009V156.76H190.416V157.009H190.436Z" fill="#B5B5B5"/>
<path d="M190.479 157.007V156.758H190.46V157.007H190.479Z" fill="#B5B5B5"/>
<path d="M190.534 157.011V156.762H190.515V157.011H190.534Z" fill="#B5B5B5"/>
<path d="M190.712 157.015V156.766H190.552V157.015H190.712Z" fill="#B5B5B5"/>
<path d="M190.628 157.007V156.758H190.603V157.007H190.628Z" fill="#B5B5B5"/>
<path d="M190.672 157.009V156.76H190.653V157.009H190.672Z" fill="#B5B5B5"/>
<path d="M190.72 157.013V156.764H190.694V157.013H190.72Z" fill="#B5B5B5"/>
<path d="M191.448 156.785H190.865V156.843H191.448V156.785Z" fill="#B5B5B5"/>
<path d="M191.198 156.918H190.865V156.976H191.198V156.918Z" fill="#B5B5B5"/>
<path d="M207.495 166.158H195.412V175.089H207.495V166.158Z" fill="#F6C05F"/>
<path d="M207.313 166.158H195.412V174.959H207.313V166.158Z" fill="#F6C05F"/>
<path opacity="0.1" d="M207.327 166.158C205.984 170.539 202.282 173.802 197.746 174.569L195.426 174.959H207.327V166.158Z" fill="#01B4AA"/>
<path d="M196.898 168.303V168.316C196.898 168.368 196.937 168.407 196.99 168.407C197.042 168.407 197.081 168.368 197.081 168.316V167.757C197.12 167.757 197.146 167.757 197.185 167.77H197.198C197.224 167.77 197.263 167.783 197.289 167.796H197.302C197.381 167.77 197.459 167.77 197.524 167.796C197.524 167.562 197.315 167.406 197.081 167.406H197.029C196.963 167.406 196.911 167.419 196.859 167.445H196.846C196.703 167.51 196.585 167.627 196.585 167.796V167.809C196.664 167.783 196.742 167.783 196.807 167.809H196.82C196.833 167.809 196.846 167.809 196.846 167.796C196.859 167.796 196.872 167.783 196.885 167.783C196.911 167.783 196.937 167.77 196.976 167.77C196.99 167.77 196.99 167.77 197.003 167.77C197.016 167.77 197.029 167.77 197.042 167.77V168.329C197.042 168.342 197.029 168.355 197.016 168.355C197.003 168.355 196.99 168.342 196.99 168.329V168.316H196.898V168.303Z" fill="#333333"/>
<path d="M198.123 168.042C197.993 168.042 197.889 167.938 197.889 167.808V167.418H198.358V167.808C198.358 167.938 198.241 168.042 198.123 168.042Z" fill="#333333"/>
<path d="M198.135 168.018H198.083V168.421H198.135V168.018Z" fill="#333333"/>
<path d="M198.315 168.404V168.352H197.911V168.404H198.315Z" fill="#333333"/>
<path d="M198.866 167.447H198.814V168.24H198.866V167.447Z" fill="#333333"/>
<path d="M198.875 167.448L198.838 167.41L198.706 167.541L198.744 167.579L198.875 167.448Z" fill="#333333"/>
<path d="M198.93 167.586L198.967 167.549L198.836 167.418L198.798 167.455L198.93 167.586Z" fill="#333333"/>
<path d="M199.218 167.443H199.166V168.236H199.218V167.443Z" fill="#333333"/>
<path d="M199.239 167.453L199.202 167.416L199.07 167.547L199.108 167.585L199.239 167.453Z" fill="#333333"/>
<path d="M199.287 167.58L199.324 167.543L199.193 167.412L199.155 167.449L199.287 167.58Z" fill="#333333"/>
<path d="M199.334 168.415V168.363H198.708V168.415H199.334Z" fill="#333333"/>
<path d="M206.413 166.979H203.924V168.669H206.413V166.979Z" fill="white"/>
<path d="M206.075 167.459H204.276V167.576H206.075V167.459Z" fill="#B5B5B5"/>
<path d="M206.076 167.744H204.277V167.861H206.076V167.744Z" fill="#B5B5B5"/>
<path d="M205.072 168.031H204.277V168.149H205.072V168.031Z" fill="#B5B5B5"/>
<path d="M206.532 173.178H203.09V174.023H206.532V173.178Z" fill="white"/>
<path d="M203.78 173.887V173.328H203.363V173.887H203.78Z" fill="#B5B5B5"/>
<path d="M203.49 173.889V173.33H203.464V173.889H203.49Z" fill="#B5B5B5"/>
<path d="M203.597 173.885V173.326H203.558V173.885H203.597Z" fill="#B5B5B5"/>
<path d="M203.719 173.879V173.32H203.654V173.879H203.719Z" fill="#B5B5B5"/>
<path d="M203.794 173.885V173.326H203.768V173.885H203.794Z" fill="#B5B5B5"/>
<path d="M204.107 173.885V173.326H203.86V173.885H204.107Z" fill="#B5B5B5"/>
<path d="M204.003 173.885V173.326H203.964V173.885H204.003Z" fill="#B5B5B5"/>
<path d="M204.104 173.887V173.328H204.065V173.887H204.104Z" fill="#B5B5B5"/>
<path d="M204.21 173.887V173.328H204.158V173.887H204.21Z" fill="#B5B5B5"/>
<path d="M204.621 173.879V173.32H204.269V173.879H204.621Z" fill="#B5B5B5"/>
<path d="M204.431 173.885V173.326H204.366V173.885H204.431Z" fill="#B5B5B5"/>
<path d="M204.532 173.891V173.332H204.493V173.891H204.532Z" fill="#B5B5B5"/>
<path d="M204.635 173.891V173.332H204.57V173.891H204.635Z" fill="#B5B5B5"/>
<path d="M206.272 173.387H204.968V173.504H206.272V173.387Z" fill="#B5B5B5"/>
<path d="M205.711 173.674H204.968V173.791H205.711V173.674Z" fill="#B5B5B5"/>
<path d="M219.527 166.158H207.509V175.089H219.527V166.158Z" fill="#F6C05F"/>
<path d="M219.41 166.158H207.509V174.959H219.41V166.158Z" fill="#F6C05F"/>
<path opacity="0.1" d="M219.41 166.158C218.067 170.539 214.365 173.802 209.829 174.569L207.509 174.959H219.41V166.158Z" fill="#01B4AA"/>
<path d="M208.982 168.303V168.316C208.982 168.368 209.021 168.407 209.073 168.407C209.125 168.407 209.164 168.368 209.164 168.316V167.757C209.203 167.757 209.229 167.757 209.269 167.77H209.282C209.308 167.77 209.347 167.783 209.373 167.796H209.386C209.464 167.77 209.542 167.77 209.607 167.796C209.607 167.562 209.399 167.406 209.164 167.406H209.112C209.047 167.406 208.995 167.419 208.943 167.445H208.93C208.786 167.51 208.669 167.627 208.669 167.796V167.809C208.747 167.783 208.825 167.783 208.891 167.809H208.904C208.917 167.809 208.93 167.809 208.93 167.796C208.943 167.796 208.956 167.783 208.969 167.783C208.995 167.783 209.021 167.77 209.06 167.77C209.073 167.77 209.073 167.77 209.086 167.77C209.099 167.77 209.112 167.77 209.125 167.77V168.329C209.125 168.342 209.112 168.355 209.099 168.355C209.086 168.355 209.073 168.342 209.073 168.329V168.316H208.982V168.303Z" fill="#525252"/>
<path d="M210.206 168.044C210.076 168.044 209.972 167.94 209.972 167.81V167.42H210.441V167.81C210.441 167.94 210.337 168.044 210.206 168.044Z" fill="#525252"/>
<path d="M210.232 168.016H210.18V168.419H210.232V168.016Z" fill="#525252"/>
<path d="M210.404 168.413V168.361H210V168.413H210.404Z" fill="#525252"/>
<path d="M210.952 167.441H210.899V168.234H210.952V167.441Z" fill="#525252"/>
<path d="M210.973 167.452L210.935 167.414L210.804 167.545L210.841 167.583L210.973 167.452Z" fill="#525252"/>
<path d="M211.022 167.577L211.059 167.539L210.928 167.408L210.89 167.445L211.022 167.577Z" fill="#525252"/>
<path d="M211.303 167.443H211.25V168.236H211.303V167.443Z" fill="#525252"/>
<path d="M211.323 167.45L211.285 167.412L211.154 167.543L211.191 167.581L211.323 167.45Z" fill="#525252"/>
<path d="M211.377 167.577L211.415 167.539L211.283 167.408L211.246 167.445L211.377 167.577Z" fill="#525252"/>
<path d="M211.421 168.41V168.357H210.796V168.41H211.421Z" fill="#525252"/>
<path d="M218.616 173.178H215.174V174.023H218.616V173.178Z" fill="white"/>
<path d="M215.868 173.881V173.322H215.451V173.881H215.868Z" fill="#B5B5B5"/>
<path d="M215.577 173.885V173.326H215.551V173.885H215.577Z" fill="#B5B5B5"/>
<path d="M215.686 173.879V173.32H215.647V173.879H215.686Z" fill="#B5B5B5"/>
<path d="M215.81 173.887V173.328H215.745V173.887H215.81Z" fill="#B5B5B5"/>
<path d="M215.883 173.879V173.32H215.857V173.879H215.883Z" fill="#B5B5B5"/>
<path d="M216.197 173.879V173.32H215.949V173.879H216.197Z" fill="#B5B5B5"/>
<path d="M216.091 173.879V173.32H216.052V173.879H216.091Z" fill="#B5B5B5"/>
<path d="M216.194 173.881V173.322H216.155V173.881H216.194Z" fill="#B5B5B5"/>
<path d="M216.298 173.881V173.322H216.246V173.881H216.298Z" fill="#B5B5B5"/>
<path d="M216.708 173.889V173.33H216.356V173.889H216.708Z" fill="#B5B5B5"/>
<path d="M216.52 173.879V173.32H216.455V173.879H216.52Z" fill="#B5B5B5"/>
<path d="M216.619 173.885V173.326H216.58V173.885H216.619Z" fill="#B5B5B5"/>
<path d="M216.723 173.887V173.328H216.658V173.887H216.723Z" fill="#B5B5B5"/>
<path d="M218.354 173.387H217.051V173.504H218.354V173.387Z" fill="#B5B5B5"/>
<path d="M217.794 173.674H217.051V173.791H217.794V173.674Z" fill="#B5B5B5"/>
<path d="M207.406 157.209H195.323V166.14H207.406V157.209Z" fill="#F6C05F"/>
<path d="M207.224 157.209H195.323V166.01H207.224V157.209Z" fill="#F6C05F"/>
<path d="M196.808 159.366V159.379C196.808 159.431 196.847 159.47 196.899 159.47C196.951 159.47 196.99 159.431 196.99 159.379V158.82C197.03 158.82 197.056 158.82 197.095 158.833H197.108C197.134 158.833 197.173 158.846 197.199 158.859H197.212C197.29 158.833 197.368 158.833 197.434 158.859C197.434 158.625 197.225 158.482 196.99 158.469H196.938C196.873 158.469 196.821 158.482 196.769 158.508H196.756C196.612 158.573 196.495 158.69 196.495 158.859V158.872C196.573 158.846 196.652 158.846 196.717 158.872H196.73C196.743 158.872 196.756 158.872 196.756 158.859C196.769 158.859 196.782 158.846 196.795 158.846C196.821 158.846 196.847 158.833 196.886 158.833C196.899 158.833 196.899 158.833 196.912 158.833C196.925 158.833 196.938 158.833 196.951 158.833V159.392C196.951 159.405 196.938 159.418 196.925 159.418C196.912 159.418 196.899 159.405 196.899 159.392V159.379H196.808V159.366Z" fill="#333333"/>
<path d="M198.032 159.095C197.902 159.095 197.797 158.991 197.797 158.861V158.471H198.267V158.861C198.267 158.991 198.162 159.095 198.032 159.095Z" fill="#333333"/>
<path d="M198.047 159.07H197.995V159.473H198.047V159.07Z" fill="#333333"/>
<path d="M198.231 159.456V159.404H197.827V159.456H198.231Z" fill="#333333"/>
<path d="M198.774 158.508H198.722V159.301H198.774V158.508Z" fill="#333333"/>
<path d="M198.788 158.5L198.75 158.463L198.619 158.594L198.656 158.631L198.788 158.5Z" fill="#333333"/>
<path d="M198.843 158.643L198.88 158.605L198.749 158.474L198.711 158.512L198.843 158.643Z" fill="#333333"/>
<path d="M199.126 158.51H199.074V159.303H199.126V158.51Z" fill="#333333"/>
<path d="M199.15 158.504L199.112 158.467L198.981 158.598L199.018 158.635L199.15 158.504Z" fill="#333333"/>
<path d="M199.201 158.641L199.239 158.604L199.107 158.472L199.07 158.51L199.201 158.641Z" fill="#333333"/>
<path d="M199.236 159.47V159.418H198.611V159.47H199.236Z" fill="#333333"/>
<path d="M206.335 158.029H203.846V159.719H206.335V158.029Z" fill="white"/>
<path d="M205.984 158.51H204.185V158.627H205.984V158.51Z" fill="#B5B5B5"/>
<path d="M205.984 158.811H204.185V158.928H205.984V158.811Z" fill="#B5B5B5"/>
<path d="M204.98 159.096H204.185V159.213H204.98V159.096Z" fill="#B5B5B5"/>
<path d="M206.439 164.232H202.998V165.077H206.439V164.232Z" fill="white"/>
<path d="M203.683 164.944V164.385H203.266V164.944H203.683Z" fill="#B5B5B5"/>
<path d="M203.394 164.948V164.389H203.367V164.948H203.394Z" fill="#B5B5B5"/>
<path d="M203.513 164.942V164.383H203.474V164.942H203.513Z" fill="#B5B5B5"/>
<path d="M203.623 164.95V164.391H203.557V164.95H203.623Z" fill="#B5B5B5"/>
<path d="M203.697 164.942V164.383H203.671V164.942H203.697Z" fill="#B5B5B5"/>
<path d="M204.011 164.942V164.383H203.763V164.942H204.011Z" fill="#B5B5B5"/>
<path d="M203.919 164.942V164.383H203.88V164.942H203.919Z" fill="#B5B5B5"/>
<path d="M204.021 164.944V164.385H203.981V164.944H204.021Z" fill="#B5B5B5"/>
<path d="M204.126 164.944V164.385H204.074V164.944H204.126Z" fill="#B5B5B5"/>
<path d="M204.536 164.94V164.381H204.184V164.94H204.536Z" fill="#B5B5B5"/>
<path d="M204.334 164.942V164.383H204.269V164.942H204.334Z" fill="#B5B5B5"/>
<path d="M204.447 164.948V164.389H204.408V164.948H204.447Z" fill="#B5B5B5"/>
<path d="M204.538 164.948V164.389H204.472V164.948H204.538Z" fill="#B5B5B5"/>
<path d="M206.179 164.439H204.876V164.557H206.179V164.439Z" fill="#B5B5B5"/>
<path d="M205.619 164.725H204.876V164.842H205.619V164.725Z" fill="#B5B5B5"/>
<path d="M219.436 157.209H207.417V166.14H219.436V157.209Z" fill="#F6C05F"/>
<path d="M219.318 157.209H207.417V166.01H219.318V157.209Z" fill="#F6C05F"/>
<path opacity="0.1" d="M219.318 157.209C217.976 161.59 214.274 164.853 209.738 165.62L207.417 166.01H219.318V157.209Z" fill="#01B4AA"/>
<path d="M208.891 159.366V159.379C208.891 159.431 208.931 159.47 208.983 159.47C209.035 159.47 209.074 159.431 209.074 159.379V158.82C209.113 158.82 209.139 158.82 209.178 158.833H209.191C209.217 158.833 209.256 158.846 209.282 158.859H209.296C209.374 158.833 209.452 158.833 209.517 158.859C209.517 158.625 209.309 158.482 209.074 158.469H209.022C208.957 158.469 208.904 158.482 208.852 158.508H208.839C208.696 158.573 208.579 158.69 208.579 158.859V158.872C208.657 158.846 208.735 158.846 208.8 158.872H208.813C208.826 158.872 208.839 158.872 208.839 158.859C208.852 158.859 208.865 158.846 208.878 158.846C208.904 158.846 208.931 158.833 208.97 158.833C208.983 158.833 208.983 158.833 208.996 158.833C209.009 158.833 209.022 158.833 209.035 158.833V159.392C209.035 159.405 209.022 159.418 209.009 159.418C208.996 159.418 208.983 159.405 208.983 159.392V159.379H208.891V159.366Z" fill="#525252"/>
<path d="M210.115 159.093C209.985 159.093 209.88 158.989 209.88 158.859V158.469H210.35V158.859C210.35 158.989 210.245 159.093 210.115 159.093Z" fill="#525252"/>
<path d="M210.142 159.068H210.09V159.471H210.142V159.068Z" fill="#525252"/>
<path d="M210.319 159.466V159.414H209.915V159.466H210.319Z" fill="#525252"/>
<path d="M210.86 158.508H210.808V159.301H210.86V158.508Z" fill="#525252"/>
<path d="M210.882 158.502L210.845 158.465L210.713 158.596L210.751 158.633L210.882 158.502Z" fill="#525252"/>
<path d="M210.936 158.639L210.974 158.602L210.842 158.47L210.805 158.508L210.936 158.639Z" fill="#525252"/>
<path d="M211.21 158.508H211.158V159.301H211.21V158.508Z" fill="#525252"/>
<path d="M211.232 158.502L211.195 158.465L211.063 158.596L211.101 158.633L211.232 158.502Z" fill="#525252"/>
<path d="M211.29 158.637L211.328 158.6L211.196 158.469L211.159 158.506L211.29 158.637Z" fill="#525252"/>
<path d="M211.323 159.466V159.414H210.698V159.466H211.323Z" fill="#525252"/>
<path d="M218.524 164.232H215.083V165.077H218.524V164.232Z" fill="white"/>
<path d="M215.768 164.942V164.383H215.35V164.942H215.768Z" fill="#B5B5B5"/>
<path d="M215.478 164.942V164.383H215.451V164.942H215.478Z" fill="#B5B5B5"/>
<path d="M215.6 164.942V164.383H215.561V164.942H215.6Z" fill="#B5B5B5"/>
<path d="M215.709 164.944V164.385H215.644V164.944H215.709Z" fill="#B5B5B5"/>
<path d="M215.782 164.94V164.381H215.756V164.94H215.782Z" fill="#B5B5B5"/>
<path d="M216.096 164.94V164.381H215.848V164.94H216.096Z" fill="#B5B5B5"/>
<path d="M216.003 164.94V164.381H215.964V164.94H216.003Z" fill="#B5B5B5"/>
<path d="M216.105 164.942V164.383H216.066V164.942H216.105Z" fill="#B5B5B5"/>
<path d="M216.21 164.942V164.383H216.158V164.942H216.21Z" fill="#B5B5B5"/>
<path d="M216.62 164.946V164.387H216.268V164.946H216.62Z" fill="#B5B5B5"/>
<path d="M216.418 164.942V164.383H216.353V164.942H216.418Z" fill="#B5B5B5"/>
<path d="M216.532 164.944V164.385H216.493V164.944H216.532Z" fill="#B5B5B5"/>
<path d="M216.622 164.944V164.385H216.557V164.944H216.622Z" fill="#B5B5B5"/>
<path d="M218.263 164.439H216.96V164.557H218.263V164.439Z" fill="#B5B5B5"/>
<path d="M217.703 164.725H216.96V164.842H217.703V164.725Z" fill="#B5B5B5"/>
<path d="M183.742 166.52H171.659V175.451H183.742V166.52Z" fill="#F6C05F"/>
<path d="M183.559 166.52H171.659V175.321H183.559V166.52Z" fill="#F6C05F"/>
<path opacity="0.1" d="M183.572 166.52C182.23 170.901 178.528 174.164 173.992 174.931L171.671 175.321H183.572V166.52Z" fill="#01B4AA"/>
<path d="M173.146 168.665V168.678C173.146 168.73 173.185 168.769 173.237 168.769C173.289 168.769 173.328 168.73 173.328 168.678V168.119C173.367 168.119 173.394 168.119 173.433 168.132H173.446C173.472 168.132 173.511 168.145 173.537 168.158H173.55C173.628 168.132 173.706 168.132 173.772 168.158C173.772 167.924 173.563 167.768 173.328 167.768H173.276C173.211 167.768 173.159 167.781 173.107 167.807H173.094C172.95 167.872 172.833 167.989 172.833 168.158V168.171C172.911 168.145 172.989 168.145 173.055 168.171H173.068C173.081 168.171 173.094 168.171 173.094 168.158C173.107 168.158 173.12 168.145 173.133 168.145C173.159 168.145 173.185 168.132 173.224 168.132C173.237 168.132 173.237 168.132 173.25 168.132C173.263 168.132 173.276 168.132 173.289 168.132V168.691C173.289 168.704 173.276 168.717 173.263 168.717C173.25 168.717 173.237 168.704 173.237 168.691V168.678H173.146V168.665Z" fill="#333333"/>
<path d="M174.371 168.403C174.241 168.403 174.136 168.299 174.136 168.169V167.779H174.605V168.169C174.605 168.299 174.488 168.403 174.371 168.403Z" fill="#333333"/>
<path d="M174.384 168.377H174.332V168.78H174.384V168.377Z" fill="#333333"/>
<path d="M174.564 168.763V168.711H174.16V168.763H174.564Z" fill="#333333"/>
<path d="M175.114 167.807H175.062V168.6H175.114V167.807Z" fill="#333333"/>
<path d="M175.123 167.809L175.086 167.771L174.954 167.903L174.992 167.94L175.123 167.809Z" fill="#333333"/>
<path d="M175.178 167.944L175.216 167.906L175.084 167.775L175.047 167.813L175.178 167.944Z" fill="#333333"/>
<path d="M175.467 167.811H175.415V168.604H175.467V167.811Z" fill="#333333"/>
<path d="M175.486 167.821L175.449 167.783L175.317 167.914L175.355 167.952L175.486 167.821Z" fill="#333333"/>
<path d="M175.536 167.948L175.573 167.91L175.442 167.779L175.404 167.817L175.536 167.948Z" fill="#333333"/>
<path d="M175.582 168.779V168.727H174.956V168.779H175.582Z" fill="#333333"/>
<path d="M182.661 167.338H180.171V169.028H182.661V167.338Z" fill="white"/>
<path d="M182.323 167.816H180.524V167.934H182.323V167.816Z" fill="#B5B5B5"/>
<path d="M182.323 168.104H180.524V168.221H182.323V168.104Z" fill="#B5B5B5"/>
<path d="M181.319 168.389H180.524V168.506H181.319V168.389Z" fill="#B5B5B5"/>
<path d="M182.778 173.537H179.337V174.382H182.778V173.537Z" fill="white"/>
<path d="M180.025 174.247V173.688H179.608V174.247H180.025Z" fill="#B5B5B5"/>
<path d="M179.735 174.248V173.689H179.709V174.248H179.735Z" fill="#B5B5B5"/>
<path d="M179.843 174.245V173.686H179.804V174.245H179.843Z" fill="#B5B5B5"/>
<path d="M179.968 174.241V173.682H179.903V174.241H179.968Z" fill="#B5B5B5"/>
<path d="M180.041 174.245V173.686H180.014V174.245H180.041Z" fill="#B5B5B5"/>
<path d="M180.354 174.245V173.686H180.106V174.245H180.354Z" fill="#B5B5B5"/>
<path d="M180.249 174.245V173.686H180.21V174.245H180.249Z" fill="#B5B5B5"/>
<path d="M180.352 174.247V173.688H180.312V174.247H180.352Z" fill="#B5B5B5"/>
<path d="M180.456 174.247V173.688H180.404V174.247H180.456Z" fill="#B5B5B5"/>
<path d="M180.867 174.241V173.682H180.515V174.241H180.867Z" fill="#B5B5B5"/>
<path d="M180.678 174.245V173.686H180.613V174.245H180.678Z" fill="#B5B5B5"/>
<path d="M180.776 174.252V173.693H180.737V174.252H180.776Z" fill="#B5B5B5"/>
<path d="M180.881 174.252V173.693H180.816V174.252H180.881Z" fill="#B5B5B5"/>
<path d="M182.517 173.746H181.213V173.863H182.517V173.746Z" fill="#B5B5B5"/>
<path d="M181.956 174.031H181.213V174.149H181.956V174.031Z" fill="#B5B5B5"/>
<path d="M195.774 166.52H183.756V175.451H195.774V166.52Z" fill="#F6C05F"/>
<path d="M195.657 166.52H183.756V175.321H195.657V166.52Z" fill="#F6C05F"/>
<path opacity="0.1" d="M195.657 166.52C194.315 170.901 190.613 174.164 186.077 174.931L183.756 175.321H195.657V166.52Z" fill="#01B4AA"/>
<path d="M185.229 168.665V168.678C185.229 168.73 185.268 168.769 185.321 168.769C185.373 168.769 185.412 168.73 185.412 168.678V168.119C185.451 168.119 185.477 168.119 185.516 168.132H185.529C185.555 168.132 185.594 168.145 185.62 168.158H185.633C185.712 168.132 185.79 168.132 185.855 168.158C185.855 167.924 185.646 167.768 185.412 167.768H185.36C185.295 167.768 185.242 167.781 185.19 167.807H185.177C185.034 167.872 184.917 167.989 184.917 168.158V168.171C184.995 168.145 185.073 168.145 185.138 168.171H185.151C185.164 168.171 185.177 168.171 185.177 168.158C185.19 168.158 185.203 168.145 185.216 168.145C185.242 168.145 185.268 168.132 185.308 168.132C185.321 168.132 185.321 168.132 185.334 168.132C185.347 168.132 185.36 168.132 185.373 168.132V168.691C185.373 168.704 185.36 168.717 185.347 168.717C185.334 168.717 185.321 168.704 185.321 168.691V168.678H185.229V168.665Z" fill="#525252"/>
<path d="M186.454 168.403C186.324 168.403 186.219 168.299 186.219 168.169V167.779H186.688V168.169C186.688 168.299 186.584 168.403 186.454 168.403Z" fill="#525252"/>
<path d="M186.48 168.379H186.428V168.782H186.48V168.379Z" fill="#525252"/>
<path d="M186.651 168.773V168.721H186.247V168.773H186.651Z" fill="#525252"/>
<path d="M187.197 167.807H187.145V168.6H187.197V167.807Z" fill="#525252"/>
<path d="M187.216 167.815L187.178 167.777L187.047 167.908L187.084 167.946L187.216 167.815Z" fill="#525252"/>
<path d="M187.268 167.942L187.305 167.904L187.174 167.773L187.136 167.811L187.268 167.942Z" fill="#525252"/>
<path d="M187.548 167.809H187.496V168.602H187.548V167.809Z" fill="#525252"/>
<path d="M187.567 167.817L187.53 167.779L187.398 167.91L187.436 167.948L187.567 167.817Z" fill="#525252"/>
<path d="M187.623 167.94L187.66 167.902L187.529 167.771L187.491 167.809L187.623 167.94Z" fill="#525252"/>
<path d="M187.667 168.771V168.719H187.041V168.771H187.667Z" fill="#525252"/>
<path d="M194.861 173.537H191.42V174.382H194.861V173.537Z" fill="white"/>
<path d="M192.114 174.243V173.684H191.697V174.243H192.114Z" fill="#B5B5B5"/>
<path d="M191.824 174.245V173.686H191.798V174.245H191.824Z" fill="#B5B5B5"/>
<path d="M191.932 174.241V173.682H191.893V174.241H191.932Z" fill="#B5B5B5"/>
<path d="M192.055 174.247V173.688H191.99V174.247H192.055Z" fill="#B5B5B5"/>
<path d="M192.129 174.241V173.682H192.103V174.241H192.129Z" fill="#B5B5B5"/>
<path d="M192.441 174.241V173.682H192.193V174.241H192.441Z" fill="#B5B5B5"/>
<path d="M192.337 174.241V173.682H192.298V174.241H192.337Z" fill="#B5B5B5"/>
<path d="M192.439 174.243V173.684H192.4V174.243H192.439Z" fill="#B5B5B5"/>
<path d="M192.544 174.243V173.684H192.492V174.243H192.544Z" fill="#B5B5B5"/>
<path d="M192.955 174.248V173.689H192.603V174.248H192.955Z" fill="#B5B5B5"/>
<path d="M192.765 174.241V173.682H192.699V174.241H192.765Z" fill="#B5B5B5"/>
<path d="M192.865 174.245V173.686H192.826V174.245H192.865Z" fill="#B5B5B5"/>
<path d="M192.969 174.247V173.688H192.904V174.247H192.969Z" fill="#B5B5B5"/>
<path d="M194.6 173.746H193.296V173.863H194.6V173.746Z" fill="#B5B5B5"/>
<path d="M194.039 174.031H193.296V174.149H194.039V174.031Z" fill="#B5B5B5"/>
<path d="M183.651 157.576H171.568V166.507H183.651V157.576Z" fill="#F6C05F"/>
<path d="M183.469 157.576H171.568V166.377H183.469V157.576Z" fill="#F6C05F"/>
<path d="M173.053 159.733V159.746C173.053 159.798 173.092 159.837 173.144 159.837C173.196 159.837 173.236 159.798 173.236 159.746V159.187C173.275 159.187 173.301 159.187 173.34 159.2H173.353C173.379 159.2 173.418 159.213 173.444 159.226H173.457C173.535 159.2 173.614 159.2 173.679 159.226C173.679 158.992 173.47 158.849 173.236 158.836H173.183C173.118 158.836 173.066 158.849 173.014 158.875H173.001C172.858 158.94 172.74 159.057 172.74 159.226V159.239C172.818 159.213 172.897 159.213 172.962 159.239H172.975C172.988 159.239 173.001 159.239 173.001 159.226C173.014 159.226 173.027 159.213 173.04 159.213C173.066 159.213 173.092 159.2 173.131 159.2C173.144 159.2 173.144 159.2 173.157 159.2C173.17 159.2 173.183 159.2 173.196 159.2V159.759C173.196 159.772 173.183 159.785 173.17 159.785C173.157 159.785 173.144 159.772 173.144 159.759V159.746H173.053V159.733Z" fill="#333333"/>
<path d="M174.279 159.46C174.149 159.46 174.044 159.356 174.044 159.226V158.836H174.514V159.226C174.514 159.356 174.409 159.46 174.279 159.46Z" fill="#333333"/>
<path d="M174.291 159.432H174.239V159.835H174.291V159.432Z" fill="#333333"/>
<path d="M174.477 159.824V159.771H174.073V159.824H174.477Z" fill="#333333"/>
<path d="M175.02 158.875H174.968V159.668H175.02V158.875Z" fill="#333333"/>
<path d="M175.035 158.864L174.998 158.826L174.866 158.957L174.904 158.995L175.035 158.864Z" fill="#333333"/>
<path d="M175.092 159.01L175.129 158.973L174.998 158.842L174.96 158.879L175.092 159.01Z" fill="#333333"/>
<path d="M175.374 158.877H175.322V159.67H175.374V158.877Z" fill="#333333"/>
<path d="M175.396 158.871L175.358 158.834L175.227 158.965L175.264 159.003L175.396 158.871Z" fill="#333333"/>
<path d="M175.448 159.008L175.486 158.971L175.354 158.84L175.317 158.877L175.448 159.008Z" fill="#333333"/>
<path d="M175.482 159.837V159.785H174.857V159.837H175.482Z" fill="#333333"/>
<path d="M182.582 158.395H180.093V160.085H182.582V158.395Z" fill="white"/>
<path d="M182.229 158.877H180.431V158.994H182.229V158.877Z" fill="#B5B5B5"/>
<path d="M182.229 159.178H180.43V159.295H182.229V159.178Z" fill="#B5B5B5"/>
<path d="M181.225 159.461H180.43V159.578H181.225V159.461Z" fill="#B5B5B5"/>
<path d="M182.687 164.594H179.246V165.439H182.687V164.594Z" fill="white"/>
<path d="M179.928 165.307V164.748H179.511V165.307H179.928Z" fill="#B5B5B5"/>
<path d="M179.638 165.309V164.75H179.612V165.309H179.638Z" fill="#B5B5B5"/>
<path d="M179.76 165.305V164.746H179.721V165.305H179.76Z" fill="#B5B5B5"/>
<path d="M179.87 165.313V164.754H179.804V165.313H179.87Z" fill="#B5B5B5"/>
<path d="M179.942 165.305V164.746H179.916V165.305H179.942Z" fill="#B5B5B5"/>
<path d="M180.256 165.305V164.746H180.009V165.305H180.256Z" fill="#B5B5B5"/>
<path d="M180.164 165.305V164.746H180.124V165.305H180.164Z" fill="#B5B5B5"/>
<path d="M180.265 165.309V164.75H180.226V165.309H180.265Z" fill="#B5B5B5"/>
<path d="M180.37 165.307V164.748H180.318V165.307H180.37Z" fill="#B5B5B5"/>
<path d="M180.78 165.301V164.742H180.428V165.301H180.78Z" fill="#B5B5B5"/>
<path d="M180.58 165.305V164.746H180.515V165.305H180.58Z" fill="#B5B5B5"/>
<path d="M180.691 165.311V164.752H180.652V165.311H180.691Z" fill="#B5B5B5"/>
<path d="M180.783 165.311V164.752H180.718V165.311H180.783Z" fill="#B5B5B5"/>
<path d="M182.427 164.803H181.123V164.92H182.427V164.803Z" fill="#B5B5B5"/>
<path d="M181.866 165.088H181.123V165.205H181.866V165.088Z" fill="#B5B5B5"/>
<path d="M195.684 157.068H183.666V166.504H195.684V157.068Z" fill="#F6C05F"/>
<path d="M195.566 157.068H183.666V166.366H195.566V157.068Z" fill="#F6C05F"/>
<path opacity="0.1" d="M195.566 157.068C194.224 161.697 190.522 165.144 185.986 165.954L183.666 166.366H195.566V157.068Z" fill="#01B4AA"/>
<path d="M185.137 159.35V159.364C185.137 159.419 185.176 159.46 185.228 159.46C185.28 159.46 185.32 159.419 185.32 159.364V158.773C185.359 158.773 185.385 158.773 185.424 158.787H185.437C185.463 158.787 185.502 158.801 185.528 158.814H185.541C185.619 158.787 185.698 158.787 185.763 158.814C185.763 158.567 185.554 158.416 185.32 158.402H185.267C185.202 158.402 185.15 158.416 185.098 158.444H185.085C184.942 158.512 184.824 158.636 184.824 158.814V158.828C184.902 158.801 184.981 158.801 185.046 158.828H185.059C185.072 158.828 185.085 158.828 185.085 158.814C185.098 158.814 185.111 158.801 185.124 158.801C185.15 158.801 185.176 158.787 185.215 158.787C185.228 158.787 185.228 158.787 185.241 158.787C185.254 158.787 185.267 158.787 185.28 158.787V159.377C185.28 159.391 185.267 159.405 185.254 159.405C185.241 159.405 185.228 159.391 185.228 159.377V159.364H185.137V159.35Z" fill="#525252"/>
<path d="M186.363 159.062C186.233 159.062 186.128 158.952 186.128 158.814V158.402H186.598V158.814C186.598 158.952 186.493 159.062 186.363 159.062Z" fill="#525252"/>
<path d="M186.389 159.033H186.337V159.459H186.389V159.033Z" fill="#525252"/>
<path d="M186.567 159.457V159.402H186.163V159.457H186.567Z" fill="#525252"/>
<path d="M187.107 158.445H187.055V159.283H187.107V158.445Z" fill="#525252"/>
<path d="M187.13 158.442L187.093 158.402L186.961 158.541L186.999 158.58L187.13 158.442Z" fill="#525252"/>
<path d="M187.182 158.583L187.22 158.543L187.088 158.404L187.051 158.444L187.182 158.583Z" fill="#525252"/>
<path d="M187.456 158.445H187.404V159.283H187.456V158.445Z" fill="#525252"/>
<path d="M187.479 158.438L187.441 158.398L187.31 158.537L187.348 158.577L187.479 158.438Z" fill="#525252"/>
<path d="M187.537 158.579L187.575 158.539L187.443 158.401L187.406 158.44L187.537 158.579Z" fill="#525252"/>
<path d="M187.569 159.454V159.398H186.944V159.454H187.569Z" fill="#525252"/>
<path d="M194.77 164.486H191.329V165.379H194.77V164.486Z" fill="white"/>
<path d="M192.016 165.235V164.645H191.599V165.235H192.016Z" fill="#B5B5B5"/>
<path d="M191.727 165.237V164.646H191.7V165.237H191.727Z" fill="#B5B5B5"/>
<path d="M191.847 165.233V164.643H191.808V165.233H191.847Z" fill="#B5B5B5"/>
<path d="M191.956 165.241V164.65H191.891V165.241H191.956Z" fill="#B5B5B5"/>
<path d="M192.031 165.231V164.641H192.005V165.231H192.031Z" fill="#B5B5B5"/>
<path d="M192.344 165.231V164.641H192.097V165.231H192.344Z" fill="#B5B5B5"/>
<path d="M192.253 165.231V164.641H192.214V165.231H192.253Z" fill="#B5B5B5"/>
<path d="M192.355 165.235V164.645H192.316V165.235H192.355Z" fill="#B5B5B5"/>
<path d="M192.459 165.235V164.645H192.407V165.235H192.459Z" fill="#B5B5B5"/>
<path d="M192.869 165.243V164.652H192.517V165.243H192.869Z" fill="#B5B5B5"/>
<path d="M192.667 165.233V164.643H192.602V165.233H192.667Z" fill="#B5B5B5"/>
<path d="M192.78 165.239V164.648H192.741V165.239H192.78Z" fill="#B5B5B5"/>
<path d="M192.871 165.239V164.648H192.805V165.239H192.871Z" fill="#B5B5B5"/>
<path d="M194.509 164.707H193.205V164.831H194.509V164.707Z" fill="#B5B5B5"/>
<path d="M193.948 165.008H193.205V165.132H193.948V165.008Z" fill="#B5B5B5"/>
</g>
<path d="M164.238 128.458V174.515H85.207V128.458H164.238Z" fill="#01B4AA" stroke="#5798F9" stroke-width="1.32153"/>
<rect width="81.5094" height="48.2403" transform="translate(84.5 127.836)" fill="#01B4AA"/>
<mask id="mask0_2452_219126" style="mask-type:alpha" maskUnits="userSpaceOnUse" x="84" y="127" width="211" height="126">
<path d="M165.912 128.458V174.515H85.207V128.458H165.912Z" fill="#3681F2" stroke="#5798F9" stroke-width="1.32153"/>
<rect width="210.123" height="124.224" transform="translate(84.5605 127.783)" fill="#3681F2"/>
</mask>
<g mask="url(#mask0_2452_219126)">
<mask id="mask1_2452_219126" style="mask-type:alpha" maskUnits="userSpaceOnUse" x="81" y="127" width="135" height="50">
<path d="M215.254 127.836H81.103V176.076H215.254V127.836Z" fill="#FD6D17"/>
</mask>
<g mask="url(#mask1_2452_219126)">
<path opacity="0.4" d="M89.5282 115.494L83.5649 114.893L64.9925 259.63L70.9558 260.232L89.5282 115.494Z" fill="url(#paint7_linear_2452_219126)" fill-opacity="0.2"/>
<path opacity="0.4" d="M98.2035 115.494L92.2402 114.893L73.6678 259.63L79.6311 260.232L98.2035 115.494Z" fill="url(#paint8_linear_2452_219126)" fill-opacity="0.2"/>
<path opacity="0.4" d="M106.881 115.494L100.918 114.893L82.3455 259.63L88.3088 260.232L106.881 115.494Z" fill="url(#paint9_linear_2452_219126)" fill-opacity="0.2"/>
<path opacity="0.4" d="M115.558 115.494L109.594 114.893L91.0218 259.63L96.9851 260.232L115.558 115.494Z" fill="url(#paint10_linear_2452_219126)" fill-opacity="0.2"/>
<path opacity="0.4" d="M124.236 115.494L118.273 114.893L99.7005 259.63L105.664 260.232L124.236 115.494Z" fill="url(#paint11_linear_2452_219126)" fill-opacity="0.2"/>
<path opacity="0.4" d="M132.916 115.494L126.953 114.893L108.38 259.63L114.343 260.232L132.916 115.494Z" fill="url(#paint12_linear_2452_219126)" fill-opacity="0.2"/>
<path opacity="0.4" d="M141.59 115.494L135.626 114.893L117.054 259.63L123.017 260.232L141.59 115.494Z" fill="url(#paint13_linear_2452_219126)" fill-opacity="0.2"/>
<path opacity="0.4" d="M150.268 115.494L144.305 114.893L125.733 259.63L131.696 260.232L150.268 115.494Z" fill="url(#paint14_linear_2452_219126)" fill-opacity="0.2"/>
<path opacity="0.4" d="M158.945 115.494L152.982 114.893L134.409 259.63L140.373 260.232L158.945 115.494Z" fill="url(#paint15_linear_2452_219126)" fill-opacity="0.2"/>
<path opacity="0.4" d="M167.623 115.494L161.66 114.893L143.088 259.63L149.051 260.232L167.623 115.494Z" fill="url(#paint16_linear_2452_219126)" fill-opacity="0.2"/>
<path opacity="0.4" d="M176.301 115.494L170.338 114.893L151.765 259.63L157.729 260.232L176.301 115.494Z" fill="url(#paint17_linear_2452_219126)" fill-opacity="0.2"/>
<path opacity="0.4" d="M184.977 115.494L179.014 114.893L160.441 259.63L166.404 260.232L184.977 115.494Z" fill="url(#paint18_linear_2452_219126)" fill-opacity="0.2"/>
<path opacity="0.4" d="M193.656 115.494L187.692 114.893L169.12 259.63L175.083 260.232L193.656 115.494Z" fill="url(#paint19_linear_2452_219126)" fill-opacity="0.2"/>
<path opacity="0.4" d="M202.332 115.494L196.369 114.893L177.796 259.63L183.759 260.232L202.332 115.494Z" fill="url(#paint20_linear_2452_219126)" fill-opacity="0.2"/>
<path opacity="0.4" d="M211.012 115.494L205.048 114.893L186.476 259.63L192.439 260.232L211.012 115.494Z" fill="url(#paint21_linear_2452_219126)" fill-opacity="0.2"/>
<path opacity="0.4" d="M219.688 115.494L213.725 114.893L195.152 259.63L201.115 260.232L219.688 115.494Z" fill="url(#paint22_linear_2452_219126)" fill-opacity="0.2"/>
<path opacity="0.4" d="M228.365 115.494L222.402 114.893L203.829 259.63L209.793 260.232L228.365 115.494Z" fill="url(#paint23_linear_2452_219126)" fill-opacity="0.2"/>
<path opacity="0.4" d="M237.043 115.494L231.08 114.893L212.507 259.63L218.47 260.232L237.043 115.494Z" fill="url(#paint24_linear_2452_219126)" fill-opacity="0.2"/>
</g>
</g>
<path d="M224.296 87.1279V82.5059H242.159V87.1279L229.97 101.835H242.37V106.457H223.666V101.835L235.855 87.1279H224.296Z" fill="url(#paint25_linear_2452_219126)"/>
<path d="M246.95 112.291V109.35H258.508V112.291L250.732 121.745H258.718V124.686H246.529V121.745L254.305 112.291H246.95Z" fill="url(#paint26_linear_2452_219126)"/>
<defs>
<linearGradient id="paint0_linear_2452_219126" x1="261.775" y1="73.1728" x2="317.145" y2="74.6189" gradientUnits="userSpaceOnUse">
<stop stop-color="#D0F2F0"/>
<stop offset="0.9964" stop-color="#E4F0F0"/>
</linearGradient>
<linearGradient id="paint1_linear_2452_219126" x1="203.125" y1="131.538" x2="258.413" y2="134.102" gradientUnits="userSpaceOnUse">
<stop stop-color="#ECD4C5"/>
<stop offset="0.9964" stop-color="#F3EDE9"/>
</linearGradient>
<linearGradient id="paint2_linear_2452_219126" x1="211.284" y1="5.72586" x2="311.447" y2="8.87154" gradientUnits="userSpaceOnUse">
<stop stop-color="#D0F2F0"/>
<stop offset="0.9964" stop-color="#E4F0F0"/>
</linearGradient>
<linearGradient id="paint3_linear_2452_219126" x1="192.052" y1="95.5828" x2="247.406" y2="97.3199" gradientUnits="userSpaceOnUse">
<stop stop-color="#D0F2F0"/>
<stop offset="0.9964" stop-color="#E4F0F0"/>
</linearGradient>
<linearGradient id="paint4_linear_2452_219126" x1="133.402" y1="144.157" x2="188.638" y2="147.236" gradientUnits="userSpaceOnUse">
<stop stop-color="#D0F2F0"/>
<stop offset="0.9964" stop-color="#E4F0F0"/>
</linearGradient>
<linearGradient id="paint5_linear_2452_219126" x1="141.561" y1="39.4483" x2="241.68" y2="43.2264" gradientUnits="userSpaceOnUse">
<stop stop-color="#D0F2F0"/>
<stop offset="0.9964" stop-color="#E4F0F0"/>
</linearGradient>
<linearGradient id="paint6_linear_2452_219126" x1="29.0637" y1="90.035" x2="102.823" y2="92.9746" gradientUnits="userSpaceOnUse">
<stop stop-color="#D0F2F0"/>
<stop offset="0.9964" stop-color="#E4F0F0"/>
</linearGradient>
<linearGradient id="paint7_linear_2452_219126" x1="86.5466" y1="115.193" x2="71.9012" y2="260.328" gradientUnits="userSpaceOnUse">
<stop stop-color="white"/>
<stop offset="1" stop-color="white" stop-opacity="0"/>
</linearGradient>
<linearGradient id="paint8_linear_2452_219126" x1="95.2219" y1="115.193" x2="80.5765" y2="260.328" gradientUnits="userSpaceOnUse">
<stop stop-color="white"/>
<stop offset="1" stop-color="white" stop-opacity="0"/>
</linearGradient>
<linearGradient id="paint9_linear_2452_219126" x1="103.9" y1="115.193" x2="89.2542" y2="260.328" gradientUnits="userSpaceOnUse">
<stop stop-color="white"/>
<stop offset="1" stop-color="white" stop-opacity="0"/>
</linearGradient>
<linearGradient id="paint10_linear_2452_219126" x1="112.576" y1="115.193" x2="97.9305" y2="260.328" gradientUnits="userSpaceOnUse">
<stop stop-color="white"/>
<stop offset="1" stop-color="white" stop-opacity="0"/>
</linearGradient>
<linearGradient id="paint11_linear_2452_219126" x1="121.255" y1="115.193" x2="106.609" y2="260.328" gradientUnits="userSpaceOnUse">
<stop stop-color="white"/>
<stop offset="1" stop-color="white" stop-opacity="0"/>
</linearGradient>
<linearGradient id="paint12_linear_2452_219126" x1="129.934" y1="115.193" x2="115.289" y2="260.328" gradientUnits="userSpaceOnUse">
<stop stop-color="white"/>
<stop offset="1" stop-color="white" stop-opacity="0"/>
</linearGradient>
<linearGradient id="paint13_linear_2452_219126" x1="138.608" y1="115.193" x2="123.963" y2="260.328" gradientUnits="userSpaceOnUse">
<stop stop-color="white"/>
<stop offset="1" stop-color="white" stop-opacity="0"/>
</linearGradient>
<linearGradient id="paint14_linear_2452_219126" x1="147.287" y1="115.193" x2="132.641" y2="260.328" gradientUnits="userSpaceOnUse">
<stop stop-color="white"/>
<stop offset="1" stop-color="white" stop-opacity="0"/>
</linearGradient>
<linearGradient id="paint15_linear_2452_219126" x1="155.964" y1="115.193" x2="141.318" y2="260.328" gradientUnits="userSpaceOnUse">
<stop stop-color="white"/>
<stop offset="1" stop-color="white" stop-opacity="0"/>
</linearGradient>
<linearGradient id="paint16_linear_2452_219126" x1="164.642" y1="115.193" x2="149.996" y2="260.328" gradientUnits="userSpaceOnUse">
<stop stop-color="white"/>
<stop offset="1" stop-color="white" stop-opacity="0"/>
</linearGradient>
<linearGradient id="paint17_linear_2452_219126" x1="173.32" y1="115.193" x2="158.674" y2="260.328" gradientUnits="userSpaceOnUse">
<stop stop-color="white"/>
<stop offset="1" stop-color="white" stop-opacity="0"/>
</linearGradient>
<linearGradient id="paint18_linear_2452_219126" x1="181.995" y1="115.193" x2="167.35" y2="260.328" gradientUnits="userSpaceOnUse">
<stop stop-color="white"/>
<stop offset="1" stop-color="white" stop-opacity="0"/>
</linearGradient>
<linearGradient id="paint19_linear_2452_219126" x1="190.674" y1="115.193" x2="176.029" y2="260.328" gradientUnits="userSpaceOnUse">
<stop stop-color="white"/>
<stop offset="1" stop-color="white" stop-opacity="0"/>
</linearGradient>
<linearGradient id="paint20_linear_2452_219126" x1="199.35" y1="115.193" x2="184.705" y2="260.328" gradientUnits="userSpaceOnUse">
<stop stop-color="white"/>
<stop offset="1" stop-color="white" stop-opacity="0"/>
</linearGradient>
<linearGradient id="paint21_linear_2452_219126" x1="208.03" y1="115.193" x2="193.385" y2="260.328" gradientUnits="userSpaceOnUse">
<stop stop-color="white"/>
<stop offset="1" stop-color="white" stop-opacity="0"/>
</linearGradient>
<linearGradient id="paint22_linear_2452_219126" x1="216.706" y1="115.193" x2="202.061" y2="260.328" gradientUnits="userSpaceOnUse">
<stop stop-color="white"/>
<stop offset="1" stop-color="white" stop-opacity="0"/>
</linearGradient>
<linearGradient id="paint23_linear_2452_219126" x1="225.384" y1="115.193" x2="210.738" y2="260.328" gradientUnits="userSpaceOnUse">
<stop stop-color="white"/>
<stop offset="1" stop-color="white" stop-opacity="0"/>
</linearGradient>
<linearGradient id="paint24_linear_2452_219126" x1="234.061" y1="115.193" x2="219.416" y2="260.328" gradientUnits="userSpaceOnUse">
<stop stop-color="white"/>
<stop offset="1" stop-color="white" stop-opacity="0"/>
</linearGradient>
<linearGradient id="paint25_linear_2452_219126" x1="233.018" y1="82.5059" x2="233.018" y2="106.457" gradientUnits="userSpaceOnUse">
<stop stop-color="#01B4AA"/>
<stop offset="1" stop-color="#4ECAC3"/>
</linearGradient>
<linearGradient id="paint26_linear_2452_219126" x1="252.624" y1="109.35" x2="252.624" y2="124.686" gradientUnits="userSpaceOnUse">
<stop stop-color="#01B4AA"/>
<stop offset="1" stop-color="#4ECAC3"/>
</linearGradient>
</defs>
</svg>
