<svg width="136" height="111" viewBox="0 0 136 111" fill="none" xmlns="http://www.w3.org/2000/svg">
<circle cx="68" cy="62" r="41" fill="#E8FBFA"/>
<circle cx="68" cy="62" r="30" fill="#D3F2F0"/>
<path opacity="0.99" d="M64.4769 69.506C64.2415 69.5062 64.0085 69.4589 63.7911 69.3667C63.5737 69.2745 63.3763 69.1393 63.2101 68.9688L58.1711 63.8126C57.8386 63.4681 57.6528 63.003 57.6543 62.5188C57.6558 62.0346 57.8444 61.5707 58.179 61.2283C58.5136 60.886 58.9669 60.6929 59.4401 60.6914C59.9133 60.6899 60.3678 60.88 60.7045 61.2202L64.4768 65.0802L74.2961 55.0327C74.6328 54.6925 75.0873 54.5024 75.5605 54.5039C76.0337 54.5054 76.487 54.6985 76.8216 55.0408C77.1562 55.3832 77.3448 55.8471 77.3463 56.3313C77.3478 56.8155 77.162 57.2806 76.8295 57.6251L65.7436 68.9689C65.5774 69.1394 65.38 69.2746 65.1626 69.3668C64.9452 69.4589 64.7122 69.5062 64.4769 69.506Z" fill="#01B4AA"/>
<path d="M67.5007 43.666C63.9571 43.666 60.4931 44.7412 57.5467 46.7557C54.6003 48.7702 52.3039 51.6335 50.9478 54.9835C49.5917 58.3335 49.2369 62.0197 49.9283 65.576C50.6196 69.1323 52.326 72.399 54.8317 74.963C57.3374 77.5269 60.5298 79.273 64.0053 79.9804C67.4808 80.6878 71.0832 80.3247 74.3571 78.9371C77.6309 77.5495 80.4291 75.1997 82.3978 72.1848C84.3665 69.1699 85.4173 65.6253 85.4173 61.9993C85.4119 57.1388 83.5225 52.4788 80.1637 49.0419C76.8048 45.6049 72.2508 43.6716 67.5007 43.666ZM76.8299 57.6237L65.7439 68.9674C65.5776 69.1377 65.3801 69.2728 65.1628 69.365C64.9454 69.4571 64.7124 69.5046 64.4772 69.5046C64.2419 69.5046 64.0089 69.4571 63.7916 69.365C63.5742 69.2728 63.3767 69.1377 63.2104 68.9674L58.1715 63.8112C57.839 63.4667 57.6532 63.0016 57.6547 62.5174C57.6561 62.0332 57.8448 61.5693 58.1793 61.2269C58.5139 60.8846 58.9673 60.6915 59.4405 60.69C59.9136 60.6885 60.3682 60.8786 60.7049 61.2188L64.4772 65.0788L74.2965 55.0313C74.6331 54.6911 75.0877 54.501 75.5609 54.5025C76.034 54.504 76.4874 54.6971 76.822 55.0394C77.1566 55.3818 77.3452 55.8457 77.3466 56.3299C77.3481 56.8141 77.1623 57.2792 76.8299 57.6237Z" fill="#01B4AA"/>
<path d="M68.1538 67.7012C68.7395 67.7013 69.2306 67.9189 69.6274 68.3535C70.0431 68.7692 70.2514 69.2792 70.2515 69.8838C70.2515 70.4697 70.0433 70.9615 69.6274 71.3584C69.2306 71.7741 68.7395 71.9823 68.1538 71.9824C67.549 71.9824 67.0289 71.7742 66.5942 71.3584C66.1784 70.9615 65.9702 70.4697 65.9702 69.8838C65.9703 69.2792 66.1785 68.7692 66.5942 68.3535C67.029 67.9188 67.549 67.7012 68.1538 67.7012ZM68.6636 52.1367C69.6086 52.1367 70.4781 52.2403 71.272 52.4482C72.0657 52.6372 72.7743 52.9492 73.3979 53.3838L72.1226 56.5596C71.6311 56.0681 71.0546 55.7083 70.3931 55.4814C69.7505 55.2547 69.0984 55.1416 68.437 55.1416C67.9456 55.1416 67.4821 55.1981 67.0474 55.3115C66.6316 55.4249 66.2537 55.6049 65.9136 55.8506C65.5923 56.0963 65.3369 56.3988 65.1479 56.7578C64.9591 57.1168 64.8648 57.5325 64.8647 58.0049C64.8647 58.2317 64.893 58.4305 64.9497 58.6006C65.0064 58.7705 65.1291 58.9688 65.3179 59.1953C65.5068 59.422 65.7906 59.6964 66.1685 60.0176C66.5465 60.32 67.0477 60.727 67.6714 61.2373C68.106 61.5775 68.465 61.8988 68.7485 62.2012C69.0509 62.5036 69.2874 62.8342 69.4575 63.1934C69.6276 63.5524 69.7501 63.987 69.8257 64.4971C69.9013 64.9884 69.9399 65.6029 69.9399 66.3398H66.3677C66.3677 65.8486 66.3488 65.4517 66.311 65.1494C66.2732 64.847 66.2063 64.6011 66.1118 64.4121C66.0174 64.2044 65.8758 64.0251 65.687 63.874C65.498 63.7039 65.2615 63.5145 64.978 63.3066C64.0897 62.6829 63.4001 62.144 62.9087 61.6904C62.4173 61.2179 62.048 60.7836 61.8022 60.3867C61.5567 59.99 61.4059 59.6025 61.3491 59.2246C61.3113 58.8466 61.2925 58.4302 61.2925 57.9766C61.2925 57.183 61.4622 56.4365 61.8022 55.7373C62.1424 55.0192 62.6249 54.3954 63.2485 53.8662C63.8912 53.337 64.6665 52.9206 65.5737 52.6182C66.4998 52.2969 67.5297 52.1367 68.6636 52.1367Z" fill="white"/>
<path d="M28.232 7.76796L31.7676 4.23242" stroke="#B5B5B5" stroke-width="1.5" stroke-linecap="round"/>
<path d="M28.232 4.23204L31.7676 7.76758" stroke="#B5B5B5" stroke-width="1.5" stroke-linecap="round"/>
<path d="M104.232 106.768L107.768 103.232" stroke="#B5B5B5" stroke-width="1.5" stroke-linecap="round"/>
<path d="M104.232 103.232L107.768 106.768" stroke="#B5B5B5" stroke-width="1.5" stroke-linecap="round"/>
<g clip-path="url(#clip0_2452_220506)">
<path d="M12.9998 103.666C12.3406 103.666 11.6961 103.862 11.1479 104.228C10.5998 104.594 10.1725 105.115 9.92024 105.724C9.66795 106.333 9.60194 107.003 9.73055 107.65C9.85917 108.296 10.1766 108.89 10.6428 109.356C11.109 109.823 11.7029 110.14 12.3495 110.269C12.9961 110.397 13.6664 110.331 14.2755 110.079C14.8845 109.827 15.4051 109.399 15.7714 108.851C16.1377 108.303 16.3332 107.659 16.3332 106.999C16.3332 106.562 16.247 106.128 16.0794 105.724C15.9119 105.319 15.6664 104.952 15.3569 104.642C15.0473 104.333 14.6799 104.087 14.2755 103.92C13.871 103.752 13.4376 103.666 12.9998 103.666ZM12.9998 109.666C12.4724 109.666 11.9568 109.51 11.5183 109.217C11.0798 108.924 10.738 108.507 10.5362 108.02C10.3343 107.533 10.2815 106.996 10.3844 106.479C10.4873 105.962 10.7413 105.487 11.1142 105.114C11.4872 104.741 11.9623 104.487 12.4796 104.384C12.9969 104.281 13.5331 104.334 14.0203 104.536C14.5076 104.738 14.9241 105.079 15.2171 105.518C15.5101 105.956 15.6665 106.472 15.6665 106.999C15.6665 107.707 15.3856 108.385 14.8855 108.885C14.3854 109.385 13.7071 109.666 12.9998 109.666Z" fill="#B5B5B5"/>
</g>
<g clip-path="url(#clip1_2452_220506)">
<path d="M132 55.666C131.341 55.666 130.696 55.8615 130.148 56.2278C129.6 56.5941 129.173 57.1147 128.92 57.7237C128.668 58.3328 128.602 59.003 128.731 59.6497C128.859 60.2963 129.177 60.8902 129.643 61.3564C130.109 61.8225 130.703 62.14 131.35 62.2686C131.996 62.3973 132.666 62.3312 133.275 62.0789C133.885 61.8267 134.405 61.3994 134.771 60.8512C135.138 60.3031 135.333 59.6586 135.333 58.9993C135.333 58.5616 135.247 58.1282 135.079 57.7237C134.912 57.3193 134.666 56.9519 134.357 56.6423C134.047 56.3328 133.68 56.0873 133.275 55.9198C132.871 55.7522 132.438 55.666 132 55.666ZM132 61.666C131.472 61.666 130.957 61.5096 130.518 61.2166C130.08 60.9236 129.738 60.5071 129.536 60.0198C129.334 59.5326 129.282 58.9964 129.384 58.4791C129.487 57.9618 129.741 57.4867 130.114 57.1137C130.487 56.7408 130.962 56.4868 131.48 56.3839C131.997 56.281 132.533 56.3338 133.02 56.5357C133.508 56.7375 133.924 57.0793 134.217 57.5178C134.51 57.9564 134.667 58.4719 134.667 58.9993C134.667 59.7066 134.386 60.3849 133.885 60.885C133.385 61.3851 132.707 61.666 132 61.666Z" fill="#B5B5B5"/>
</g>
<circle cx="2.5" cy="48.5" r="2.5" fill="#01B4AA"/>
<circle cx="108.5" cy="16.5" r="2.5" fill="#01B4AA"/>
<defs>
<clipPath id="clip0_2452_220506">
<rect width="8" height="8" fill="white" transform="translate(9 103)"/>
</clipPath>
<clipPath id="clip1_2452_220506">
<rect width="8" height="8" fill="white" transform="translate(128 55)"/>
</clipPath>
</defs>
</svg>
