<svg width="31" height="42" viewBox="0 0 31 42" fill="none" xmlns="http://www.w3.org/2000/svg">
<path d="M15.3558 0C6.87522 0 0 6.87522 0 15.3558C0 24.324 9.494 32.7517 13.5507 35.9432C14.0651 36.3479 14.7006 36.5679 15.355 36.5679C16.0095 36.5679 16.645 36.3479 17.1594 35.9432C21.2176 32.7502 30.7101 24.324 30.7101 15.3558C30.7116 6.87375 23.8363 0 15.3558 0ZM15.3558 21.0325C13.7809 21.0325 12.2705 20.4069 11.1569 19.2933C10.0433 18.1796 9.41762 16.6692 9.41762 15.0943C9.41762 13.5194 10.0433 12.0091 11.1569 10.8954C12.2705 9.78181 13.7809 9.15619 15.3558 9.15619C16.9307 9.15619 18.4411 9.78181 19.5547 10.8954C20.6683 12.0091 21.2939 13.5194 21.2939 15.0943C21.2939 16.6692 20.6683 18.1796 19.5547 19.2933C18.4411 20.4069 16.9307 21.0325 15.3558 21.0325Z" fill="#01B4AA"/>
<path d="M22.0417 35.2598C20.9934 36.219 19.9107 37.14 18.7958 38.021C17.8176 38.7877 16.5971 39.2122 15.356 39.2122C14.1149 39.2122 12.8944 38.7892 11.9176 38.021C10.8022 37.14 9.71905 36.219 8.67023 35.2598C5.07766 35.8179 2.68066 36.8064 2.68066 37.9388C2.68066 39.6822 8.35591 41.0966 15.356 41.0966C22.356 41.0966 28.0313 39.6836 28.0313 37.9388C28.0313 36.8064 25.6328 35.8164 22.0417 35.2598Z" fill="#01B4AA" fill-opacity="0.4"/>
</svg>
