<svg width="136" height="111" viewBox="0 0 136 111" fill="none" xmlns="http://www.w3.org/2000/svg">
<circle cx="68" cy="62" r="41" fill="#E8FBFA"/>
<circle cx="68" cy="62" r="30" fill="#D3F1F0"/>
<path fill-rule="evenodd" clip-rule="evenodd" d="M72.724 37.3887V41.571C75.3376 42.1139 77.8261 43.1334 80.0621 44.5774L83.0511 41.6222C85.5233 43.3352 87.6741 45.4617 89.4067 47.906L86.4177 50.8612C87.8502 53.0393 88.9 55.4885 89.4585 58.1164H93.6886C93.9508 59.585 94.0824 61.0735 94.0817 62.5648C94.0817 64.0782 93.9473 65.566 93.6886 67.008H89.4585C88.9093 69.5921 87.8781 72.0524 86.4177 74.2632L89.4067 77.2184C87.6729 79.6631 85.5223 81.7911 83.0511 83.5073L80.0621 80.547C77.8252 81.9904 75.3372 83.0115 72.724 83.5585V87.7357C71.2386 87.995 69.7331 88.125 68.2248 88.1244C66.694 88.1244 65.1892 87.9915 63.7308 87.7357V83.5585C61.1176 83.0115 58.6296 81.9904 56.3927 80.547L53.4037 83.5073C50.9298 81.7925 48.7773 79.6644 47.0429 77.2184L50.0371 74.2632C48.5771 72.0516 47.5444 69.5917 46.9912 67.008H42.7661C42.5039 65.5411 42.3724 64.0543 42.373 62.5648C42.373 61.0462 42.5075 59.5635 42.7661 58.1164H46.9912C47.5444 55.5328 48.5772 53.0728 50.0371 50.8612L47.0431 47.906C48.7775 45.4616 50.9301 43.3351 53.4039 41.6222L56.3929 44.5774C58.6289 43.1335 61.1174 42.114 63.731 41.571V37.3887C65.2146 37.1294 66.7184 36.9994 68.225 37C69.7609 37.0002 71.2606 37.1331 72.724 37.3887Z" fill="#01B4AA"/>
<path fill-rule="evenodd" clip-rule="evenodd" d="M68.2253 47.1699C76.8254 47.1699 83.7964 54.0621 83.7964 62.565C83.7964 71.0679 76.8254 77.9601 68.2253 77.9601C59.6253 77.9601 52.6543 71.0679 52.6543 62.565C52.6543 54.0621 59.6253 47.1699 68.2253 47.1699Z" fill="#F2FBFF"/>
<path fill-rule="evenodd" clip-rule="evenodd" d="M59.6621 53.8477H76.7897V71.2778H59.6621V53.8477Z" fill="url(#paint0_linear_2433_239752)"/>
<path fill-rule="evenodd" clip-rule="evenodd" d="M65.9141 53.8477H70.5425V60.5251H65.9141V53.8477Z" fill="#01B4AA"/>
<path fill-rule="evenodd" clip-rule="evenodd" d="M59.6621 53.8477H76.7897V54.8396H59.6621V53.8477Z" fill="#FFC328"/>
<path fill-rule="evenodd" clip-rule="evenodd" d="M65.9141 53.8477H70.5425V54.8396H65.9141V53.8477Z" fill="#D7601A"/>
<path d="M28.232 7.76796L31.7676 4.23242" stroke="#B5B5B5" stroke-width="1.5" stroke-linecap="round"/>
<path d="M28.232 4.23204L31.7676 7.76758" stroke="#B5B5B5" stroke-width="1.5" stroke-linecap="round"/>
<path d="M104.232 106.768L107.768 103.232" stroke="#B5B5B5" stroke-width="1.5" stroke-linecap="round"/>
<path d="M104.232 103.232L107.768 106.768" stroke="#B5B5B5" stroke-width="1.5" stroke-linecap="round"/>
<path d="M13.0003 103.666C12.3411 103.666 11.6966 103.862 11.1484 104.228C10.6003 104.594 10.173 105.115 9.92073 105.724C9.66844 106.333 9.60243 107.003 9.73104 107.65C9.85966 108.296 10.1771 108.89 10.6433 109.356C11.1095 109.823 11.7034 110.14 12.35 110.269C12.9966 110.397 13.6669 110.331 14.2759 110.079C14.885 109.827 15.4056 109.399 15.7719 108.851C16.1382 108.303 16.3337 107.659 16.3337 106.999C16.3337 106.562 16.2474 106.128 16.0799 105.724C15.9124 105.319 15.6669 104.952 15.3573 104.642C15.0478 104.333 14.6804 104.087 14.2759 103.92C13.8715 103.752 13.4381 103.666 13.0003 103.666ZM13.0003 109.666C12.4729 109.666 11.9573 109.51 11.5188 109.217C11.0803 108.924 10.7385 108.507 10.5366 108.02C10.3348 107.533 10.282 106.996 10.3849 106.479C10.4878 105.962 10.7418 105.487 11.1147 105.114C11.4876 104.741 11.9628 104.487 12.4801 104.384C12.9974 104.281 13.5335 104.334 14.0208 104.536C14.5081 104.738 14.9246 105.079 15.2176 105.518C15.5106 105.956 15.667 106.472 15.667 106.999C15.667 107.707 15.386 108.385 14.8859 108.885C14.3858 109.385 13.7076 109.666 13.0003 109.666Z" fill="#B5B5B5"/>
<path d="M132 55.666C131.341 55.666 130.697 55.8615 130.148 56.2278C129.6 56.5941 129.173 57.1147 128.921 57.7237C128.668 58.3328 128.602 59.003 128.731 59.6497C128.86 60.2963 129.177 60.8902 129.643 61.3564C130.109 61.8225 130.703 62.14 131.35 62.2686C131.997 62.3973 132.667 62.3312 133.276 62.0789C133.885 61.8267 134.406 61.3994 134.772 60.8512C135.138 60.3031 135.334 59.6586 135.334 58.9993C135.334 58.5616 135.247 58.1282 135.08 57.7237C134.912 57.3193 134.667 56.9519 134.357 56.6423C134.048 56.3328 133.68 56.0873 133.276 55.9198C132.872 55.7522 132.438 55.666 132 55.666ZM132 61.666C131.473 61.666 130.957 61.5096 130.519 61.2166C130.08 60.9236 129.738 60.5071 129.537 60.0198C129.335 59.5326 129.282 58.9964 129.385 58.4791C129.488 57.9618 129.742 57.4867 130.115 57.1137C130.488 56.7408 130.963 56.4868 131.48 56.3839C131.997 56.281 132.534 56.3338 133.021 56.5357C133.508 56.7375 133.925 57.0793 134.218 57.5178C134.511 57.9564 134.667 58.4719 134.667 58.9993C134.667 59.7066 134.386 60.3849 133.886 60.885C133.386 61.3851 132.708 61.666 132 61.666Z" fill="#B5B5B5"/>
<circle cx="2.5" cy="48.5" r="2.5" fill="#01B4AA"/>
<circle cx="108.5" cy="16.5" r="2.5" fill="#01B4AA"/>
<defs>
<linearGradient id="paint0_linear_2433_239752" x1="73.1781" y1="57.4024" x2="30.2092" y2="75.8842" gradientUnits="userSpaceOnUse">
<stop stop-color="#F5C25B"/>
<stop offset="1" stop-color="#E1FFFD"/>
</linearGradient>
</defs>
</svg>
