<svg width="55" height="71" viewBox="0 0 55 71" fill="none" xmlns="http://www.w3.org/2000/svg">
<path d="M23.8596 70.2191L18.489 62.6668L9.54224 64.843L17.1249 44.2129L31.4422 49.5895L23.8596 70.2191Z" fill="#F5C25B"/>
<path d="M44.4452 65.4456L35.5954 62.8259L29.8829 70.2191L23.2296 48.9866L37.7919 44.2129L44.4452 65.4456Z" fill="#F8B735"/>
<path d="M0 26.1081C0 23.265 1.89306 20.7555 2.72619 18.1905C3.58961 15.5313 3.56297 12.3944 5.17346 10.1812C6.79993 7.9459 9.80281 7.0096 12.0384 5.38258C14.2511 3.77209 16.0609 1.19615 18.7195 0.333017C21.2848 -0.50012 24.2515 0.492524 27.0946 0.492524C29.938 0.492524 32.9047 -0.50012 35.47 0.333017C38.1286 1.19587 39.9384 3.77237 42.1513 5.38258C44.3867 7.0096 47.3895 7.94618 49.016 10.1818C50.6268 12.3944 50.5999 15.5313 51.4636 18.1905C52.2961 20.7555 54.1895 23.265 54.1895 26.1081C54.1895 28.9512 52.2964 31.461 51.4636 34.0263C50.5999 36.6852 50.6268 39.8221 49.016 42.0355C47.3895 44.2709 44.3867 45.2072 42.1513 46.8339C39.9384 48.4444 38.1283 51.0203 35.47 51.8835C32.9044 52.7166 29.938 51.7237 27.0946 51.7237C24.2515 51.7237 21.2848 52.7166 18.7192 51.8835C16.0611 51.0201 14.2511 48.4444 12.0373 46.8336C9.80253 45.2069 6.79965 44.2706 5.17318 42.0353C3.5627 39.8223 3.58933 36.6855 2.72619 34.0268C1.89306 31.4615 0 28.9512 0 26.1081Z" fill="#FAD07D"/>
<path d="M27.3428 48.999C39.9858 48.8599 50.1222 38.4985 49.9831 25.8561C49.8441 13.2137 39.4822 3.07782 26.8392 3.21691C14.1962 3.356 4.05977 13.7174 4.19885 26.3598C4.33793 39.0021 14.6998 49.138 27.3428 48.999Z" fill="white"/>
<path d="M5.46143 26.1078C5.46143 14.16 15.1465 4.47461 27.0944 4.47461C39.0425 4.47461 48.7279 14.16 48.7279 26.1078C48.7279 38.056 39.0425 47.7411 27.0944 47.7411C15.1465 47.7408 5.46143 38.056 5.46143 26.1078Z" fill="#F0F6F6"/>
<path d="M34.1947 21.0408C31.728 22.5519 29.2612 24.0625 26.7971 25.5723C26.806 25.6111 26.8327 25.6154 26.8518 25.6264C27.7434 26.1334 28.2759 26.9051 28.5127 27.8956C28.5747 28.1544 28.6141 28.4166 28.6353 28.6818C28.6417 28.7624 28.6417 28.7637 28.7257 28.7641C29.0924 28.7646 29.459 28.7646 29.8256 28.7641C29.9071 28.7641 29.9881 28.7543 30.0675 28.7356C30.2801 28.6852 30.4227 28.5595 30.4863 28.3471C30.5474 28.1429 30.5687 27.9331 30.5691 27.7212C30.5712 27.152 30.5699 26.5824 30.5699 26.0132C30.5699 25.9927 30.5695 25.9722 30.5699 25.9518C30.5716 25.8772 30.572 25.8754 30.6412 25.875C31.1301 25.8746 31.6189 25.8746 32.1077 25.875C32.1778 25.875 32.179 25.8772 32.179 25.962C32.1795 26.5892 32.1786 27.2168 32.1795 27.844C32.1799 28.0419 32.1935 28.2388 32.2397 28.432C32.2516 28.4814 32.2677 28.53 32.2864 28.5778C32.3186 28.6597 32.3759 28.7223 32.4493 28.7692C32.6997 28.9287 33.0829 28.8477 33.2488 28.6017C33.3345 28.4746 33.374 28.3309 33.4003 28.1821C33.4245 28.044 33.43 27.9046 33.4304 27.7647C33.4313 27.1784 33.4309 26.5918 33.4309 26.0055C33.4309 25.985 33.4304 25.9646 33.4309 25.9441C33.4326 25.8554 33.4326 25.8546 33.5212 25.8546C33.9693 25.8541 34.4175 25.8541 34.8656 25.8546C34.9517 25.8546 34.953 25.8554 34.953 25.9454C34.9534 26.6237 34.953 27.3025 34.9534 27.9809C34.9534 28.0934 34.9666 28.2047 34.989 28.3156C35.0345 28.5373 35.1681 28.6669 35.3867 28.7147C35.5297 28.7462 35.6744 28.7611 35.8208 28.7641C35.9124 28.7658 36.0041 28.765 36.0957 28.7641C36.1768 28.7633 36.1785 28.762 36.1878 28.6789C36.1959 28.6076 36.2022 28.5364 36.2078 28.4652C36.2455 27.9787 36.2485 27.4923 36.2222 27.0053C36.2018 26.631 36.1666 26.2583 36.1161 25.887C36.1153 25.8806 36.1187 25.8737 36.1203 25.8669C36.1475 25.8469 36.1793 25.855 36.209 25.855C36.6809 25.8546 37.1528 25.8541 37.6246 25.855C37.7286 25.855 37.7184 25.8409 37.7324 25.9556C37.7592 26.1718 37.7812 26.3888 37.7978 26.6062C37.8262 26.9836 37.8381 27.3614 37.8334 27.74C37.8271 28.2678 37.8122 28.7957 37.7651 29.3218C37.7486 29.5086 37.7333 29.6953 37.7172 29.8817C37.715 29.9055 37.7095 29.929 37.7091 29.9529C37.7078 30.007 37.6845 30.0266 37.628 30.0266C36.8948 30.0236 36.1615 30.0266 35.4282 30.0202C35.208 30.0185 34.9895 29.9844 34.7748 29.9294C34.451 29.8463 34.1628 29.706 33.966 29.4178C33.9553 29.4271 33.9464 29.4323 33.9418 29.4404C33.7741 29.735 33.5178 29.9145 33.1996 30.007C32.7536 30.1366 32.3021 30.146 31.8519 30.036C31.5082 29.952 31.2417 29.761 31.0978 29.4233C31.0957 29.4182 31.0885 29.4148 31.0838 29.4105C31.066 29.4071 31.06 29.4212 31.0541 29.4323C30.8937 29.7235 30.637 29.8817 30.3259 29.9618C30.1579 30.0049 29.9865 30.0258 29.8125 30.0258C26.0613 30.0258 22.3105 30.0258 18.5593 30.0253C18.4192 30.0253 18.4349 30.0403 18.4349 29.8991C18.4345 29.1082 18.4349 28.3173 18.4345 27.5259C18.4345 27.3349 18.4226 27.1448 18.3789 26.9576C18.3013 26.6229 18.1451 26.4643 17.7598 26.4076C17.5235 26.3726 17.2862 26.3939 17.0507 26.4267C17.0036 26.4331 16.9739 26.4502 16.9816 26.5048C16.985 26.5282 16.982 26.5525 16.982 26.5764C16.982 27.6845 16.982 28.7927 16.982 29.9008C16.982 30.0411 16.9968 30.0249 16.856 30.0253C16.082 30.0258 15.308 30.03 14.5339 30.0241C13.9653 30.0198 13.4039 29.9524 12.8586 29.781C12.4729 29.6595 12.1148 29.4847 11.8041 29.2212C11.3751 28.8579 11.1201 28.391 10.9983 27.8461C10.9393 27.5826 10.9117 27.3153 10.9117 27.045C10.9126 26.4894 10.9117 25.9334 10.9122 25.3779C10.9122 25.2606 10.9011 25.267 11.0212 25.267C11.5033 25.267 11.9853 25.267 12.4674 25.267C12.4776 25.267 12.4878 25.2666 12.4979 25.267C12.5743 25.2691 12.5764 25.2691 12.5764 25.3489C12.5752 25.7646 12.5807 26.1803 12.568 26.596C12.5582 26.9128 12.5582 27.2296 12.624 27.5426C12.722 28.0103 12.9825 28.3429 13.4222 28.5309C13.6963 28.6482 13.9848 28.7049 14.2793 28.7381C14.6379 28.7782 14.9978 28.7616 15.3576 28.7646C15.445 28.7654 15.4459 28.7633 15.4463 28.6733C15.4467 28.3322 15.4463 27.9915 15.4463 27.6504C15.4463 26.9141 15.4459 26.1777 15.4467 25.441C15.4467 25.3045 15.4302 25.328 15.5647 25.3028C16.0056 25.2218 16.4503 25.1745 16.898 25.151C17.2268 25.1336 17.5557 25.1267 17.8846 25.14C18.1595 25.151 18.4303 25.195 18.6951 25.2755C19.329 25.4683 19.722 25.8874 19.8764 26.5329C19.9282 26.7487 19.9558 26.9678 19.9634 27.19C19.9796 27.6773 19.9664 28.1646 19.9711 28.652C19.9723 28.7705 19.9626 28.7646 20.0797 28.7646C20.6568 28.7646 21.2339 28.7646 21.811 28.7646C21.8246 28.7646 21.8382 28.7628 21.8518 28.7646C21.9078 28.7718 21.9231 28.7428 21.9184 28.6925C21.9163 28.6686 21.918 28.6447 21.918 28.6209C21.918 27.5434 21.918 26.466 21.9184 25.3885C21.9184 25.2598 21.8993 25.2657 22.0364 25.2657C22.4946 25.2657 22.9529 25.2657 23.4112 25.2657C23.4316 25.2657 23.452 25.267 23.4723 25.2657C23.5127 25.2636 23.5267 25.2841 23.5245 25.322C23.5233 25.3493 23.5245 25.3766 23.5245 25.4039C23.5245 26.4745 23.5245 27.5451 23.5245 28.6157C23.5245 28.643 23.5262 28.6703 23.5241 28.6976C23.5203 28.7445 23.536 28.7692 23.5865 28.7646C23.6069 28.7628 23.6272 28.7646 23.6476 28.7646C24.7543 28.7646 25.861 28.7646 26.9677 28.7646C26.9812 28.7646 26.9948 28.765 27.0084 28.7646C27.0882 28.7624 27.0865 28.7624 27.0805 28.6835C27.0581 28.3966 27.0008 28.1173 26.8934 27.8496C26.7126 27.3985 26.4109 27.0488 26.0048 26.7875C25.6488 26.5585 25.2567 26.4216 24.8476 26.3265C24.75 26.304 24.7496 26.3044 24.7496 26.2012C24.7496 25.8806 24.7513 25.5604 24.7479 25.2397C24.7471 25.1711 24.767 25.131 24.8268 25.0931C26.1385 24.2689 27.4484 23.4426 28.7588 22.6162C30.4571 21.5456 32.1553 20.4746 33.8539 19.4052C33.9651 19.3353 34.0695 19.2522 34.1934 19.2031C34.1938 19.2509 34.1951 19.2986 34.1951 19.346C34.1943 19.9109 34.1947 20.4759 34.1947 21.0408Z" fill="#01B4AA"/>
<path d="M34.1944 21.0412C34.194 20.4763 34.194 19.9113 34.1936 19.346C34.1936 19.2982 34.1927 19.2509 34.1919 19.2031C34.3048 19.2428 34.3981 19.3178 34.4978 19.3805C35.6139 20.0802 36.7291 20.7824 37.8442 21.4834C38.9509 22.1792 40.058 22.8746 41.1651 23.57C41.9676 24.074 42.7696 24.578 43.5733 25.079C43.6425 25.122 43.6671 25.1694 43.6662 25.2504C43.6624 25.765 43.6645 26.2801 43.6641 26.7947C43.6641 26.828 43.6701 26.8621 43.6569 26.8996C43.6068 26.8953 43.572 26.8595 43.5334 26.8356C42.5922 26.2528 41.6523 25.6687 40.7115 25.0849C40.0364 24.6662 39.3608 24.2476 38.6857 23.8289C38.0568 23.4387 37.4279 23.0482 36.7991 22.6576C36.1095 22.2295 35.4199 21.8019 34.7304 21.3738C34.5522 21.2634 34.3735 21.1521 34.1944 21.0412Z" fill="#96A3AD"/>
<path d="M21.934 23.6123C21.914 23.2214 22.2391 22.821 22.7186 22.8223C23.165 22.8235 23.5125 23.1646 23.5138 23.6059C23.5151 24.0596 23.1684 24.4139 22.7194 24.4148C22.2387 24.4156 21.9149 24.0106 21.934 23.6123Z" fill="#01B4AA"/>
<path d="M16.3348 31.7399C16.345 32.1564 16.0285 32.4464 15.742 32.5077C15.2854 32.6054 14.8594 32.2916 14.8216 31.8243C14.7974 31.5262 14.8933 31.2789 15.1365 31.1041C15.3805 30.9293 15.6499 30.9106 15.9147 31.0466C16.1914 31.1877 16.3297 31.4265 16.3348 31.7399Z" fill="#01B4AA"/>
<path d="M13.0296 31.7398C13.0309 31.3582 13.2761 31.0431 13.6373 30.9775C14.1965 30.8756 14.5428 31.3279 14.542 31.7164C14.5411 32.034 14.4223 32.2847 14.1422 32.4335C13.619 32.7115 13.0228 32.3325 13.0296 31.7398Z" fill="#01B4AA"/>
</svg>
