<svg width="20" height="20" viewBox="0 0 20 20" fill="none" xmlns="http://www.w3.org/2000/svg">
<path d="M10 13.75C11.7259 13.75 13.125 12.3509 13.125 10.625C13.125 8.89911 11.7259 7.5 10 7.5C8.27411 7.5 6.875 8.89911 6.875 10.625C6.875 12.3509 8.27411 13.75 10 13.75Z" fill="#A3A3A3"/>
<path d="M16.875 5.00001H15.1475C15.0314 5.00038 14.9175 4.9682 14.8187 4.90711C14.7199 4.84601 14.6403 4.75846 14.5887 4.65439L14.0294 3.53626C13.8746 3.2241 13.6355 2.96155 13.3391 2.77839C13.0427 2.59524 12.7009 2.49879 12.3525 2.50001H7.6475C7.29909 2.49879 6.9573 2.59524 6.66091 2.77839C6.36452 2.96155 6.12538 3.2241 5.97063 3.53626L5.40812 4.65439C5.35684 4.75799 5.27766 4.84522 5.1795 4.90628C5.08135 4.96734 4.9681 4.9998 4.8525 5.00001H3.125C2.62772 5.00001 2.15081 5.19756 1.79917 5.54919C1.44754 5.90082 1.25 6.37773 1.25 6.87501V15.625C1.25 16.1223 1.44754 16.5992 1.79917 16.9508C2.15081 17.3025 2.62772 17.5 3.125 17.5H16.875C17.3723 17.5 17.8492 17.3025 18.2008 16.9508C18.5525 16.5992 18.75 16.1223 18.75 15.625V6.87501C18.75 6.37773 18.5525 5.90082 18.2008 5.54919C17.8492 5.19756 17.3723 5.00001 16.875 5.00001ZM10 15C9.13471 15 8.28885 14.7434 7.56938 14.2627C6.84992 13.782 6.28916 13.0987 5.95803 12.2993C5.62689 11.4998 5.54025 10.6202 5.70906 9.77149C5.87787 8.92282 6.29455 8.14327 6.90641 7.53142C7.51826 6.91957 8.29781 6.50289 9.14648 6.33408C9.99515 6.16527 10.8748 6.25191 11.6742 6.58304C12.4737 6.91417 13.1569 7.47493 13.6377 8.19439C14.1184 8.91386 14.375 9.75972 14.375 10.625C14.3737 11.7849 13.9123 12.897 13.0921 13.7171C12.2719 14.5373 11.1599 14.9987 10 15ZM16.25 8.12501C16.1264 8.12501 16.0055 8.08836 15.9028 8.01968C15.8 7.951 15.7199 7.85339 15.6726 7.73919C15.6253 7.62499 15.6129 7.49932 15.637 7.37808C15.6611 7.25684 15.7206 7.14548 15.8081 7.05807C15.8955 6.97066 16.0068 6.91114 16.1281 6.88702C16.2493 6.86291 16.375 6.87528 16.4892 6.92259C16.6034 6.96989 16.701 7.05 16.7697 7.15278C16.8383 7.25556 16.875 7.3764 16.875 7.50001C16.875 7.66577 16.8092 7.82474 16.6919 7.94195C16.5747 8.05916 16.4158 8.12501 16.25 8.12501Z" fill="#A3A3A3"/>
</svg>
