<svg width="18" height="18" viewBox="0 0 18 18" fill="none" xmlns="http://www.w3.org/2000/svg">
<g clip-path="url(#clip0_2338_145006)">
<path d="M9 17.25C4.425 17.25 0.75 13.575 0.75 9C0.75 8.55 1.05 8.25 1.5 8.25C1.95 8.25 2.25 8.55 2.25 9C2.25 12.75 5.25 15.75 9 15.75C12.75 15.75 15.75 12.75 15.75 9C15.75 5.25 12.75 2.25 9 2.25C8.55 2.25 8.25 1.95 8.25 1.5C8.25 1.05 8.55 0.75 9 0.75C13.575 0.75 17.25 4.425 17.25 9C17.25 13.575 13.575 17.25 9 17.25Z" fill="#DC4632"/>
</g>
<defs>
<clipPath id="clip0_2338_145006">
<rect width="18" height="18" fill="white"/>
</clipPath>
</defs>
</svg>
