<svg width="10" height="15" viewBox="0 0 10 15" fill="none" xmlns="http://www.w3.org/2000/svg">
<path d="M9.64889 7.24C9.71056 7.3025 9.75233 7.38187 9.76894 7.46808C9.78556 7.5543 9.77626 7.64351 9.74222 7.72444C9.70953 7.80606 9.65307 7.87597 9.58016 7.92511C9.50725 7.97424 9.42125 8.00033 9.33333 8H0.888889V13.7778C0.888889 13.8957 0.842063 14.0087 0.758714 14.092C0.675364 14.1754 0.562318 14.2222 0.444444 14.2222C0.32657 14.2222 0.213524 14.1754 0.130175 14.092C0.0468253 14.0087 0 13.8957 0 13.7778V0.444444C0 0.32657 0.0468253 0.213524 0.130175 0.130175C0.213524 0.0468252 0.32657 0 0.444444 0C0.562318 0 0.675364 0.0468252 0.758714 0.130175C0.842063 0.213524 0.888889 0.32657 0.888889 0.444444V0.888889H9.33333C9.42125 0.888553 9.50725 0.914645 9.58016 0.963781C9.65307 1.01292 9.70953 1.08283 9.74222 1.16444C9.77626 1.24538 9.78556 1.33459 9.76894 1.42081C9.75233 1.50702 9.71056 1.58639 9.64889 1.64889L6.84889 4.44444L9.64889 7.24Z" fill="#EF4351"/>
</svg>
