<svg width="136" height="111" viewBox="0 0 136 111" fill="none" xmlns="http://www.w3.org/2000/svg">
<circle cx="68" cy="62" r="41" fill="#E8FBFA"/>
<circle cx="68" cy="62" r="30" fill="#D3F2F0"/>
<g clip-path="url(#clip0_2796_240932)">
<path opacity="0.99" d="M64.4769 69.506C64.2415 69.5062 64.0085 69.4589 63.7911 69.3667C63.5737 69.2745 63.3763 69.1393 63.2101 68.9688L58.1711 63.8126C57.8386 63.4681 57.6528 63.003 57.6543 62.5188C57.6558 62.0346 57.8444 61.5707 58.179 61.2283C58.5136 60.886 58.9669 60.6929 59.4401 60.6914C59.9133 60.6899 60.3678 60.88 60.7045 61.2202L64.4768 65.0802L74.2961 55.0327C74.6328 54.6925 75.0873 54.5024 75.5605 54.5039C76.0337 54.5054 76.487 54.6985 76.8216 55.0408C77.1562 55.3832 77.3448 55.8471 77.3463 56.3313C77.3478 56.8155 77.162 57.2806 76.8295 57.6251L65.7436 68.9689C65.5774 69.1394 65.38 69.2746 65.1626 69.3668C64.9452 69.4589 64.7122 69.5062 64.4769 69.506Z" fill="white"/>
<path d="M67.4997 43.666C63.9561 43.666 60.4921 44.7412 57.5457 46.7557C54.5993 48.7702 52.3029 51.6335 50.9468 54.9835C49.5908 58.3335 49.236 62.0197 49.9273 65.576C50.6186 69.1323 52.325 72.399 54.8307 74.963C57.3364 77.5269 60.5288 79.273 64.0043 79.9804C67.4798 80.6878 71.0823 80.3247 74.3561 78.9371C77.6299 77.5495 80.4281 75.1997 82.3968 72.1848C84.3656 69.1699 85.4163 65.6253 85.4163 61.9993C85.4109 57.1388 83.5215 52.4788 80.1627 49.0419C76.8038 45.6049 72.2498 43.6716 67.4997 43.666Z" fill="#01B4AA"/>
<path d="M66.8112 66.3413L66.3293 57.2972V52.4208H69.9299V57.2972L69.4196 66.3413H66.8112ZM65.9607 69.8852C65.9607 69.2803 66.1686 68.77 66.5844 68.3542C67.0192 67.9195 67.5389 67.7021 68.1437 67.7021C68.7297 67.7021 69.2211 67.9195 69.618 68.3542C70.0338 68.77 70.2417 69.2803 70.2417 69.8852C70.2417 70.4711 70.0338 70.9625 69.618 71.3594C69.2211 71.7753 68.7297 71.9832 68.1437 71.9832C67.5389 71.9832 67.0192 71.7753 66.5844 71.3594C66.1686 70.9625 65.9607 70.4711 65.9607 69.8852Z" fill="white"/>
</g>
<path d="M28.232 7.76796L31.7676 4.23242" stroke="#B5B5B5" stroke-width="1.5" stroke-linecap="round"/>
<path d="M28.232 4.23204L31.7676 7.76758" stroke="#B5B5B5" stroke-width="1.5" stroke-linecap="round"/>
<path d="M104.232 106.768L107.768 103.232" stroke="#B5B5B5" stroke-width="1.5" stroke-linecap="round"/>
<path d="M104.232 103.232L107.768 106.768" stroke="#B5B5B5" stroke-width="1.5" stroke-linecap="round"/>
<g clip-path="url(#clip1_2796_240932)">
<path d="M13.0003 103.666C12.3411 103.666 11.6966 103.862 11.1484 104.228C10.6003 104.594 10.173 105.115 9.92073 105.724C9.66844 106.333 9.60243 107.003 9.73104 107.65C9.85966 108.296 10.1771 108.89 10.6433 109.356C11.1095 109.823 11.7034 110.14 12.35 110.269C12.9966 110.397 13.6669 110.331 14.2759 110.079C14.885 109.827 15.4056 109.399 15.7719 108.851C16.1382 108.303 16.3337 107.659 16.3337 106.999C16.3337 106.562 16.2474 106.128 16.0799 105.724C15.9124 105.319 15.6669 104.952 15.3573 104.642C15.0478 104.333 14.6804 104.087 14.2759 103.92C13.8715 103.752 13.4381 103.666 13.0003 103.666ZM13.0003 109.666C12.4729 109.666 11.9573 109.51 11.5188 109.217C11.0803 108.924 10.7385 108.507 10.5366 108.02C10.3348 107.533 10.282 106.996 10.3849 106.479C10.4878 105.962 10.7418 105.487 11.1147 105.114C11.4876 104.741 11.9628 104.487 12.4801 104.384C12.9974 104.281 13.5335 104.334 14.0208 104.536C14.5081 104.738 14.9246 105.079 15.2176 105.518C15.5106 105.956 15.667 106.472 15.667 106.999C15.667 107.707 15.386 108.385 14.8859 108.885C14.3858 109.385 13.7076 109.666 13.0003 109.666Z" fill="#B5B5B5"/>
</g>
<g clip-path="url(#clip2_2796_240932)">
<path d="M132 55.666C131.341 55.666 130.697 55.8615 130.148 56.2278C129.6 56.5941 129.173 57.1147 128.921 57.7237C128.668 58.3328 128.602 59.003 128.731 59.6497C128.86 60.2963 129.177 60.8902 129.643 61.3564C130.109 61.8225 130.703 62.14 131.35 62.2686C131.997 62.3973 132.667 62.3312 133.276 62.0789C133.885 61.8267 134.406 61.3994 134.772 60.8512C135.138 60.3031 135.334 59.6586 135.334 58.9993C135.334 58.5616 135.247 58.1282 135.08 57.7237C134.912 57.3193 134.667 56.9519 134.357 56.6423C134.048 56.3328 133.68 56.0873 133.276 55.9198C132.872 55.7522 132.438 55.666 132 55.666ZM132 61.666C131.473 61.666 130.957 61.5096 130.519 61.2166C130.08 60.9236 129.738 60.5071 129.537 60.0198C129.335 59.5326 129.282 58.9964 129.385 58.4791C129.488 57.9618 129.742 57.4867 130.115 57.1137C130.488 56.7408 130.963 56.4868 131.48 56.3839C131.997 56.281 132.534 56.3338 133.021 56.5357C133.508 56.7375 133.925 57.0793 134.218 57.5178C134.511 57.9564 134.667 58.4719 134.667 58.9993C134.667 59.7066 134.386 60.3849 133.886 60.885C133.386 61.3851 132.708 61.666 132 61.666Z" fill="#B5B5B5"/>
</g>
<circle cx="2.5" cy="48.5" r="2.5" fill="#01B4AA"/>
<circle cx="108.5" cy="16.5" r="2.5" fill="#01B4AA"/>
<defs>
<clipPath id="clip0_2796_240932">
<rect width="43" height="44" fill="white" transform="translate(46 40)"/>
</clipPath>
<clipPath id="clip1_2796_240932">
<rect width="8" height="8" fill="white" transform="translate(9 103)"/>
</clipPath>
<clipPath id="clip2_2796_240932">
<rect width="8" height="8" fill="white" transform="translate(128 55)"/>
</clipPath>
</defs>
</svg>
