<svg width="136" height="111" viewBox="0 0 136 111" fill="none" xmlns="http://www.w3.org/2000/svg">
<circle cx="68" cy="62" r="41" fill="#E8FBFA"/>
<circle cx="68" cy="62" r="30" fill="#D3F1F0"/>
<path fill-rule="evenodd" clip-rule="evenodd" d="M72.724 37.3887V41.571C75.3376 42.1139 77.8261 43.1334 80.0621 44.5774L83.0511 41.6222C85.5233 43.3352 87.6741 45.4617 89.4067 47.906L86.4177 50.8612C87.8502 53.0393 88.9 55.4885 89.4585 58.1164H93.6886C93.9508 59.585 94.0824 61.0735 94.0817 62.5648C94.0817 64.0782 93.9473 65.566 93.6886 67.008H89.4585C88.9093 69.5921 87.8781 72.0524 86.4177 74.2632L89.4067 77.2184C87.6729 79.6631 85.5223 81.7911 83.0511 83.5073L80.0621 80.547C77.8252 81.9904 75.3372 83.0115 72.724 83.5585V87.7357C71.2386 87.995 69.7331 88.125 68.2248 88.1244C66.694 88.1244 65.1892 87.9915 63.7308 87.7357V83.5585C61.1176 83.0115 58.6296 81.9904 56.3927 80.547L53.4037 83.5073C50.9298 81.7925 48.7773 79.6644 47.0429 77.2184L50.0371 74.2632C48.5771 72.0516 47.5444 69.5917 46.9912 67.008H42.7661C42.5039 65.5411 42.3724 64.0543 42.373 62.5648C42.373 61.0462 42.5075 59.5635 42.7661 58.1164H46.9912C47.5444 55.5328 48.5772 53.0728 50.0371 50.8612L47.0431 47.906C48.7775 45.4616 50.9301 43.3351 53.4039 41.6222L56.3929 44.5774C58.6289 43.1335 61.1174 42.114 63.731 41.571V37.3887C65.2146 37.1294 66.7184 36.9994 68.225 37C69.7609 37.0002 71.2606 37.1331 72.724 37.3887Z" fill="#01B4AA"/>
<path fill-rule="evenodd" clip-rule="evenodd" d="M68.2253 47.1719C76.8254 47.1719 83.7964 54.0641 83.7964 62.567C83.7964 71.0699 76.8254 77.9621 68.2253 77.9621C59.6253 77.9621 52.6543 71.0699 52.6543 62.567C52.6543 54.0641 59.6253 47.1719 68.2253 47.1719Z" fill="#F2FBFF"/>
<path fill-rule="evenodd" clip-rule="evenodd" d="M59.6621 53.8477H76.7897V71.2778H59.6621V53.8477Z" fill="url(#paint0_linear_2329_143898)"/>
<path fill-rule="evenodd" clip-rule="evenodd" d="M65.9141 53.8477H70.5425V60.5251H65.9141V53.8477Z" fill="#01B4AA"/>
<path fill-rule="evenodd" clip-rule="evenodd" d="M59.6621 53.8477H76.7897V54.8396H59.6621V53.8477Z" fill="#FFC328"/>
<path fill-rule="evenodd" clip-rule="evenodd" d="M65.9141 53.8477H70.5425V54.8396H65.9141V53.8477Z" fill="#D7601A"/>
<path d="M28.232 7.766L31.7676 4.23047" stroke="#B5B5B5" stroke-width="1.5" stroke-linecap="round"/>
<path d="M28.232 4.234L31.7676 7.76953" stroke="#B5B5B5" stroke-width="1.5" stroke-linecap="round"/>
<path d="M104.232 106.766L107.768 103.23" stroke="#B5B5B5" stroke-width="1.5" stroke-linecap="round"/>
<path d="M104.232 103.234L107.768 106.77" stroke="#B5B5B5" stroke-width="1.5" stroke-linecap="round"/>
<path d="M12.9998 103.668C12.3406 103.668 11.6961 103.863 11.1479 104.23C10.5998 104.596 10.1725 105.117 9.92024 105.726C9.66795 106.335 9.60194 107.005 9.73055 107.652C9.85917 108.298 10.1766 108.892 10.6428 109.358C11.109 109.825 11.7029 110.142 12.3495 110.271C12.9961 110.399 13.6664 110.333 14.2755 110.081C14.8845 109.829 15.4051 109.401 15.7714 108.853C16.1377 108.305 16.3332 107.661 16.3332 107.001C16.3332 106.564 16.247 106.13 16.0794 105.726C15.9119 105.321 15.6664 104.954 15.3569 104.644C15.0473 104.335 14.6799 104.089 14.2755 103.922C13.871 103.754 13.4376 103.668 12.9998 103.668ZM12.9998 109.668C12.4724 109.668 11.9568 109.512 11.5183 109.219C11.0798 108.926 10.738 108.509 10.5362 108.022C10.3343 107.535 10.2815 106.998 10.3844 106.481C10.4873 105.964 10.7413 105.489 11.1142 105.116C11.4872 104.743 11.9623 104.489 12.4796 104.386C12.9969 104.283 13.5331 104.336 14.0203 104.538C14.5076 104.739 14.9241 105.081 15.2171 105.52C15.5101 105.958 15.6665 106.474 15.6665 107.001C15.6665 107.709 15.3856 108.387 14.8855 108.887C14.3854 109.387 13.7071 109.668 12.9998 109.668Z" fill="#B5B5B5"/>
<path d="M132 55.668C131.341 55.668 130.696 55.8635 130.148 56.2297C129.6 56.596 129.173 57.1166 128.92 57.7257C128.668 58.3348 128.602 59.005 128.731 59.6516C128.859 60.2982 129.177 60.8921 129.643 61.3583C130.109 61.8245 130.703 62.142 131.35 62.2706C131.996 62.3992 132.666 62.3332 133.275 62.0809C133.885 61.8286 134.405 61.4014 134.771 60.8532C135.138 60.305 135.333 59.6606 135.333 59.0013C135.333 58.5636 135.247 58.1301 135.079 57.7257C134.912 57.3213 134.666 56.9538 134.357 56.6443C134.047 56.3348 133.68 56.0892 133.275 55.9217C132.871 55.7542 132.438 55.668 132 55.668ZM132 61.668C131.472 61.668 130.957 61.5116 130.518 61.2186C130.08 60.9255 129.738 60.5091 129.536 60.0218C129.334 59.5345 129.282 58.9983 129.384 58.4811C129.487 57.9638 129.741 57.4886 130.114 57.1157C130.487 56.7427 130.962 56.4888 131.48 56.3859C131.997 56.283 132.533 56.3358 133.02 56.5376C133.508 56.7395 133.924 57.0813 134.217 57.5198C134.51 57.9583 134.667 58.4739 134.667 59.0013C134.667 59.7085 134.386 60.3868 133.885 60.8869C133.385 61.387 132.707 61.668 132 61.668Z" fill="#B5B5B5"/>
<circle cx="2.5" cy="48.5" r="2.5" fill="#01B4AA"/>
<circle cx="108.5" cy="16.5" r="2.5" fill="#01B4AA"/>
<defs>
<linearGradient id="paint0_linear_2329_143898" x1="73.1781" y1="57.4024" x2="30.2092" y2="75.8842" gradientUnits="userSpaceOnUse">
<stop stop-color="#F5C25B"/>
<stop offset="1" stop-color="#E1FFFD"/>
</linearGradient>
</defs>
</svg>
