<svg width="30" height="25" viewBox="0 0 30 25" fill="none" xmlns="http://www.w3.org/2000/svg">
<path d="M5.71387 0.357422H23.5713C26.5298 0.357422 28.9285 2.75539 28.9287 5.71387V19.2861C28.9285 22.2446 26.5298 24.6426 23.5713 24.6426H5.71387C2.75553 24.6424 0.357648 22.2445 0.357422 19.2861V5.71387C0.357649 2.75553 2.75553 0.357648 5.71387 0.357422Z" fill="#FBFBFB"/>
<path d="M5.71387 0.357422H23.5713C26.5298 0.357422 28.9285 2.75539 28.9287 5.71387V19.2861C28.9285 22.2446 26.5298 24.6426 23.5713 24.6426H5.71387C2.75553 24.6424 0.357648 22.2445 0.357422 19.2861V5.71387C0.357649 2.75553 2.75553 0.357648 5.71387 0.357422Z" stroke="#EDEDED" stroke-width="0.714286"/>
<path d="M9.95508 17.8549C9.54068 17.8549 9.14325 17.6903 8.85022 17.3973C8.5572 17.1042 8.39258 16.7068 8.39258 16.2924V14.0603C8.39258 13.8827 8.46313 13.7123 8.58871 13.5868C8.71429 13.4612 8.88462 13.3906 9.06222 13.3906C9.23982 13.3906 9.41015 13.4612 9.53573 13.5868C9.66131 13.7123 9.73186 13.8827 9.73186 14.0603V16.2924C9.73186 16.4156 9.83186 16.5156 9.95508 16.5156H19.3301C19.3893 16.5156 19.4461 16.4921 19.4879 16.4502C19.5298 16.4084 19.5533 16.3516 19.5533 16.2924V14.0603C19.5533 13.8827 19.6238 13.7123 19.7494 13.5868C19.875 13.4612 20.0453 13.3906 20.2229 13.3906C20.4005 13.3906 20.5709 13.4612 20.6964 13.5868C20.822 13.7123 20.8926 13.8827 20.8926 14.0603V16.2924C20.8926 16.7068 20.728 17.1042 20.4349 17.3973C20.1419 17.6903 19.7445 17.8549 19.3301 17.8549H9.95508Z" fill="#01B4AA"/>
<path d="M18.0183 9.57065C18.0804 9.63279 18.1297 9.70657 18.1633 9.78776C18.197 9.86896 18.2143 9.95598 18.2143 10.0439C18.2143 10.1317 18.197 10.2188 18.1633 10.3C18.1297 10.3812 18.0804 10.4549 18.0183 10.5171C17.9561 10.5792 17.8824 10.6285 17.8012 10.6621C17.72 10.6958 17.6329 10.7131 17.5451 10.7131C17.4572 10.7131 17.3702 10.6958 17.289 10.6621C17.2078 10.6285 17.134 10.5792 17.0718 10.5171L15.3129 8.75904V13.8385C15.3129 14.0161 15.2424 14.1864 15.1168 14.312C14.9912 14.4376 14.8209 14.5082 14.6433 14.5082C14.4657 14.5082 14.2954 14.4376 14.1698 14.312C14.0442 14.1864 13.9736 14.0161 13.9736 13.8385V8.75904L12.2147 10.5171C12.1526 10.5792 12.0788 10.6285 11.9976 10.6621C11.9164 10.6958 11.8294 10.7131 11.7415 10.7131C11.6536 10.7131 11.5666 10.6958 11.4854 10.6621C11.4042 10.6285 11.3304 10.5792 11.2683 10.5171C11.2061 10.4549 11.1568 10.3812 11.1232 10.3C11.0896 10.2188 11.0723 10.1317 11.0723 10.0439C11.0723 9.95598 11.0896 9.86896 11.1232 9.78776C11.1568 9.70657 11.2061 9.63279 11.2683 9.57065L14.1701 6.66887C14.2322 6.60667 14.3059 6.55732 14.3871 6.52365C14.4683 6.48999 14.5554 6.47266 14.6433 6.47266C14.7312 6.47266 14.8182 6.48999 14.8994 6.52365C14.9806 6.55732 15.0544 6.60667 15.1165 6.66887L18.0183 9.57065Z" fill="#01B4AA"/>
</svg>
