<svg width="201" height="127" viewBox="0 0 201 127" fill="none" xmlns="http://www.w3.org/2000/svg">
<path d="M41.297 99.2627C41.297 99.2627 57.6887 43.988 39.3654 0.519874C39.1265 -0.0468554 38.3857 -0.181036 37.9693 0.270894C31.3915 7.40934 -8.17623 54.2588 41.297 99.2627Z" fill="#DADADA"/>
<path opacity="0.28" d="M35.3069 16.7387C34.6525 20.024 34.1277 23.3486 33.7308 26.6803C33.312 30.0105 32.996 33.3523 32.7699 36.6984C32.5567 40.0455 32.4128 43.3962 32.3973 46.748C32.3649 50.0989 32.4272 53.4512 32.6299 56.7946C32.8168 60.1382 33.0948 63.4784 33.5341 66.7978C33.5856 67.2132 33.631 67.6295 33.6873 68.0441L33.872 69.2859C34.0003 70.1129 34.1067 70.9439 34.2529 71.7679L34.6923 74.2403L34.8004 74.859L34.9271 75.4737L35.1806 76.7034C35.4928 78.3495 35.9201 79.9684 36.2959 81.6009C36.4981 82.4134 36.7306 83.2178 36.9465 84.0271L37.2762 85.2396C37.39 85.6427 37.5236 86.0396 37.6421 86.4413L38.3744 88.8466L39.1949 91.2235L39.6065 92.4126L40.0634 93.5843L40.9637 95.9364L40.966 95.9427C41.0127 96.0646 40.9519 96.2014 40.8303 96.2483C40.7141 96.2929 40.5841 96.2387 40.5321 96.1275C37.6834 90.0095 35.4618 83.5735 33.9828 76.967L33.6989 75.7296L33.557 75.1108L33.4338 74.4883L32.951 71.9956C32.792 71.1642 32.673 70.3261 32.5321 69.4916L32.3285 68.2384C32.2659 67.8199 32.2141 67.4 32.1565 66.9807C31.6761 63.6289 31.3954 60.2527 31.1867 56.8757C30.8059 50.1172 30.9479 43.3364 31.5363 36.6022C31.8303 33.2347 32.2517 29.8798 32.7863 26.5444C33.0582 24.8773 33.3663 23.2165 33.7014 21.5615C34.0356 19.9051 34.4029 18.2603 34.8491 16.6234C34.8834 16.4974 35.0132 16.4232 35.1389 16.4577C35.259 16.4906 35.3319 16.6108 35.3083 16.7313L35.3069 16.7387Z" fill="white"/>
<path d="M26.3356 116.477C26.3356 116.477 34.2609 53.1759 6.86663 30.716C6.38047 30.3175 5.65006 30.4801 5.37487 31.046C2.17285 37.6307 -12.4977 73.7305 26.3356 116.477Z" fill="#E8E8E8"/>
<path opacity="0.28" d="M8.06289 42.1336C8.41559 45.2029 8.87694 48.2683 9.36775 51.3236C9.62045 52.8507 9.87334 54.3778 10.1427 55.9021C10.4274 57.4236 10.6921 58.9488 10.9932 60.4671C11.3005 61.9842 11.5956 63.5038 11.9128 65.0188L12.9048 69.5549C13.6126 72.5683 14.3184 75.5825 15.1083 78.5753C15.8463 81.5819 16.7245 84.5504 17.5491 87.5337L18.9072 91.9729C19.1363 92.7119 19.3551 93.4543 19.5926 94.1906L20.3313 96.3909C20.8274 97.8565 21.3081 99.3277 21.8168 100.789L23.4195 105.145C23.6875 105.871 23.9434 106.601 24.2212 107.323L25.086 109.477L26.8158 113.784L26.8183 113.791C26.8651 113.907 26.8088 114.039 26.6928 114.086C26.5778 114.133 26.4471 114.078 26.3993 113.963C24.0029 108.244 21.691 102.48 19.7775 96.5766L19.0294 94.3736C18.7889 93.6365 18.5668 92.8933 18.3347 92.1533L16.958 87.7085C16.1211 84.7216 15.2308 81.749 14.4805 78.7384C12.9183 72.7339 11.5686 66.6746 10.413 60.5791C10.1172 59.0567 9.85781 57.5272 9.57835 56.0015C9.3144 54.4731 9.06681 52.9417 8.8195 51.4106C8.35797 48.3417 7.93324 45.2709 7.61195 42.1785C7.59903 42.0536 7.68937 41.942 7.81381 41.929C7.93742 41.9161 8.04811 42.0053 8.06233 42.1287L8.06289 42.1336Z" fill="white"/>
<path d="M165.207 4.02758C159.612 12.9808 129.172 66.4169 174.055 104.062C174.055 104.062 203.126 74.0554 166.753 4.08629C166.434 3.47418 165.572 3.44268 165.207 4.02758Z" fill="#DADADA"/>
<path opacity="0.28" d="M166.192 14.6328C166.162 15.4885 166.139 16.3445 166.117 17.2003L166.047 19.7676C166.007 21.4792 165.97 23.1909 165.944 24.9026C165.88 28.3257 165.84 31.7491 165.817 35.1722C165.779 42.0182 165.814 48.8642 165.992 55.7059C166.068 59.1272 166.202 62.5466 166.363 65.9642C166.513 69.3826 166.746 72.7961 167.004 76.2073L167.216 78.7644L167.461 81.3183C167.481 81.5312 167.499 81.7444 167.522 81.9568L167.593 82.5943L167.733 83.8694C167.782 84.2943 167.825 84.7198 167.877 85.1443L168.04 86.4166C168.148 87.265 168.246 88.1152 168.378 88.9602L168.565 90.2297C168.627 90.6529 168.686 91.0767 168.763 91.4975C168.909 92.3401 169.048 93.1847 169.201 94.0264L169.695 96.5464L169.108 94.0455C168.929 93.2081 168.768 92.3667 168.597 91.527C168.508 91.1077 168.438 90.6853 168.363 90.2634L168.141 88.9974C167.986 88.1544 167.864 87.3065 167.732 86.4595C167.228 83.0692 166.817 79.664 166.511 76.25C166.423 75.3973 166.358 74.543 166.285 73.6891C166.216 72.835 166.143 71.981 166.088 71.1259L165.912 68.5611L165.763 65.9949C165.708 65.1397 165.677 64.2835 165.635 63.4276C165.596 62.5716 165.555 61.7158 165.526 60.8595L165.432 58.291L165.358 55.7218C165.281 52.2959 165.229 48.8696 165.225 45.4432C165.228 42.0168 165.25 38.5907 165.324 35.1654C165.46 28.3154 165.729 21.4674 166.192 14.6328Z" fill="white"/>
<path d="M190.551 6.62754C184.059 14.3592 140.358 67.2994 173.825 109.553C175.29 111.402 178.052 111.518 179.678 109.811C188.79 100.244 213.38 67.2905 192.045 6.89683C191.82 6.25845 190.987 6.10945 190.551 6.62754Z" fill="#E8E8E8"/>
<path d="M183.019 54.5977H153.516V111.645H183.019V54.5977Z" fill="#363636"/>
<path d="M186.971 56.6226H152.111L144.15 31.9959L179.507 30.916L188.344 54.4664C188.809 55.4724 188.077 56.6226 186.971 56.6226Z" fill="url(#paint0_linear_2433_165684)"/>
<path d="M179.507 31.7039L143.901 33.1124V30.2952L177.173 28.8867C178.462 28.8867 179.507 29.6515 179.507 30.5948V31.7039Z" fill="url(#paint1_linear_2433_165684)"/>
<g opacity="0.89">
<path d="M176.681 96.1505H160.03C159.973 96.1505 159.926 96.1037 159.926 96.0459V70.1964C159.926 70.1387 159.973 70.0918 160.03 70.0918H176.681C176.738 70.0918 176.785 70.1387 176.785 70.1964V96.0459C176.785 96.1037 176.738 96.1505 176.681 96.1505Z" fill="#666666"/>
<path d="M167.643 94.7416H161.213C161.181 94.7416 161.155 94.7156 161.155 94.6835V71.5581C161.155 71.526 161.181 71.5 161.213 71.5H167.643C167.675 71.5 167.701 71.526 167.701 71.5581V94.6835C167.701 94.7156 167.675 94.7416 167.643 94.7416Z" fill="#777777"/>
<path d="M175.498 94.7416H169.068C169.036 94.7416 169.01 94.7156 169.01 94.6835V71.5581C169.01 71.526 169.036 71.5 169.068 71.5H175.498C175.53 71.5 175.556 71.526 175.556 71.5581V94.6835C175.556 94.7156 175.53 94.7416 175.498 94.7416Z" fill="#777777"/>
</g>
<path d="M116.605 18.918C116.605 18.918 76.6065 49.193 75.6156 49.193V112.089C75.6156 113.235 76.5422 114.164 77.6853 114.164H155.759C156.772 114.164 157.594 113.34 157.594 112.325V49.193L116.605 18.918Z" fill="#414141"/>
<path d="M127.481 111.647H102.063V107.62C102.063 107.456 102.195 107.324 102.358 107.324H127.186C127.349 107.324 127.481 107.456 127.481 107.62V111.647Z" fill="#777777"/>
<path d="M127.481 115.075H102.063V111.047C102.063 110.884 102.195 110.752 102.358 110.752H127.186C127.349 110.752 127.481 110.884 127.481 111.047V115.075Z" fill="#777777"/>
<path d="M123.446 107.324H106.098V73.7243C106.098 73.5411 106.246 73.3926 106.429 73.3926H123.115C123.298 73.3926 123.446 73.5411 123.446 73.7243L123.446 107.324Z" fill="#777777"/>
<path opacity="0.35" d="M122.221 71.1076H107.323C106.647 71.1076 106.098 70.5577 106.098 69.8795V68.8067C106.098 68.1615 106.596 67.6263 107.238 67.5816L122.136 66.544C122.845 66.4947 123.446 67.0575 123.446 67.7692V69.8795C123.446 70.5578 122.898 71.1076 122.221 71.1076Z" fill="white"/>
<path d="M137.223 56.0352H137.058C132.773 56.0352 129.022 59.0765 129.022 63.3723V71.1087H137.223V56.0352H137.223Z" fill="#777777"/>
<path d="M129.022 73.3926V96.1527C129.022 96.9191 129.92 98.1073 130.684 98.1073H137.223V73.3926H129.022Z" fill="#777777"/>
<path d="M139.462 56.0352H139.045V71.1087H147.246V63.3723C147.246 59.0765 143.746 56.0352 139.462 56.0352Z" fill="#777777"/>
<path d="M139.045 98.1074H145.836C146.6 98.1074 147.246 96.9192 147.246 96.1528V73.3926H139.045V98.1074Z" fill="#777777"/>
<path d="M112.363 98.2031H109.745C108.872 98.2031 108.162 97.4909 108.162 96.6155V77.2086C108.162 76.3333 108.872 75.6211 109.745 75.6211H112.363C113.236 75.6211 113.947 76.3333 113.947 77.2086V96.6155C113.947 97.491 113.236 98.2031 112.363 98.2031ZM109.745 75.8118C108.977 75.8118 108.352 76.4386 108.352 77.2087V96.6156C108.352 97.3859 108.977 98.0125 109.745 98.0125H112.363C113.132 98.0125 113.757 97.3858 113.757 96.6156V77.2087C113.757 76.4385 113.132 75.8118 112.363 75.8118H109.745Z" fill="#666666"/>
<path d="M119.67 98.2031H117.051C116.178 98.2031 115.468 97.4909 115.468 96.6155V77.2086C115.468 76.3333 116.178 75.6211 117.051 75.6211H119.67C120.543 75.6211 121.253 76.3333 121.253 77.2086V96.6155C121.253 97.491 120.543 98.2031 119.67 98.2031ZM117.051 75.8118C116.283 75.8118 115.658 76.4386 115.658 77.2087V96.6156C115.658 97.3859 116.283 98.0125 117.051 98.0125H119.67C120.438 98.0125 121.063 97.3858 121.063 96.6156V77.2087C121.063 76.4385 120.438 75.8118 119.67 75.8118H117.051Z" fill="#666666"/>
<path d="M112.363 104.745H109.745C108.872 104.745 108.162 104.033 108.162 103.157V100.925C108.162 100.05 108.872 99.3379 109.745 99.3379H112.363C113.236 99.3379 113.947 100.05 113.947 100.925V103.157C113.947 104.033 113.236 104.745 112.363 104.745ZM109.745 99.5285C108.977 99.5285 108.352 100.155 108.352 100.925V103.157C108.352 103.928 108.977 104.554 109.745 104.554H112.363C113.132 104.554 113.757 103.928 113.757 103.157V100.925C113.757 100.155 113.132 99.5285 112.363 99.5285H109.745Z" fill="#666666"/>
<path d="M119.67 104.745H117.051C116.178 104.745 115.468 104.033 115.468 103.157V100.925C115.468 100.05 116.178 99.3379 117.051 99.3379H119.67C120.543 99.3379 121.253 100.05 121.253 100.925V103.157C121.253 104.033 120.543 104.745 119.67 104.745ZM117.051 99.5285C116.283 99.5285 115.658 100.155 115.658 100.925V103.157C115.658 103.928 116.283 104.554 117.051 104.554H119.67C120.438 104.554 121.063 103.928 121.063 103.157V100.925C121.063 100.155 120.438 99.5285 119.67 99.5285H117.051Z" fill="#666666"/>
<path d="M147.955 99.5287H128.215C127.083 99.5287 126.162 98.6054 126.162 97.4704V63.2027C126.162 57.7837 130.559 53.375 135.964 53.375H140.206C145.611 53.375 150.008 57.7836 150.008 63.2027V97.4704C150.008 98.6054 149.087 99.5287 147.955 99.5287ZM135.964 53.5656C130.664 53.5656 126.352 57.8888 126.352 63.2027V97.4704C126.352 98.5003 127.188 99.3381 128.215 99.3381H147.955C148.982 99.3381 149.818 98.5003 149.818 97.4704V63.2027C149.818 57.8887 145.506 53.5656 140.206 53.5656H135.964Z" fill="#666666"/>
<path d="M141.334 19.5801H134.553V30.6496H141.334V19.5801Z" fill="url(#paint2_linear_2433_165684)"/>
<path d="M143.569 21.3719H132.609V18.5407C132.609 18.227 132.863 17.9727 133.176 17.9727H142.707C143.183 17.9727 143.569 18.3597 143.569 18.8372V21.3719Z" fill="url(#paint3_linear_2433_165684)"/>
<path d="M73.1028 52.3672L116.605 18.918L157.898 51.0316C159.399 52.1988 161.601 51.3813 161.981 49.5156L162.56 46.6752L116.605 11.5762L72.1219 45.6415C71.3254 46.2514 71.0364 47.3214 71.417 48.2509L73.1028 52.3672Z" fill="url(#paint4_linear_2433_165684)"/>
<path d="M162.43 124.768C163.667 124.792 164.682 123.793 164.682 122.553V112.694C164.682 111.399 163.644 110.345 162.352 110.331C158.475 110.289 150.478 110.287 143.936 110.839C143.043 110.915 142.348 111.648 142.316 112.546L141.704 122.078C141.659 123.338 142.653 124.391 143.911 124.415L162.43 124.768Z" fill="url(#paint5_linear_2433_165684)"/>
<path d="M162.436 113.762C162.453 114.601 162.428 115.932 162.408 116.792C162.397 117.239 162.005 117.58 161.562 117.528L158.371 117.153C157.946 117.103 157.647 116.71 157.71 116.286L158.102 113.667C158.158 113.295 158.476 113.02 158.851 113.02H161.679C162.091 113.02 162.428 113.349 162.436 113.762Z" fill="white"/>
<path opacity="0.37" d="M154.098 118.726L151.436 119.014C151.064 119.054 150.746 118.746 150.774 118.371L151.356 110.433C152.471 110.397 153.572 110.372 154.634 110.354V118.127C154.634 118.435 154.403 118.693 154.098 118.726Z" fill="white"/>
<path d="M153.007 117.349C152.999 117.492 152.881 117.602 152.74 117.602C152.735 117.602 152.73 117.601 152.724 117.601C152.577 117.593 152.464 117.466 152.473 117.318L152.874 110.389C153.054 110.385 153.232 110.381 153.411 110.377L153.007 117.349Z" fill="white"/>
<path d="M162.969 108.89V101.966C162.969 101.057 162.24 100.317 161.333 100.307C158.61 100.277 152.995 100.275 148.4 100.664C147.773 100.717 147.285 101.232 147.262 101.862L146.833 108.556C146.801 109.441 147.499 110.181 148.383 110.198L161.388 110.445C162.256 110.462 162.969 109.761 162.969 108.89Z" fill="url(#paint6_linear_2433_165684)"/>
<path d="M161.392 102.715C161.404 103.304 161.387 104.239 161.372 104.843C161.365 105.157 161.09 105.396 160.778 105.36L158.538 105.096C158.239 105.061 158.029 104.785 158.073 104.487L158.348 102.648C158.387 102.387 158.611 102.193 158.875 102.193H160.86C161.15 102.193 161.387 102.425 161.392 102.715Z" fill="white"/>
<path opacity="0.37" d="M155.536 106.202L153.667 106.404C153.406 106.432 153.182 106.216 153.202 105.953L153.61 100.378C154.394 100.353 155.167 100.335 155.913 100.322V105.782C155.913 105.997 155.75 106.179 155.536 106.202Z" fill="white"/>
<path d="M154.771 105.236C154.765 105.336 154.682 105.414 154.583 105.414C154.579 105.414 154.576 105.413 154.572 105.413C154.468 105.407 154.389 105.318 154.395 105.214L154.677 100.349C154.804 100.345 154.929 100.343 155.054 100.34L154.771 105.236Z" fill="white"/>
<path d="M154.395 124.177V117.253C154.395 116.344 153.765 115.604 152.981 115.594C150.628 115.564 145.774 115.562 141.803 115.951C141.262 116.004 140.84 116.519 140.82 117.149L140.449 123.843C140.422 124.728 141.025 125.468 141.789 125.485L153.028 125.733C153.779 125.749 154.395 125.048 154.395 124.177Z" fill="url(#paint7_linear_2433_165684)"/>
<path d="M153.032 118.002C153.042 118.591 153.027 119.526 153.014 120.13C153.008 120.444 152.77 120.683 152.501 120.647L150.565 120.383C150.307 120.348 150.125 120.072 150.163 119.775L150.401 117.935C150.435 117.674 150.628 117.48 150.856 117.48H152.572C152.822 117.48 153.027 117.712 153.032 118.002Z" fill="white"/>
<path opacity="0.37" d="M147.971 121.489L146.356 121.691C146.129 121.719 145.937 121.503 145.953 121.24L146.306 115.665C146.984 115.64 147.652 115.622 148.296 115.609V121.069C148.296 121.285 148.156 121.466 147.971 121.489Z" fill="white"/>
<path d="M147.309 120.523C147.304 120.623 147.232 120.701 147.147 120.701C147.144 120.701 147.14 120.701 147.137 120.7C147.048 120.694 146.979 120.605 146.984 120.501L147.228 115.636C147.337 115.633 147.446 115.63 147.554 115.627L147.309 120.523Z" fill="white"/>
<path d="M132.831 125.16C132.83 125.133 132.832 125.105 132.84 125.077C133.321 123.436 135.886 122.393 135.886 122.393L136.914 122.447C137.54 123.883 137.486 124.769 137.401 125.164C137.398 125.175 137.394 125.185 137.391 125.196C136.546 125.264 134.804 125.319 132.831 125.16Z" fill="#1E1F4B"/>
<path d="M137.391 125.196C137.349 125.328 137.228 125.431 137.072 125.459C135.872 125.671 133.954 125.527 133.149 125.452C132.971 125.435 132.838 125.307 132.831 125.16C134.804 125.319 136.546 125.264 137.391 125.196Z" fill="#414141"/>
<path d="M130.026 124.888C130.938 124.862 131.41 124.754 131.654 124.654C131.655 124.745 131.654 124.838 131.651 124.934C131.648 125.036 131.572 125.118 131.479 125.117L126.471 125.085C126.312 125.084 126.218 124.898 126.287 124.751C126.944 124.805 128.616 124.927 130.026 124.888Z" fill="#414141"/>
<path d="M126.287 124.751C126.293 124.738 126.299 124.725 126.307 124.713C126.749 124.094 127.876 122.86 130.102 122.325L131.17 122.291C131.17 122.291 131.645 123.12 131.654 124.654C131.41 124.754 130.938 124.862 130.026 124.888C128.616 124.927 126.944 124.806 126.287 124.751Z" fill="#1E1F4B"/>
<path d="M131.9 97.5296C131.9 97.5296 129.648 110.127 129.694 122.476C129.695 122.701 131.332 122.999 131.367 122.791C131.729 120.668 134.122 106.847 135.303 104.905C135.303 104.905 135.783 117.138 135.534 122.665C135.528 122.803 137.059 123.021 137.082 122.862C137.339 121.065 139.07 108.564 139.007 100.859C139.004 100.425 138.602 96.8047 138.602 96.8047C136.058 97.2472 134.12 98.0192 131.9 97.5296Z" fill="#1E1F4B"/>
<path d="M140.07 90.2939C141.555 87.0118 141.713 84.706 140.07 83.7256C139.972 83.7006 139.872 83.6811 139.771 83.6682C139.248 83.6016 138.524 83.5095 137.69 83.3993C137.69 83.3993 137.688 83.3993 137.683 83.3981C137.562 83.3714 135.895 83.0141 134.084 82.9013C132.344 82.7923 130.473 82.9098 129.718 83.7651C129.718 83.7651 129.2 85.0576 128.227 86.3384C126.828 88.1785 126.142 90.2289 125.415 89.8292C125.217 89.7204 125.07 88.9882 124.918 88.6569C124.389 88.7202 123.336 88.88 122.516 89.7577C123.122 93.0655 125.131 94.4327 130.056 90.3713C130.992 93.0232 132.022 96.3737 131.687 98.8051C131.659 99.0122 131.827 99.2344 132.034 99.2647C133.155 99.4318 136.715 99.8592 138.451 99.1614C138.553 99.1214 138.834 99.0665 138.834 98.9562C138.83 98.153 138.628 94.959 139.949 90.7674C139.997 90.612 140.038 90.4542 140.07 90.2939Z" fill="url(#paint8_linear_2433_165684)"/>
<path d="M136.776 80.2487L137.111 83.6779C137.111 83.6779 135.187 84.2588 133.787 83.2689L134.771 80.1523L136.776 80.2487Z" fill="url(#paint9_linear_2433_165684)"/>
<path d="M133.51 77.3261C133.487 77.3856 133.39 81.6002 133.39 81.6002L135.792 81.6044L136.475 77.6234C136.475 77.6234 133.892 76.33 133.51 77.3261Z" fill="url(#paint10_linear_2433_165684)"/>
<path d="M135.652 78.1211C135.73 78.1946 135.77 78.2994 135.76 78.4062L135.567 80.4994C135.564 80.5312 135.557 80.5619 135.545 80.5917C135.481 80.7555 135.236 81.2603 134.725 80.9801C134.289 80.7413 133.885 80.5279 133.558 80.5176C133.366 80.5116 133.208 80.6661 133.205 80.8582C133.197 81.2536 133.198 82.0519 133.298 82.761C133.323 82.9388 133.482 83.0661 133.66 83.0548C134.132 83.0249 135.051 82.939 135.789 82.7013C135.91 82.6623 136 82.5598 136.023 82.4343C136.125 81.8818 136.416 80.3342 136.565 79.91C136.704 79.516 137.243 79.3795 137.495 79.3366C137.591 79.3203 137.675 79.2655 137.728 79.1843C137.887 78.9404 138.117 78.4138 137.485 78.0148C137.328 77.9157 137.282 77.7043 137.378 77.5446C137.549 77.2585 137.673 76.817 137.173 76.4392C136.666 76.0568 136.176 76.2369 135.875 76.4298C135.742 76.5152 135.563 76.51 135.446 76.4042C135.394 76.3571 135.322 76.3301 135.225 76.3548C134.73 76.4803 134.816 75.7883 134.562 75.5722C134.206 75.2693 133.82 75.7101 133.677 76.035C133.597 76.2153 133.54 76.4058 133.453 76.5824C133.316 76.8593 133.103 77.0977 132.843 77.2644C132.803 77.29 132.76 77.316 132.738 77.358C132.708 77.4177 132.73 77.4941 132.775 77.5443C132.82 77.5943 132.883 77.6235 132.945 77.6498C133.453 77.8666 133.98 77.8895 134.51 77.7124C134.971 77.5581 135.437 77.9189 135.652 78.1211Z" fill="#1E1F4B"/>
<path d="M136.377 80.6486C136.377 80.6486 136.334 79.406 136.832 79.2157C137.33 79.0253 137.936 79.3219 137.601 80.1453C137.183 81.1694 136.377 80.6486 136.377 80.6486Z" fill="url(#paint11_linear_2433_165684)"/>
<path d="M132.743 77.2341C133.485 73.3251 139.023 74.9576 137.752 78.4499C135.834 77.8806 133.551 76.8588 132.743 77.2341Z" fill="url(#paint12_linear_2433_165684)"/>
<path d="M135.952 77.8013L132.735 78.6868C132.654 78.7092 132.566 78.6872 132.505 78.6283C132.061 78.1995 131.542 77.9993 130.964 77.9798C130.891 77.9774 130.874 77.8754 130.943 77.8491L132.855 77.1124C132.858 77.1115 132.86 77.1109 132.862 77.1104C133.859 76.8847 134.901 77.2058 135.96 77.7213C135.995 77.7386 135.99 77.7909 135.952 77.8013Z" fill="url(#paint13_linear_2433_165684)"/>
<path d="M136.843 95.075C137.809 95.0934 138.602 94.3132 138.602 93.3443V85.6425C138.602 84.6306 137.791 83.8072 136.782 83.7962C133.753 83.7631 127.506 83.7614 122.395 84.1933C121.697 84.2522 121.155 84.8255 121.13 85.5268L120.652 92.9728C120.616 93.9577 121.393 94.7805 122.376 94.7993L136.843 95.075Z" fill="url(#paint14_linear_2433_165684)"/>
<path d="M136.848 86.4766C136.861 87.132 136.841 88.1718 136.825 88.8435C136.817 89.1931 136.511 89.4594 136.165 89.4186L133.672 89.1258C133.34 89.0867 133.106 88.7799 133.156 88.4484L133.462 86.4019C133.505 86.1114 133.754 85.8965 134.047 85.8965H136.256C136.578 85.8965 136.841 86.1539 136.848 86.4766Z" fill="white"/>
<path opacity="0.37" d="M130.334 90.3549L128.255 90.5798C127.964 90.6113 127.715 90.3707 127.737 90.0781L128.191 83.8766C129.063 83.8489 129.923 83.8287 130.752 83.8145V89.8877C130.752 90.1278 130.572 90.3292 130.334 90.3549Z" fill="white"/>
<path d="M129.481 89.2784C129.475 89.3899 129.383 89.4759 129.273 89.4759C129.269 89.4759 129.265 89.4759 129.26 89.4756C129.145 89.4689 129.057 89.3698 129.064 89.2542L129.377 83.8417C129.518 83.8383 129.657 83.8351 129.797 83.832L129.481 89.2784Z" fill="white"/>
<path d="M129.747 95.8764C129.372 95.3526 129.653 95.0035 129.653 95.0035C131.545 94.3262 134.257 94.3798 136.313 91.793C137.148 92.2368 136.473 92.5005 137.388 93.8354C133.083 96.6134 129.747 95.8764 129.747 95.8764Z" fill="url(#paint15_linear_2433_165684)"/>
<path d="M138.494 86.1522C138.467 89.2627 137.49 91.633 132.836 94.0467L133.787 95.5255C136.053 95.314 140.04 92.2816 141.244 90.0306C141.541 89.4754 141.951 87.7281 141.891 86.4973C141.769 83.9643 139.166 81.651 138.494 86.1522Z" fill="url(#paint16_linear_2433_165684)"/>
<path d="M129.788 95.8623C128.652 96.2829 127.872 95.5993 127.366 94.8598C128.428 94.7379 129.095 94.723 129.969 94.8993L129.788 95.8623Z" fill="url(#paint17_linear_2433_165684)"/>
<path d="M120.526 87.9381C120.815 87.8671 121.464 86.9872 121.533 87.3087C121.602 87.6301 121.406 88.0378 121.435 88.1745C121.464 88.3112 121.682 89.077 121.509 89.3983C121.384 89.6301 121.139 90.3593 121.012 90.7473C120.97 90.8761 120.936 91.0463 120.802 91.0311C120.667 91.016 120.563 90.8347 120.551 90.6997C120.546 90.6456 120.238 88.0091 120.526 87.9381Z" fill="url(#paint18_linear_2433_165684)"/>
<path d="M97.0665 113.457H20.0254V118.092H97.0665V113.457Z" fill="#1E1F4B"/>
<path d="M98.5167 112.457H97.0665V118.818H98.5167V112.457Z" fill="#1E1F4B"/>
<path d="M21.2941 85.4093C21.2941 84.2498 22.5202 83.2871 24.3987 83.2871H95.1537C97.0322 83.2871 98.5165 84.2498 98.5165 85.4093V111.788C98.5165 112.948 97.0322 113.911 95.1537 113.911H24.3987C22.5202 113.911 21.2941 112.948 21.2941 111.788V85.4093Z" fill="url(#paint19_linear_2433_165684)"/>
<path d="M23.0165 86.4726C23.0165 85.4116 24.5576 84.6504 26.329 84.6504H93.0772C94.8486 84.6504 96.3415 85.4116 96.3415 86.4726V110.585C96.3415 111.646 94.8486 112.458 93.0772 112.458H26.329C24.5576 112.458 23.0165 111.646 23.0165 110.585V86.4726Z" fill="url(#paint20_linear_2433_165684)"/>
<path d="M2.42547 103.988L5.91411 93.3639C6.00157 93.0951 6.25362 93.0117 6.53764 93.0117C8.97254 93.0117 19.935 93.0117 20.6601 93.0117V118.093H1.59924L2.42547 103.988Z" fill="url(#paint21_linear_2433_165684)"/>
<path d="M1.31904 114.468C1.50678 114.345 1.82249 114.279 2.08421 114.283L16.7425 114.563L16.829 118.693L2.06348 119.05C1.52824 119.05 0.901001 118.793 0.901001 118.433V114.935C0.901001 114.759 1.1313 114.59 1.31904 114.468Z" fill="url(#paint22_linear_2433_165684)"/>
<path d="M5.14848 103.376L7.25717 95.0705C7.33078 94.7814 7.5925 94.5566 7.89241 94.5566H16.1396C16.3168 94.5566 16.4864 94.6501 16.6098 94.7765C16.7332 94.9029 16.7999 95.0846 16.7946 95.2607L16.5969 101.917C16.5876 102.23 16.3566 102.494 16.0464 102.544L5.88828 104.177C5.67043 104.212 5.4496 104.137 5.30053 103.975C5.15146 103.813 5.0943 103.588 5.14848 103.376Z" fill="#1E1F4B"/>
<path d="M5.56985 94.4648L5.67747 94.4825C5.86 94.5126 6.02125 94.618 6.12135 94.7727C6.22144 94.9274 6.25118 95.117 6.20313 95.2946L3.90457 103.795C3.81563 104.123 3.48737 104.329 3.15102 104.266L2.42517 104.131L5.56985 94.4648Z" fill="#1E1F4B"/>
<path d="M16.5814 105.393C16.5814 105.066 16.3945 104.734 16.066 104.734H13.4506C13.1221 104.734 12.7747 105.066 12.7747 105.393V105.5C12.7747 105.826 13.1221 106.097 13.4506 106.097H16.066C16.3945 106.097 16.5814 105.826 16.5814 105.5V105.393Z" fill="url(#paint23_linear_2433_165684)"/>
<path d="M19.5843 85.5102C19.8042 85.4943 20.1325 85.5566 20.2941 85.7059C20.4557 85.8552 20.6599 86.0511 20.6599 86.2705V93.0111H12.0093C12.0093 93.0111 12.469 86.0265 19.5843 85.5102Z" fill="url(#paint24_linear_2433_165684)"/>
<path d="M11.7937 125.418C15.4639 125.418 18.4393 122.459 18.4393 118.81C18.4393 115.16 15.4639 112.201 11.7937 112.201C8.1234 112.201 5.14807 115.16 5.14807 118.81C5.14807 122.459 8.1234 125.418 11.7937 125.418Z" fill="url(#paint25_linear_2433_165684)"/>
<path d="M11.7937 124.177C14.7743 124.177 17.1906 121.774 17.1906 118.81C17.1906 115.846 14.7743 113.443 11.7937 113.443C8.81303 113.443 6.39673 115.846 6.39673 118.81C6.39673 121.774 8.81303 124.177 11.7937 124.177Z" fill="url(#paint26_linear_2433_165684)"/>
<path d="M7.26037 120.75C7.22515 120.75 7.1916 120.729 7.17691 120.695C6.92291 120.097 6.79419 119.463 6.79419 118.809C6.79419 116.139 8.97844 113.967 11.6632 113.967C12.4958 113.967 13.3177 114.18 14.0398 114.582C14.0836 114.606 14.0994 114.662 14.075 114.705C14.0508 114.749 13.9956 114.765 13.9518 114.741C13.2565 114.353 12.4651 114.149 11.6633 114.149C9.07844 114.149 6.97551 116.239 6.97551 118.809C6.97551 119.439 7.0994 120.049 7.34374 120.623C7.36335 120.67 7.34197 120.723 7.29587 120.743C7.28425 120.747 7.27227 120.75 7.26037 120.75Z" fill="url(#paint27_linear_2433_165684)"/>
<path d="M11.7938 121.272C13.1607 121.272 14.2688 120.17 14.2688 118.811C14.2688 117.452 13.1607 116.35 11.7938 116.35C10.4268 116.35 9.31873 117.452 9.31873 118.811C9.31873 120.17 10.4268 121.272 11.7938 121.272Z" fill="#1E1F4B"/>
<path d="M75.0138 125.602C78.684 125.602 81.6593 122.643 81.6593 118.993C81.6593 115.344 78.684 112.385 75.0138 112.385C71.3435 112.385 68.3682 115.344 68.3682 118.993C68.3682 122.643 71.3435 125.602 75.0138 125.602Z" fill="#1E1F4B"/>
<path d="M75.0139 124.361C77.9946 124.361 80.4109 121.958 80.4109 118.994C80.4109 116.03 77.9946 113.627 75.0139 113.627C72.0332 113.627 69.6169 116.03 69.6169 118.994C69.6169 121.958 72.0332 124.361 75.0139 124.361Z" fill="url(#paint28_linear_2433_165684)"/>
<path d="M70.4807 120.933C70.4455 120.933 70.4119 120.913 70.3972 120.878C70.1432 120.281 70.0144 119.647 70.0144 118.993C70.0144 116.323 72.1987 114.15 74.8834 114.15C75.716 114.15 76.5379 114.363 77.26 114.765C77.3038 114.79 77.3196 114.845 77.2952 114.889C77.271 114.933 77.2158 114.949 77.172 114.924C76.4767 114.537 75.6854 114.332 74.8834 114.332C72.2986 114.332 70.1956 116.423 70.1956 118.993C70.1956 119.622 70.3195 120.233 70.5639 120.807C70.5836 120.853 70.5621 120.907 70.516 120.926C70.5046 120.931 70.4926 120.933 70.4807 120.933Z" fill="url(#paint29_linear_2433_165684)"/>
<path d="M75.0139 121.456C76.3808 121.456 77.4889 120.354 77.4889 118.995C77.4889 117.635 76.3808 116.533 75.0139 116.533C73.6469 116.533 72.5388 117.635 72.5388 118.995C72.5388 120.354 73.6469 121.456 75.0139 121.456Z" fill="#1E1F4B"/>
<path d="M37.5637 125.602C41.2339 125.602 44.2093 122.643 44.2093 118.993C44.2093 115.344 41.2339 112.385 37.5637 112.385C33.8934 112.385 30.9181 115.344 30.9181 118.993C30.9181 122.643 33.8934 125.602 37.5637 125.602Z" fill="url(#paint30_linear_2433_165684)"/>
<path d="M37.5637 124.361C40.5444 124.361 42.9607 121.958 42.9607 118.994C42.9607 116.03 40.5444 113.627 37.5637 113.627C34.583 113.627 32.1667 116.03 32.1667 118.994C32.1667 121.958 34.583 124.361 37.5637 124.361Z" fill="url(#paint31_linear_2433_165684)"/>
<path d="M33.0308 120.933C32.9955 120.933 32.962 120.913 32.9473 120.878C32.6934 120.281 32.5646 119.647 32.5646 118.993C32.5646 116.323 34.7487 114.15 37.4335 114.15C38.2663 114.15 39.0881 114.363 39.8102 114.765C39.854 114.79 39.8697 114.845 39.8453 114.889C39.8211 114.933 39.7658 114.949 39.7221 114.924C39.0269 114.537 38.2355 114.332 37.4335 114.332C34.8486 114.332 32.7458 116.423 32.7458 118.993C32.7458 119.622 32.8697 120.233 33.114 120.807C33.1336 120.853 33.1123 120.907 33.0662 120.926C33.0547 120.931 33.0427 120.933 33.0308 120.933Z" fill="url(#paint32_linear_2433_165684)"/>
<path d="M37.5638 121.456C38.9307 121.456 40.0389 120.354 40.0389 118.995C40.0389 117.635 38.9307 116.533 37.5638 116.533C36.1969 116.533 35.0887 117.635 35.0887 118.995C35.0887 120.354 36.1969 121.456 37.5638 121.456Z" fill="#1E1F4B"/>
<path d="M90.2163 125.602C93.8865 125.602 96.8618 122.643 96.8618 118.993C96.8618 115.344 93.8865 112.385 90.2163 112.385C86.546 112.385 83.5707 115.344 83.5707 118.993C83.5707 122.643 86.546 125.602 90.2163 125.602Z" fill="#1E1F4B"/>
<path d="M90.2164 124.361C93.1971 124.361 95.6134 121.958 95.6134 118.994C95.6134 116.03 93.1971 113.627 90.2164 113.627C87.2358 113.627 84.8195 116.03 84.8195 118.994C84.8195 121.958 87.2358 124.361 90.2164 124.361Z" fill="url(#paint33_linear_2433_165684)"/>
<path d="M85.6836 120.933C85.6483 120.933 85.6148 120.913 85.6001 120.878C85.3461 120.281 85.2173 119.647 85.2173 118.993C85.2173 116.323 87.4015 114.15 90.0863 114.15C90.9189 114.15 91.7408 114.363 92.4629 114.765C92.5067 114.79 92.5224 114.845 92.4981 114.889C92.4739 114.933 92.4187 114.949 92.3749 114.924C91.6796 114.537 90.8882 114.332 90.0863 114.332C87.5014 114.332 85.3985 116.423 85.3985 118.993C85.3985 119.622 85.5224 120.233 85.7667 120.807C85.7863 120.853 85.765 120.907 85.7189 120.926C85.7074 120.931 85.6954 120.933 85.6836 120.933Z" fill="url(#paint34_linear_2433_165684)"/>
<path d="M90.2163 121.456C91.5832 121.456 92.6913 120.354 92.6913 118.995C92.6913 117.635 91.5832 116.533 90.2163 116.533C88.8493 116.533 87.7412 117.635 87.7412 118.995C87.7412 120.354 88.8493 121.456 90.2163 121.456Z" fill="#1E1F4B"/>
<path d="M4.43591 110.784C4.43591 110.424 4.17345 110.186 3.81109 110.186H2.00984C1.64756 110.186 1.35425 110.424 1.35425 110.784V112.747C1.35425 113.108 1.64756 113.366 2.00984 113.366H3.81109C4.17336 113.366 4.43591 113.108 4.43591 112.747V110.784Z" fill="url(#paint35_linear_2433_165684)"/>
<path opacity="0.8" d="M3.25769 109.914V113.64H3.75212C4.11403 113.64 4.70791 113.261 4.70791 112.901V110.755C4.70791 110.395 4.11403 109.914 3.75212 109.914H3.25769Z" fill="white"/>
<path d="M19.5722 109.913C19.5221 109.913 19.4816 109.873 19.4816 109.822V94.5557C19.4816 94.5055 19.5222 94.4648 19.5722 94.4648C19.6222 94.4648 19.6628 94.5055 19.6628 94.5557V109.822C19.6628 109.873 19.6223 109.913 19.5722 109.913Z" fill="url(#paint36_linear_2433_165684)"/>
<path d="M13.579 92.2676C13.5692 92.2676 13.5591 92.2661 13.5493 92.2626C13.502 92.2461 13.477 92.1944 13.4935 92.147C14.0764 90.4672 15.227 88.2517 17.3981 87.2366C18.7026 86.6268 19.7425 86.741 19.7863 86.746C19.8359 86.7519 19.8714 86.797 19.8657 86.8468C19.8599 86.8967 19.8147 86.9334 19.7652 86.9265C19.7549 86.9252 18.7244 86.8141 17.4649 87.406C15.3571 88.3965 14.235 90.5634 13.6647 92.2066C13.6516 92.2441 13.6165 92.2676 13.579 92.2676Z" fill="white"/>
<path d="M96.9929 112.633H40.6453V45.334H95.2817C97.0759 45.334 98.5305 46.7924 98.5305 48.5913V111.091C98.5304 111.942 97.8421 112.633 96.9929 112.633Z" fill="url(#paint37_linear_2433_165684)"/>
<path d="M89.1594 112.04V56.5446C89.1594 55.8162 89.7627 55.2336 90.4887 55.2607L95.3539 55.4632C96.2669 55.5012 96.9884 56.2532 96.9907 57.1694L97.1283 111.037C97.1192 111.902 96.3839 112.579 95.5242 112.515L89.1594 112.04Z" fill="url(#paint38_linear_2433_165684)"/>
<path d="M153.379 86.5671L154.589 87.22C156.041 88.1059 157.339 88.574 158.508 88.7499C162.157 89.2988 164.535 86.9903 166.308 85.59C168.647 83.7412 170.468 84.6406 170.468 84.6406L167.973 89.4154C164.246 92.9381 160.426 92.1558 158.017 91.0142C156.484 90.2876 155.522 89.4154 155.522 89.4154C152.781 87.7766 153.379 86.5671 153.379 86.5671Z" fill="url(#paint39_linear_2433_165684)"/>
<path d="M149.814 88.2757C149.892 88.0154 150.084 87.8047 150.336 87.7032L152.792 86.7131C152.792 86.7131 152.829 86.3973 152.273 86.1827C151.717 85.9681 151.847 85.3438 151.847 85.3438C151.847 85.3438 152.607 85.6911 153.719 86.2421C154.354 86.5572 154.711 87.1136 154.901 87.5323L154.268 88.3659C152.755 88.8218 151.223 88.909 149.678 88.7281L149.814 88.2757Z" fill="url(#paint40_linear_2433_165684)"/>
<path d="M171.005 123.078C171.005 123.078 171.191 124.139 171.283 125.19C171.319 125.6 171.003 125.956 170.593 125.974C169.198 126.032 166.213 126.145 165.143 126.097C164.982 126.09 164.876 125.925 164.936 125.775C164.986 125.649 165.082 125.547 165.205 125.491L170.134 123.219L171.005 123.078Z" fill="#1E1F4B"/>
<path d="M171.158 122.454L171.008 123.723C171.008 123.723 170.144 124.126 169.554 123.672L169.912 122.258L171.158 122.454Z" fill="url(#paint41_linear_2433_165684)"/>
<path d="M171.399 97.7559C171.464 98.0995 171.282 115.756 169.554 123.287C169.526 123.41 169.347 123.651 169.409 123.757C169.559 124.014 170.663 123.942 171.286 123.963C171.479 123.97 171.582 123.743 171.637 123.551C172.131 121.803 174.498 113.049 174.806 104.686C175.151 95.3417 174.806 104.368 174.806 104.368L174.96 98.4479L171.399 97.7559Z" fill="#1E1F4B"/>
<path d="M176.675 123.631C176.675 123.631 176.973 124.167 177.261 125.59C177.313 125.847 177.134 126.093 176.873 126.119C176.413 126.164 175.704 126.222 175.136 126.219C174.874 126.217 174.669 125.988 174.701 125.727C174.764 125.208 174.96 124.355 175.565 123.691L176.675 123.631Z" fill="#1E1F4B"/>
<path d="M176.937 121.998L176.586 123.918C176.586 123.918 176.239 124.176 175.552 123.989L175.72 121.924L176.937 121.998Z" fill="url(#paint42_linear_2433_165684)"/>
<path d="M177.78 98.4453C179.193 107.371 177.578 121.192 176.998 123.763C176.962 123.92 176.841 124.041 176.689 124.067C176.43 124.112 176.003 124.149 175.583 124.021C175.438 123.977 175.337 123.84 175.331 123.683C175.253 121.604 175.393 108.844 174.076 103.801C174.009 103.546 173.86 103.323 173.654 103.169L171.487 101.398L171.446 97.5801L177.78 98.4453Z" fill="#1E1F4B"/>
<path d="M169.682 84.1237C173.407 84.062 177.517 85.1044 177.517 85.1044C178.432 90.4586 178.065 96.3925 177.874 98.3466C177.835 98.7472 178.049 99.1712 177.652 99.2354C175.703 99.5511 172.64 99.2298 171.688 98.9526C171.34 98.8513 171.399 98.4799 171.325 98.1243C170.686 95.051 168.859 88.2726 168.859 88.2726C167.973 89.4152 166.723 91.0141 164.875 91.4397C165.817 90.3452 164.01 88.0499 164.203 87.2267C165.874 85.3446 168.533 84.1428 169.682 84.1237Z" fill="url(#paint43_linear_2433_165684)"/>
<path d="M173.455 81.0919L174.64 84.5283C174.66 84.5853 174.637 84.6483 174.584 84.6774C174.261 84.8565 173.097 85.3741 171.694 84.4825C171.548 84.3896 171.449 84.2382 171.427 84.0661L171.043 81.0918H173.455V81.0919Z" fill="url(#paint44_linear_2433_165684)"/>
<path d="M170.876 77.9102C170.876 77.9102 169.575 80.3664 169.742 81.3586C169.909 82.3508 171.521 82.2796 172.93 81.4738L173.914 78.8216L170.876 77.9102Z" fill="url(#paint45_linear_2433_165684)"/>
<path d="M172.868 80.1711C172.81 80.1457 172.789 80.0754 172.824 80.023C172.928 79.8632 173.123 79.5375 173.186 79.2523C173.186 79.2523 173.42 79.102 172.59 78.903C172.139 78.7946 171.338 78.705 170.986 78.3794C170.592 78.0151 171.318 77.3268 171.623 77.142C172.026 76.8981 172.517 76.7539 172.971 76.8767C173.19 76.9359 173.389 77.0535 173.584 77.1697C173.917 77.3675 174.261 77.5764 174.473 77.901C174.609 78.1112 174.681 78.3564 174.747 78.5986C174.841 78.9466 174.928 79.303 174.911 79.6634C174.868 80.6232 173.746 81.4832 172.843 81.5883C172.769 81.5969 172.712 81.5238 172.736 81.4534L173.105 80.3784C173.122 80.3285 173.099 80.2738 173.051 80.2524L172.868 80.1711Z" fill="#1E1F4B"/>
<path d="M172.719 80.3235C172.719 80.3235 173.646 79.686 173.714 80.2228C173.781 80.7597 172.879 81.0003 172.432 80.8002L172.719 80.3235Z" fill="url(#paint46_linear_2433_165684)"/>
<path d="M170.402 77.3079C172.303 73.7072 177.231 76.9783 174.938 80.0116C173.233 78.8749 171.306 77.185 170.402 77.3079Z" fill="url(#paint47_linear_2433_165684)"/>
<path d="M173.372 78.8329L169.958 78.727C169.871 78.7243 169.792 78.6762 169.75 78.6001C169.444 78.0463 168.997 77.6935 168.437 77.4998C168.366 77.4753 168.381 77.3707 168.456 77.3655L170.549 77.2228C170.551 77.2226 170.553 77.2226 170.556 77.2228C171.599 77.3032 172.522 77.9325 173.403 78.7568C173.433 78.7844 173.412 78.8341 173.372 78.8329Z" fill="url(#paint48_linear_2433_165684)"/>
<path d="M177.095 90.5551C175.01 88.2085 175.222 86.402 177.575 85.1016C177.575 85.1016 181.475 87.7585 182.116 91.1273C181.379 91.1817 180.038 91.3739 178.726 92.0385C178.437 90.4478 177.095 90.5551 177.095 90.5551Z" fill="url(#paint49_linear_2433_165684)"/>
<path d="M172.565 92.9695C172.565 92.9695 176.944 95.4509 178.421 93.3321C178.728 92.8922 178.801 92.455 178.726 92.0381C180.038 91.3736 181.379 91.1814 182.116 91.127C182.31 92.1425 182.208 93.2226 181.612 94.3143C179.024 99.0612 171.985 94.052 171.985 94.052L172.565 92.9695Z" fill="url(#paint50_linear_2433_165684)"/>
<path d="M173.091 96.1082L170.701 87.7402C170.674 87.6453 170.593 87.5759 170.495 87.5645C170.062 87.5139 168.807 87.3716 167.358 87.2488C165.613 87.1008 163.587 86.9809 162.376 87.0829C162.204 87.0974 162.1 87.28 162.176 87.4352C162.865 88.832 165.697 94.5138 167.116 96.375C167.163 96.4367 167.236 96.4728 167.313 96.4721L172.858 96.4203C173.019 96.4189 173.135 96.2637 173.091 96.1082Z" fill="#1E1F4B"/>
<path d="M167.111 86.5237L165.378 86.2342C165.286 86.2188 165.21 86.3071 165.239 86.3962L165.411 86.9173C165.426 86.9627 165.465 86.9955 165.512 87.0018L167.18 87.2251C167.266 87.2366 167.337 87.1581 167.317 87.0731L167.211 86.6181C167.2 86.5693 167.16 86.532 167.111 86.5237Z" fill="#D0D0D0"/>
<path d="M168.408 87.9953L168.265 87.2498C168.251 87.1751 168.19 87.1185 168.114 87.1109L164.614 86.7548C164.496 86.7428 164.402 86.8511 164.43 86.9664L164.652 87.8954C164.67 87.9697 164.735 88.0234 164.811 88.0272L168.231 88.1999C168.342 88.2055 168.429 88.105 168.408 87.9953Z" fill="#D0D0D0"/>
<path d="M172.513 94.0874C172.513 94.0874 172.846 92.7148 172.712 92.2279C172.577 91.741 172.317 91.115 171.45 91.2541C170.583 91.3932 169.56 91.7595 169.56 91.7595C169.56 91.7595 169.611 92.3938 170.27 92.1892L169.862 92.5063C169.862 92.5063 169.92 93.0141 170.477 92.7428L170.097 93.1634C170.097 93.1634 170.336 93.5805 170.746 93.3129C171.155 93.0452 171.351 94.2526 172.513 94.0874Z" fill="url(#paint51_linear_2433_165684)"/>
<path d="M173.901 88.8633C174.174 88.8853 176.486 88.9596 176.486 88.9596L176.393 91.2933L175.195 91.9705L173.901 91.2933V88.8633Z" fill="url(#paint52_linear_2433_165684)"/>
<path d="M173.717 88.8633L176.481 88.9596L176.594 89.8549L175.156 90.2296L173.627 89.5464L173.717 88.8633Z" fill="url(#paint53_linear_2433_165684)"/>
<path d="M102.323 122.91C103.281 122.993 104.943 123.128 106.254 123.186C107.042 123.221 107.495 123.143 107.757 123.038C107.756 123.068 107.755 123.096 107.754 123.122C107.748 123.26 107.636 123.371 107.497 123.378C105.02 123.517 103.051 123.426 102.35 123.384C102.205 123.375 102.118 123.217 102.192 123.093C102.23 123.031 102.274 122.97 102.323 122.91Z" fill="#414141"/>
<path d="M106.254 123.187C104.943 123.13 103.281 122.995 102.323 122.912C103.265 121.753 106.254 120.973 106.254 120.973H107.098C107.679 121.812 107.763 122.611 107.757 123.04C107.495 123.145 107.042 123.222 106.254 123.187Z" fill="#1E1F4B"/>
<path d="M107.24 119.59L107.161 121.157C107.153 121.327 107.026 121.47 106.857 121.494C106.688 121.518 106.462 121.521 106.222 121.441C106.075 121.392 105.966 121.268 105.938 121.116L105.666 119.59H107.24Z" fill="url(#paint54_linear_2433_165684)"/>
<path d="M117.038 124.718C117.454 124.643 117.642 124.363 117.721 124.064C117.721 124.067 117.722 124.07 117.722 124.072C117.783 124.388 117.642 124.715 117.358 124.87C117.016 125.058 116.642 125.09 116.351 125.074C116.039 125.058 115.753 124.891 115.596 124.623L115.594 124.619C115.906 124.82 116.346 124.843 117.038 124.718Z" fill="#414141"/>
<path d="M115.08 120.072H115.776C116.837 120.044 117.503 122.943 117.721 124.065C117.642 124.364 117.454 124.643 117.038 124.719C116.346 124.844 115.906 124.82 115.594 124.62C115.021 123.643 114.737 122.212 114.6 121.377C114.445 120.427 115.08 120.072 115.08 120.072Z" fill="#1E1F4B"/>
<path d="M115.687 118.619L116.073 120.161C116.121 120.35 116.031 120.545 115.856 120.635C115.64 120.746 115.336 120.863 115.056 120.829C114.924 120.813 114.815 120.72 114.771 120.596L114.204 118.974L115.687 118.619Z" fill="url(#paint55_linear_2433_165684)"/>
<path d="M102.088 98.3144C102.088 98.3144 105.542 119.966 105.485 120.085C105.485 120.085 106.44 120.52 107.48 120.14C107.48 120.14 107.167 108.566 106.435 104.128C106.435 104.128 112.332 114.473 114.204 119.628C114.204 119.628 115.18 119.511 115.989 118.978C115.989 118.978 109.64 100.357 107.947 97.877L102.088 98.3144Z" fill="#1E1F4B"/>
<path d="M101.543 83.1949C101.296 83.2094 101.052 83.257 100.819 83.338C98.287 84.2177 96.2987 83.9964 94.7702 83.3039C94.4159 83.7755 93.8453 84.7564 93.5968 86.4049C96.3792 88.4812 99.8783 87.9341 101.023 87.6776C100.723 89.906 100.726 93.4312 101.949 98.5989C101.981 98.7341 102.097 98.8343 102.237 98.8458C103.018 98.9106 105.635 99.0646 108.15 98.498C108.263 98.4726 108.325 98.3509 108.28 98.245L108.257 98.1911C108.048 97.6963 107.954 97.1613 107.984 96.6254C108.075 94.9975 108.512 91.3194 109.443 88.7985C109.497 88.8903 109.548 88.9809 109.597 89.071C109.765 87.413 110.399 85.7821 110.846 84.1373C107.203 82.9763 102.871 83.1169 101.543 83.1949Z" fill="url(#paint56_linear_2433_165684)"/>
<path d="M107.226 80.1855C107.226 80.1855 107.48 82.8833 107.704 83.6813C107.738 83.8024 107.686 83.93 107.576 83.9929C107.196 84.2108 106.284 84.5662 105.036 83.9532C104.834 83.8538 104.712 83.6426 104.722 83.419L104.832 80.8121L107.226 80.1855Z" fill="url(#paint57_linear_2433_165684)"/>
<path d="M104.777 76.7344C104.777 76.7344 103.963 78.6091 103.908 79.593C103.854 80.577 103.642 81.2155 104.777 81.4136C105.912 81.6117 106.868 81.045 107.386 80.0648C107.386 80.0648 108.197 78.5545 108.015 77.936C107.833 77.3175 104.777 76.7344 104.777 76.7344Z" fill="url(#paint58_linear_2433_165684)"/>
<path d="M106.998 79.3609L106.933 79.3324C106.851 79.296 106.816 79.1979 106.857 79.1178C107.017 78.8078 107.329 78.0975 106.926 77.9318C106.546 77.7757 106.136 77.6881 105.745 77.5627C105.383 77.4465 104.679 77.3247 104.49 76.9414C104.435 76.8306 104.495 76.6999 104.554 76.5912C104.665 76.388 104.775 76.1847 104.885 75.9815C104.978 75.8096 105.075 75.6337 105.223 75.5069C105.563 75.2166 105.969 75.4714 106.346 75.5411C107.746 75.8001 108.671 76.3682 108.694 77.338C108.696 77.3996 108.761 77.4339 108.814 77.4018C108.917 77.3386 109.082 77.309 109.303 77.4954C109.688 77.8195 109.531 78.6602 108.688 79.3518C108.648 79.3847 108.648 79.4473 108.691 79.4757C108.844 79.5754 109.072 79.8127 108.482 80.129C107.871 80.4561 107.415 80.4293 107.24 80.4002C107.196 80.3929 107.168 80.3505 107.178 80.3072L107.365 79.4548C107.376 79.4065 107.339 79.3609 107.29 79.3609H106.998Z" fill="#1E1F4B"/>
<path d="M106.963 79.5403C106.963 79.5403 107.273 78.3427 107.809 78.6785C108.344 79.0143 107.531 80.0203 107.1 80.0651L106.963 79.5403Z" fill="url(#paint59_linear_2433_165684)"/>
<path d="M104.104 77.0532C105.435 73.096 110.959 75.5906 109.137 79.0386C107.225 78.1705 104.998 76.7794 104.104 77.0532Z" fill="url(#paint60_linear_2433_165684)"/>
<path d="M107.359 78.1059L103.888 78.5634C103.799 78.575 103.711 78.5394 103.656 78.4694C103.256 77.9596 102.745 77.6767 102.147 77.5732C102.071 77.5601 102.069 77.4518 102.144 77.4343L104.238 76.9438C104.24 76.9432 104.243 76.9428 104.245 76.9427C105.314 76.8515 106.351 77.3355 107.378 78.0238C107.413 78.0469 107.4 78.1005 107.359 78.1059Z" fill="url(#paint61_linear_2433_165684)"/>
<path d="M108.114 98.0866C108.91 98.1018 109.564 97.4588 109.564 96.6604V90.3134C109.564 89.4795 108.896 88.801 108.064 88.7919C105.568 88.7647 100.42 88.7633 96.2076 89.1192C95.6329 89.1677 95.1857 89.6401 95.1649 90.2181L94.7712 96.3543C94.742 97.1659 95.382 97.8439 96.1919 97.8594L108.114 98.0866Z" fill="url(#paint62_linear_2433_165684)"/>
<path d="M108.118 90.9994C108.129 91.5395 108.113 92.3964 108.1 92.95C108.093 93.238 107.841 93.4575 107.555 93.424L105.501 93.1827C105.228 93.1505 105.035 92.8976 105.076 92.6244L105.328 90.938C105.364 90.6986 105.569 90.5215 105.81 90.5215H107.631C107.896 90.5213 108.113 90.7335 108.118 90.9994Z" fill="white"/>
<path opacity="0.37" d="M102.75 94.1965L101.037 94.3819C100.797 94.4079 100.592 94.2096 100.61 93.9684L100.985 88.8578C101.703 88.835 102.412 88.8183 103.095 88.8066V93.8115C103.095 94.0092 102.946 94.1753 102.75 94.1965Z" fill="white"/>
<path d="M102.048 93.3107C102.043 93.4027 101.967 93.4735 101.876 93.4735C101.873 93.4735 101.869 93.4734 101.866 93.4731C101.771 93.4676 101.698 93.3859 101.704 93.2907L101.962 88.8303C102.078 88.8274 102.193 88.8248 102.308 88.8223L102.048 93.3107Z" fill="white"/>
<path d="M103.876 89.0285C104.472 89.0398 104.961 88.5586 104.961 87.9608V83.2095C104.961 82.5852 104.461 82.0772 103.838 82.0705C101.969 82.0501 98.1156 82.0491 94.9624 82.3155C94.5321 82.3518 94.1974 82.7055 94.1818 83.1381L93.8871 87.7317C93.8651 88.3393 94.3443 88.8469 94.9506 88.8584L103.876 89.0285Z" fill="url(#paint63_linear_2433_165684)"/>
<path d="M103.879 83.7231C103.887 84.1275 103.875 84.7689 103.865 85.1833C103.86 85.3989 103.671 85.5632 103.457 85.5381L101.92 85.3575C101.715 85.3334 101.571 85.1441 101.601 84.9395L101.79 83.6771C101.817 83.4979 101.97 83.3652 102.151 83.3652H103.514C103.712 83.3652 103.875 83.5241 103.879 83.7231Z" fill="white"/>
<path opacity="0.37" d="M99.86 86.1169L98.5773 86.2556C98.3978 86.2751 98.2447 86.1267 98.2579 85.9461L98.5383 82.1203C99.076 82.1032 99.6064 82.0908 100.118 82.082V85.8287C100.118 85.9767 100.007 86.101 99.86 86.1169Z" fill="white"/>
<path d="M99.3344 85.4538C99.3305 85.5226 99.2736 85.5757 99.2057 85.5757C99.2032 85.5757 99.2007 85.5756 99.1982 85.5754C99.127 85.5713 99.0727 85.5102 99.0769 85.4388L99.2703 82.0997C99.357 82.0976 99.4431 82.0956 99.529 82.0938L99.3344 85.4538Z" fill="white"/>
<path d="M93.4663 84.817C93.7285 84.7525 94.3175 83.9537 94.3801 84.2455C94.4427 84.5374 94.2651 84.9075 94.2915 85.0315C94.3179 85.1556 94.5155 85.8508 94.3585 86.1424C94.2452 86.3529 94.0227 87.0149 93.9076 87.3672C93.8694 87.4842 93.8384 87.6386 93.7163 87.6248C93.5944 87.611 93.5 87.4465 93.4885 87.324C93.484 87.275 93.2042 84.8815 93.4663 84.817Z" fill="url(#paint64_linear_2433_165684)"/>
<path d="M112.252 85.8032C111.929 85.0603 110.9 84.1558 110.846 84.1387C110.399 85.7834 109.612 87.1418 109.443 88.7999C110.546 90.8318 110.293 93.2282 109.604 94.3936C109.943 94.8982 110.339 95.5852 110.683 96.4398C114.925 93.8938 113.246 88.0908 112.252 85.8032Z" fill="url(#paint65_linear_2433_165684)"/>
<path d="M106.802 98.2831L103.129 98.2029C103.129 98.2029 106.332 97.2952 106.531 97.5424C106.531 97.5424 108.516 96.2344 109.604 94.3945C109.943 94.8992 110.339 95.5861 110.683 96.4407C109.707 97.0147 108.427 98.012 106.802 98.2831Z" fill="url(#paint66_linear_2433_165684)"/>
<path d="M106.906 97.6445C106.906 97.6445 106.982 99.1119 105.061 98.8988C104.017 98.7829 102.331 97.807 102.331 97.807C102.331 97.807 106.724 97.7953 106.906 97.6445Z" fill="url(#paint67_linear_2433_165684)"/>
<defs>
<linearGradient id="paint0_linear_2433_165684" x1="142.576" y1="27.7422" x2="159.566" y2="116.263" gradientUnits="userSpaceOnUse">
<stop stop-color="#04D5C9"/>
<stop offset="1" stop-color="#409F9A"/>
</linearGradient>
<linearGradient id="paint1_linear_2433_165684" x1="141.274" y1="28.365" x2="142.392" y2="60.3277" gradientUnits="userSpaceOnUse">
<stop stop-color="#00958D"/>
<stop offset="1" stop-color="#DBFFFD"/>
</linearGradient>
<linearGradient id="paint2_linear_2433_165684" x1="134.053" y1="18.2134" x2="150.25" y2="49.295" gradientUnits="userSpaceOnUse">
<stop stop-color="#01B4AA"/>
<stop offset="1" stop-color="#ECFFFE"/>
</linearGradient>
<linearGradient id="paint3_linear_2433_165684" x1="131.8" y1="17.553" x2="132.99" y2="29.5716" gradientUnits="userSpaceOnUse">
<stop stop-color="#01B4AA"/>
<stop offset="1" stop-color="#ECFFFE"/>
</linearGradient>
<linearGradient id="paint4_linear_2433_165684" x1="64.5134" y1="6.54003" x2="104.498" y2="310.192" gradientUnits="userSpaceOnUse">
<stop stop-color="#00958D"/>
<stop offset="1" stop-color="#DBFFFD"/>
</linearGradient>
<linearGradient id="paint5_linear_2433_165684" x1="159.836" y1="113.262" x2="113.81" y2="145.29" gradientUnits="userSpaceOnUse">
<stop stop-color="#F5C25B"/>
<stop offset="1" stop-color="#E1FFFD"/>
</linearGradient>
<linearGradient id="paint6_linear_2433_165684" x1="159.567" y1="102.365" x2="127.243" y2="124.858" gradientUnits="userSpaceOnUse">
<stop stop-color="#F5C25B"/>
<stop offset="1" stop-color="#E1FFFD"/>
</linearGradient>
<linearGradient id="paint7_linear_2433_165684" x1="151.454" y1="117.652" x2="121.005" y2="135.964" gradientUnits="userSpaceOnUse">
<stop stop-color="#F5C25B"/>
<stop offset="1" stop-color="#E1FFFD"/>
</linearGradient>
<linearGradient id="paint8_linear_2433_165684" x1="121.134" y1="80.8078" x2="136.8" y2="135.909" gradientUnits="userSpaceOnUse">
<stop stop-color="#01B4AA"/>
<stop offset="1" stop-color="#ECFFFE"/>
</linearGradient>
<linearGradient id="paint9_linear_2433_165684" x1="134.721" y1="79.3313" x2="137.454" y2="91.1092" gradientUnits="userSpaceOnUse">
<stop stop-color="#FF928E"/>
<stop offset="1" stop-color="#FEB3B1"/>
</linearGradient>
<linearGradient id="paint10_linear_2433_165684" x1="134.383" y1="77.6933" x2="136.602" y2="85.3991" gradientUnits="userSpaceOnUse">
<stop stop-color="#FF928E"/>
<stop offset="1" stop-color="#FEB3B1"/>
</linearGradient>
<linearGradient id="paint11_linear_2433_165684" x1="139.088" y1="84.9102" x2="136.923" y2="79.8732" gradientUnits="userSpaceOnUse">
<stop stop-color="#FF928E"/>
<stop offset="1" stop-color="#FEB3B1"/>
</linearGradient>
<linearGradient id="paint12_linear_2433_165684" x1="132.359" y1="74.5368" x2="134.903" y2="86.4286" gradientUnits="userSpaceOnUse">
<stop stop-color="#01B4AA"/>
<stop offset="1" stop-color="#ECFFFE"/>
</linearGradient>
<linearGradient id="paint13_linear_2433_165684" x1="130.524" y1="76.8324" x2="131.134" y2="82.6895" gradientUnits="userSpaceOnUse">
<stop stop-color="#01B4AA"/>
<stop offset="1" stop-color="#ECFFFE"/>
</linearGradient>
<linearGradient id="paint14_linear_2433_165684" x1="134.817" y1="86.0862" x2="98.86" y2="111.107" gradientUnits="userSpaceOnUse">
<stop stop-color="#F5C25B"/>
<stop offset="1" stop-color="#E1FFFD"/>
</linearGradient>
<linearGradient id="paint15_linear_2433_165684" x1="139.043" y1="91.0547" x2="125.762" y2="99.1117" gradientUnits="userSpaceOnUse">
<stop stop-color="#FF928E"/>
<stop offset="1" stop-color="#FEB3B1"/>
</linearGradient>
<linearGradient id="paint16_linear_2433_165684" x1="132.168" y1="82.125" x2="147.377" y2="118.32" gradientUnits="userSpaceOnUse">
<stop stop-color="#01B4AA"/>
<stop offset="1" stop-color="#ECFFFE"/>
</linearGradient>
<linearGradient id="paint17_linear_2433_165684" x1="137.432" y1="96.0164" x2="125.805" y2="95.1435" gradientUnits="userSpaceOnUse">
<stop stop-color="#FF928E"/>
<stop offset="1" stop-color="#FEB3B1"/>
</linearGradient>
<linearGradient id="paint18_linear_2433_165684" x1="129.275" y1="87.7082" x2="125.557" y2="88.3572" gradientUnits="userSpaceOnUse">
<stop stop-color="#FF928E"/>
<stop offset="1" stop-color="#FEB3B1"/>
</linearGradient>
<linearGradient id="paint19_linear_2433_165684" x1="34.2192" y1="103.604" x2="162.699" y2="425.583" gradientUnits="userSpaceOnUse">
<stop stop-color="#009B92"/>
<stop offset="1" stop-color="#00FFF1"/>
</linearGradient>
<linearGradient id="paint20_linear_2433_165684" x1="17.6061" y1="81.2172" x2="29.451" y2="179.064" gradientUnits="userSpaceOnUse">
<stop stop-color="#01B4AA"/>
<stop offset="1" stop-color="#ECFFFE"/>
</linearGradient>
<linearGradient id="paint21_linear_2433_165684" x1="0.192805" y1="89.9152" x2="32.1648" y2="166.033" gradientUnits="userSpaceOnUse">
<stop stop-color="#01B4AA"/>
<stop offset="1" stop-color="#ECFFFE"/>
</linearGradient>
<linearGradient id="paint22_linear_2433_165684" x1="-0.27428" y1="113.695" x2="1.33658" y2="130.558" gradientUnits="userSpaceOnUse">
<stop stop-color="#01B4AA"/>
<stop offset="1" stop-color="#ECFFFE"/>
</linearGradient>
<linearGradient id="paint23_linear_2433_165684" x1="15.7129" y1="106.27" x2="15.3793" y2="103.978" gradientUnits="userSpaceOnUse">
<stop stop-color="#004F4B"/>
<stop offset="1" stop-color="#01B4AA"/>
</linearGradient>
<linearGradient id="paint24_linear_2433_165684" x1="11.371" y1="84.5814" x2="18.26" y2="109.463" gradientUnits="userSpaceOnUse">
<stop stop-color="#01B4AA"/>
<stop offset="1" stop-color="#ECFFFE"/>
</linearGradient>
<linearGradient id="paint25_linear_2433_165684" x1="96.5397" y1="324.148" x2="108.302" y2="352.498" gradientUnits="userSpaceOnUse">
<stop stop-color="#09005D"/>
<stop offset="1" stop-color="#1A0F91"/>
</linearGradient>
<linearGradient id="paint26_linear_2433_165684" x1="5.60028" y1="112.118" x2="16.6513" y2="146.933" gradientUnits="userSpaceOnUse">
<stop stop-color="#01B4AA"/>
<stop offset="1" stop-color="#ECFFFE"/>
</linearGradient>
<linearGradient id="paint27_linear_2433_165684" x1="12.4227" y1="121.61" x2="8.56914" y2="111.416" gradientUnits="userSpaceOnUse">
<stop stop-color="#004F4B"/>
<stop offset="1" stop-color="#01B4AA"/>
</linearGradient>
<linearGradient id="paint28_linear_2433_165684" x1="68.8205" y1="112.302" x2="79.8715" y2="147.116" gradientUnits="userSpaceOnUse">
<stop stop-color="#01B4AA"/>
<stop offset="1" stop-color="#ECFFFE"/>
</linearGradient>
<linearGradient id="paint29_linear_2433_165684" x1="75.6429" y1="121.793" x2="71.7894" y2="111.6" gradientUnits="userSpaceOnUse">
<stop stop-color="#004F4B"/>
<stop offset="1" stop-color="#01B4AA"/>
</linearGradient>
<linearGradient id="paint30_linear_2433_165684" x1="118.477" y1="315.046" x2="130.239" y2="343.396" gradientUnits="userSpaceOnUse">
<stop stop-color="#09005D"/>
<stop offset="1" stop-color="#1A0F91"/>
</linearGradient>
<linearGradient id="paint31_linear_2433_165684" x1="31.3703" y1="112.302" x2="42.4214" y2="147.116" gradientUnits="userSpaceOnUse">
<stop stop-color="#01B4AA"/>
<stop offset="1" stop-color="#ECFFFE"/>
</linearGradient>
<linearGradient id="paint32_linear_2433_165684" x1="38.193" y1="121.793" x2="34.3394" y2="111.6" gradientUnits="userSpaceOnUse">
<stop stop-color="#004F4B"/>
<stop offset="1" stop-color="#01B4AA"/>
</linearGradient>
<linearGradient id="paint33_linear_2433_165684" x1="84.023" y1="112.302" x2="95.0741" y2="147.116" gradientUnits="userSpaceOnUse">
<stop stop-color="#01B4AA"/>
<stop offset="1" stop-color="#ECFFFE"/>
</linearGradient>
<linearGradient id="paint34_linear_2433_165684" x1="90.8458" y1="121.793" x2="86.9922" y2="111.6" gradientUnits="userSpaceOnUse">
<stop stop-color="#004F4B"/>
<stop offset="1" stop-color="#01B4AA"/>
</linearGradient>
<linearGradient id="paint35_linear_2433_165684" x1="3.73282" y1="113.769" x2="1.78417" y2="109.124" gradientUnits="userSpaceOnUse">
<stop stop-color="#004F4B"/>
<stop offset="1" stop-color="#01B4AA"/>
</linearGradient>
<linearGradient id="paint36_linear_2433_165684" x1="19.6214" y1="111.872" x2="18.8562" y2="111.85" gradientUnits="userSpaceOnUse">
<stop stop-color="#004F4B"/>
<stop offset="1" stop-color="#01B4AA"/>
</linearGradient>
<linearGradient id="paint37_linear_2433_165684" x1="36.3741" y1="37.0252" x2="7.40882" y2="160.033" gradientUnits="userSpaceOnUse">
<stop stop-color="#01B4AA"/>
<stop offset="1" stop-color="#85FFF8"/>
</linearGradient>
<linearGradient id="paint38_linear_2433_165684" x1="88.5714" y1="48.1904" x2="255.99" y2="127.238" gradientUnits="userSpaceOnUse">
<stop stop-color="#00958D"/>
<stop offset="1" stop-color="#DBFFFD"/>
</linearGradient>
<linearGradient id="paint39_linear_2433_165684" x1="166.06" y1="55.4554" x2="164.566" y2="66.2635" gradientUnits="userSpaceOnUse">
<stop stop-color="#FF928E"/>
<stop offset="1" stop-color="#FEB3B1"/>
</linearGradient>
<linearGradient id="paint40_linear_2433_165684" x1="156.958" y1="54.1956" x2="155.463" y2="65.0036" gradientUnits="userSpaceOnUse">
<stop stop-color="#FF928E"/>
<stop offset="1" stop-color="#FEB3B1"/>
</linearGradient>
<linearGradient id="paint41_linear_2433_165684" x1="171.158" y1="123.073" x2="169.554" y2="123.073" gradientUnits="userSpaceOnUse">
<stop stop-color="#FF928E"/>
<stop offset="1" stop-color="#FEB3B1"/>
</linearGradient>
<linearGradient id="paint42_linear_2433_165684" x1="176.936" y1="122.99" x2="175.552" y2="122.99" gradientUnits="userSpaceOnUse">
<stop stop-color="#FF928E"/>
<stop offset="1" stop-color="#FEB3B1"/>
</linearGradient>
<linearGradient id="paint43_linear_2433_165684" x1="163.161" y1="82.2389" x2="180.116" y2="130.742" gradientUnits="userSpaceOnUse">
<stop stop-color="#01B4AA"/>
<stop offset="1" stop-color="#ECFFFE"/>
</linearGradient>
<linearGradient id="paint44_linear_2433_165684" x1="171.388" y1="79.6705" x2="175.247" y2="90.3489" gradientUnits="userSpaceOnUse">
<stop stop-color="#FF928E"/>
<stop offset="1" stop-color="#FEB3B1"/>
</linearGradient>
<linearGradient id="paint45_linear_2433_165684" x1="170.69" y1="-167.132" x2="170.733" y2="-157.852" gradientUnits="userSpaceOnUse">
<stop stop-color="#FF928E"/>
<stop offset="1" stop-color="#FEB3B1"/>
</linearGradient>
<linearGradient id="paint46_linear_2433_165684" x1="171.942" y1="-167.139" x2="171.985" y2="-157.858" gradientUnits="userSpaceOnUse">
<stop stop-color="#FF928E"/>
<stop offset="1" stop-color="#FEB3B1"/>
</linearGradient>
<linearGradient id="paint47_linear_2433_165684" x1="170.023" y1="75.1997" x2="173.827" y2="89.4783" gradientUnits="userSpaceOnUse">
<stop stop-color="#01B4AA"/>
<stop offset="1" stop-color="#ECFFFE"/>
</linearGradient>
<linearGradient id="paint48_linear_2433_165684" x1="168.02" y1="77.0239" x2="168.602" y2="82.7134" gradientUnits="userSpaceOnUse">
<stop stop-color="#01B4AA"/>
<stop offset="1" stop-color="#ECFFFE"/>
</linearGradient>
<linearGradient id="paint49_linear_2433_165684" x1="175.184" y1="84.2451" x2="182.785" y2="106.405" gradientUnits="userSpaceOnUse">
<stop stop-color="#01B4AA"/>
<stop offset="1" stop-color="#ECFFFE"/>
</linearGradient>
<linearGradient id="paint50_linear_2433_165684" x1="182.205" y1="93.7426" x2="171.985" y2="93.7426" gradientUnits="userSpaceOnUse">
<stop stop-color="#FF928E"/>
<stop offset="1" stop-color="#FEB3B1"/>
</linearGradient>
<linearGradient id="paint51_linear_2433_165684" x1="178.543" y1="84.8958" x2="175.747" y2="87.8703" gradientUnits="userSpaceOnUse">
<stop stop-color="#FF928E"/>
<stop offset="1" stop-color="#FEB3B1"/>
</linearGradient>
<linearGradient id="paint52_linear_2433_165684" x1="175.305" y1="89.6462" x2="179.04" y2="79.4958" gradientUnits="userSpaceOnUse">
<stop stop-color="#FE7062"/>
<stop offset="1" stop-color="#FF928E"/>
</linearGradient>
<linearGradient id="paint53_linear_2433_165684" x1="180.001" y1="81.0537" x2="171.324" y2="95.8498" gradientUnits="userSpaceOnUse">
<stop stop-color="#FE7062"/>
<stop offset="1" stop-color="#FF928E"/>
</linearGradient>
<linearGradient id="paint54_linear_2433_165684" x1="107.24" y1="120.549" x2="105.665" y2="120.549" gradientUnits="userSpaceOnUse">
<stop stop-color="#FF928E"/>
<stop offset="1" stop-color="#FEB3B1"/>
</linearGradient>
<linearGradient id="paint55_linear_2433_165684" x1="116.086" y1="119.727" x2="114.204" y2="119.727" gradientUnits="userSpaceOnUse">
<stop stop-color="#FF928E"/>
<stop offset="1" stop-color="#FEB3B1"/>
</linearGradient>
<linearGradient id="paint56_linear_2433_165684" x1="92.324" y1="81.1975" x2="107.466" y2="133.083" gradientUnits="userSpaceOnUse">
<stop stop-color="#01B4AA"/>
<stop offset="1" stop-color="#ECFFFE"/>
</linearGradient>
<linearGradient id="paint57_linear_2433_165684" x1="106.386" y1="79.5433" x2="106.199" y2="84.0159" gradientUnits="userSpaceOnUse">
<stop stop-color="#FF928E"/>
<stop offset="1" stop-color="#FEB3B1"/>
</linearGradient>
<linearGradient id="paint58_linear_2433_165684" x1="65.4829" y1="-32.2198" x2="67.537" y2="-26.5858" gradientUnits="userSpaceOnUse">
<stop stop-color="#FF928E"/>
<stop offset="1" stop-color="#FEB3B1"/>
</linearGradient>
<linearGradient id="paint59_linear_2433_165684" x1="66.8446" y1="-32.7162" x2="68.8987" y2="-27.0822" gradientUnits="userSpaceOnUse">
<stop stop-color="#FF928E"/>
<stop offset="1" stop-color="#FEB3B1"/>
</linearGradient>
<linearGradient id="paint60_linear_2433_165684" x1="103.705" y1="74.5365" x2="106.916" y2="88.0835" gradientUnits="userSpaceOnUse">
<stop stop-color="#01B4AA"/>
<stop offset="1" stop-color="#ECFFFE"/>
</linearGradient>
<linearGradient id="paint61_linear_2433_165684" x1="101.697" y1="76.7299" x2="102.265" y2="82.5077" gradientUnits="userSpaceOnUse">
<stop stop-color="#01B4AA"/>
<stop offset="1" stop-color="#ECFFFE"/>
</linearGradient>
<linearGradient id="paint62_linear_2433_165684" x1="106.444" y1="90.6791" x2="76.813" y2="111.299" gradientUnits="userSpaceOnUse">
<stop stop-color="#F5C25B"/>
<stop offset="1" stop-color="#E1FFFD"/>
</linearGradient>
<linearGradient id="paint63_linear_2433_165684" x1="102.626" y1="83.4832" x2="80.4436" y2="98.919" gradientUnits="userSpaceOnUse">
<stop stop-color="#F5C25B"/>
<stop offset="1" stop-color="#E1FFFD"/>
</linearGradient>
<linearGradient id="paint64_linear_2433_165684" x1="103.573" y1="85.2655" x2="99.3905" y2="85.5436" gradientUnits="userSpaceOnUse">
<stop stop-color="#FF928E"/>
<stop offset="1" stop-color="#FEB3B1"/>
</linearGradient>
<linearGradient id="paint65_linear_2433_165684" x1="109.149" y1="82.62" x2="131.105" y2="104.921" gradientUnits="userSpaceOnUse">
<stop stop-color="#01B4AA"/>
<stop offset="1" stop-color="#ECFFFE"/>
</linearGradient>
<linearGradient id="paint66_linear_2433_165684" x1="103.156" y1="91.469" x2="105.835" y2="95.4782" gradientUnits="userSpaceOnUse">
<stop stop-color="#FF928E"/>
<stop offset="1" stop-color="#FEB3B1"/>
</linearGradient>
<linearGradient id="paint67_linear_2433_165684" x1="108.482" y1="92.1168" x2="105.856" y2="96.0453" gradientUnits="userSpaceOnUse">
<stop stop-color="#FF928E"/>
<stop offset="1" stop-color="#FEB3B1"/>
</linearGradient>
</defs>
</svg>
